<svg id="Layer_1" data-name="Layer 1" xmlns="http://www.w3.org/2000/svg" xmlns:xlink="http://www.w3.org/1999/xlink" viewBox="0 0 385.798 304.231">
  <defs>
    <style>
      .cls-1 {
        fill: url(#linear-gradient);
      }

      .cls-2 {
        fill: url(#linear-gradient-2);
      }

      .cls-3 {
        fill: url(#linear-gradient-3);
      }

      .cls-4 {
        fill: url(#linear-gradient-4);
      }

      .cls-5 {
        fill: url(#linear-gradient-5);
      }

      .cls-6 {
        fill: url(#linear-gradient-6);
      }
    </style>
    <linearGradient id="linear-gradient" x1="353.435" y1="196.358" x2="241.661" y2="84.584" gradientUnits="userSpaceOnUse">
      <stop offset="0" stop-color="#1e8c00"/>
      <stop offset="0.601" stop-color="#80bb47"/>
    </linearGradient>
    <linearGradient id="linear-gradient-2" x1="265.42" y1="299.609" x2="37.716" y2="71.904" xlink:href="#linear-gradient"/>
    <linearGradient id="linear-gradient-3" x1="58.073" y1="257.969" x2="-21.04" y2="178.856" xlink:href="#linear-gradient"/>
    <linearGradient id="linear-gradient-4" x1="343.461" y1="134.678" x2="251.601" y2="42.818" xlink:href="#linear-gradient"/>
    <linearGradient id="linear-gradient-5" x1="278.688" y1="62.547" x2="234.715" y2="18.575" xlink:href="#linear-gradient"/>
    <linearGradient id="linear-gradient-6" x1="360.365" y1="62.59" x2="316.283" y2="18.509" xlink:href="#linear-gradient"/>
  </defs>
  <title>071c2c0e-65a0-4dea-88a2-8469b9bc0ca8</title>
  <g>
    <path class="cls-1" d="M225.066,101.178H370c.05.923.126,1.687.127,2.452.008,16.115.072,32.23,0,48.344-.152,32.223-21.8,59.022-53.611,64.18-17.5,2.839-35.622,3.581-52.449-4.2-24.1-11.136-37.631-30.181-38.936-56.8-.853-17.391-.179-34.858-.183-52.291C224.94,102.366,225.013,101.86,225.066,101.178Z"/>
    <path class="cls-2" d="M.391,157.425c-.121-5.291-.559-10.6-.309-15.87,1.267-26.8,12.494-48.535,33.993-64.628,14.908-11.16,31.867-16.336,50.563-16.188a83.394,83.394,0,0,1,78.607,58.475,81.664,81.664,0,0,1,3.779,24.538c.021,25.583-.042,51.166.035,76.749.059,19.6,8.071,35.395,23.435,47.422,20.161,15.782,49.754,16.086,70.3.818,15.442-11.473,23.54-26.9,24.6-46.074.024-.433.075-.864.135-1.541h24.249c-.432,4.477-.63,8.828-1.3,13.1a83.233,83.233,0,0,1-67.1,68.647c-45.587,8.048-86.592-20.641-96.535-63.453a82.949,82.949,0,0,1-1.941-17.965c-.208-25.489-.023-50.982-.112-76.472-.058-16.81-5.882-31.352-17.96-43.161a57.474,57.474,0,0,0-40.694-16.9,59.382,59.382,0,0,0-58.327,45.783c-.2.843-.468,1.672-.7,2.507-.671.545-1.395,1.038-2.006,1.644Q11.729,146.127.391,157.425Z"/>
    <path class="cls-3" d="M.391,157.425q11.348-11.287,22.7-22.567c.611-.606,1.335-1.1,2.006-1.644-1.982,52-.331,104.017-.87,156.024-.008.782,0,1.564,0,2.573H.134c-.045-.759-.13-1.517-.13-2.275Q0,225.022.016,160.507A24.938,24.938,0,0,1,.391,157.425Z"/>
    <path class="cls-4" d="M298.17,80h19.846q29.311,0,58.623-.006a8.451,8.451,0,0,1,8.331,5.274c1.572,3.47.838,6.7-1.625,9.5-1.931,2.2-4.5,2.788-7.353,2.781q-24.316-.063-48.633-.025-54.285,0-108.571,0c-6.709,0-10.923-5.448-9.016-11.549a8.624,8.624,0,0,1,7.336-5.911c.7-.061,1.4-.057,2.1-.055q37.71.08,75.419.16C295.589,80.17,296.551,80.079,298.17,80Z"/>
    <path class="cls-5" d="M264.9,76.339H248.528c-.072-.8-.2-1.554-.2-2.305q-.015-32.557-.007-65.114A8.291,8.291,0,0,1,253.648.66a7.756,7.756,0,0,1,9.093,2.055,10.086,10.086,0,0,1,2.3,5.632c.156,22.228.1,44.457.087,66.686A8.877,8.877,0,0,1,264.9,76.339Z"/>
    <path class="cls-6" d="M346.6,76.351H330.157a22.241,22.241,0,0,1-.25-2.34q-.02-32.3.006-64.609c.011-5.968,3.56-9.551,8.946-9.282a8.177,8.177,0,0,1,7.6,6.453,15.6,15.6,0,0,1,.29,3.127q.027,32.042.012,64.083C346.76,74.555,346.669,75.327,346.6,76.351Z"/>
  </g>
</svg>
