<svg id="Layer_1" data-name="Layer 1" xmlns="http://www.w3.org/2000/svg" viewBox="0 0 57.897 57.873">
  <defs>
    <style>
      .cls-1 {
        fill: #1f76bb;
      }

      .cls-2 {
        fill: #fff;
      }
    </style>
  </defs>
  <title>4a30733a-80e4-4687-abff-573935f3b995</title>
  <g>
    <path class="cls-1" d="M57.9,32.249c-.464,1.83-.83,3.692-1.408,5.485a28.866,28.866,0,1,1,.937-13.97c.122.659.312,1.3.471,1.957ZM28.931,41.615c4.223-.238,8.566-.4,12.894-.759,2.57-.212,3.864-1.39,4.319-3.848a45.2,45.2,0,0,0,.012-16.2,4.278,4.278,0,0,0-3.975-3.763,43.36,43.36,0,0,0-5.881-.459c-6.783.073-13.571.144-20.346.462-2.66.125-4.111,1.458-4.245,4.106a151.214,151.214,0,0,0,.013,15.61c.142,2.684,1.691,3.876,4.481,4.112C20.394,41.228,24.6,41.374,28.931,41.615Z"/>
    <path class="cls-2" d="M28.931,41.615c-4.328-.242-8.537-.387-12.728-.742-2.789-.236-4.338-1.429-4.481-4.112a151.214,151.214,0,0,1-.013-15.61c.134-2.648,1.585-3.981,4.245-4.106,6.774-.318,13.562-.389,20.346-.462a43.36,43.36,0,0,1,5.881.459,4.278,4.278,0,0,1,3.975,3.763,45.2,45.2,0,0,1-.012,16.2c-.456,2.458-1.749,3.636-4.319,3.848C37.5,41.213,33.155,41.377,28.931,41.615Zm-3.483-7.4L34.6,28.926l-9.151-5.253Z"/>
    <path class="cls-1" d="M25.448,34.215V23.674L34.6,28.926Z"/>
  </g>
</svg>
