<svg id="Layer_1" data-name="Layer 1" xmlns="http://www.w3.org/2000/svg" viewBox="0 0 56.302 56.3">
  <defs>
    <style>
      .cls-1 {
        fill: #1f76bb;
      }

      .cls-2 {
        fill: #fff;
      }
    </style>
  </defs>
  <title>628b9c01-aee5-442b-a245-254ade276ffc</title>
  <g>
    <path class="cls-1" d="M56.3,28.215A28.151,28.151,0,1,1,28.3,0,28.1,28.1,0,0,1,56.3,28.215ZM40.682,40.593c0-3.089.006-5.934,0-8.779,0-.882,0-1.768-.083-2.644-.415-4.354-3.465-6.553-7.687-5.42a16.337,16.337,0,0,0-3.167,1.626c-.495-1.635-2.172-2.046-5.112-1.108V40.561h5.052c0-1.212-.016-2.291,0-3.37.037-2.1,0-4.208.169-6.3a2.693,2.693,0,0,1,3.11-2.747c1.84.095,2.354,1.35,2.441,2.915.056,1.015.066,2.034.07,3.051.01,2.144,0,4.289,0,6.482ZM16.209,24V40.7c1.222,0,2.3-.071,3.363.018,1.316.11,1.788-.357,1.759-1.711-.078-3.588-.026-7.178-.026-10.767,0-1.389,0-2.779,0-4.241Zm5.478-5.376a3.128,3.128,0,0,0-3-3.012,3.008,3.008,0,0,0-3.013,2.954,2.962,2.962,0,0,0,3.06,3.086A3.049,3.049,0,0,0,21.687,18.619Z" transform="translate(0)"/>
    <path class="cls-2" d="M40.682,40.593h-5.2c0-2.193.007-4.338,0-6.482,0-1.017-.014-2.036-.07-3.051-.086-1.566-.6-2.82-2.441-2.915a2.693,2.693,0,0,0-3.11,2.747c-.166,2.091-.132,4.2-.169,6.3-.019,1.079,0,2.158,0,3.37H24.63V24.268c2.941-.937,4.617-.527,5.112,1.108a16.337,16.337,0,0,1,3.167-1.626c4.222-1.133,7.272,1.067,7.687,5.42.084.876.08,1.762.083,2.644C40.688,34.659,40.682,37.5,40.682,40.593Z" transform="translate(0)"/>
    <path class="cls-2" d="M16.209,24h5.1c0,1.462,0,2.851,0,4.241,0,3.589-.052,7.18.026,10.767.029,1.354-.443,1.821-1.759,1.711-1.064-.089-2.141-.018-3.363-.018Z" transform="translate(0)"/>
    <path class="cls-2" d="M21.687,18.619a3.049,3.049,0,0,1-2.957,3.028,2.962,2.962,0,0,1-3.06-3.086,3.008,3.008,0,0,1,3.013-2.954A3.128,3.128,0,0,1,21.687,18.619Z" transform="translate(0)"/>
  </g>
</svg>
