<svg id="Layer_1" data-name="Layer 1" xmlns="http://www.w3.org/2000/svg" viewBox="0 0 276.252 148.059">
  <defs>
    <style>
      .cls-1 {
        fill: #fe6500;
      }

      .cls-2 {
        fill: #07265b;
      }

      .cls-3 {
        fill: #1ca9cb;
      }

      .cls-4 {
        fill: #fecb2e;
      }

      .cls-5 {
        fill: #65b721;
      }

      .cls-6 {
        fill: #f12a91;
      }

      .cls-7 {
        fill: #07275b;
      }
    </style>
  </defs>
  <title>4524c997-5f32-4ff1-82f1-7e20f555d32a</title>
  <g>
    <path class="cls-1" d="M135.5,0c4.852,3.5,6.552,9.062,9.119,14.039a30.589,30.589,0,0,1,2.545,7.367c1.27,5.672-.972,10.342-6.18,12.939a14.651,14.651,0,0,1-15.934-2.015,10.255,10.255,0,0,1-3.38-10.081c1.089-5.705,3.787-10.753,6.524-15.784A19.522,19.522,0,0,1,133.27,0Z"/>
    <path class="cls-2" d="M114.262,102.379a5.872,5.872,0,0,0,1.776-1.753c4.4-4.9,13.539-5.466,18.429-1.1a9.907,9.907,0,0,1,1.777,2.309c.429.713.649.885,1.225.117,4.932-6.584,13.644-6.474,18.989-3.366,3.76,2.187,5.175,5.819,5.247,9.9.143,8.142.048,16.289.037,24.434,0,1.622-.373,1.982-1.969,1.993-2,.015-4,.01-6,0-1.785-.008-2.314-.521-2.318-2.341q-.018-10.472,0-20.944a9.651,9.651,0,0,0-.548-3.561,5.193,5.193,0,0,0-4.69-3.366c-5.611-.412-7.672,2.867-7.832,7.718-.218,6.6-.064,13.216-.073,19.825,0,2.389-.279,2.669-2.624,2.672-1.815,0-3.63.007-5.445,0-1.713-.009-2.239-.508-2.25-2.255-.023-3.677-.006-7.353-.009-11.03,0-3.537.008-7.074-.022-10.611s-1.364-5.5-4.1-6.136a6.929,6.929,0,0,0-8.042,3.511,9.343,9.343,0,0,0-.969,4.314q0,9.774,0,19.547c0,2.264-.411,2.661-2.7,2.663-1.908,0-3.816,0-5.725,0a1.649,1.649,0,0,1-1.877-1.883q.011-16.755,0-33.51c0-1.283.581-1.853,1.886-1.819,1.907.05,3.816,0,5.724.017,1.537.012,2.054.535,2.1,2.115C114.283,100.612,114.262,101.393,114.262,102.379Z"/>
    <path class="cls-3" d="M172.39,30.386c-.632,7.372-1.458,14.771-4.154,21.865-4.384,11.537-19.53,13.311-27.367,5.664-5.106-4.982-5.165-12.275-.168-17.6a67.116,67.116,0,0,1,13.939-10.845,93.88,93.88,0,0,1,8.822-5.071,13.386,13.386,0,0,1,4.094-1.321,3.834,3.834,0,0,1,4.348,2.672A13.019,13.019,0,0,1,172.39,30.386Z"/>
    <path class="cls-3" d="M113.784,76.236c-.121,5.488-4.027,10.314-9.9,12.342-4.647,1.6-9.266.978-13.867-.1a116.276,116.276,0,0,1-22.127-7.915,11.688,11.688,0,0,1-3.246-2.14c-1.593-1.532-1.6-3.212.019-4.709a18.171,18.171,0,0,1,5.529-3.186C77.864,67.312,85.6,64.3,93.878,62.972c6.321-1.014,12.028.088,16.62,4.913A12.077,12.077,0,0,1,113.784,76.236Z"/>
    <path class="cls-3" d="M172.207,62.641a49.675,49.675,0,0,1,10.5,2.033A132.569,132.569,0,0,1,200.448,71.3a13.052,13.052,0,0,1,3.761,2.36c1.834,1.739,1.786,3.447-.163,5.079a18.616,18.616,0,0,1-4.829,2.747c-7.752,3.27-15.579,6.3-23.933,7.715-4.782.807-9.365.424-13.558-2.217-4.084-2.571-6.629-6.2-6.5-11.131.138-5.224,3.08-8.815,7.55-11.229C165.4,63.2,168.262,62.635,172.207,62.641Z"/>
    <path class="cls-3" d="M96.65,29.754a13.593,13.593,0,0,1,.315-3.6,3.959,3.959,0,0,1,4.881-3.04,17.5,17.5,0,0,1,5.54,2.215c6.874,3.92,13.647,7.984,19.439,13.468,2.96,2.8,5.238,5.988,5.193,10.255a12.434,12.434,0,0,1-5.789,10.422c-7.639,5.345-18.467,3.6-23.7-3.892-2.107-3.017-2.988-6.579-3.858-10.1a57.28,57.28,0,0,1-1.342-7.816A77.293,77.293,0,0,1,96.65,29.754Z"/>
    <path class="cls-4" d="M134.008,89.967A16.951,16.951,0,0,1,121.8,84.639a12.217,12.217,0,0,1,.181-17.306,17.9,17.9,0,0,1,25.173.151c5.805,6.1,4.207,15.616-3.345,19.929A18.73,18.73,0,0,1,134.008,89.967Z"/>
    <path class="cls-5" d="M204.7,36.879a14.33,14.33,0,0,1,4.411.446c1.957.662,2.638,1.988,1.893,3.9a9.291,9.291,0,0,1-1.113,2.08c-4.089,5.624-8.55,10.917-14.128,15.145-5.526,4.189-12.029,4.651-17.335,1.323-7.316-4.589-7.044-14.117.532-18.277,3.866-2.123,8.154-2.772,12.42-3.453,2.2-.351,4.417-.583,6.646-.726S202.466,36.867,204.7,36.879Z"/>
    <path class="cls-6" d="M64.785,36.845c7.341.483,14.94.95,22.259,3.325a13.378,13.378,0,0,1,6.812,4.619c3.606,4.788,2.324,11.239-2.893,14.687-5.419,3.582-12.027,3.261-17.681-1.011a68.383,68.383,0,0,1-14.493-15.72,6.8,6.8,0,0,1-.549-.969c-1.134-2.367-.4-3.966,2.133-4.614A18,18,0,0,1,64.785,36.845Z"/>
    <path class="cls-7" d="M268.7,115.275c0,2.792-.011,5.585,0,8.377.012,2.579,1.058,3.638,3.644,3.7q1.325.031,2.652-.018c.8-.03,1.238.285,1.235,1.122,0,1.629.017,3.258-.01,4.886a1.87,1.87,0,0,1-1.914,2c-3.3.162-6.6.352-9.847-.526a7.619,7.619,0,0,1-6.061-7.952q-.011-9.843,0-19.686c0-2.369-.366-2.722-2.771-2.727-.419,0-.838.012-1.256,0-1.647-.064-2.123-.559-2.137-2.221-.007-.838-.015-1.676,0-2.513.034-1.619.39-1.973,1.974-1.993.6-.008,1.211.015,1.815-.007,1.664-.059,2.36-.759,2.37-2.41.015-2.234-.008-4.468.008-6.7.013-1.728.535-2.254,2.245-2.269q2.932-.026,5.864,0c1.6.017,2.164.582,2.181,2.21.024,2.28,0,4.561.011,6.841.011,1.692.556,2.263,2.244,2.324,1.116.04,2.234,0,3.351.015,1.443.023,1.89.47,1.932,1.94.025.884.022,1.769,0,2.653-.036,1.467-.536,2.024-2.012,2.111-1.16.068-2.327,0-3.489.031-1.51.036-2.015.531-2.024,2.027C268.691,109.411,268.7,112.343,268.7,115.275Z"/>
    <path class="cls-2" d="M87.432,104.033a20.743,20.743,0,0,1,3.946-4.513,12.869,12.869,0,0,1,8.247-2.911c1.567.01,2.059.549,2.071,2.138.014,1.908-.035,3.817.016,5.724.034,1.269-.489,1.749-1.753,1.695a20.549,20.549,0,0,0-4.036.1c-5.106.8-7.516,4.544-7.92,9.7-.429,5.481-.131,10.974-.2,16.461-.03,2.274-.215,2.483-2.466,2.485q-2.583,0-5.166,0c-2.319,0-2.518-.2-2.52-2.581q-.008-9.494,0-18.988,0-6.632,0-13.264c0-2.107.259-2.36,2.307-2.365,1.769,0,3.537-.011,5.306,0,1.643.012,2.139.506,2.168,2.183C87.451,101.277,87.432,102.655,87.432,104.033Z"/>
    <path class="cls-2" d="M203.333,110.647q0-10.953,0-21.906c0-2.09.333-2.413,2.436-2.417q2.651-.006,5.3,0c1.94.006,2.376.431,2.377,2.377q.007,15.906,0,31.813,0,6.139,0,12.279c0,1.806-.312,2.111-2.112,2.12-1.86.01-3.721,0-5.581,0-2.249,0-2.422-.181-2.422-2.5Q203.331,121.53,203.333,110.647Z"/>
    <path class="cls-2" d="M35.356,105.048C31.469,96.889,21.976,95,15.208,97.694a11.979,11.979,0,0,0-5.395,4.6,7.462,7.462,0,0,1-.238-2.663c-.053-1.558-.354-1.9-1.9-1.91-1.954-.018-3.909.023-5.863-.013C.5,97.682,0,98.277,0,99.57Q.028,122.883.017,146.2c0,1.531.344,1.843,1.935,1.854,2,.014,4,.008,6,0,1.885-.006,2.172-.29,2.175-2.2.007-4.56,0-9.121.012-13.681a2.117,2.117,0,0,1,.267-1.581,23.327,23.327,0,0,0,3.327,3.168c6.564,4.534,16.866,2.211,21-4.933C39.223,121.071,39.145,113,35.356,105.048Zm-7.613,11.219a15.729,15.729,0,0,1-1.659,7.9c-1.755,3.2-4.568,4.293-8.072,4.07a7.354,7.354,0,0,1-6.7-4.493,18.032,18.032,0,0,1-.066-14.764,7.572,7.572,0,0,1,7.288-4.741,7.852,7.852,0,0,1,7.557,4.554A15.162,15.162,0,0,1,27.743,116.267Z"/>
    <path class="cls-2" d="M252.1,133.4a22.093,22.093,0,0,1-.683-5.935c.036-3.163.01-6.327.01-9.49h-.036v-5.443q0-2.722,0-5.443a8.919,8.919,0,0,0-5.893-8.768c-4.605-1.906-9.43-1.987-14.266-1.549a18.592,18.592,0,0,0-8.057,2.5,11.2,11.2,0,0,0-5.494,7.7c-.3,1.5.082,1.955,1.617,1.964,2.187.014,4.374-.03,6.56.017a1.877,1.877,0,0,0,2.117-1.564,5.112,5.112,0,0,1,3.715-3.646,11.905,11.905,0,0,1,6.33.051,3.725,3.725,0,0,1,2.8,2.477c1.067,3.044-.206,5.359-3.5,5.957-3.7.67-7.445,1.046-11.136,1.737-4.885.914-8.987,3.218-9.871,8.938-.74,4.786,1.39,9.789,5.6,11.565a17.922,17.922,0,0,0,18.581-2.153c.948-.7,1.1-.554,1.336.467.455,2.015.647,2.119,2.751,2.12s4.187-.017,6.281.006C251.933,134.931,252.406,134.577,252.1,133.4Zm-12.255-7.457c-1.787,2.779-4.6,3.2-7.55,3.246a11.954,11.954,0,0,1-2.328-.363,3.828,3.828,0,0,1-3.347-3.276c-.325-1.956-.053-3.8,1.733-5.108a10.551,10.551,0,0,1,4.537-1.667c2.5-.452,5.084-.489,7.463-1.539.606-.267.741.092.746.586.008.743,0,1.486,0,2.357A9.747,9.747,0,0,1,239.84,125.946Z"/>
    <path class="cls-7" d="M74.761,133.416a25.9,25.9,0,0,1-.684-6.772c.042-2.93.01-5.861.01-8.791,0-3.4.007-6.791,0-10.187-.013-5.13-2.172-8.245-7.064-9.778a29.525,29.525,0,0,0-18.111,0c-4.4,1.406-7.62,4.225-8.531,9.069-.3,1.58-.016,1.981,1.534,1.993,2.186.016,4.373-.035,6.558.019a1.951,1.951,0,0,0,2.195-1.658,4.747,4.747,0,0,1,2.871-3.219,10.686,10.686,0,0,1,7.228-.244c2.151.605,2.987,2,2.99,4.452,0,1.919-.831,3.009-2.947,3.69a23.4,23.4,0,0,1-4.36.882,55.358,55.358,0,0,0-9.87,1.662c-4.344,1.355-7.192,4.1-7.624,8.772-.406,4.385.713,8.267,4.717,10.734,5.23,3.223,14.474,2.457,19.242-1.5,1.255-1.042,1.3-1.048,1.6.542.2,1.085.627,1.838,1.864,1.835,2.419-.006,4.837-.009,7.256,0C74.706,134.92,75.025,134.458,74.761,133.416Zm-11.1-10.641c-.864,5.046-4.4,6.546-8.916,6.383a10.713,10.713,0,0,1-1.924-.275c-2.14-.476-3.336-1.615-3.6-3.377-.375-2.5.352-4.238,2.305-5.377a16.147,16.147,0,0,1,6-1.642,18.239,18.239,0,0,0,5.409-1.216c.676-.324.816.072.817.631,0,.79,0,1.58,0,2.37h-.071A15.031,15.031,0,0,1,63.665,122.774Z"/>
    <path class="cls-2" d="M199.919,133.6a31.7,31.7,0,0,1-.734-7.744q.006-9.352,0-18.7a8.9,8.9,0,0,0-5.337-8.586,17.7,17.7,0,0,0-5.329-1.558c-5.174-.738-10.3-.723-15.256,1.159a11.616,11.616,0,0,0-7.772,8.621c-.38,1.683-.016,2.15,1.656,2.16,2.187.012,4.375-.043,6.56.022a1.782,1.782,0,0,0,2.058-1.569,4.977,4.977,0,0,1,3.692-3.646,11.825,11.825,0,0,1,6.2,0,3.968,3.968,0,0,1,3.23,4.159c.064,2.356-.585,3.253-2.962,4.076a10.587,10.587,0,0,1-1.073.3c-3.58.829-7.259.987-10.871,1.629-5.534.984-8.774,3.721-9.8,8.542a10.593,10.593,0,0,0,6.875,12.613c3.99,1.463,8.035,1.162,12.06.04a17.952,17.952,0,0,0,6.143-3.466c.223.844.351,1.482.563,2.09a1.611,1.611,0,0,0,1.688,1.181c2.466-.024,4.932-.02,7.4,0C199.866,134.924,200.142,134.493,199.919,133.6Zm-11.363-9.656a6.974,6.974,0,0,1-6.259,5.126,12.38,12.38,0,0,1-4.668-.256,3.938,3.938,0,0,1-3.23-3.252c-.316-1.946-.088-3.812,1.715-5.111a11.588,11.588,0,0,1,4.805-1.718c2.444-.464,5-.412,7.279-1.619.489-.259.685-.029.686.46q0,1.323,0,2.646A12.369,12.369,0,0,1,188.555,123.942Z"/>
  </g>
</svg>
