<svg id="Layer_1" data-name="Layer 1" xmlns="http://www.w3.org/2000/svg" viewBox="0 0 320.284 115.264">
  <defs>
    <style>
      .cls-1, .cls-4 {
        fill: #23358d;
      }

      .cls-2 {
        fill: #ef5839;
      }

      .cls-3 {
        fill: #fdfdfd;
      }

      .cls-4 {
        opacity: 0.94;
      }
    </style>
  </defs>
  <title>2ca5daca-3ada-42bd-a7f8-df6b16c097b7</title>
  <path class="cls-1" d="M263.465,25.323c-1.685-2.778-1.5-3.066,2.657-4.089,1.789.13,3.607.6,5.3-.447a15.193,15.193,0,0,0,6.9.427l3.325,0c3.467.875,5.64,2.1,1.7,5.379-1.566,1.3-1.555,2.224.754,2.963,2.6.832,4.883,2.1,7.869,2.237,2.255.1,6.364.286,5.8,4.851-.022.175.869.711.987.621,3.333-2.53,5.948-.458,9.091.729,1.67.631,4.35-1.526,6.612-2.313,1.708-.594,3.852-1.632,5.171-.112,1.84,2.121-.608,2.484-1.916,3.3-.315.2-.311,1.32-.1,1.88,1.2,3.141.014,3.5-2.542,2.246a5.023,5.023,0,0,0-4.731.207c-1.851,1.012-3.324,1.057-5-.265-1.535-1.21-3.443-1.116-5.269-.876-2.617.344-4.856.732-6.567-2.4-1.118-2.043-4.155-1.509-6.426-1.743-3.227-.332,2.025,3.868-1.984,3.6-1.722-.114-1.275-4.147-3.08-1.708-1.125,1.52-2.585,1.086-3.662,1.991s-3.206,1.125-.286,2.73c2.194,1.206-.08,3.262-.014,4.829.76,18.14-.908,36.24-.7,54.363.024,2.146,3.889,4.182-.226,6.56-1.743,1.007-1.911,5.476-4.07,4.917-2.9-.749-2.986-5.3-5.8-7.054a.955.955,0,0,1-.1-.911c4.94-7.57,1.377-15.885,1.932-23.816.567-8.108.1-16.308-.265-24.453-.181-4.036,1.109-8.321-1.446-12.106-.142-.211-.017-.646.064-.956.364-1.4,3.674-1.814.361-4.431-4.059-3.205-8.436-4.935-12.3-2.4-3.422,2.24-6.2,3.911-10.334,3.256-1.3-.206-2.8.857-4.516,1.444.166-2.483-1.706-5.234,1.722-6.851,2.44-1.151,4.775-1.458,6.992,1.517-.327-5.379,3.274-6.772,6.943-6.755,2.435.011,4.051-1.106,6.063-1.672,3.936-1.107,2.384-2.822,1.039-4.763l18.619-.82c-5.214-1.065-10.353-1-15.49-1.1A2.763,2.763,0,0,0,263.465,25.323Zm9.685,75.118,1.04-.008V48.793l-1.04.01ZM275.742,50.8V89.339C276.683,76.495,277.056,63.649,275.742,50.8Zm-.9-18.026c.442-.833,2.63.794,2.691-1.925.045-2.012-1.574-2.655-2.12-2.351-1.2.668-3.519-.7-3.7,2.028C271.553,32.867,272.723,33.1,274.845,32.773ZM278.913,38c-3.593-2.429-7.181-2.476-10.7,0Z"/>
  <path class="cls-1" d="M0,85.993c8.606.486,7.474-4.878,7.474-9.558q0-15.473,0-30.946c0-8.1,0-8.1-7.307-11.683H22.529c-8.063,1.04-6.7,7.084-6.731,12.223-.058,11.147.088,22.3-.079,33.441-.055,3.643,1.139,5.256,4.871,4.967,2.481-.193,4.989-.1,7.484-.06,6.243.1,11.513-1.582,14.482-7.668.512-1.05,1.2-2.337,2.582-1.541,1.037.6.221,1.8.065,2.736a9.738,9.738,0,0,1-.324.942c-2.547,9.143-2.547,9.143-12.016,9.142-8.984,0-17.969.041-26.953-.042C4.36,87.934,2.595,88.676,0,85.993Z"/>
  <path class="cls-1" d="M70.4,43.23c1.322.387,1.149,1.155,1.154,1.751a98.037,98.037,0,0,1-.4,11.3c-2.564-6.72-8.037-5.11-12.855-5.238-.661-.018-1.757-.144-1.922.168-2.046,3.854-.614,8.028-.92,12.058-.213,2.8,2.171,2.5,3.887,2.578,6.41.3,12.757.326,16.376-6.509.143-.269.86-.234,1.529-.393-.593,2.615-1.067,5.054-1.716,7.445-.458,1.688-1.787,2.124-3.462,2.116-9.138-.045-18.277-.022-27.9-.392,6.075-1.756,4.737-6.422,4.776-10.478.054-5.659.034-11.319.01-16.978-.022-5.235-.043-5.234-4.571-7.511,1.138-1.552,2.745-.8,4.04-.812,7.823-.082,15.646-.046,23.47-.031,1.286,0,2.9-.315,2.781,1.792-.114,2.079.951,4.346-.518,6.181-.578.722-1.565.1-1.716-.9-.621-4.091-3.59-4.218-6.747-4.075-.5.023-1,0-1.5,0-9.12,0-10.571,1.8-8.8,10.855.16.816.2,1.516,1.148,1.937C60.727,49.945,68.177,47.4,70.4,43.23Z"/>
  <path class="cls-1" d="M100.421,53.186h15.608c-4.006,2.039-5.168,5.308-4.478,9.334a3.979,3.979,0,0,1-2.749,4.651c-7.486,2.828-15.1,3.413-22.426-.46-7.8-4.128-11.04-13.47-8.023-22.294,3.105-9.082,12.016-14.113,22.074-12.7,3.4.478,6.88,3.257,10.247-.242a26.67,26.67,0,0,1,.659,11.776c-1.686.376-1.723-1.125-2.26-2.019-3.29-5.478-7.389-7.57-13.247-6.741-5.656.8-10.388,4.581-11.052,10.335-.754,6.543-1.5,13.441,4.538,18.582,2.736,2.329,11.793,4.032,14.86,2.366,2.527-1.373,2.259-3.815,2.175-6.154C106.213,55.893,106.079,55.722,100.421,53.186Z"/>
  <path class="cls-1" d="M181.4,32.2c-.257,3.566.67,6.717,1.216,9.928.123.724.289,1.759-.857,2.009-1.2.261-1.112-.789-1.48-1.48-3.539-6.63-8.851-9.507-14.763-8.067-5.861,1.427-9.709,6.7-10.1,13.888a20.571,20.571,0,0,0,1.148,9.342c3.958,9.312,12.293,10.525,21.523,5.919,1.393-.695,2.335-2.235,4.963-2.373-2.728,4.788-6.82,6.389-11.189,7.487-10.045,2.525-20.526-3.095-23.115-12.311-3.069-10.928,2.181-20.8,12.808-24.014,3.721-1.125,7.653-.752,11.259-.138A17.208,17.208,0,0,0,181.4,32.2Z"/>
  <path class="cls-1" d="M209.84,32.613h13.006c-7.725,3.712-10.64,11.366-14.777,17.679-2.634,4.019-1.234,9.416-.731,14.195.292,2.78,3.5,1.743,6.026,3.6H194.986c1.734-2.093,5.78-.923,5.448-4.45-.439-4.664,1.595-9.6-1.889-13.946-2.913-3.633-5.476-7.545-8.259-11.285-1.625-2.184-3.289-4.37-6.343-5.013,4.588-1.342,11.7-1.354,17.364-.217-7.016,1.192-4.163,3.966-2.282,6.611,2,2.817,3.983,5.652,6.308,8.956,1.979-3.024,3.533-5.661,5.349-8.1C212.752,37.853,215.79,35.25,209.84,32.613Z"/>
  <path class="cls-2" d="M212.557,75.694H49.24l0-.965H212.6Z"/>
  <path class="cls-2" d="M281.644,21.22l-3.325,0a9.765,9.765,0,0,0,.137-2.924c-.623-2.375-3.287-2.605-4.734-4.157-.24,2.4-3.98,3.589-2.3,6.653-1.69,1.046-3.509.576-5.3.447.208-4.763-.219-9.473,3.563-13.591,1.292-1.407-.561-4.791-1.454-7.643,2.442.627,4.037,4.2,6.861,1.353,1.061-1.071,1.439.687,1.971,1.367a16.391,16.391,0,0,1,3.378,10.189A26.075,26.075,0,0,0,281.644,21.22Z"/>
  <path class="cls-1" d="M294.792,52.849c1.316.28,1.747,1.407,2.241,2.437.9,1.886-.953,2.334-1.875,2.821-.7.37-2.056-.271-1.653,1.322a1.264,1.264,0,0,0,2.023.645c3.055-1.932,2.138.911,1.812,1.729a39.923,39.923,0,0,0-1.219,5.129c-.956,3.714-4.9,5.567-6.376,9.188-.6,1.461-3.417,1.491-4.068.4-.914-1.531,2.014-2,2.066-2.148,1.4-4.051,3.892-7.517,5.824-11.266-4.737-2.733.282-5.529-.035-8.3A1.872,1.872,0,0,1,294.792,52.849Z"/>
  <path class="cls-1" d="M238.922,41.557c.138,1.31-.426,2.045-2.822,1.685-5.7-.856-5.649-.737-8.017-3.919a3.53,3.53,0,0,1-.665-3.646c.734-1.667,2.213-.942,3.461-.593,1.91.534,3.8,1.137,5.718,1.646C238.783,37.31,239.285,38.784,238.922,41.557Z"/>
  <path class="cls-1" d="M256.523,70.222c-2.383,1.188-3.967-1.056-4.3-2.162-1.171-3.95-3.1-8.028-.741-12.281.418-.753.788-1.76,1.637-1.435.957.366,2.417.8,2.08,2.365-1,4.673.876,9.065,1.226,13.6Z"/>
  <path class="cls-1" d="M293.554,47.189c-2.032-.394-3.5-1.76-5.07-2.948l-.107.081c2.675-.71,4.361.285,5.08,2.947Z"/>
  <path class="cls-1" d="M259.758,40.928c1.619-2.518,2.833-1.2,4.41.01C262.577,41.343,261.349,42.059,259.758,40.928Z"/>
  <path class="cls-1" d="M263.485,43.9c-.069.7-.229,1.312-1.041,1.375a1.027,1.027,0,0,1-1.2-1.152,2,2,0,0,1,1.1-1.318C263.248,42.457,263.247,43.392,263.485,43.9Z"/>
  <path class="cls-1" d="M286.584,43.752c-.3.338-.658.937-.819.888a1.926,1.926,0,0,1-1.062-.865c-.094-.178.35-.639.55-.971Z"/>
  <path class="cls-1" d="M259.623,43.606c-1.031,1.4-1.875,2.072-3.154,1.454-.752-.364-.16-.88.039-1.173C257.344,42.656,258.427,43.053,259.623,43.606Z"/>
  <path class="cls-1" d="M293.71,50.553c.183.894-.477,1.056-1.045,1.245-.847.282-1.124-.354-1.155-.951-.041-.78.1-1.607,1.194-1.6C293.592,49.261,293.47,50.065,293.71,50.553Z"/>
  <path class="cls-1" d="M256.43,70.312c1.207-.432,1.9.009,1.893,1.27,0,.27-.611.792-.9.763-1.465-.15-1.222-1.145-.9-2.124Z"/>
  <path class="cls-1" d="M283.283,78.323l-1,.707c-.205-.34-.656-.8-.562-1a1.523,1.523,0,0,1,1.029-.743C283.141,77.24,283.76,77.418,283.283,78.323Z"/>
  <path class="cls-1" d="M288.484,44.241l-.9-.74.722-.232q.035.526.07,1.052Z"/>
  <path class="cls-1" d="M293.458,47.269c.83-.029,1.031.418.866,1.143l.086-.1c-.463-.237-1.349-.15-.856-1.119Z"/>
  <path class="cls-1" d="M294.323,48.412l.8.141c-.567.856-.516-.036-.708-.247Z"/>
  <path class="cls-3" d="M273.15,100.44V48.8l1.04-.01v51.639Z"/>
  <path class="cls-3" d="M275.742,50.8c1.314,12.85.941,25.7,0,38.541Z"/>
  <path class="cls-3" d="M271.421,20.788c-1.678-3.064,2.061-4.253,2.3-6.653,1.447,1.552,4.111,1.782,4.734,4.157a9.765,9.765,0,0,1-.137,2.924A15.193,15.193,0,0,1,271.421,20.788Z"/>
  <path class="cls-3" d="M263.465,25.323a2.763,2.763,0,0,1,3.07-1.981c5.136.1,10.276.036,15.49,1.1l-18.619.82Z"/>
  <path class="cls-3" d="M274.845,32.773c-2.122.33-3.292.094-3.132-2.248.185-2.727,2.5-1.36,3.7-2.028.546-.3,2.165.339,2.12,2.351C277.475,33.567,275.287,31.939,274.845,32.773Z"/>
  <path class="cls-3" d="M278.913,38h-10.7C271.731,35.521,275.32,35.568,278.913,38Z"/>
  <path class="cls-4" d="M137.389,67.913H152.24c-3.313-1.857-4.417-4.973-5.733-7.955Q140.973,47.412,135.363,34.9c-.573-1.275-.771-2.964-2.844-2.964-2.1,0-2.261,1.73-2.81,3-3.3,7.616-6.492,15.283-9.795,22.9-1.6,3.7-2.858,7.677-6.941,9.887a32.825,32.825,0,0,0,11.715.086c-1.418-1.8-4.608-1.374-3.532-4.456,1.33-3.809,2.2-7.831,7.833-6.784,2.091.389,4.316.051,6.479.063,4.755.026,4.339,4.378,5.637,7.081C142.6,66.826,138.686,65.917,137.389,67.913Zm-6.675-14.035c-5.658,0-5.649,0-3.3-5.369,1.044-2.39,2.044-4.8,3.561-8.367,1.464,3.276,2.536,5.654,3.592,8.039C137.086,53.88,137.083,53.882,130.715,53.878Z"/>
</svg>
