<svg id="Layer_1" data-name="Layer 1" xmlns="http://www.w3.org/2000/svg" viewBox="0 0 59.529 59.51">
  <defs>
    <style>
      .cls-1 {
        fill: #fff;
      }

      .cls-2 {
        fill: #1f76bb;
      }
    </style>
  </defs>
  <title>f09336ca-6658-432e-bef6-b5c7531a812c</title>
  <g>
    <g>
      <path class="cls-1" d="M58.713,33.066c-.464,1.83-.83,3.692-1.408,5.485a28.866,28.866,0,1,1,.937-13.97c.122.659.312,1.3.471,1.957Z"/>
      <path class="cls-2" d="M29.772,59.51a30.625,30.625,0,0,1-4.98-.41A29.516,29.516,0,0,1,7.027,48.933,29.716,29.716,0,0,1,25.293.358,29.372,29.372,0,0,1,47.01,5.52,29.756,29.756,0,0,1,59.045,24.433c.078.422.186.84.3,1.283.054.209.109.419.16.629l.023.095v6.728l-.025.1c-.146.575-.282,1.153-.418,1.731-.295,1.252-.6,2.547-1,3.8A29.649,29.649,0,0,1,29.772,59.51Zm0-57.87a27.313,27.313,0,0,0-4.231.33A28.038,28.038,0,0,0,1.632,29.608a28.111,28.111,0,0,0,54.9,8.693c.384-1.194.682-2.456.969-3.677.13-.554.261-1.108.4-1.66V26.636c-.042-.171-.086-.341-.131-.511-.117-.451-.238-.918-.326-1.4A28.364,28.364,0,0,0,29.777,1.64Z"/>
    </g>
    <path class="cls-2" d="M29.747,42.433c-4.328-.242-8.537-.387-12.728-.742-2.789-.236-4.338-1.429-4.481-4.112a151.214,151.214,0,0,1-.013-15.61c.134-2.648,1.585-3.981,4.245-4.106,6.774-.318,13.562-.389,20.346-.462A43.36,43.36,0,0,1,43,17.861a4.278,4.278,0,0,1,3.975,3.763,45.2,45.2,0,0,1-.012,16.2c-.456,2.458-1.749,3.636-4.319,3.848C38.314,42.03,33.97,42.194,29.747,42.433Zm-3.483-7.4,9.151-5.288-9.151-5.253Z"/>
    <path class="cls-1" d="M26.264,35.032V24.491l9.151,5.253Z"/>
  </g>
</svg>
