<svg id="Layer_1" data-name="Layer 1" xmlns="http://www.w3.org/2000/svg" viewBox="0 0 300.133 72.765">
  <defs>
    <style>
      .cls-1 {
        fill: #fe931c;
      }

      .cls-2 {
        fill: #fe921c;
      }

      .cls-3 {
        fill: #fe931d;
      }

      .cls-4 {
        fill: #57565b;
      }

      .cls-5 {
        fill: #59585d;
      }

      .cls-6 {
        fill: #fe941f;
      }

      .cls-7 {
        fill: #58575c;
      }

      .cls-8 {
        fill: #565559;
      }

      .cls-9 {
        fill: #fe9011;
      }

      .cls-10 {
        fill: #5a595e;
      }

      .cls-11 {
        fill: #fe8c00;
      }

      .cls-12 {
        fill: #545359;
      }

      .cls-13 {
        fill: #515156;
      }

      .cls-14 {
        fill: #4a494f;
      }

      .cls-15 {
        fill: #79787c;
      }

      .cls-16 {
        fill: #504f54;
      }

      .cls-17 {
        fill: #fe9100;
      }

      .cls-18 {
        fill: #525156;
      }

      .cls-19 {
        fill: #4e4d52;
      }

      .cls-20 {
        fill: #fe9000;
      }

      .cls-21 {
        fill: #49484e;
      }

      .cls-22 {
        fill: #515055;
      }

      .cls-23 {
        fill: #5c5b60;
      }

      .cls-24 {
        fill: #838285;
      }

      .cls-25 {
        fill: #4f4e53;
      }

      .cls-26 {
        fill: #4e4d53;
      }

      .cls-27 {
        fill: #fe8b00;
      }

      .cls-28 {
        fill: #fe910e;
      }

      .cls-29 {
        fill: #46454b;
      }

      .cls-30 {
        fill: #4d4c51;
      }

      .cls-31 {
        fill: #3d3c42;
      }

      .cls-32 {
        fill: #45444a;
      }

      .cls-33 {
        fill: #fead5d;
      }

      .cls-34 {
        fill: #757478;
      }

      .cls-35 {
        fill: #5d5d61;
      }

      .cls-36 {
        fill: #4b4a50;
      }
    </style>
  </defs>
  <title>a217534b-96e7-48b9-b85c-3e4b7eeafbc5</title>
  <path class="cls-1" d="M6.57,2.8c7.523,3.317,16.258,4.611,22.162,10.705C42.957,28.191,54.4,44.568,57.349,65.577c.448,3.185-1.736,3.583-3.521,4.528-7.688,4.069-7.736,4.052-10.237-4.17-4.271-14.039-12-26.184-20.458-37.982C17.362,19.9,10.73,12.576,4.487,4.923,3.828,2.888,5.542,3.181,6.57,2.8Z" transform="translate(0 0)"/>
  <path class="cls-2" d="M176.629,27.594c1.616.27.4,2.146,1.622,2.724,3.614-3.89,8.23-5.043,13.058-3.225,4.075,1.534,6.347,4.958,6.155,9.6-.822,5.671-.1,11.377-.4,17.057-.078,1.493.8,3.359-1.253,4.313-2.127-.081-4.295.5-6.372-.391-.766-5.133.008-10.357-.372-14.889-.17,4.9.545,10.387-.46,15.883-1.894-4.245-.405-8.71-.829-13.053a49.209,49.209,0,0,1-.06-5.465c.042-2.916-1.238-4.893-4.2-5.149-2.917-.252-4.657,1.527-5.295,4.234-.961,4.08-.366,8.25-.41,12.376-.092,8.668-.028,8.669-8.936,7.134-.581-8.913-.073-17.837-.274-26.753-.069-3.065,1.281-4.129,4.212-3.877C174.071,28.219,175.469,28.544,176.629,27.594Z" transform="translate(0 0)"/>
  <path class="cls-3" d="M43.442,18.511c4.837,2.072,9.688,4.111,14.5,6.238,1.316.582,1.65,2.029,2.227,3.212A219.658,219.658,0,0,1,70.31,53.446c1.1,3.217.452,4.858-2.5,6.19-2.237,1.011-4.3,2.41-6.821,3.854-3.751-16-7.947-31.345-18.727-43.939Z" transform="translate(0 0)"/>
  <path class="cls-3" d="M118.3,58.6c-2.286,1.428-4.787.42-7.182.612-1.556.125-2.425-.594-2.41-2.324.081-9.554.106-19.109.189-28.663,0-.194.472-.384.724-.576a13.355,13.355,0,0,0,7.986.017c1.813.551.122,2.595,1.7,3.378a11.313,11.313,0,0,0,1.994-1.79c1.951-2.729,5.211-3.652,7.4-2.13,2.33,1.621.8,5.253.871,8,.029,1.146-1.155.907-1.938.78-4.252-.687-6.966,1.4-8.923,4.887C117.484,46.7,118.167,52.659,118.3,58.6Z" transform="translate(0 0)"/>
  <path class="cls-1" d="M101.454,16.62q.084,19.468.164,38.936c0,.819.048,1.679-.88,2.123C99,59,96.923,58.5,94.985,58.725A2.619,2.619,0,0,1,91.752,55.9c.085-13.028-.859-26.071.464-39.084C95.272,15.68,98.359,15.947,101.454,16.62Z" transform="translate(0 0)"/>
  <path class="cls-4" d="M278.679,58.807c-3.215,1-6.419.18-9.912.032,3.441-.669,4.065-2.97,4.065-5.68q0-17.391,0-34.782c0-2.86-.508-5.258-4.627-4.965,3.069-1.372,5.18-3.929,8.546-3.274.724,6.973.219,13.929.3,19.674.576-5.634-.535-12.6.479-19.45,2.014,4.269.273,8.816.982,13.162.444,2.723-1.577,5.875,1.358,8.172q.6-.581,1.048.13a9.053,9.053,0,0,0-2.469,7.675c.688,6-1.376,12.2,1.287,18.061A2.068,2.068,0,0,1,278.679,58.807Z" transform="translate(0 0)"/>
  <path class="cls-5" d="M209.283,29.711c-1.789-.58-3.963.78-5.5-1.089a6.674,6.674,0,0,1,4.628-.23c-1.068-1.122-3.141.475-4.552-.733,1.608-1.556,3.774-.225,5.52-1.069,1.292-1.569.864-3.246.31-4.931-.044-5.15,2.439-8.713,6.918-11.025.425.344,1.062.459,1.2,1.112-1.509.987-2.216,2.585-3.091,4.055a21.56,21.56,0,0,0-.094,10.833c2.281.855,4.867-.549,7.06.954-1.686,1.06-3.458.308-5.18.589,1.719-.3,3.493.53,5.17-.6,1.281,1.616.095,1.91-1.144,1.979-1.932.106-3.871.076-5.807.1a98.4,98.4,0,0,0,.1,25.666l1.59,2.564c-3.3,1.9-6.62,1.749-8.916-.407l2.019-4.038C210.388,45.522,210.786,37.607,209.283,29.711Z" transform="translate(0 0)"/>
  <path class="cls-6" d="M67.809,29.216c5.347,2.313,9.694,4.19,14.037,6.077a2.582,2.582,0,0,1,1.693,1.648C84.2,39.2,79.525,49.3,77.287,50.34c-1.945.9-1.765-.905-2.1-1.769C72.842,42.561,70.579,36.518,67.809,29.216Z" transform="translate(0 0)"/>
  <path class="cls-7" d="M290.43,33.9,287.6,30.455c-.861-1.233-3.833-.382-3.123-3.164,6.9-2.8,10.86.184,11.1,8.362-.643,6.24-1.05,12.478.192,18.7.639,2.246,2.279,3.445,4.371,4.57H286.274a5.409,5.409,0,0,0,4.448-4.316c.913-4.925.153-9.9.4-14.831C290.8,37.833,291.879,35.717,290.43,33.9Z" transform="translate(0 0)"/>
  <path class="cls-7" d="M245.752,31.677a5.732,5.732,0,0,1,4.858-5.006,1.229,1.229,0,0,1,0,1.891c-2.941,4.161-2.212,6.979,2.017,9.45,4.437,2.593,9.928,3.988,11.895,9.656a13.784,13.784,0,0,0-.015,5.943,2.213,2.213,0,0,1-1.048,2.038c-2.357,1.324-2.2-.906-2.846-2.01-.794-5.92-6.072-7.4-10.143-9.88a12.677,12.677,0,0,1-4.8-5.139C245.786,36.306,245.618,33.99,245.752,31.677Z" transform="translate(0 0)"/>
  <path class="cls-8" d="M229.383,31.7c-.746-.987-2.918-.47-2.782-2.086.134-1.6,1.806-.838,2.819-1.024,1.582-.29,2.134-2.628,4.133-2.043q.307.333.615.666c1.122,8.988-.114,18.036.669,27.035a5.671,5.671,0,0,1,.263,1.82c-1.407,3.438-3.071,3.391-4.956.37-.039-6.871.038-13.744-.056-20.616C230.069,34.449,230.8,32.862,229.383,31.7Z" transform="translate(0 0)"/>
  <path class="cls-9" d="M92.617,16.65c0,11.755.159,23.513-.091,35.262-.093,4.382.373,7.209,5.737,5.758a9.283,9.283,0,0,1,2.475.009c-2.438,3.1-5.8,1.623-8.547,1.182-2.6-.418-1.3-3.359-1.322-5.132-.122-11.12-.1-22.241-.018-33.362.011-1.535-.814-3.324.788-4.628A2.113,2.113,0,0,1,92.617,16.65Z" transform="translate(0 0)"/>
  <path class="cls-10" d="M223.6,9.69c2.752-.113,4.717,2.783,8.441.6,3.1-1.816,4.641,1.047,2.5,5.123-1.03-.3-1.965.33-2.967.3-4.817,3.757-7.618,1.065-9.954-3.112C220.086,10.148,222.695,10.5,223.6,9.69Z" transform="translate(0 0)"/>
  <path class="cls-11" d="M176.629,27.594c-1.746,2.3-5.7-.436-6.541,2.156-.931,2.858-.316,6.2-.49,9.326-.365,6.551.881,13.161-.721,19.665-1.943-2.27-.809-4.961-.884-7.433-.187-6.14.288-12.315-.173-18.426-.364-4.819,1.48-6.211,5.842-5.526C174.639,27.51,175.639,27.519,176.629,27.594Z" transform="translate(0 0)"/>
  <path class="cls-12" d="M257.615,57.719a1.454,1.454,0,0,1,.894-.3,1.726,1.726,0,0,1,1.367,1.36l-2.148.928a8.41,8.41,0,0,1-5.35.071l-5.528-.888c-2.26-2.2-2.442-5.935-.445-9.11,1,3.487,2.837,6.314,6.2,7.952A6.422,6.422,0,0,0,257.615,57.719Z" transform="translate(0 0)"/>
  <path class="cls-7" d="M234.613,55.647l-.037-1.049c-1.035-7.09-.14-14.221-.464-21.325-.1-2.135.426-4.311-.385-6.4l-.175-.326c3.227-.693,1.867,1.875,1.884,2.98.135,8.7.1,17.411.119,26.117Q235.088,56.34,234.613,55.647Z" transform="translate(0 0)"/>
  <path class="cls-13" d="M234.613,55.647l.942-.005c.675,1.7,2.564,1.78,4.326,3.086a35.382,35.382,0,0,1-11.4.205c-.837.028-1.11-.359-.843-1.144l1.751-1.243q.673-.735,1.216.1C232.365,58.005,233.9,58.464,234.613,55.647Z" transform="translate(0 0)"/>
  <path class="cls-14" d="M214.821,55.323c-.389.371-1.1.436-1.1-.019q-.032-12.267.126-24.535c0-.374.572-.742.877-1.112Q214.772,42.49,214.821,55.323Z" transform="translate(0 0)"/>
  <path class="cls-15" d="M207.5,57.48c2.893,1.879,5.9,1.323,8.916.407,1.607-.219,3.217-.5,4.793.976H203.657C204.66,57.087,206.437,58.147,207.5,57.48Z" transform="translate(0 0)"/>
  <path class="cls-16" d="M209.283,29.711a2.027,2.027,0,0,1,1.28,1.924q.04,11.109.031,22.218c0,.229-.261.457-.4.685l-.68-1.1Q209.4,41.576,209.283,29.711Z" transform="translate(0 0)"/>
  <path class="cls-7" d="M230.608,56.647l-1.216-.1a109.373,109.373,0,0,0-.009-24.849c1.855,1.106,1.2,2.946,1.21,4.508C230.654,43.019,230.612,49.833,230.608,56.647Z" transform="translate(0 0)"/>
  <path class="cls-17" d="M195.619,57.648c2.109-3.484.509-7.3.981-10.937.432-3.326-.871-6.8.864-10.021.058,6.409.148,12.819.149,19.228,0,1.309.588,3.27-2.008,2.859q-.487-.383-.318-.757T195.619,57.648Z" transform="translate(0 0)"/>
  <path class="cls-18" d="M277.527,10.362V31.5l-.779.005q0-10.686,0-21.372A1.913,1.913,0,0,1,277.527,10.362Z" transform="translate(0 0)"/>
  <path class="cls-19" d="M295.762,54.351c-.233.487-.96,1.325-.952,1.086.231-6.595-1.331-13.272.76-19.785Z" transform="translate(0 0)"/>
  <path class="cls-20" d="M118.3,58.6c-1.481-5.934-.526-11.927-.412-17.9,0-.051.264-.151.393-.133a1.444,1.444,0,0,1,.434.222Z" transform="translate(0 0)"/>
  <path class="cls-21" d="M259.791,27.553c1.976-.462,3.165-.041,3.017,2.352-.129,2.078-.027,4.171-.027,6.822a5.026,5.026,0,0,1-2.245-3.963c-.5-.562.308-1.784-.981-1.951l-2.882-2.34C257.127,26.184,258.606,27.366,259.791,27.553Z" transform="translate(0 0)"/>
  <path class="cls-11" d="M188.609,58.664V41.872l1.009-.018V57.632q.806.569,0,1.145Z" transform="translate(0 0)"/>
  <path class="cls-22" d="M291.6,38.625c-.477,5.316,1.033,10.742-.878,15.98l.034-15.977C291.036,38.2,291.317,38.177,291.6,38.625Z" transform="translate(0 0)"/>
  <path class="cls-23" d="M259.791,27.553c-1.048.277-2.3-.137-3.117.92l-6.065.088q0-.945,0-1.891C253.7,26.692,256.891,25.581,259.791,27.553Z" transform="translate(0 0)"/>
  <path class="cls-19" d="M259.876,58.779l-1.367-1.36,2.1-3.782c1.036.547,1.344,2.124,2.846,2.01A5.058,5.058,0,0,1,259.876,58.779Z" transform="translate(0 0)"/>
  <path class="cls-24" d="M246.406,49.781c-1.126,3.1-1.655,6.169.445,9.11-.452.531-1.4,1-1.58.4a17.5,17.5,0,0,1,.008-10.354C245.468,48.324,246.265,49.112,246.406,49.781Z" transform="translate(0 0)"/>
  <path class="cls-25" d="M284.473,27.29c.448,1.64,3.174,1.032,3.123,3.164l-4.9.371a1.429,1.429,0,0,1-1.122-1.2A4.345,4.345,0,0,1,284.473,27.29Z" transform="translate(0 0)"/>
  <path class="cls-26" d="M223.6,9.69c-.615,1-2.144,1.385-1.977,2.917l-3.81-.859-1.2-1.112A8.438,8.438,0,0,1,223.6,9.69Z" transform="translate(0 0)"/>
  <path class="cls-21" d="M214.625,26.636c-1.893-3.53-.895-7.262-.742-10.932,0-.053.272-.148.4-.129a1.436,1.436,0,0,1,.433.229Q214.672,21.219,214.625,26.636Z" transform="translate(0 0)"/>
  <path class="cls-19" d="M245.752,31.677a6.353,6.353,0,0,1-.082,6.942A6.754,6.754,0,0,1,245.752,31.677Z" transform="translate(0 0)"/>
  <path class="cls-11" d="M92.617,16.65l-.978-.91c3.316-.2,6.742-1.627,9.815.88Z" transform="translate(0 0)"/>
  <path class="cls-27" d="M117.6,27.668c-2.667,2.215-5.327,1.121-7.986-.017A23.208,23.208,0,0,1,117.6,27.668Z" transform="translate(0 0)"/>
  <path class="cls-28" d="M6.57,2.8,4.487,4.923,1.257,1.662a2.14,2.14,0,0,1,2.5-.153Z" transform="translate(0 0)"/>
  <path class="cls-19" d="M264.5,53.61a4.8,4.8,0,0,1,.015-5.943A7.084,7.084,0,0,1,264.5,53.61Z" transform="translate(0 0)"/>
  <path class="cls-23" d="M259.555,30.813c.2-.7.267-2.077,1.127-1.6,1.853,1.022.169,2.354-.146,3.554C259.59,32.425,259.568,31.622,259.555,30.813Z" transform="translate(0 0)"/>
  <path class="cls-29" d="M291.6,38.625l-.422,0h-.422L290.43,33.9C293.052,34.922,290.885,37.13,291.6,38.625Z" transform="translate(0 0)"/>
  <path class="cls-30" d="M203.862,27.659c1.584.257,3.271-.42,5.655.963h-5.731Z" transform="translate(0 0)"/>
  <path class="cls-28" d="M189.623,58.776q0-.572,0-1.145l6,.016q-.007.565-.014,1.13A14.438,14.438,0,0,1,189.623,58.776Z" transform="translate(0 0)"/>
  <path class="cls-31" d="M278.679,58.807l1.054-1.244c.853.411,2.8-.448,2.419,1.1C281.918,59.614,279.905,59.108,278.679,58.807Z" transform="translate(0 0)"/>
  <path class="cls-22" d="M209.692,21.66c1.264,1.73,1.58,3.4-.31,4.931Z" transform="translate(0 0)"/>
  <path class="cls-32" d="M281.572,29.622l1.122,1.2-1.779,1-1.048-.13A2.556,2.556,0,0,1,281.572,29.622Z" transform="translate(0 0)"/>
  <path class="cls-33" d="M3.754,1.51l-2.5.153C.442,1.4-.243.209.083.111,1.5-.319,2.694.576,3.754,1.51Z" transform="translate(0 0)"/>
  <path class="cls-19" d="M231.574,15.718c.867-1.3,1.858-1.378,2.967-.3C233.63,16.277,232.677,16.729,231.574,15.718Z" transform="translate(0 0)"/>
  <path class="cls-34" d="M257.615,57.719a3.516,3.516,0,0,1-5.006.014Z" transform="translate(0 0)"/>
  <path class="cls-34" d="M252.378,59.779l5.35-.071A4.879,4.879,0,0,1,252.378,59.779Z" transform="translate(0 0)"/>
  <path class="cls-35" d="M227.642,57.79l.843,1.144c-.873.334-2.072.807-2.411-.274C225.7,57.463,226.97,57.867,227.642,57.79Z" transform="translate(0 0)"/>
  <path class="cls-1" d="M162.717,40.342a15.577,15.577,0,0,0-15.363-13.914c-8.275-.067-14.679,5.81-15.791,14.146-1.109,8.314,3.527,16.7,12.075,18.984a6.054,6.054,0,0,1,6.943.01C159.4,57.516,163.864,50.444,162.717,40.342ZM140.3,44.549a2.348,2.348,0,0,1-.3-2.978C141.162,42.462,140.216,43.53,140.3,44.549ZM152.453,48.6c-1.606,1.944-3.233,4.455-6.059,3.685-3.378-.92-4.741-3.827-4.855-7.257a29.606,29.606,0,0,1-.023-2.973c.231-3.419.713-6.846,4.948-7.454,4.38-.629,5.612,2.507,6.417,5.948a8.276,8.276,0,0,0,.582,1.359h0c.229-.475.9-1.31.9-1.117C154.289,43.511,156.035,46.76,152.453,48.6Z" transform="translate(0 0)"/>
  <path class="cls-18" d="M273.9,54.546V16.934l.369-.006V54.54Z" transform="translate(0 0)"/>
  <path class="cls-18" d="M277.372,35.807V53.541l-.491.007V35.942Z" transform="translate(0 0)"/>
  <path class="cls-36" d="M221.674,27.575c-1.8,1.792-3.9.839-5.951.308l5.961-.294Z" transform="translate(0 0)"/>
  <path class="cls-22" d="M233.728,26.871c1.942,4.385.559,8.986.805,13.477.26,4.737.049,9.5.043,14.251-1.941-3.015-.812-6.361-.9-9.537C233.5,39,233.689,32.935,233.728,26.871Z" transform="translate(0 0)"/>
</svg>
