<svg id="Layer_1" data-name="Layer 1" xmlns="http://www.w3.org/2000/svg" viewBox="0 0 590.157 275.601">
  <defs>
    <style>
      .cls-1 {
        fill: #003768;
      }

      .cls-2 {
        fill: #e11737;
      }

      .cls-3 {
        fill: #063b6b;
      }

      .cls-4 {
        fill: #053b6b;
      }

      .cls-5 {
        fill: #0f4270;
      }

      .cls-6 {
        fill: #083d6c;
      }

      .cls-7 {
        fill: #093e6d;
      }

      .cls-8 {
        fill: #0a3f6e;
      }

      .cls-9 {
        fill: #1c4d78;
      }

      .cls-10 {
        fill: #083d6d;
      }

      .cls-11 {
        fill: #053b6a;
      }

      .cls-12 {
        fill: #013868;
      }

      .cls-13 {
        fill: #295780;
      }

      .cls-14 {
        fill: #22517b;
      }

      .cls-15 {
        fill: #043a6a;
      }

      .cls-16 {
        fill: #2e305e;
      }

      .cls-17 {
        fill: #5d2a54;
      }

      .cls-18 {
        fill: #372f5c;
      }

      .cls-19 {
        fill: #2d315e;
      }

      .cls-20 {
        fill: #063666;
      }

      .cls-21 {
        fill: #6a2851;
      }
    </style>
  </defs>
  <title>9e877022-94ce-406d-98b9-1d5389a6eec4</title>
  <g>
    <path class="cls-1" d="M17.1,84.876c.14-15.581-.05-31.174.5-46.741C18.437,14.205,32.875.312,57.008.223,102.752.054,148.5.364,194.243,0c8.592-.068,12.707,1.206,12.351,11.286-.744,21.054-.124,42.156-.065,63.239-6.086-.677-9.718-5.175-13.378-9.182C167.7,37.477,132.7,31.7,96.725,22.169c3.583,8.952,9.993,8.948,15.279,10.714,3.218,1.075,8,1.317,7.621,5.736-.318,3.759-4.731,4.787-8.046,5.958-4.318,1.525-8.9,1.59-13.381,2.191C79.68,49.25,61.988,54.112,46.379,65.227c16.183-.395,30.969-8.59,47.228-8.034,3.729.58,7.508,1.09,8.838,5.492-4.051,7.1-11.9,6.329-18.216,8.722-15.989,6.057-33.185,9.837-45.1,23.773,17.8-1.841,32.4-14.96,50.956-13.369,2.937.711,5.6,1.772,6.45,5.1-2.275,7.7-9.62,8-15.436,10.356-11.088,4.491-22.064,9.056-29.992,19.007C68.229,114.624,81.8,100,100.052,103.2c2.995,1.051,5.771,2.285,5.23,6.273-7.1,9.15-20.649,9.36-27.118,20.366,22.467-10.462,45.78-13.946,70.117-12.719a74.375,74.375,0,0,1,44.106,17.062c18.692,15.1,17.433,35.711,14.592,56.561-.325,17.049.4,34.2-1.24,51.121-2.069,21.329-16,33.351-37.257,33.472-46.688.267-93.38-.1-140.067.258-8.29.063-11.4-1.946-11.115-10.759.683-21.051.364-42.135.45-63.2,8.493.7,12.64,7.676,17.849,12.8,25.309,24.91,58.488,29.9,92.475,39.069-4.19-9.236-10.875-8.92-16.3-10.887-3.164-1.147-7.629-1.478-6.973-6.241.535-3.886,4.076-5.5,7.662-6.279,6.4-1.4,13.041-.525,19.436-1.987,16.107-3.682,32.095-7.684,45.629-18.71-16.694,2.542-32.505,10-49.692,9.4-4.478-.469-9.249-.315-11.619-5.331,2.931-6.832,9.871-6.025,15.3-7.522,14.537-4.009,28.784-8.657,41.925-16.145,4.06-2.313,9.432-3.409,11.152-10.263-17.8,3.166-32.6,14.222-50.308,14.714-3.746-.416-7.449-.923-9.068-5.1,2.292-6.854,9.042-7.191,14.3-9.5,11.78-5.17,24.157-9.209,33.143-19.8-16.713,2.119-30.985,13.535-48.291,13.15-3.813-.76-7.9-1.186-8.142-6.436,7.951-9.81,23.266-8.475,32.371-21.7-12.078,3.156-21.088,7.574-30.665,9.857-24.29,5.788-48.457,7.136-71.832-4.062C19.451,137.909,8.941,114.021,17.1,84.876Z" transform="translate(0)"/>
    <path class="cls-2" d="M89.226,84.819c-15.8,1.23-29.519,8.631-43.767,14.562-4.09,1.7-9.425,6.65-12.886-.323-2.968-5.98,2.248-8.865,6.5-11.61,19.109-12.334,40.278-19.312,62.336-23.98.507-1.032,3.366-1.643,1.674-2.791-3.236-2.2-7.095-1.944-10.724-.279C78.222,61.377,64.988,66,51.718,70.483c-4.511,1.523-10.105,5.634-12.8-1.167-2.439-6.156,3.9-8.661,8.118-10.838a155.425,155.425,0,0,1,57.517-16.489c4.746-.441,9.994-.021,14.371-3.993-8.324-2.617-17.7-1.113-24.224-7.671-2.814-2.829-5.557-6.5-3.751-10.716,2.533-5.908,6.972-1.8,10.3-.872,16.892,4.73,33.885,9.227,50.466,14.907,22.491,7.7,40.148,22.407,54.818,40.875,18.454,32.172,23,65.7,9.375,100.773-2.129,5.481-5.909,10.321-8.925,15.457-2.7-4.138-1.484-8.783-1.567-13.207-.613-32.858-19-52.964-52.087-56.507A125.463,125.463,0,0,0,83.13,133.24c-4.6,2.265-10.707,7.241-14.251.1-3.318-6.692,3.827-9.637,8.412-12.021,8.869-4.611,18.183-8.364,27.313-12.473a13.382,13.382,0,0,1,8.586-3.873c-4.433,1.625-9.933-1.51-15.2.681-14.794,1.514-27.626,8.282-40.533,14.953-4.154,2.147-9.225,6.6-12.777-.247-3.12-6.018,2.145-8.807,6.237-11.762C64.5,98.786,80.331,93.8,95.592,87.578c2.2-1.973,4.645-3.384,6.443-3.422C98.708,86.585,93.768,81.41,89.226,84.819Z" transform="translate(0)"/>
    <path class="cls-2" d="M129.268,215.463c15.171-1.04,29.47-5.66,43.64-10.741,4.261-1.528,9.429-4.37,12.092.651,3.306,6.235-2.982,8.755-7.155,11.019-17.4,9.44-36.128,14.672-55.76,16.834a65.443,65.443,0,0,0-15.917,3.263c6.69,3.384,14.355,2.5,20.479,6.454,4.5,2.9,8.044,7.232,6.4,12.446-2.267,7.205-7.675,2.009-11.249,1.063-15.481-4.1-30.9-8.483-46.163-13.337-23.709-7.541-42.1-22.744-57.89-41.477C-.156,169.713-6.317,136.6,7.706,101.49c2.374-5.944,4.395-12.135,9.4-16.614,4.39,58.426,37.025,81.407,95.327,67.328A157.853,157.853,0,0,0,144.7,140.361c3.639-1.776,8.2-3.02,10.706,1.326,2.527,4.382-.849,7.458-4.274,9.865-10.354,7.276-22.041,11.669-33.955,15.555-1.075.935-3.01,1.474-3.249,2.543-.232,1.034,1.768.628,2.74.865,3.25.792,6.544,1.187,9.649-.647,14.723-1.927,27.78-8.3,40.647-15.2,3.957-2.122,8.518-5.373,12.038-.311,4.027,5.789-.768,9.069-5.029,12.015-14.636,10.118-31.041,16.358-47.813,21.791a14.476,14.476,0,0,1-7.774,3.655c4.611-2.442,11.05,2.732,16.858-.925,14.588-1.818,27.6-8.3,41.035-13.617,4.9-1.941,11.328-8.816,15.308-.34,3.536,7.53-4.853,10.031-9.54,12.836a172.793,172.793,0,0,1-64.562,22.693C118.977,217.08,119.648,217.251,129.268,215.463Z" transform="translate(0)"/>
    <path class="cls-3" d="M377.318,189.332c-.006-27.092.89-27.887,28.232-22.8,2.678.5,4.778-.044,7.189-.592,20.688-4.7,27.935.724,26.963,22.338-.347,7.726,6.114,21.889-4.814,22.186-8.861.241-2.355-14.048-3.873-21.7-1.292-6.515,1.838-15.44-8.933-15.654s-8.028,8.541-9.362,15.163c-1.576,7.823,5.95,21.843-4.846,22.15-8.557.243-1.9-14.182-3.817-21.822-.833-3.324.139-7.089-.629-10.443-1.09-4.765-5.264-5.361-9.459-5.542-5.131-.221-7.249,2.35-7.232,7.248.028,8.026.073,16.055-.09,24.079-.066,3.234,1.094,7.587-4.352,7.764-5.264.171-4.952-3.778-4.965-7.327C377.311,199.366,377.324,194.349,377.318,189.332Z" transform="translate(0)"/>
    <path class="cls-4" d="M440.309,101.9c0-27.761.547-28.3,27.895-23.185,3.246.607,5.762-.285,8.658-.984,17.913-4.328,25.823,1.647,26.248,19.705q.213,9.036-.023,18.08c-.1,3.718,1.352,8.823-5.147,8.55-5.513-.232-3.987-4.79-4.085-7.937-.219-7.025-.044-14.062-.12-21.093-.064-5.849-2.6-9.746-8.906-9.723-6.194.023-8.83,3.429-8.659,9.624.222,8.029.039,16.071,0,24.107-.015,2.692-.755,4.788-4,5.117-4.189.425-5.088-1.986-5.081-5.416.014-7.032-.266-14.075.052-21.092.346-7.636-1.5-12.844-10.5-12.732-9.094.113-6.814,6.8-7,11.875-.236,6.521.085,13.062-.126,19.585-.1,3.137,1.393,7.526-4.221,7.788-5.45.255-4.952-3.694-4.974-7.2C440.291,111.948,440.314,106.926,440.309,101.9Z" transform="translate(0)"/>
    <path class="cls-4" d="M411.609,124.8c-7.4.3-14.047-1.708-19.306-6.884-2.183-2.149-6.555-4.534-3.165-8.474,2.546-2.959,5.829-3.231,8.889.415,4.254,5.069,10.213,5.968,16.426,5.36,5.308-.52,9.988-2.353,10.868-8.413.913-6.288-3.088-8.91-8.479-10.365-5.789-1.563-11.616-3.079-17.242-5.123-6.62-2.406-10.867-6.944-11.033-14.506-.176-8.033,3.861-13.233,10.869-16.392,10.462-4.717,20.536-3.892,29.723,3.04,2.857,2.156,7.738,4.765,4.485,9.232-3.075,4.222-6.343,2.074-9.8-1.312-4.492-4.4-10.707-5.566-16.872-3.948-4.429,1.163-8.695,3.312-8.869,8.834-.163,5.163,4.172,6.486,7.877,7.762a93.08,93.08,0,0,0,11.672,2.761c11.811,2.418,19.614,8.427,17.4,21.643C432.878,121.416,422.856,124.285,411.609,124.8Z" transform="translate(0)"/>
    <path class="cls-5" d="M290.79,178.3q0-1.5,0-3.006c0-30.53,5.348-34.763,36.452-29.155,3.139.566,6.08.885,6.3,4.785.226,3.964-2.558,5.075-5.8,5.182-5,.166-10.024.274-15.024.073-6.926-.278-12.329-.52-12.3,9.646.029,9.455,4,10.959,11.68,10.092a81.912,81.912,0,0,1,9.01-.034c3.793-.006,7.213.521,6.761,5.559-.384,4.283-3.828,3.811-6.713,4a25.165,25.165,0,0,1-6,0c-12.247-2.2-15.818,3.386-14.628,14.865.414,3.995,3.277,11.493-5.214,11.162-7.005-.273-4.19-6.737-4.41-10.639C290.491,193.342,290.79,185.811,290.79,178.3Z" transform="translate(0)"/>
    <path class="cls-6" d="M551.974,90.648c0-8.051-.113-16.1.054-24.152.068-3.241-1.062-7.665,4.32-7.909s5.059,4.045,4.815,7.4c-.514,7.075.584,10.809,9.536,10.131,12.948-.981,19.263,6.71,19.407,19.483.08,7.044.053,14.09,0,21.134-.028,3.55.141,7.514-5.134,7.186-4.287-.266-3.974-3.753-4.016-6.7-.092-6.54-.154-13.084-.037-19.624.138-7.657-2.29-12.455-11.089-12.61-9.495-.167-8.653,6.059-8.589,12.216.068,6.541.108,13.085-.038,19.624-.074,3.3.9,7.593-4.818,7.277-5.522-.305-4.3-4.581-4.355-7.8C551.871,107.759,551.975,99.2,551.974,90.648Z" transform="translate(0)"/>
    <path class="cls-7" d="M278.78,90.158c.01-8.056-.09-16.115.058-24.168.063-3.421-.228-7.693,5.144-7.2,3.951.361,4.584,3.754,4.159,6.768-1.221,8.662,2.228,10.751,10.75,10.6,11.167-.195,17.538,6.4,17.515,18.122-.014,7.049.225,14.109-.09,21.144-.154,3.45,2.077,9.115-4.837,8.574-6.418-.5-3.895-5.914-4.139-9.384a136.612,136.612,0,0,1-.051-16.606c.394-7.6-1.536-12.66-10.449-13-9.672-.369-8.561,6.154-8.575,12.194s.114,12.088-.052,18.126c-.1,3.758,1.158,8.9-5.235,8.569-5.319-.273-4.087-4.832-4.152-8.061C278.657,107.281,278.77,98.718,278.78,90.158Z" transform="translate(0)"/>
    <path class="cls-8" d="M246.008,95.651c-.009-4.529-.417-9.1.075-13.579,1.063-9.667-1.153-15.7-12.683-14.093-3.076.428-7.555,1.357-7.764-4.283-.19-5.135,3.367-5.309,7.075-5.3q18.118.027,36.235.022c3.773,0,7.662.785,7.445,5.3-.233,4.858-4.9,4.739-8.13,4.259-11.413-1.7-13.369,4.022-12.742,13.82.738,11.528.214,23.14.135,34.714-.023,3.381.716,7.472-4.675,7.622-5.446.151-4.891-3.909-4.937-7.338C245.952,109.743,246.017,102.7,246.008,95.651Z" transform="translate(0)"/>
    <path class="cls-9" d="M525.622,85.771c0-7.039-.076-14.08.034-21.118.05-3.194.969-6.064,4.941-6.153,3-.067,5.843,2.761,4.627,4.4-7.438,10.031,16.493,11.953,5.561,21.954-7.392,6.763-7.605,24.7,1.05,30.165,3.368,2.128,6.722,3.521,4.467,7.357-2.064,3.511-6.351,2.076-9.644.962-7.056-2.388-10.32-7.984-10.754-14.953-.469-7.511-.106-15.074-.106-22.614Z" transform="translate(0)"/>
    <path class="cls-10" d="M471.355,147.029c5.318.007,4.961,3.871,4.972,7.391.035,11.06-.12,22.122.077,33.178.1,5.718-1.906,12.34,6.03,15.275,3.58,1.324,3.5,4.731,1.72,7.411-1.687,2.535-4.526,1.446-6.828.57-6.2-2.363-9.966-6.768-10.031-13.584-.138-14.577-.11-29.156-.085-43.734C467.215,150.576,466.933,147.248,471.355,147.029Z" transform="translate(0)"/>
    <path class="cls-11" d="M518.9,101.982c-2.572,6.267,4.57,20.918-3.775,20.726-11.377-.262-3.5-14.284-5.164-22.08-1.331-6.257-.228-13.029-.241-19.572-.007-3.63,1.472-5.553,5.377-5.238,3.432.277,3.756,2.687,3.782,5.235C518.943,87.6,518.9,94.139,518.9,101.982Z" transform="translate(0)"/>
    <path class="cls-12" d="M449.209,186.065c0-5.527-.048-11.055.014-16.581.034-3-.095-6.084,4.348-6.234,4.46-.15,4.662,2.784,4.669,5.917.028,12.059.051,24.118-.021,36.177-.018,2.945.114,6.122-4.331,6.277-4.477.156-4.613-2.9-4.651-5.961C449.157,199.13,449.213,192.6,449.209,186.065Z" transform="translate(0)"/>
    <path class="cls-13" d="M514.588,57.742c3.627.163,5.5,2.378,5.4,5.69-.117,4-2.419,6.663-6.68,6.067-3.46-.484-4.865-3.375-4.6-6.575C508.973,59.62,510.872,57.484,514.588,57.742Z" transform="translate(0)"/>
    <path class="cls-14" d="M459.328,150.264c-.67,4.116-1.931,6.743-5.589,6.713-4.395-.036-6.135-3.141-5.8-6.868.284-3.161,2.622-4.948,6.178-4.824C458.136,145.425,458.424,148.44,459.328,150.264Z" transform="translate(0)"/>
    <path class="cls-15" d="M527.845,169.579c0-3.01.038-6.051-4.364-6.227-4.364-.174-4.789,2.567-4.8,5.8-.016,7.027-.058,14.055-.008,21.082.043,6.079,1.052,12.416-8.348,12.529-9.325.112-12.374-4.676-12.115-13.178.215-7.02.039-14.053-.027-21.08-.025-2.682-.785-4.917-4.067-5.016-2.776-.084-5.424.848-5.089,3.919,1.563,14.327-6.083,30.509,8.284,42.318,5.208,3.179,12.748.08,17.6,5.844-7.668,6.566-13.861-.2-20.4-.68-.613,2.155-4.173,3.8-1.678,6.453,6.207,6.593,14.291,7.131,22.328,5.3,7.486-1.7,12.364-6.851,12.53-14.9C527.983,197.692,527.852,183.634,527.845,169.579Z" transform="translate(0)"/>
    <path class="cls-16" d="M135.246,190.9c-7.134,4.6-14.825,2.82-22.491,2.435,3.922-3.7,8.453-5.035,13.407-5.165C128.46,191.5,132.169,190.15,135.246,190.9Z" transform="translate(0)"/>
    <path class="cls-17" d="M92.361,60.4c6.193-3.924,12.718-2.977,19.528-1.625-1.563,6.648-6.441,4.689-10.478,4.7C99.283,59.822,95.312,61.613,92.361,60.4Z" transform="translate(0)"/>
    <path class="cls-18" d="M126.32,169.868c-5.738,4.152-12.214,3.047-19.117,2.884,1.5-5.895,6.179-4.994,9.977-5.646C119.5,170.428,123.257,169,126.32,169.868Z" transform="translate(0)"/>
    <path class="cls-19" d="M97.987,105.65c5.847-3.9,12.242-3.18,20.545-2.431-4.933,4.155-9.1,5.63-13.926,5.623Z" transform="translate(0)"/>
    <path class="cls-20" d="M89.226,84.819c6.141-3.9,12.7-3.535,20.208-2.053-4.473,3.619-9.056,4.5-13.842,4.812Z" transform="translate(0)"/>
    <path class="cls-21" d="M129.268,215.463c-4.771,3.554-10.118,2.7-15.366,1.757-.688-.123-1.729-2.365-1.421-3.173.859-2.249,3.082-1.778,5.006-1.582C120.692,216.306,125.486,213.9,129.268,215.463Z" transform="translate(0)"/>
    <path class="cls-6" d="M348.719,76.132c-16.107-5.5-26.521,3.616-26.566,23.236-.045,19.491,7.045,27.479,22.428,25.174,6.275-.94,14.428-4.229,13.061-9.845-2.2-9.037-8.216-1.463-12.649.22a12.79,12.79,0,0,1-4.464.544c-4.445,0-8.436-1.542-8.628-6.424-.215-5.474,4.628-3.9,7.812-4.217,1.994-.2,4.1.3,6.023-.111,5.107-1.085,13.233,3.719,13.947-6.375C360.345,88.962,359.726,79.888,348.719,76.132Zm-6.945,21.122c-4.379-1.294-10.61,2.246-10.235-5.54.27-5.6,4.3-7.206,9.147-7.377,5.507-.195,10.136,1.582,10.258,7.79C351.1,99.986,344.21,95.026,341.774,97.255Z" transform="translate(0)"/>
    <path class="cls-3" d="M368.894,196.93c-.311-5.006.13-10.057-.106-15.071-.783-16.641-15.452-24.325-29.75-15.981-5.263,3.071-6.476,5.9-1.671,10.188,1.814-.783,3.649-1.522,5.439-2.357,4.768-2.224,9.64-2.857,14.089.321,1.221.872,2.318,4.2,1.688,5-3.342,4.292-8.261.077-12.361,1.689-1.773.7-3.922.438-5.9.614-7.33,4.321-10.988,10.78-8.508,18.986,4.021,13.306,15.015,12.244,25.94,11.89C368.737,211.855,369.409,205.225,368.894,196.93Zm-18.531,7.731c-4.172-.4-9.739-1.436-9.9-8.72-.136-6.066,4.84-7,9.312-7.245,5.221-.287,9.886.605,9.953,7.788C359.778,202.174,357.468,204.775,350.363,204.661Z" transform="translate(0)"/>
  </g>
</svg>
