<svg id="Layer_1" data-name="Layer 1" xmlns="http://www.w3.org/2000/svg" viewBox="0 0 56.311 56.3">
  <defs>
    <style>
      .cls-1 {
        fill: #1f76bb;
      }

      .cls-2 {
        fill: #fff;
      }
    </style>
  </defs>
  <title>ecca2b5d-28f3-480e-92ec-01e660054748</title>
  <g>
    <path class="cls-1" d="M56.31,28.2A28.155,28.155,0,1,1,28.475,0,28.13,28.13,0,0,1,56.31,28.2Zm-15.71.093c0-1.9.094-3.805-.02-5.7-.235-3.929-2.386-6.466-6.27-6.738a88.427,88.427,0,0,0-12.389.016c-3.771.267-6,2.819-6.142,6.617-.141,3.726-.14,7.465-.009,11.192.143,4.06,2.594,6.605,6.646,6.8,3.789.18,7.6.181,11.388.01,4.161-.189,6.552-2.724,6.784-6.9C40.686,31.825,40.6,30.056,40.6,28.292Z"/>
    <path class="cls-2" d="M40.6,28.292c0,1.764.083,3.533-.014,5.291-.232,4.181-2.623,6.716-6.784,6.9-3.789.172-7.6.17-11.388-.01-4.052-.192-6.5-2.737-6.646-6.8-.131-3.727-.132-7.466.009-11.192.144-3.8,2.372-6.35,6.142-6.617a88.427,88.427,0,0,1,12.389-.016c3.884.272,6.035,2.809,6.27,6.738C40.694,24.487,40.6,26.393,40.6,28.292ZM28.236,18.012v-.035q-2.442,0-4.884,0c-.2,0-.407.009-.61.025-2.844.227-4.472,1.607-4.611,4.426-.182,3.718-.2,7.457-.033,11.176.137,3.024,1.619,4.509,4.6,4.648,3.654.17,7.328.172,10.982,0,2.944-.14,4.461-1.758,4.557-4.7.119-3.657.122-7.324-.01-10.981-.1-2.81-1.7-4.351-4.5-4.536C31.9,17.914,30.067,18.012,28.236,18.012Z"/>
    <path class="cls-1" d="M28.236,18.012c1.831,0,3.669-.1,5.492.023,2.8.185,4.4,1.726,4.5,4.536.132,3.656.129,7.324.01,10.981-.1,2.941-1.613,4.559-4.557,4.7-3.654.174-7.328.172-10.982,0-2.98-.139-4.461-1.624-4.6-4.648-.169-3.718-.149-7.457.033-11.176.138-2.819,1.767-4.2,4.611-4.426.2-.016.407-.025.61-.025q2.442,0,4.884,0Zm6.338,10.079a6.4,6.4,0,1,0-6.414,6.5A6.405,6.405,0,0,0,34.573,28.091Zm2.363-6.624c-.928-.683-1.534-1.46-1.979-1.377-.6.113-1.087.884-1.621,1.373.534.487,1.015,1.256,1.618,1.369C35.4,22.915,36.006,22.145,36.936,21.467Z"/>
    <path class="cls-2" d="M34.573,28.091a6.4,6.4,0,1,1-6.5-6.4A6.415,6.415,0,0,1,34.573,28.091Zm-2.26-.05a4.154,4.154,0,0,0-8.306.2,4.154,4.154,0,0,0,8.306-.2Z"/>
    <path class="cls-2" d="M36.936,21.467c-.93.678-1.536,1.448-1.982,1.365-.6-.113-1.085-.882-1.618-1.369.535-.489,1.016-1.26,1.621-1.373C35.4,20.007,36.008,20.783,36.936,21.467Z"/>
    <path class="cls-1" d="M32.314,28.04a4.154,4.154,0,1,1-4.253-4.009A4.18,4.18,0,0,1,32.314,28.04Z"/>
  </g>
</svg>
