<svg id="Layer_1" data-name="Layer 1" xmlns="http://www.w3.org/2000/svg" viewBox="0 0 247.842 21.949">
  <defs>
    <style>
      .cls-1 {
        fill: #f37d31;
      }

      .cls-2 {
        fill: #fbd8c1;
      }
    </style>
  </defs>
  <title>32bf9d82-b3bb-4a02-8d05-6f4e8b6ca743</title>
  <g>
    <path class="cls-1" d="M107.436,7.528c4.413-4.571,12.958-3.837,15.668.258,3.41-3.6,7.648-3.94,12.145-2.956a5.268,5.268,0,0,1,4.48,5.129c.358,3.574.078,7.165.15,10.747.008.38.034.814-.512.823-1.084.018-2.173.053-3.253-.022-.731-.05-.452-.716-.459-1.124-.054-3.159.074-6.329-.149-9.475-.248-3.5-1.951-4.933-5.406-5-3.508-.067-5.873,1.744-6.3,4.976a64.545,64.545,0,0,0-.135,9.046c.01,1.259-.273,1.7-1.612,1.647-2.656-.11-2.659-.028-2.659-2.69,0-2.406.007-4.812,0-7.218-.012-3.583-1.383-5.4-4.3-5.739-3.783-.434-6.739,1.425-7.451,4.717a8.978,8.978,0,0,0-.184,1.821c-.019,2.642,0,5.284-.018,7.926,0,.383.222,1.029-.331,1.08a26.6,26.6,0,0,1-3.529.017c-.458-.019-.366-.477-.366-.789q-.007-7.572,0-15.145c0-.316-.074-.774.368-.793,1.174-.05,2.354-.041,3.529,0,.352.013.329.4.332.676C107.441,6.044,107.436,6.645,107.436,7.528Z" transform="translate(0 0)"/>
    <path class="cls-1" d="M4.291,7.442c3.484-3.3,7.5-3.685,11.755-2.93,3.3.586,5.047,2.557,5.153,5.94s.018,6.793.046,10.19c.005.657-.19.878-.874.921-3.38.212-3.378.234-3.378-3.075,0-2.312.03-4.624-.01-6.935-.062-3.544-1.49-5.059-4.964-5.441A11.13,11.13,0,0,0,8.642,6.3c-2.686.527-4.231,2.358-4.358,5.328-.121,2.826-.1,5.661-.05,8.49.017,1.04-.154,1.494-1.361,1.461C.024,21.5.023,21.569.023,18.679c0-4.246.03-8.493-.022-12.739C-.012,4.947.28,4.544,1.265,4.7a1.772,1.772,0,0,0,.283,0C4.107,4.7,4.107,4.7,4.291,7.442Z" transform="translate(0 0)"/>
    <path class="cls-1" d="M44.929,18.825c-3.989,3.512-8.473,3.629-13.1,2.232-2.575-.777-3.6-2.95-3.663-5.5-.086-3.3-.016-6.6-.042-9.9-.005-.65.184-.884.872-.929,3.326-.22,3.324-.243,3.325,3.123,0,2.263-.033,4.528.017,6.79.076,3.4,1.837,5.225,5.226,5.428a12.324,12.324,0,0,0,2.817-.1c3.038-.526,4.587-2.36,4.636-5.473.045-2.829.05-5.659-.009-8.487-.02-.962.214-1.3,1.238-1.288,2.888.029,2.888-.02,2.888,2.817,0,4.15-.063,8.3.036,12.448.033,1.363-.427,1.638-1.665,1.592C45.171,21.489,45.169,21.554,44.929,18.825Z" transform="translate(0 0)"/>
    <path class="cls-1" d="M227.915,18.275c.773-.2,1.039.21,1.38.418a13.325,13.325,0,0,0,10.2,1.686A5.718,5.718,0,0,0,240.7,20c1.145-.545,2.493-1.007,2.42-2.6s-1.443-2.033-2.663-2.33c-2.057-.5-4.162-.809-6.245-1.2a12.514,12.514,0,0,1-3.629-1.14,3.291,3.291,0,0,1-.807-5.621,5.927,5.927,0,0,1,1.595-1.153,15.7,15.7,0,0,1,11.836-.7,4.786,4.786,0,0,1,2.411,1.661c.191.254.478.573.184.872s-.589.02-.844-.2c-2.682-2.266-5.777-2.328-8.966-1.569-1.285.306-2.7.809-2.774,2.418-.079,1.675,1.365,2.172,2.633,2.5,2.278.59,4.6,1,6.905,1.5a11.716,11.716,0,0,1,2.943.981c2.441,1.257,2.838,3.562.964,5.58a6.648,6.648,0,0,1-2.846,1.8,18.427,18.427,0,0,1-12.875-.187A5.7,5.7,0,0,1,227.915,18.275Z" transform="translate(0 0)"/>
    <path class="cls-1" d="M223.4,18.551a6.523,6.523,0,0,1-3.72,2.561A18,18,0,0,1,206.345,20,7.454,7.454,0,0,1,202,13.946c-.35-3.413,1.246-5.819,4.148-7.395,3.841-2.085,8.01-2.283,12.247-1.892a16.632,16.632,0,0,1,4.4.985c.283.108.81.141.65.55a7.056,7.056,0,0,1-1.112,1.932c-.274.329-.545-.173-.782-.361a10.76,10.76,0,0,0-12.077-.417,6.956,6.956,0,0,0,.777,11.881,11.62,11.62,0,0,0,11.007.182c.636-.3,1.249-.643,1.876-.961C223.16,18.435,223.214,18.477,223.4,18.551Z" transform="translate(0 0)"/>
    <path class="cls-1" d="M56.488,9.11c0-2.641.029-5.282-.017-7.922-.014-.84.209-1.144,1.1-1.163,3.1-.066,3.091-.1,3.105,2.944.009,1.96-.326,1.752,1.833,1.773.8.008,1.607-.044,2.4.018.474.037,1.254-.376,1.292.588s-.744.64-1.229.661c-1.036.043-2.076.053-3.111,0-.88-.044-1.239.19-1.218,1.177.067,3.111,0,6.224.028,9.336.032,3.039,1.6,4.4,4.6,4.073.327-.035.65-.115.977-.158.229-.03.492-.071.578.229a.453.453,0,0,1-.381.625c-2.742.606-5.508,1.071-8.127-.361-1.609-.88-1.828-2.535-1.844-4.182-.025-2.546-.007-5.092-.007-7.639Z" transform="translate(0 0)"/>
    <path class="cls-1" d="M174.255,9.308c0-2.736.026-5.472-.016-8.207-.012-.783.2-1.05,1.019-1.074,3.184-.092,3.252-.121,3.154,3.016-.042,1.329.256,1.9,1.678,1.726a27.852,27.852,0,0,1,3.11-.024c.437,0,.712.107.711.629s-.256.648-.7.647c-1.226,0-2.455.05-3.678-.014-.891-.047-1.116.3-1.1,1.142.041,3.16-.018,6.321.023,9.48.038,2.982,1.568,4.292,4.526,3.967.327-.036.65-.117.977-.158.278-.034.594-.082.66.312a.438.438,0,0,1-.369.518c-2.834.634-5.7,1.151-8.372-.459-1.338-.805-1.62-2.25-1.627-3.719-.013-2.594,0-5.188,0-7.783Z" transform="translate(0 0)"/>
    <path class="cls-1" d="M76.8,7.641c1.869-1.834,3.945-3.2,6.712-3.144.944.018,1.332.155,1.063,1.3-.3,1.287-.541,1.75-2.113,1.419-3.154-.662-6.242,1.213-6.065,4.975.129,2.729-.016,5.469.04,8.2.019.943-.284,1.184-1.2,1.183-3,0-3,.035-3-2.893q.012-6.931.033-13.861c.333-.264.726-.149,1.091-.147.894.006,1.938-.316,2.642.1.836.5.2,1.639.367,2.48C76.419,7.511,76.48,7.708,76.8,7.641Z" transform="translate(0 0)"/>
    <path class="cls-1" d="M191.507,13.159c0-2.4.03-4.807-.016-7.209-.017-.864.154-1.231,1.142-1.232,3.067,0,3.067-.049,3.067,2.978,0,4.147-.034,8.294.023,12.44.015,1.065-.2,1.476-1.375,1.445-2.839-.073-2.841-.008-2.841-2.908Q191.507,15.916,191.507,13.159Z" transform="translate(0 0)"/>
    <path class="cls-1" d="M94.184,13.184c0,2.448-.043,4.9.024,7.342.023.821-.193,1.026-1,1.043-3.144.064-3.143.093-3.143-3.018,0-4.189.03-8.379-.022-12.568C90.034,5,90.31,4.711,91.3,4.72c2.876.028,2.876-.017,2.876,2.816q0,2.824,0,5.648Z" transform="translate(0 0)"/>
    <path class="cls-2" d="M76.8,7.641c-.4.456-.49.207-.523-.218-.064-.82.372-1.912-.207-2.4-.719-.6-1.868-.155-2.828-.221-.323-.022-.649.009-.973.016,1.238-.61,2.544-.25,3.819-.232.5.007.4.527.451.89C76.631,6.2,76.288,6.971,76.8,7.641Z" transform="translate(0 0)"/>
    <path class="cls-1" d="M168.021,11.794a7.053,7.053,0,0,0-5.1-6.333,16.249,16.249,0,0,0-12.55.474,7.5,7.5,0,0,0-4.8,6.78,7.435,7.435,0,0,0,4.168,7.461c5.064,2.606,10.19,2.189,15.208-.28a3.9,3.9,0,0,0,1.787-1.839c-.9.455-1.505.791-2.134,1.071a13.019,13.019,0,0,1-10.322.376,6.027,6.027,0,0,1-4.157-4.934c-.169-1.136.116-1.569,1.381-1.551,5.1.071,10.2,0,15.3.048C167.805,13.078,168.108,12.791,168.021,11.794Zm-6.7-.1h-4.376c-1.882,0-3.766-.053-5.646.02-1.13.044-1.227-.335-.93-1.314,1.375-4.533,8.025-6.51,11.642-3.406a5.16,5.16,0,0,1,1.132,1.423C164.533,10.957,164.11,11.695,161.325,11.695Z" transform="translate(0 0)"/>
  </g>
</svg>
