<svg id="Layer_1" data-name="Layer 1" xmlns="http://www.w3.org/2000/svg" viewBox="0 0 268.836 171.708">
  <defs>
    <style>
      .cls-1 {
        fill: #211f20;
      }

      .cls-2 {
        fill: #2c2a2b;
      }

      .cls-3 {
        fill: #353334;
      }

      .cls-4 {
        fill: #242223;
      }

      .cls-5 {
        fill: #232122;
      }

      .cls-6 {
        fill: #2a2829;
      }

      .cls-7 {
        fill: #272526;
      }

      .cls-8 {
        fill: #d2d1d2;
      }

      .cls-9 {
        fill: #191718;
      }

      .cls-10 {
        fill: #f8f8f8;
      }

      .cls-11 {
        fill: #302e2f;
      }

      .cls-12 {
        fill: #201e1f;
      }

      .cls-13 {
        fill: #f9f9f9;
      }

      .cls-14 {
        fill: #262425;
      }

      .cls-15 {
        fill: #f9fafa;
      }

      .cls-16 {
        fill: #1c1b1b;
      }

      .cls-17 {
        fill: #f6f6f6;
      }

      .cls-18 {
        fill: #f3f2f2;
      }

      .cls-19 {
        fill: #f9f7f8;
      }

      .cls-20 {
        fill: #292728;
      }

      .cls-21 {
        fill: #f7f7f7;
      }

      .cls-22 {
        fill: #f5f5f5;
      }

      .cls-23 {
        fill: #f6f4f5;
      }

      .cls-24 {
        fill: #f3f3f3;
      }

      .cls-25 {
        fill: #f2f0f1;
      }

      .cls-26 {
        fill: #2f2d2e;
      }

      .cls-27 {
        fill: #403e3f;
      }

      .cls-28 {
        fill: #f9f8f9;
      }

      .cls-29 {
        fill: #2d2b2c;
      }

      .cls-30 {
        fill: #343233;
      }

      .cls-31 {
        fill: #f0eeef;
      }

      .cls-32 {
        fill: #f8f6f7;
      }

      .cls-33 {
        fill: #f7f6f6;
      }

      .cls-34 {
        fill: #2e2d2e;
      }

      .cls-35 {
        fill: #f4f4f4;
      }

      .cls-36 {
        fill: #f7f8f7;
      }

      .cls-37 {
        fill: #f3f1f2;
      }

      .cls-38 {
        fill: #373536;
      }

      .cls-39 {
        fill: #222021;
      }

      .cls-40 {
        fill: #2e2c2d;
      }

      .cls-41 {
        fill: #2b292a;
      }

      .cls-42 {
        fill: #232223;
      }

      .cls-43 {
        fill: #1f1f1f;
      }

      .cls-44 {
        fill: #282627;
      }

      .cls-45 {
        fill: #656364;
      }

      .cls-46 {
        fill: #1f1d1e;
      }

      .cls-47 {
        fill: #504e4f;
      }

      .cls-48 {
        fill: #1c1a1b;
      }

      .cls-49 {
        fill: #141213;
      }

      .cls-50 {
        fill: #252324;
      }

      .cls-51 {
        fill: #1b191a;
      }

      .cls-52 {
        fill: #1d1b1c;
      }

      .cls-53 {
        fill: #1a1819;
      }

      .cls-54 {
        fill: #181617;
      }

      .cls-55 {
        fill: #121011;
      }

      .cls-56 {
        fill: #0b0b0b;
      }

      .cls-57 {
        fill: #282727;
      }

      .cls-58 {
        fill: #151314;
      }

      .cls-59 {
        fill: #323031;
      }

      .cls-60 {
        fill: #161415;
      }

      .cls-61 {
        fill: #1e1c1d;
      }

      .cls-62 {
        fill: #302b2c;
      }

      .cls-63 {
        fill: #171516;
      }

      .cls-64 {
        fill: #161516;
      }

      .cls-65 {
        fill: #191919;
      }

      .cls-66 {
        fill: #f5f6f6;
      }

      .cls-67 {
        fill: #f2f4f4;
      }

      .cls-68 {
        fill: #f5f3f4;
      }

      .cls-69 {
        fill: #f0f0f0;
      }

      .cls-70 {
        fill: #f6f5f5;
      }

      .cls-71 {
        fill: #fafafa;
      }
    </style>
  </defs>
  <title>03ff059c-c4fc-40a6-9e40-2a90ad5142cb</title>
  <g>
    <path class="cls-1" d="M144.1,147.678a61.427,61.427,0,0,1-7.065,4.791c-.394.471-1.3.818-.389,1.606l23.878,16.9c-2.486.581-4.611.059-6.65.36-9.332,1.379-17.347-1.083-23.963-7.9-.791-.815-1.967-1.213-2.6-2.232.242-.264-.15-.015.17-.177.1-.053.076.046-.131.2-2.315-1.972-3.974-.2-5.733,1-1.053.282-2.3.216-2.793,1.519l-4.438,2.738c-.646.408-1.461.5-2.012,1.084l-.648.53a28.757,28.757,0,0,0-3.073.852,1.782,1.782,0,0,1-1.1-.076,2.578,2.578,0,0,1-.578-.465c-1.394-1.651-1.062-3.248.154-4.821a12.929,12.929,0,0,1,4.879-3.453,4.283,4.283,0,0,0,2.605-1.637,11.947,11.947,0,0,1,3.235-2.669c.224-.552-.293-.57-.568-.762A140.029,140.029,0,0,1,102.4,144.346a1.666,1.666,0,0,0-2.549-.8c-.284-.011-.558-.021-.84-.026-8.357.268-16.708.039-25.049.122a19.394,19.394,0,0,0-2.7-.275c-.355.032-.606-.008-.247,0,.039,0,.078.033.139.044,8.989.538,17.966.114,26.938.242a4.371,4.371,0,0,1,1.843.134c-.3,2.005-1.962,1.42-3.079,1.436-7.159.1-14.319.045-21.479.051q-1.745,0-3.49.007a11.9,11.9,0,0,0-7.76,2.477c-.2.154-.419.3-.638.443-.7.456-1.365,1.1-.931,1.911.552,1.034,1.341.243,2.01-.062a5.518,5.518,0,0,1,.994-.346c9.648-.234,19.289-.439,28.92.095,1.541.483,1.057,1.875,1.3,2.916.135-.883-.643-2.141,1.016-2.327,1.317,2.071.872,4.324.547,6.5-.258,1.721-1.82,1.762-3.17,1.791-4.109.087-8.218.026-12.328.035-3.395.008-6.792.083-10.183-.02-3.464-.1-6.339.856-8.282,3.881a2.713,2.713,0,0,1-.666.493c-.717.223-1.123.521-1.086.822a1.98,1.98,0,0,1,.384,1.245c-.216.659-.812.49-1.285.592l.006.006a3.034,3.034,0,0,0,1.486-.322,2.558,2.558,0,0,1,.7-.319,1.722,1.722,0,0,1,1.158.182,4.069,4.069,0,0,1,1.037,1.377,1.656,1.656,0,0,1-.008,1.384c-1.215,1.883-3.267,1.824-5.05,1.842-13.07.131-26.141.086-39.212.048-.358,0,.088.029-.268-.009-1.251-.135-2.881-.2-2.884-1.729,0-1.206,1.637-1.4,2.677-1.739a9.8,9.8,0,0,1,2.938-.159c6.086-.072,12.173.141,18.249-.117a2.672,2.672,0,0,0,.761-.431,3.91,3.91,0,0,1,.7-.472,9.053,9.053,0,0,1,1.979-.1.9.9,0,0,1,1,.786c.051.171-.169.465.089.517.224.045.329-.238.379-.463-.29-1.71-1.635-.452-2.391-.858-6.384,1-12.8.279-19.2.486-1.692.055-3.387-.014-5.072.045-.39.222-1.407-.108-1.185.4.5,1.147-.118,1.332-.852,1.242-1.179-.145-.19.671-.48.89a3.546,3.546,0,0,1-2.052.792c-1.681.413-3.326-.409-5-.147,2.409.145,2.678.39,2.143,1.949-5.515-.36-8.762-3.653-10.96-8.379-.383-.822-.232-2.013-1.405-2.382v-1.613c.62-5.057.185-10.134.257-15.2C.342,137.2.277,137.2,6.18,137.2H8.59c3.773,0,3.653,0,3.517,3.881a120.006,120.006,0,0,0,.193,13.581c.463,7.2,3.169,9.75,10.41,9.766,5.97.013,11.949-.2,17.905.082,3.312.157,5.872-.471,7.55-3.466A7.8,7.8,0,0,0,50.005,159l2.6-4.095c-2.215-.7-4.543.1-6.96-.472,1.339-6.353,4.67-11.208,10.5-14.031a33.991,33.991,0,0,1,15.289-3.427q19.993.169,39.987-.016a7.766,7.766,0,0,1,5.331,1.972c2.078,1.721,4.243,3.337,6.371,5,.81.373,1.237,1.318,2.194,1.472a12.514,12.514,0,0,1,3.748,2.735,5.071,5.071,0,0,0,1.053.812c1.54.256,2.283-.777,3-1.848.356-.452.94-.665,1.24-1.179a153.658,153.658,0,0,1,12.957-8.464c2.721.173,5.419-.3,8.14-.275,2.5.024,2.839.192,3.358,2.108-.685-1.659.057-2.188,2.2-2.141,5.667.123,5.67.022,6.27,5.634a9.174,9.174,0,0,1-.211,3.458,4.569,4.569,0,0,0,.933,4.458c.065,3.589-.449,7.243,1.276,10.629.218.96,1.149,1.325,1.685,2.019.848.972,2.218.693,3.205,1.333a6.416,6.416,0,0,1,1.357.552,2.534,2.534,0,0,0,1.817.518c6.325-.062,12.645.114,18.953-.1.675-.208.658-.918.981-1.382l.084-13.908a73.408,73.408,0,0,0,.177-10.953c-.022-1.83.583-2.371,2.3-2.228,1.42.119,2.858.018,4.289.026,2.815.015,3.034.171,3.06,3.061.065,7.24.012,14.481.03,21.715a5.044,5.044,0,0,0,.376,2.1,1.936,1.936,0,0,1,.171.736c-.111.952-.622,2.194,1.25,1.721.414-.092.825-.165,1.239-.265a12.4,12.4,0,0,1,3.994-.3c11.609-.066,23.218.109,34.773-.082.3.032-.145.047.2-.033.108-.025.006-.02-.224-.011-6.356.247-12.715.067-19.073.114-6.8.051-13.61-.079-20.418.082-2-.58-2.127-2.316-2.147-3.885-.094-7.427-.078-14.856-.01-22.285.008-.845-.1-2.215.929-2.2,1.235.016,1.03,1.453,1.043,2.35.089,6.533.021,13.067.052,19.6a9,9,0,0,0,.262,3.444,3.95,3.95,0,0,0,.609.68,4.991,4.991,0,0,0,2.88.386q17.687.014,35.375,0c1.329,0,2.7.167,3.878-.67,1.513-1.751.97-3.224-.624-4.551a2.6,2.6,0,0,1-.439-.519c-.118-.188-.228-.383-.339-.574-.3-.576-1.2-.744-1.1-1.6a1.887,1.887,0,0,1,.437-.58,14.341,14.341,0,0,1,8.422-1.582c.07-.2.155-.386.241-.575.4-.524.17-1.378.9-1.724a1.956,1.956,0,0,1,1.047.174c3.183.948,6.29,1.975,7.122,5.824.059.271.51.458.779.684v3.226a24.762,24.762,0,0,0-1.027,3.333c-.378,1.307-.773,2.6-2.13,3.273-.942.38-2.46-.214-2.59,1.535-3.241,1.674-6.809,1.415-10.236,1.426-27.731.091-55.462.051-83.194.033-.68,0-1.444.238-2.032-.367a2.96,2.96,0,0,1,2.519-.614c13.676.59,27.357.152,41.036.244,11.807.079,23.615.053,35.423,0,3.869-.019,7.722-.682,11.607-.515-1.074.041-2.147-.087-3.219.046a3.978,3.978,0,0,1-.911.129c-1.563-.265-3.134-.59-4.65.253a3.032,3.032,0,0,1-.952.094q-37.889,0-75.762,0c-1.508-.425-3.1-.059-4.611-.478a1,1,0,0,1-.651-.932.757.757,0,0,1,.445-.63c-.394-.06-.651.2-.926.4-.151.358.108.518.341.694a8.01,8.01,0,0,1,.634.777.594.594,0,0,1-.3.558c-7.372-.593-11.755-4.845-12.295-11.927-.054-2.2-.8-4.419.266-6.567.806.293.628.8.406,1.311.539-1.166-.421-2.084-.653-3.125-.53-2.723-.161-5.471-.222-8.206-.023-1.008.026-1.859-1.33-1.022a84.668,84.668,0,0,1-9.727,6.312Z"/>
    <path class="cls-2" d="M12.3,154.661c-.735-.744-.507-1.7-.447-2.551.292-4.164-.656-8.32-.039-12.483.238-1.608-.447-2.252-2.109-2.173a66.824,66.824,0,0,1-6.975,0c-1.863-.107-2.243.72-2.219,2.381.077,5.367.041,10.735.013,16.1,0,.848.357,1.815-.523,2.5V136.922c3.468.026,6.938.129,10.4.042,1.534-.038,2,.446,1.978,1.96C12.291,144.168,12.318,149.415,12.3,154.661Z"/>
    <path class="cls-3" d="M267.809,164.987a3.406,3.406,0,0,1,1.027-3.333v2.151Z"/>
    <path class="cls-1" d="M74.737,96.6l-1.153-1.071a5.3,5.3,0,0,1-1.54-1.518l-1.092-1.173c-.408-.345-.942-.59-.984-1.229-2.562-3.516-5.521-6.772-7.153-10.9a13.072,13.072,0,0,0-1.733-3.384,42.312,42.312,0,0,1-1.4-31.8c.663-.8,1.775.136,2.457-.638.137-.155.249-.25.207-.4-1.358.818-1.358.818-1.823-.745a13.13,13.13,0,0,0,.724-2.627A53.769,53.769,0,0,1,75.686,21.237,47.6,47.6,0,0,1,92.409,11.009c.272.145.277.389.24.648.09-.3-.156-.437-.29-.629A92.023,92.023,0,0,1,121.84,2.963a2.815,2.815,0,0,1,1.1-.156,9.864,9.864,0,0,0,1.816.345,4.6,4.6,0,0,0,3.057.083c.018-.565.2-.986.856-1,4.5.126,9-.217,13.49.187l.852.042c1.618.777,3.4-.064,5.038.507a57.749,57.749,0,0,1,12.931,2.184c3.727.954,4.894,4.783,2.365,7.838-3.947,4.768-6.94,10.244-11.178,14.781a12.605,12.605,0,0,0-1.575,2.259c-4.257,6.224-8.788,12.246-13.4,18.21a6.061,6.061,0,0,0-1.659,2.222q-4.334,6.042-8.67,12.082a13.25,13.25,0,0,0-2.792,5.675c-.515,3.355.992,5.508,4.428,6.3a.475.475,0,0,1,.222.515c-.343.409-.126.624.277.775a2.166,2.166,0,0,0,1.268.643c5.777.1,11.547.02,17.316.037a3.744,3.744,0,0,0,2.07-.36c.229-.222.469-.423.719-.622a2.211,2.211,0,0,1,.911-.356q18.545-.146,37.076,0c.622.3,1.611.584.249,1.213-.577.267-1.313.025-1.975.1,2.639-.245,5.306.4,7.933-.253.93-.4,2.393-.126,2.258-1.979a8.253,8.253,0,0,1-2.716,2.066c-1.684-.082-3.492.615-4.949-.82.5-1.154,1.532-.422,2.294-.649.846-.252,1.928.585,2.576-.561,5.261-5.85,5.522-12.992,5.146-20.258-.118-2.291-.561-4.565-.855-6.846a1.868,1.868,0,0,0-.48-1.642A49.651,49.651,0,0,0,182.1,22.181c-1.893-1.555-3.836-3.048-5.756-4.569-.37-.4-.91-.616-1.178-1.119a1.105,1.105,0,0,1-.045-.617,2.5,2.5,0,0,0-.283-1.464c-.108-.309-.207-.62-.329-.925-.42-.776-1.46-.915-1.806-1.76a8.591,8.591,0,0,1-.419-1.045c-.662-2.506.925-1.371,1.925-1.188,6.483,1.867,11.93,5.426,17.157,9.661A54.538,54.538,0,0,1,210.521,49.8c3.1,13.1-.772,24.9-7.982,35.832-.294.445-.6.885-.893,1.327-.324.294-.534.783-1.108.66a3.663,3.663,0,0,0-2.107-.377c-5.876.445-11.752.151-17.624.17-5.042-.6-10.1-.146-15.127-.265.029.005-.131.131-.131.131s.2-.01.237-.015c5.053.085,10.078-.244,15.1.18,5.612.023,11.221.052,16.83-.016a2.452,2.452,0,0,1,2.4.655c-.557,1.312-1.715.679-2.569.682-12.5.048-25,.031-37.494.033a1.2,1.2,0,0,1-.9-.279,4.72,4.72,0,0,0-.736-.59,118.925,118.925,0,0,0-16.119-.076,19.974,19.974,0,0,1-4,.1,2.484,2.484,0,0,1-.852-.233c-.259-.139-.518-.282-.78-.414-6.386-.345-12.771-.186-19.141-.076a1.838,1.838,0,0,0-.556.338.336.336,0,0,0,.078.45c6.67-.454,13.318-.244,19.961-.125,1.682.03,3.363.1,5.049.059,5.555-.139,11.111-.558,16.65.235a.578.578,0,0,1,.33.817c-13.42,0-26.84-.06-40.26.029-7.341.049-13.683-2.11-18.722-7.6C98.308,80.461,97.867,78.8,97.663,77a22.315,22.315,0,0,1,.005-9.137,5.042,5.042,0,0,1,1.073-3.11,4.288,4.288,0,0,0,1.211-2.288A117.908,117.908,0,0,1,112.9,44.636a4.013,4.013,0,0,0,1.76-2.182c5-7.7,10.958-14.69,16.345-22.1a100.544,100.544,0,0,1,7.612-9.611c.75-1.481-.731-1.018-1.234-1.4a5.007,5.007,0,0,0-3.019.219c-3.646.392-7.321-.171-10.954.382-2.047-.112-4.194-.945-5.994.812a1.446,1.446,0,0,1-.39.6c-1.275.569-2.539,1.216-3.967.479-.728-1.033.494-.986.875-1.47-1.547.552-1.547.552-.951,1.425-.195,1.031-1.122,1.04-1.842,1.266-10.323,3.243-19.713,8.125-27.617,15.637a3.4,3.4,0,0,1-.662.443,3.667,3.667,0,0,0-1.9,1.453,8.392,8.392,0,0,1-.675.83,6.884,6.884,0,0,0-1.548,2.519c-4.12,6.015-7.519,12.345-8.356,19.732a57.31,57.31,0,0,0,.222,14.65,6.319,6.319,0,0,0,.887,4.115c1.378,2.7,2.826,5.374,4,8.172.3.177-.954.887.271.763a6.058,6.058,0,0,1,2.686,2.883,20.542,20.542,0,0,0,5.143,5.7,4.774,4.774,0,0,0,3.215,2.431c5.5,3.7,11.055,7.255,17.356,9.485a79.467,79.467,0,0,0,25.171,4.719c5.807.107,11.622.2,17.375-.876a3.6,3.6,0,0,1,2.357.224c.121.97.12.965,1.424.526a12.412,12.412,0,0,1,3.137-.513c1.561.075,3.027.983,4.645.519.475-.162,1.054-.115,1.33-.676.014-1.229,1.185-.6,1.815-1.116a4.435,4.435,0,0,1-1.951.282.692.692,0,0,1-.441-.549c.581-1.145,1.938-1.162,2.783-1.925,3.754-1.3,7.393-2.963,11.329-3.713,4.113-1.332,7.544-3.942,11.259-6.019,1.572,1.575,3.021.157,4.516-.19a3.257,3.257,0,0,1,.758.01c1.276.235,2.573.061,3.854.194a2.177,2.177,0,0,1,1.1.453c.533,1.077-.773,1.236-.974,1.947a69.383,69.383,0,0,1-25.916,14.335,23.461,23.461,0,0,1-4.024.753c-.71-.651-1.528-.551-3-.253.278-.036.674.359.552.022-.041-.112.02-.17.18-.183a3.085,3.085,0,0,1,1.982.2.453.453,0,0,1,.135.694l.023-.027a16.758,16.758,0,0,0-3.9,1,28.718,28.718,0,0,1-9.045,1.671c-.412-.694.131-.835.592-1.032.329-.141.582-.169.247-.04a.455.455,0,0,0-.073-.115,3.165,3.165,0,0,0-1.83.535,2.914,2.914,0,0,1-1.81.379c-.977-.246-2-.2-2.975-.435a6.316,6.316,0,0,0-2.426-.313,3.628,3.628,0,0,0-1.56.581c-.492.037-.824.418-1.26.578a22.033,22.033,0,0,0-5.645-.067,28.846,28.846,0,0,0-6.235-.086,32.56,32.56,0,0,1,6.036.065c2.23-.407,4.524.57,6.724-.342,2.043.047,4.182-.607,6.034.826a9.754,9.754,0,0,1-4.432.465,157.324,157.324,0,0,1-18.437.028l.056.03c-1.746-.889-3.676.05-5.452-.546l.065.036c-2.5-.617-5.079-.727-7.61-1.15a75.684,75.684,0,0,1-22.529-7.416c-.439-.847-1.4-.807-2.089-1.225l-.591-.4c-.481-.216.518-2.1-1.205-1.026-.363.226-1.02-.536-1.62-.658-2.1-.519-3.207-2.582-5.178-3.3-.377-.292-.808-.545-.78-1.12.078-.315.224-.755-.036-.9-.192-.108-.054.491-.366.6A1.125,1.125,0,0,1,74.737,96.6Z"/>
    <path class="cls-1" d="M260.934,151.921l-1.2.082a1.9,1.9,0,0,1-2.124.574c-9.051-.126-18.1-.069-27.106-.028,8.357-.076,16.666-.016,24.974-.026a4.128,4.128,0,0,1,2.594.442c.138,1.115-.731,1.115-1.388,1.111-1.961-.013-3.9.336-5.862.262-7.557-.284-15.114.191-22.672.009a2.186,2.186,0,0,0-1.022.26c-3.337.383-6.692.308-10.044.358,8.7-.1,17.387-.764,26.092-.522a8.282,8.282,0,0,0,2.119-.263,17.182,17.182,0,0,1,3.2.007c1.182.148,2.089.608,1.531,2.085l0,.005a1.056,1.056,0,0,1-1.079.726,6.1,6.1,0,0,1-.975-.381,2.9,2.9,0,0,0-2.99.6,3.277,3.277,0,0,1-.863.259c-8.957.189-17.907.066-26.856.071-3.665,0-3.958-.5-2.791-4.178.612-6.4,4.23-12.319,11.234-14.351,1.84-.791,3.376.694,5.011.629-.626-.356-1.637,0-2.355-.94,1.262-.68,2.71-.557,3.91-1.159,6.4-1.089,12.845-.363,19.268-.529,3.933-.1,7.872.034,11.805-.051,1.522-.033,2.215.249,2.238,2.018.072,5.54.154,5.541-5.407,5.542-8.05,0-16.1.043-24.15-.022a8.966,8.966,0,0,0-8.171,4.15c-.428.654-1.156,1.408-.712,2.155.364.613,1.322.3,2.016.3,8.855.015,17.71.005,26.565.021C257.488,151.147,259.285,151.06,260.934,151.921Z"/>
    <path class="cls-4" d="M209.046,136.968c.673,2.914.248,5.868.282,8.8.073,6.167.01,12.336,0,18.5-1.174-.629-.687-1.744-.692-2.647-.04-6.984-.022-13.968-.022-20.952v-2.62l-.539-.006q0,4.617,0,9.233,0,7.79,0,15.58c0,1.207-.042,2.416,1.62,2.56a.594.594,0,0,1,.257.49c-.039.384.026.794-.26,1.12l-1.08,0c-1.436-.181-1.074-1.256-1.071-2.153v-.538c-.572-1.836-.223-3.719-.239-5.576-.055-6.086-.035-12.174,0-18.26,0-.735-.339-1.563-.047-1.854a11.645,11.645,0,0,0,.019,2.056c-.013,6.8.016,13.606-.041,20.409-.006.722.682,1.872-.764,2.15,0-7.778-.042-15.557.032-23.334.017-1.787-.416-2.506-2.374-2.515-6.261-.031-6.195-.111-6.295,6.107-.037,2.274.583,4.617-.456,6.83-.028-3.847-.005-7.7-.109-11.541-.038-1.419.449-1.863,1.845-1.833C202.42,137.051,205.734,136.981,209.046,136.968Z"/>
    <path class="cls-4" d="M128.5,75.089v-.571q31.967-.035,63.934-.078a14.273,14.273,0,0,0,1.593-.176c-1.169,1.929-3.471-.11-4.771,1.363H150.547l-.494.107c-6.347.236-12.7.058-19.044.093A3.357,3.357,0,0,1,128.5,75.089Z"/>
    <path class="cls-5" d="M167.74,150.364c-2.12.091-1.794-1.568-1.538-2.609.7-2.85.2-5.622-.022-8.44-.108-1.366-.536-1.986-1.912-1.851a7.456,7.456,0,0,1-.8,0c-4.053-.042-4.053-.043-4.549,3.75-.752-3.752-2.609-4.492-7.459-3.7-1.869.3-2.861,1.439-4.031,2.592-1.127-.985,2.4-1.833-.106-2.645.934-.783,2.045-.427,3.077-.431,5.769-.02,11.539.007,17.308.018A60.431,60.431,0,0,1,167.74,150.364Z"/>
    <path class="cls-6" d="M197.289,164.264l.572,1.7c-6.116.581-12.247.082-18.369.265-1.048.031-2.134-.279-3.142.264a.957.957,0,0,1-1.056-1.059c3.907-.6,7.838-.164,11.756-.261,2.952-.073,5.908-.02,8.863-.016-6.345-.028-12.689,0-19.034-.025a5.7,5.7,0,0,1-2.644-.22c-.865-.982-3.016.71-3.26-1.566a20.613,20.613,0,0,0,7.063,1.09C184.454,164.319,190.872,164.313,197.289,164.264Z"/>
    <path class="cls-7" d="M251.631,157.36l-.039.631c-6.173.367-12.352.1-18.527.15-6.092.05-12.186.029-18.278-.008-.956-.006-2.332.475-2.338-1.321a7.1,7.1,0,0,1,1.55-3.17c.039.08.074.164.119.241.577,1-.739,2.312.145,2.975s2.251.221,3.4.224c8.421.019,16.844.079,25.264-.027C245.844,157.018,248.754,156.5,251.631,157.36Z"/>
    <path class="cls-8" d="M200.551,87.455l1.094-.5a2.368,2.368,0,0,1-2.6,2.181Q179.042,89.1,159.037,89a2.035,2.035,0,0,0,.206-.41l-.036.015q19.718-.006,39.436-.017c.521,0,1.1.047,1.352-.594C199.883,87.5,200.029,87.284,200.551,87.455Z"/>
    <path class="cls-9" d="M251.631,157.36l-33.953-.014c-3.955,0-3.955,0-3.68-3.7l.465-.263a5.989,5.989,0,0,1,.037,1.6c-.406,1.635.323,1.877,1.782,1.868,9.634-.061,19.269-.036,28.9-.039a3.553,3.553,0,0,1,3.734-.011l1.1-.519Z"/>
    <path class="cls-7" d="M174.205,9.494c-.546.149-1.228-.335-1.631.292-.066.1.357.521.554.794-.511.356-.539.712,0,1.067.538.776,1.872.489,2.151,1.61-.438.361-.422.721,0,1.082-.177.536,1.654,1.072,0,1.608-1.824-1.009-4.064-1.348-5.313-3.285-.231-.709-.283-1.522-1.078-1.92-.06-.09-.117-.181-.175-.272C170.47,7.428,170.616,7.4,174.205,9.494Z"/>
    <path class="cls-4" d="M194.7,93.388l-1.135-.017c-1.363-.743-2.934.178-4.3-.539h0c-.234-.171-.544-.235-.715-.5-.085-.169-.164-.343-.248-.507-.519-.392-1.606.147-1.661-1l-.134-.07.042-.145c3.516-.415,7.043-.106,10.564-.172.508-.01.833.214.794.783l-1.751,1.569C195.73,93.147,195.364,93.64,194.7,93.388Z"/>
    <path class="cls-10" d="M167.74,150.364q-.017-6.66-.034-13.321c.109-.411.069-.992.694-.949.488.033.922.461.672.909-1.551,2.778-.768,5.78-.683,8.635.1,3.283-.136,6.546-.089,9.818a8.808,8.808,0,0,0,1.067,4.586l-.076,1.284c-1.638-1.908-1.368-4.237-1.429-6.492Q167.8,152.6,167.74,150.364Z"/>
    <path class="cls-11" d="M123.213,3.138l-1.372-.176a68.671,68.671,0,0,1,20.323-.541c-3.808.032-7.617.049-11.425.107-.948.014-1.967-.255-2.8.484C126.394,4.189,124.791,3.193,123.213,3.138Z"/>
    <path class="cls-12" d="M152.139,112.177c.161.041.386.03.471.133.23.28.005.372-.243.406-.627.085-1.393-.2-1.731.652l.016-.021c-1.062.5-2.305-.234-3.336.486l-.862.069c-2.035-.266-4.147.2-6.123-.638a.311.311,0,0,1-.537,0,1.124,1.124,0,0,1,1.083-.541,19.017,19.017,0,0,1,6.938-.019l1.66-.516A3.158,3.158,0,0,1,152.139,112.177Z"/>
    <path class="cls-5" d="M123.586,114.4l18.437-.028A72.531,72.531,0,0,1,123.586,114.4Z"/>
    <path class="cls-1" d="M170.438,12.179c.2,1.561,1.751,1.271,2.606,1.926.762.584,1.831.821,2.237,1.84h0a1.621,1.621,0,0,1-1.738.048c-1.755-1.078-3.978-1.373-5.3-3.172-.285-.9.4-.954.97-1.111A1.74,1.74,0,0,1,170.438,12.179Z"/>
    <path class="cls-13" d="M207.2,81.215c-.391-1.371,1.032-1.948.933-3.1a1.339,1.339,0,0,1,1.211-1.511c.536-.02.783.745.786,1.226,0,.628.723,1.754-.8,1.689C208.187,79.474,208.248,80.853,207.2,81.215Z"/>
    <path class="cls-13" d="M169.49,157.8v-11.15l.27,0v11.091Z"/>
    <path class="cls-14" d="M232.263,137.559c-.841.954-2.051.9-3.86,1.236l3.37.488c-2.486,1.351-4.24-.718-6.076-.255A21.52,21.52,0,0,1,232.263,137.559Z"/>
    <path class="cls-8" d="M197.9,91.225c-.824-1.283-2.081-.576-3.128-.607-2.741-.081-5.486-.012-8.23,0,3.741-1.164,7.557-.4,11.339-.382C198.442,90.235,198.287,90.871,197.9,91.225Z"/>
    <path class="cls-13" d="M158.06,113.252c2,.266,3.331-.835,4.919-.415-.4.767-1.487.153-1.8,1.13.476.772,1.359.077,2.472.372C161.367,115.352,159.928,114.63,158.06,113.252Z"/>
    <path class="cls-15" d="M124.386,0a6.171,6.171,0,0,1-6.312.507Z"/>
    <path class="cls-16" d="M188.712,92.285l.549.547c-1.387.7-2.653,1.681-4.42,1.1-.877-.286-.494-.726-.445-1.19a1.688,1.688,0,0,1,1.092-1.014c.373.163.641.491,1.027.629C187.258,92.567,187.968,91.832,188.712,92.285Z"/>
    <path class="cls-17" d="M57.8,138.385c-2.3.816-4.239.306-5.83,1.2C53.545,138.628,55.04,137.354,57.8,138.385Z"/>
    <path class="cls-10" d="M74.737,96.6l1.576.648a.644.644,0,0,1,.485.469l.635,1.032a16.569,16.569,0,0,1-2.566-.263c-.518-.13-1.353-.28-1.283-1.01C73.615,97.145,74.331,96.885,74.737,96.6Z"/>
    <path class="cls-10" d="M103.772,89.069c.631-1.212-1.1-2.028-.543-3.227A5.281,5.281,0,0,0,106.77,88C105.343,88.5,105.16,90.068,103.772,89.069Z"/>
    <path class="cls-18" d="M156.439,115.285h-7.39l0-.238h7.391Z"/>
    <path class="cls-5" d="M110.645,112.766a16.351,16.351,0,0,1,7.61,1.15A27.393,27.393,0,0,1,110.645,112.766Z"/>
    <path class="cls-13" d="M138.392,50.706c1.9-.22,2.921-1.09,2.547-3.172C141.628,50.7,141.31,51.1,138.392,50.706Z"/>
    <path class="cls-9" d="M186.046,92.837a1.162,1.162,0,0,1-.558-1.106c.294-.414.468-.98,1.149-.9.441.876,1.772-.237,2.081.932C187.829,92.125,187.1,92.886,186.046,92.837Z"/>
    <path class="cls-19" d="M112.4,114.962h4.9C115.714,116.546,114.069,115.029,112.4,114.962Z"/>
    <path class="cls-13" d="M189.855,34.73c.773.243.253.965.84,1.29s.74-2.033,1.316-.139c.182.6.137,1.015-.639,1.03-.88.017-1.586-.146-1.559-1.245C189.819,35.407,189.836,35.148,189.855,34.73Z"/>
    <path class="cls-20" d="M60.75,43.9c1.367,2.5,1.27-.623,2.1-.528.178,2.58-1.7,2.068-3.17,2.146a2,2,0,0,1,.546-1.613Q60.487,43.526,60.75,43.9Z"/>
    <path class="cls-21" d="M158.379,24.667a1.409,1.409,0,0,1-.408-2.293.687.687,0,0,1,.672-.052C159.584,23.2,158.343,23.85,158.379,24.667Z"/>
    <path class="cls-4" d="M82.611,102.041c1.126.046,2.4.887,3.164-.884.413,1.132-.419,1.767-.339,2.569A6.554,6.554,0,0,1,82.611,102.041Z"/>
    <path class="cls-21" d="M170.448,6.468c-1.044.823-2.168,1.509-3.655-.5C168.326,6.491,169.352,6.79,170.448,6.468Z"/>
    <path class="cls-10" d="M166.932,15.012c-1.747-.223-1.975-1.348-1.685-2.771A7.663,7.663,0,0,0,166.932,15.012Z"/>
    <path class="cls-13" d="M81.121,14.891c-.677.573-1.351,1.149-2.043,1.7-.013.01-.333-.233-.326-.346.08-1.222,1.21-1.275,1.9-1.826Z"/>
    <path class="cls-19" d="M141.941.358l3.783.779c-1.288.151-2.6.746-3.779-.245q-.282-.176-.19-.355T141.941.358Z"/>
    <path class="cls-21" d="M181.036,10.766c1.417-.454,2.341.141,3.472.484C182.906,11.567,182.906,11.567,181.036,10.766Z"/>
    <path class="cls-10" d="M107.431,114.625c-1.594.246-2.659.992-4.372.816C104.546,114.663,105.646,114.064,107.431,114.625Z"/>
    <path class="cls-5" d="M118.19,113.879c1.82.151,3.745-.738,5.452.546A13.508,13.508,0,0,1,118.19,113.879Z"/>
    <path class="cls-10" d="M193.869,96.7l2.367-1.95C196.072,96.251,195.451,96.954,193.869,96.7Z"/>
    <path class="cls-10" d="M44.089,150.364c-.864-2.306-.847-2.4.89-3.844a5.749,5.749,0,0,0-.89,3.844Z"/>
    <path class="cls-10" d="M47.4,157.859l2.664-2.239a4.519,4.519,0,0,1-2.169,2.772Z"/>
    <path class="cls-11" d="M148.053,2.97c-1.691-.051-3.453.607-5.038-.507A12.162,12.162,0,0,1,148.053,2.97Z"/>
    <path class="cls-22" d="M195.779,68.905c-.418.716-.446,1.762-1.6,2.075A1.821,1.821,0,0,1,195.779,68.905Z"/>
    <path class="cls-23" d="M57.315,72.35a3.415,3.415,0,0,1-.716-2.8A2.4,2.4,0,0,1,57.315,72.35Z"/>
    <path class="cls-5" d="M163.449,110.036c1.449-.016,2.8-.811,4.283-.543a10.651,10.651,0,0,1-4.171,1.228l-.111-.685Z"/>
    <path class="cls-22" d="M172.054,109.5c-.393,1.513-1.457,1.663-2.888,1.476.823-1.049,2.046-.875,2.889-1.474Z"/>
    <path class="cls-10" d="M209.951,134l-3.3.842A2.771,2.771,0,0,1,209.951,134Z"/>
    <path class="cls-24" d="M229.872,148.869c.215-1.093.9-1.714,2.21-2.349A4.4,4.4,0,0,1,229.872,148.869Z"/>
    <path class="cls-25" d="M141.941.358q0,.267,0,.534h-3.669l-.016-.534Z"/>
    <path class="cls-26" d="M61.082,77.322a3.777,3.777,0,0,1,1.733,3.384A8.892,8.892,0,0,1,61.082,77.322Z"/>
    <path class="cls-5" d="M159.682,111.7a4.479,4.479,0,0,1,3.9-1A7.86,7.86,0,0,1,159.682,111.7Z"/>
    <path class="cls-21" d="M83.82,12.645c-.74,1.188-1.165,1.953-2.552.992Z"/>
    <path class="cls-2" d="M134.364,145.92a1.624,1.624,0,0,1-1.032,1.26c-.432.56-.709,1.36-1.681,1.085a.483.483,0,0,1,.058-.643A5.377,5.377,0,0,1,134.364,145.92Z"/>
    <path class="cls-10" d="M70.52,94.021a1.8,1.8,0,0,1-.474,1.754.758.758,0,0,1-.55-.3C69.325,94.791,69.613,94.318,70.52,94.021Z"/>
    <path class="cls-27" d="M194.7,93.388l1.457-.594a6.051,6.051,0,0,1-2.505,2.364Z"/>
    <path class="cls-28" d="M200.013,24.549c.91.405,1.211,1.232,1.542,2.3-1.4-.332-1.562-1.253-1.54-2.3Z"/>
    <path class="cls-22" d="M9.273,134.332H12.3l.007.269H9.231Z"/>
    <path class="cls-17" d="M172.055,109.5c.908-.82,2.093-.67,3.615-1.259-1.248,1.554-2.5,1.173-3.617,1.257Z"/>
    <path class="cls-10" d="M169.425,159.6c1.057-.11,1.34.59,2.023,1.334C170.14,160.926,169.866,160.146,169.425,159.6Z"/>
    <path class="cls-17" d="M79.327,102.243a1.214,1.214,0,0,1-1.489-.889c-.121-.288.2-.429.461-.389C79.046,101.079,79.082,101.675,79.327,102.243Z"/>
    <path class="cls-10" d="M135.571,55.627a6.894,6.894,0,0,1-.928.048.531.531,0,0,1-.549-.666c.07-.329.256-.658.7-.447.38.182.74.407,1.109.613Z"/>
    <path class="cls-22" d="M65.311,87.693c.665.45,1.348.71,1.016,1.7C65.41,89.163,65.227,88.6,65.311,87.693Z"/>
    <path class="cls-7" d="M173.543,15.994l1.738-.048,1.059,1.666Z"/>
    <path class="cls-2" d="M125.322,145.4c-1.475.618-1.518-.9-2.194-1.472A3.05,3.05,0,0,1,125.322,145.4Z"/>
    <path class="cls-10" d="M70.6,21.6a1.286,1.286,0,0,1-1.211,1.115c-.1.007-.353-.481-.325-.506C69.49,21.834,69.883,21.318,70.6,21.6Z"/>
    <path class="cls-29" d="M135.539,50.465c.111-1.071.241-2.127,1.659-2.222A4.01,4.01,0,0,1,135.539,50.465Z"/>
    <path class="cls-17" d="M212.815,62.314v3.214C212.263,63.984,212.331,63.119,212.815,62.314Z"/>
    <path class="cls-30" d="M131.708,147.621l.022.594a1.811,1.811,0,0,1-2.125,1.147l-.536-1.227C130.061,148.536,130.823,147.761,131.708,147.621Z"/>
    <path class="cls-7" d="M169.366,12.182a1.125,1.125,0,0,0-1.125.64c-1.67-1.153.138-1.605.474-2.354l.206.166C169.328,11.076,169.761,11.51,169.366,12.182Z"/>
    <path class="cls-31" d="M56.8,52.406a3.455,3.455,0,0,1-.145-2.66C57.328,50.693,56.789,51.585,56.8,52.406Z"/>
    <path class="cls-32" d="M91.328,8.709a6.055,6.055,0,0,1,3.543-.04A6.053,6.053,0,0,1,91.328,8.709Z"/>
    <path class="cls-1" d="M147.317,113.833c.986-1.021,2.207-.435,3.335-.486A6.047,6.047,0,0,1,147.317,113.833Z"/>
    <path class="cls-10" d="M72.044,94.007a2.172,2.172,0,0,1,1.54,1.518C72.466,95.632,71.937,95.142,72.044,94.007Z"/>
    <path class="cls-10" d="M69.968,91.6c.47.3.991.552.984,1.229-.572-.144-1.243.7-1.681-.008C68.921,92.261,69.9,92.121,69.968,91.6Z"/>
    <path class="cls-23" d="M113.984,90.14l-3.222,0A2.437,2.437,0,0,1,113.984,90.14Z"/>
    <path class="cls-33" d="M261.449,150.446c1.256-.042,1.952-.287,2.636.221A2.723,2.723,0,0,1,261.449,150.446Z"/>
    <path class="cls-22" d="M194.413,46.886a3.75,3.75,0,0,1-.281-.816c-.014-.349.018-.752.465-.8.112-.012.394.351.364.491A5.648,5.648,0,0,1,194.413,46.886Z"/>
    <path class="cls-34" d="M60.75,43.9q-.26.006-.52,0a6.352,6.352,0,0,1,1.019-2.8A3.963,3.963,0,0,1,60.75,43.9Z"/>
    <path class="cls-20" d="M50.005,159a2.165,2.165,0,0,1-1.84,2.044C48.719,160.309,49.007,159.334,50.005,159Z"/>
    <path class="cls-35" d="M82.637,105.412c.863-.019,1.231.414,1.408,1.191A1.271,1.271,0,0,1,82.637,105.412Z"/>
    <path class="cls-11" d="M150.6,30.033c-.076-1.172.688-1.758,1.575-2.259A3.064,3.064,0,0,1,150.6,30.033Z"/>
    <path class="cls-21" d="M194.37,19.4c1.109-.379,1.446.156,2.158,1.472Z"/>
    <path class="cls-28" d="M200.014,24.548c-.453-.262-1.042-.484-.593-1.162.109-.164.561-.31.679-.224.636.467.01.921-.087,1.386Z"/>
    <path class="cls-10" d="M167.015,8.585c.25,1.065.252,1.994-.306,1.993-1,0-.038-.658-.082-1.026C166.6,9.343,166.793,9.109,167.015,8.585Z"/>
    <path class="cls-36" d="M149.848,1.967c-.265-.165-.589-.254-.631-.417-.111-.428.235-.6.583-.55a.663.663,0,0,1,.465.427C150.284,1.574,150.02,1.758,149.848,1.967Z"/>
    <path class="cls-10" d="M165.843,8.528a2.562,2.562,0,0,1,.058-2.369A2.559,2.559,0,0,1,165.843,8.528Z"/>
    <path class="cls-17" d="M62.111,35.65c-.081-.391-.223-.658-.147-.829s.373-.218.573-.32c.063.153.217.35.169.45A3.934,3.934,0,0,1,62.111,35.65Z"/>
    <path class="cls-37" d="M153.743,29.352c-.148-.329-.34-.552-.292-.7.062-.194.312-.328.481-.488.1.182.3.376.285.544C154.2,28.9,153.972,29.058,153.743,29.352Z"/>
    <path class="cls-24" d="M205.538,31.373c.153.176.34.31.319.382a2.05,2.05,0,0,1-.408.927c-.312.281-.5-.017-.417-.318A5.57,5.57,0,0,1,205.538,31.373Z"/>
    <path class="cls-21" d="M266.113,152.009c-.329.148-.553.339-.7.291-.194-.062-.328-.312-.488-.48.182-.1.376-.3.545-.284C265.654,151.556,265.817,151.778,266.113,152.009Z"/>
    <path class="cls-24" d="M61.669,37.065c-.1.133-.2.386-.391.49-.335.188-.462-.114-.434-.355a.835.835,0,0,1,.333-.582C61.453,36.473,61.623,36.689,61.669,37.065Z"/>
    <path class="cls-17" d="M196.037,43.976c.064.395.041.694-.309.566a.912.912,0,0,1-.448-.6c-.046-.207.108-.459.174-.691Z"/>
    <path class="cls-35" d="M221.472,139.093c-.307.207-.488.418-.68.43-.153.009-.321-.225-.482-.351.173-.16.326-.4.527-.451C220.976,138.686,221.181,138.912,221.472,139.093Z"/>
    <path class="cls-17" d="M234.582,134.466a2.464,2.464,0,0,1-2,.148A1.821,1.821,0,0,1,234.582,134.466Z"/>
    <path class="cls-17" d="M183,9.758c.832-.3,1.464-.433,1.642.11.185.565-.365.287-.625.235A10.732,10.732,0,0,1,183,9.758Z"/>
    <path class="cls-38" d="M86.028,104.124c.974-.064,1.827.076,2.089,1.225Z"/>
    <path class="cls-10" d="M72.591,97.743c-.41.117-.672.282-.82.211-.179-.087-.262-.373-.386-.573.158-.063.345-.211.467-.169A3.621,3.621,0,0,1,72.591,97.743Z"/>
    <path class="cls-21" d="M44.089,150.364c.54.066,1.044.186.987.891-.01.118-.209.331-.28.315-.651-.143-.639-.7-.707-1.206Z"/>
    <path class="cls-29" d="M197.843,45.517c.6.42,1.582.726.48,1.642C197.748,46.733,197.842,46.112,197.843,45.517Z"/>
    <path class="cls-39" d="M17.205,168.107l-1.337-.959,2.461-.183c-.461-.558-1.224-1.032-.678-1.823.083-.12.764.173,1.168.275a1.034,1.034,0,0,1,1.13-.128,5.833,5.833,0,0,0,.763.387c6.249.164,12.491.005,18.733.072,1.231.013,2.524-.2,3.569.745-.793.88-1.845.517-2.786.521-6.088.032-12.175.021-18.263.012-1.409,0-2.806-.005-4,1.039.714,1.177,1.805,1.112,2.857,1.112,12.981,0,25.963.061,38.943-.063,1.859-.018,4.238.381,5.292-2.084.846-.892,1.966-.745,3.017-.744,11.6.007,23.209-.077,34.806.032a3.094,3.094,0,0,1,.881.191c.55.263.848.641.542,1.267-.2.236-.742.348-.324.838a2.236,2.236,0,0,0,.3.487c.763.376,2.314-.49,2.129,1.354a1.756,1.756,0,0,1-.851.3c-29.009.084-58.007.012-87.006.041a25.189,25.189,0,0,0-3.752.1,2.821,2.821,0,0,1-2.024-.054l-.216.063-.2-.106c-.1-2.313-2.28-1.01-3.189-1.879,1.877-1.267,3.9-.406,5.879-.278C16.013,169.43,16.591,168.694,17.205,168.107Z"/>
    <path class="cls-40" d="M12.779,170.846l1.821-.152a5.892,5.892,0,0,1,2.127-.156q45.207,0,90.415.007l.445.294c-.691.876-1.664.459-2.488.46q-43.928.045-87.856.009C15.753,171.308,14.209,171.538,12.779,170.846Z"/>
    <path class="cls-41" d="M153.825,141.368a1.1,1.1,0,0,1,1.412-.841c.79.269.364.955.34,1.56-.108,2.764-.686,5.56.347,8.277a2.111,2.111,0,0,1,0,2.147c-1.439,2.046.218,4.362-.564,6.466-1.068-5.184-.123-10.426-.481-15.626C154.83,142.655,155.778,141.151,153.825,141.368Z"/>
    <path class="cls-40" d="M103.776,169.174q0-.262,0-.525a2.936,2.936,0,0,1,3.758-.005l1.076,0c-.31.66.075.932.622,1.114a2.508,2.508,0,0,1-1.646,1.084q-.118-.089-.239-.175c-.275-.179-.659-.124-.882-.412q0-.263,0-.525C105.691,168.961,104.563,169.894,103.776,169.174Z"/>
    <path class="cls-42" d="M109.233,169.756c-.846-.015-.994-.419-.622-1.114.856-1.232,1.984-.892,3.114-.539A4.72,4.72,0,0,1,109.233,169.756Z"/>
    <path class="cls-43" d="M263.089,169.8c-.52-.306-.92-1-.444-1.247.9-.457,1.928-1.362,3.034-.288C265.129,169.3,263.99,169.348,263.089,169.8Z"/>
    <path class="cls-10" d="M154.376,143.528c-1.466,1.1-2.57,1.9-3.64,2.751-.244.193-.358.692-.719.2-.2-.267-.416-.732.027-.907C151.384,145.042,152.318,143.685,154.376,143.528Z"/>
    <path class="cls-44" d="M118.823,163.752c-.029-2.272,1.436-1.8,2.793-1.519A5.507,5.507,0,0,1,118.823,163.752Z"/>
    <path class="cls-35" d="M.59,165.008c1.069.026,1.567.522,1.428,1.8Z"/>
    <path class="cls-21" d="M136.321,170.036c-1.008.108-1.175-.58-2.028-1.133A1.7,1.7,0,0,1,136.321,170.036Z"/>
    <path class="cls-45" d="M136.647,154.075c-.478,0-.854-.227-.822-.7.047-.692.551-.944,1.211-.907C136.722,152.96,136.354,153.437,136.647,154.075Z"/>
    <path class="cls-42" d="M112.373,167.573a1.784,1.784,0,0,1,2.012-1.084C113.872,167.143,113.324,167.733,112.373,167.573Z"/>
    <path class="cls-21" d="M135.076,170.781c.061.416-.166.533-.418.471a.815.815,0,0,1-.53-.387.321.321,0,0,1,.408-.424A1.842,1.842,0,0,1,135.076,170.781Z"/>
    <path class="cls-46" d="M167.653,170.9l.1-.643a7.458,7.458,0,0,1,4.294-.007h77.437c1.334-.958,2.861-.359,4.293-.533h6.384c-2.977.224-5.86,1.08-8.837,1.079q-40.107-.019-80.214,0c-1.161,0-2.322.059-3.483.091Z"/>
    <path class="cls-47" d="M62.458,162.781c-.473,2.2,1.211,1.472,2.142,1.475q19.993.058,39.986.035c.446,0,.891.039,1.337.06-.558,2.106-2.191,1.3-3.529,1.307-11.444-.049-22.885-.012-34.327-.011a16.99,16.99,0,0,1-4.762-.5,1.785,1.785,0,0,1-1.463-.285,1.021,1.021,0,0,1-.516-1.042,1.213,1.213,0,0,1,.542-1.083Z"/>
    <path class="cls-4" d="M209.22,164.168c.973.087,1.946.248,2.919.248,12.072,0,24.144-.043,36.216-.017a9.688,9.688,0,0,0,5.384-1.259c-.69,1.609-2.112,1.738-3.574,1.739q-19.421.01-38.843,0C210.568,164.875,209.665,165.157,209.22,164.168Z"/>
    <path class="cls-41" d="M209.694,165.952q0-.265,0-.531h42.118c-.849.831-1.655.388-2.336.537a4.273,4.273,0,0,1-2.359.25c-12.055.036-24.109-.038-36.164.051A1.865,1.865,0,0,1,209.694,165.952Z"/>
    <path class="cls-48" d="M209.694,165.952l39.783.006c-.792.88-1.843.518-2.781.52-10.369.025-20.737.011-31.106.019-1.98,0-3.981-.18-5.9.535C209.648,166.671,209.095,166.31,209.694,165.952Z"/>
    <path class="cls-49" d="M62.932,164.964l40.287-.052a.656.656,0,0,1-.343.877,7.694,7.694,0,0,1-3.427.38q-15.8.021-31.6,0c-1.318,0-2.706.231-3.85-.735l-1.078-.024q-.19-.155-.12-.3T62.932,164.964Z"/>
    <path class="cls-50" d="M250.021,156.272c-.827-2.91-3.227-1.077-4.844-1.606-5.668.585-11.35.125-17.024.231-.535.01-.8-.284-.729-.84,7.479-.428,14.964-.137,22.445-.16,3.093-.01,6.207-.373,9.289.23.068,1-.733.546-1.05.507C255.22,154.284,252.641,155.36,250.021,156.272Z"/>
    <path class="cls-50" d="M104.308,167.031H65.058l-.54-.543.408-.325a40.346,40.346,0,0,1,7.192-.192q15.364-.034,30.727,0C103.524,166.064,104.3,166.014,104.308,167.031Z"/>
    <path class="cls-2" d="M63.994,165.433l39.239-.015a.489.489,0,0,1-.35.767c-11.823.076-23.647,0-35.47.046-.964,0-1.971-.265-2.894.263v0A1.059,1.059,0,0,1,63.994,165.433Z"/>
    <path class="cls-20" d="M258.064,152.5l1.669-.5c-.243.511.828,1.5-.576,1.588-.623.354-.806-.175-1.074-.534-9.107,0-18.214.008-27.321-.02-.938,0-1.986.357-2.783-.509a4.672,4.672,0,0,1,2.612-.261q12.425-.031,24.85,0A5.21,5.21,0,0,1,258.064,152.5Z"/>
    <path class="cls-51" d="M258.084,153.056l1.074.534q0,.268,0,.537H227.436a.3.3,0,0,1-.54,0c.5-1.057,1.452-.506,2.162-.509,8.748-.045,17.5-.019,26.246-.046C256.242,153.571,257.29,153.929,258.084,153.056Z"/>
    <path class="cls-51" d="M100.024,143.375l-.01.537q-15.317,0-30.634,0a.834.834,0,0,1-.492-.107c-.083-.067-.045-.283-.061-.433a7.54,7.54,0,0,1,4.292,0Z"/>
    <path class="cls-9" d="M94.623,156.807c.334-.052.778-.262.979-.123.414.289.233.587-.25.638a7.693,7.693,0,0,1-.8.011q-13.123.009-26.246.014a.833.833,0,0,1-.49-.105c-.083-.067-.045-.282-.062-.432a4.106,4.106,0,0,1,3.028-.747q10.408-.022,20.815,0A4.111,4.111,0,0,1,94.623,156.807Z"/>
    <path class="cls-52" d="M206.466,163.268c.927-.882.513-2.022.518-3.042.036-7.382.02-14.764.557-22.148q0,13.133,0,26.265A1.845,1.845,0,0,1,206.466,163.268Z"/>
    <path class="cls-48" d="M94.629,155.737l0,.541c-4.337.583-8.7.233-13.041.225-4.613-.009-9.238.376-13.843-.226q0-.268,0-.537c2.459-.568,4.956-.261,7.428-.232C81.659,155.585,88.151,155.153,94.629,155.737Z"/>
    <path class="cls-4" d="M94.629,155.737l-26.882,0c.521-.67,1.27-.533,1.966-.533q11.474-.009,22.947,0C93.357,155.207,94.106,155.069,94.629,155.737Z"/>
    <path class="cls-20" d="M67.746,156.277H94.63q0,.265-.007.529l-26.872,0Q67.745,156.544,67.746,156.277Z"/>
    <path class="cls-48" d="M19.906,165.431l-1.086-.013c.525-.673,1.276-.526,1.974-.525q12.174.019,24.348.052.292.144.205.307c-.059.111-.12.167-.182.167L43,165.434a2.959,2.959,0,0,1-2.032.513q-9.515.018-19.03,0A2.951,2.951,0,0,1,19.906,165.431Z"/>
    <path class="cls-48" d="M43.014,166.494q-11.416,0-22.833-.005c-.078,0-.209-.04-.225-.09a2.289,2.289,0,0,1-.057-.447c3.886-.558,7.795-.23,11.69-.222,3.806.008,7.627-.365,11.424.221Z"/>
    <path class="cls-41" d="M43.013,165.951H19.9q0-.261.006-.521l23.093,0Q43.012,165.692,43.013,165.951Z"/>
    <path class="cls-53" d="M174.235,164.912H195.6l0,.522H175.294A1.113,1.113,0,0,1,174.235,164.912Z"/>
    <path class="cls-51" d="M176.35,166.493c.7-.819,1.653-.522,2.509-.524,6.334-.02,12.668-.008,19-.005-.794.87-1.841.51-2.779.514C188.838,166.508,182.594,166.493,176.35,166.493Z"/>
    <path class="cls-42" d="M103.233,165.954v-.537q0-.253-.014-.505a1.988,1.988,0,0,0,2.7-.561l1.534-.77c-.135,1.511-1.313,3.04.078,4.525-.551.458-1.206.187-1.809.255a4.529,4.529,0,0,0-1.417-1.33h0a1.113,1.113,0,0,0-1.077-.538q-.281-.181-.187-.36C103.107,166.014,103.17,165.954,103.233,165.954Z"/>
    <path class="cls-7" d="M63.024,147.715c-.859,1.656-1.214,3.035,1.5,2.725-.64,1.829-2.092,1.082-2.6.347C61.138,149.655,61.61,148.373,63.024,147.715Z"/>
    <path class="cls-54" d="M129.605,149.361l2.125-1.147,1.6-1.036C132.872,149.169,130.978,150.278,129.605,149.361Z"/>
    <path class="cls-12" d="M45.164,165.418q0-.238-.023-.474l1.894-.783c.618.693-.392,1.634.276,2.338a1.286,1.286,0,0,1-1.609-.009A1.105,1.105,0,0,0,45.164,165.418Z"/>
    <path class="cls-53" d="M254.4,168.532c1.529-.288,3.048-.76,4.434.328Z"/>
    <path class="cls-51" d="M17.205,168.107c.067,1.015-.235,1.639-1.424,1.626-.9-.01-1.052-.346-.726-1.088A3.592,3.592,0,0,1,17.205,168.107Z"/>
    <path class="cls-51" d="M52.966,145.337c.534-.9.923-1.753,2.072-1.689.092.005.294.5.218.668A1.843,1.843,0,0,1,52.966,145.337Z"/>
    <path class="cls-7" d="M146.284,166.286c1.077.578,1.85-.8,2.792.071.27.248.118.832-.217.84C148.028,167.216,146.954,168,146.284,166.286Z"/>
    <path class="cls-42" d="M114.524,163.805c.35.039.783-.037,1.034.141.5.354.008.646-.247.773a7.975,7.975,0,0,1-2.944,1.233c-.178-1.355.893-1.641,1.781-2.085Z"/>
    <path class="cls-52" d="M207.541,164.881l1.071,2.153c-.559.8-1.264.342-1.552-.082A1.552,1.552,0,0,1,207.541,164.881Z"/>
    <path class="cls-51" d="M53.768,158.429c-.362.062-.859.507-1.008-.172a1.44,1.44,0,0,1,.844-1.475c.63-.394.632.188.7.586C54.632,157.978,54.768,158.493,53.768,158.429Z"/>
    <path class="cls-7" d="M2.936,162.354c-.546-1.146.187-1.926.589-3.41C3.87,160.564,3.789,161.464,2.936,162.354Z"/>
    <path class="cls-6" d="M60.2,159.828c.85.6,1.375,1.1,1.417,1.958-.691.461-1.03-.012-1.232-.5A6.032,6.032,0,0,1,60.2,159.828Z"/>
    <path class="cls-42" d="M111.836,164.884c.316-1.805.955-2.806,2.688-1.078l0,0C113.622,164.155,112.9,164.957,111.836,164.884Z"/>
    <path class="cls-54" d="M111.836,164.884c.845-.483,1.553-1.307,2.685-1.076l-2.154,2.145A1.1,1.1,0,0,1,111.836,164.884Z"/>
    <path class="cls-7" d="M172.049,170.254l-4.294.007-.551-.523a.338.338,0,0,1,.555-.02C169.181,169.956,170.73,169.185,172.049,170.254Z"/>
    <path class="cls-7" d="M2.775,157.342l-.447-2.69C4.209,155.427,2.914,156.511,2.775,157.342Z"/>
    <path class="cls-48" d="M106.889,144.449c-1.606-.152-1.772-1.092-2.416-2.079A3.631,3.631,0,0,1,106.889,144.449Z"/>
    <path class="cls-40" d="M95.165,150.408l.55.01a7.479,7.479,0,0,1,0,4.236C94.554,153.365,95.473,151.807,95.165,150.408Z"/>
    <path class="cls-6" d="M253.778,169.721c-1.32,1.074-2.869.3-4.293.533q-.006-.267-.006-.534a7.488,7.488,0,0,1,4.3,0Z"/>
    <path class="cls-44" d="M73.12,143.372H68.828A4.023,4.023,0,0,1,73.12,143.372Z"/>
    <path class="cls-51" d="M253.781,169.72h-4.3A4.024,4.024,0,0,1,253.781,169.72Z"/>
    <path class="cls-6" d="M167.759,169.718l-.555.02c-1.224.476-1.322-.136-1.059-1.1a1.3,1.3,0,0,1,1.6.008Z"/>
    <path class="cls-48" d="M105.384,168.105h2.151v.538l-3.758.005c-.362-.179-.379-.36,0-.544A1.175,1.175,0,0,1,105.384,168.105Z"/>
    <path class="cls-55" d="M95.712,154.654q0-2.118,0-4.236l.522.025C96,151.839,96.76,153.36,95.712,154.654Z"/>
    <path class="cls-51" d="M155.922,152.511l0-2.147c1.106,1.145.189,2.5.731,3.974C155.622,153.713,156.058,153.041,155.922,152.511Z"/>
    <path class="cls-42" d="M112.1,160.5a7.4,7.4,0,0,1,2.9-1.743C114.55,160.208,113.384,160.456,112.1,160.5Z"/>
    <path class="cls-9" d="M148.071,142.564a1.361,1.361,0,0,1-1.655.884C146.65,142.475,147.132,142.143,148.071,142.564Z"/>
    <path class="cls-52" d="M127.349,161.229l-.659-1.414a1.072,1.072,0,0,1,1.525.738c.147.535-.536.507-.905.652Z"/>
    <path class="cls-39" d="M62.932,164.964a3.863,3.863,0,0,0-.016.444c-.611.77-1.406.569-2.274.427l1.2-.974Z"/>
    <path class="cls-6" d="M136.124,165.713a1.685,1.685,0,0,1-1.918-.994C135.141,164.3,135.468,164.908,136.124,165.713Z"/>
    <path class="cls-26" d="M102.65,144.016c-.869-.315-1.386-1.54-2.585-1C101.591,141.636,102.205,142.608,102.65,144.016Z"/>
    <path class="cls-56" d="M144.1,147.678c-.456-.138-1.087.164-1.325-.478-.038-.1.242-.45.411-.479.728-.125.812.44.912.958Z"/>
    <path class="cls-9" d="M53.768,158.429a1.1,1.1,0,0,0,.541-1.061c.5.083,1.124.142.789.869C54.817,158.846,54.322,159.139,53.768,158.429Z"/>
    <path class="cls-57" d="M9.8,167.934c-1.005.167-1.757.468-1.9.285-.478-.6.057-.847.606-.867C8.72,167.344,8.949,167.541,9.8,167.934Z"/>
    <path class="cls-54" d="M167.749,168.65l-1.6-.008c.795-.87,1.77-.494,2.733-.433C168.642,168.82,168.135,168.568,167.749,168.65Z"/>
    <path class="cls-42" d="M111.884,161.861c.864-.2,1.257-.307,1.656-.373.034-.006.192.3.152.35C113.32,162.307,112.845,162.244,111.884,161.861Z"/>
    <path class="cls-9" d="M66.628,155.406a1.528,1.528,0,0,1-1.683.113C65.586,155,66.13,155.307,66.628,155.406Z"/>
    <path class="cls-58" d="M61.867,162.737l-.542,1.082c-.308-.053-.8-.042-.705-.456C60.755,162.776,61.357,162.771,61.867,162.737Z"/>
    <path class="cls-20" d="M1.857,159.587a1.766,1.766,0,0,1,0-1.823A1.516,1.516,0,0,1,1.857,159.587Z"/>
    <path class="cls-41" d="M111.3,147.747c-.41.118-.672.284-.819.213-.179-.087-.261-.374-.385-.574.158-.063.345-.211.467-.169A3.609,3.609,0,0,1,111.3,147.747Z"/>
    <path class="cls-44" d="M119.656,158.118a1.833,1.833,0,0,1-.585.229c-.244.013-.545-.116-.343-.442a.877.877,0,0,1,.585-.352C119.585,157.526,119.76,157.721,119.656,158.118Z"/>
    <path class="cls-20" d="M45.7,166.49l1.609.009a1.43,1.43,0,0,1-1.5.738C45.433,167.151,45.273,166.81,45.7,166.49Z"/>
    <path class="cls-53" d="M152.47,139.368c-.265.253-.411.5-.6.545-.161.038-.378-.159-.57-.251.142-.169.256-.423.434-.481S152.136,139.273,152.47,139.368Z"/>
    <path class="cls-59" d="M118.68,156.228c-.043-.713-.632-1.051-1.039-1.514C118.68,154.743,119.568,154.877,118.68,156.228Z"/>
    <path class="cls-2" d="M122.36,160.189a1.722,1.722,0,0,1-.589.3c-.283.026-.532-.141-.35-.484a.7.7,0,0,1,.418-.3C122.125,159.638,122.331,159.767,122.36,160.189Z"/>
    <path class="cls-44" d="M163.452,87.456v-.538a114.155,114.155,0,0,1,17.2,0c6.062-.231,12.147.5,18.194-.436.183-.028.419.287.631.443-.208,1.381-1.3.561-1.972.791q-8.445,0-16.888,0C174.9,87.546,169.167,88.06,163.452,87.456Z"/>
    <path class="cls-6" d="M139.095,11.048c.536-1.837-.984-1.346-1.748-1.407a69.934,69.934,0,0,0-17.139.655c-.965.161-1.943.236-2.916.35l-.186-.175c1.6-1.359,3.456-1.393,5.387-1.07,4.144-.883,8.349-.258,12.519-.5a3.389,3.389,0,0,1,2.62.047c.981.023,2.05.047,2.447,1.114C140.289,10.623,139.643,10.924,139.095,11.048Z"/>
    <path class="cls-54" d="M141.914,88.422q-12.9.047-25.795.087c-.153,0-.42-.063-.438-.142-.087-.378.258-.317.469-.386a2.518,2.518,0,0,1,1.689-.682c6.457.018,12.919-.356,19.369.2,1.42.494,2.9.106,4.338.258Q142.128,87.868,141.914,88.422Z"/>
    <path class="cls-7" d="M150.547,75.628q0,.268,0,.536c-.929.757-2.039.523-3.087.526-5.973.021-11.945.008-17.918.011h-.5a1.1,1.1,0,0,1-.534-1.072c4.063-.588,8.149-.209,12.222-.23,3.271-.017,6.56-.349,9.821.228Z"/>
    <path class="cls-46" d="M150.549,75.628H128.506c-.365-.179-.372-.359,0-.541,6.422,0,12.845-.01,19.267.023C148.708,75.117,149.756,74.756,150.549,75.628Z"/>
    <path class="cls-50" d="M150.548,76.7c-.213.151-.426.433-.64.433q-10.114.034-20.228,0c-.214,0-.427-.283-.64-.433h0c4.242-.582,8.5-.2,12.756-.228C144.71,76.458,147.645,76.118,150.548,76.7Z"/>
    <path class="cls-53" d="M150.548,76.7H129.04c.79-.879,1.838-.515,2.775-.52,6.244-.032,12.489-.018,18.733-.019Z"/>
    <path class="cls-40" d="M137.64,87.982h-21.49q-.011-.263-.012-.526a87.965,87.965,0,0,1,21.507,0l0,.015q.269.171.18.343C137.76,87.925,137.7,87.982,137.64,87.982Z"/>
    <path class="cls-44" d="M137.64,87.982q0-.257,0-.514l4.309-.014a114.949,114.949,0,0,1,17.2,0v.541a115.339,115.339,0,0,1-17.209,0Z"/>
    <path class="cls-44" d="M116.138,86.926c.212-.152.424-.437.636-.438q10.115-.036,20.229,0c.214,0,.427.282.641.433-4.241.583-8.5.2-12.752.228C121.977,87.165,119.042,87.494,116.138,86.926Z"/>
    <path class="cls-60" d="M116.138,86.926l21.506-.008q0,.268,0,.536l-21.507,0Q116.138,87.19,116.138,86.926Z"/>
    <path class="cls-4" d="M194.637,76.165c-1.021,1.468-2.581,1.112-3.96,1.033-1.728-.1-3.441-.464-5.248-.726,1.231-.8,2.779.311,3.831-.844h0C191.055,75.783,192.922,75.215,194.637,76.165Z"/>
    <path class="cls-14" d="M158.609,106.819c-1.77,1.243-3.254-.057-4.83-.542a15.8,15.8,0,0,1,5.376-1.611c1.268.443,2.956-1.407,4,.808a7.372,7.372,0,0,0-2.574-.209c-1,.3.243.63.184,1.011C160.146,106.859,159.209,106.171,158.609,106.819Z"/>
    <path class="cls-53" d="M159.15,87.453h-17.2c.693-.816,1.64-.517,2.489-.523q6.111-.041,12.222,0C157.509,86.937,158.456,86.64,159.15,87.453Z"/>
    <path class="cls-48" d="M180.657,86.918h-17.2c.692-.816,1.64-.519,2.489-.525q6.113-.04,12.226,0C179.017,86.4,179.965,86.1,180.657,86.918Z"/>
    <path class="cls-61" d="M163.452,87.456l17.207,0q.263.177.176.355t-.174.178c-4.812,0-9.625.021-14.436-.013C165.288,87.971,164.241,88.334,163.452,87.456Z"/>
    <path class="cls-9" d="M180.661,87.991q0-.267,0-.533h17.2q.262.169.178.343t-.171.175Z"/>
    <path class="cls-61" d="M141.942,88l17.209,0q.028.3.056.609l.036-.015-17.329-.165A3.074,3.074,0,0,0,141.942,88Z"/>
    <path class="cls-12" d="M159.154,104.666a7.413,7.413,0,0,1-5.376,1.611,19.583,19.583,0,0,1-5.583,1.089l1.245-1.142-.029.006c2.48-.543,5.011-.85,7.444-1.611a2.63,2.63,0,0,1,2.293.037Z"/>
    <path class="cls-14" d="M159.148,104.657c-3.315.1-6.361,1.854-9.737,1.574l12.422-3.13C161.2,104.069,159.857,103.817,159.148,104.657Z"/>
    <path class="cls-4" d="M196.774,72.537c1.1.577,1.2,1.188.891,1.8-.463.919-.223,2.457-1.877,2.331-.087-.007-1.494-.08-1.036-1.012C195.309,74.517,196.569,73.9,196.774,72.537Z"/>
    <path class="cls-52" d="M58.611,55.726v1.626a22.386,22.386,0,0,1,.008,7.508c-.016.088,0,.2-.055.257a1.917,1.917,0,0,1-.334.242c-.043-3.931-.714-7.883.377-11.778A2.126,2.126,0,0,1,58.611,55.726Z"/>
    <path class="cls-62" d="M98.307,77.46c-1.57-3.359-1.272-6.714.018-10.067C98,70.748,97.633,74.1,98.307,77.46Z"/>
    <path class="cls-5" d="M139.795,113.264h.537c-2.255,1.177-4.671.235-6.993.534a.465.465,0,0,1-.17-.408q.03-.227.086-.227a.462.462,0,0,1,.623.1C135.851,112.273,137.823,112.661,139.795,113.264Z"/>
    <path class="cls-40" d="M147.815,112.7c-2.314-.353-4.623,1.062-6.938.019a.967.967,0,0,1,1.053-1.072c.8.655,1.875-.086,2.685.524C145.677,112.38,146.878,111.741,147.815,112.7Z"/>
    <path class="cls-46" d="M113,11.693l-1.586-.092c.575-2.35,1.888-2.528,3.782-1.269l-2.256,1.376Z"/>
    <path class="cls-52" d="M133.879,113.263l-.537,0a29.366,29.366,0,0,1-8.6,0A16.057,16.057,0,0,1,133.879,113.263Z"/>
    <path class="cls-7" d="M58.617,64.861q0-3.754-.008-7.509C59.907,59.4,58.334,62,59.891,64Z"/>
    <path class="cls-44" d="M172.059,101.979a3.632,3.632,0,0,1-3.053.315c1.865-1.231,3.455-1.951,5.2-.326A2.072,2.072,0,0,1,172.059,101.979Z"/>
    <path class="cls-44" d="M124.741,113.267l8.6,0q0,.267,0,.533C130.48,113.515,127.548,114.393,124.741,113.267Z"/>
    <path class="cls-54" d="M122.493,9.4a13.191,13.191,0,0,0-5.386,1.07c-.42-.076-1.026-.57-.562-.666C118.487,9.4,120.435,8.22,122.493,9.4Z"/>
    <path class="cls-51" d="M127.7,76.717c-1-.813-2.263.3-2.9-1.059-.088-.189.279-.845.391-.833C126.217,74.927,127.354,74.932,127.7,76.717Z"/>
    <path class="cls-51" d="M200.562,49.285c1.2-1.008.036-2.3.453-3.935,1.237,2.356.164,4.233.073,6.09C199.672,51.024,200.325,50.1,200.562,49.285Z"/>
    <path class="cls-6" d="M200.562,49.285c.066.745-.267,1.587.526,2.154-.212,1.245.489,2.619-.529,3.751a.727.727,0,0,1-.01-1.066c.234-1.644-.966-3.161-.425-4.829a.25.25,0,0,1,.2-.11A.686.686,0,0,1,200.562,49.285Z"/>
    <path class="cls-44" d="M130.656,25.624c-.457-.059-.987-.127-.54-.759.756-1.068,1.574-2.092,2.391-3.166.584.753-.114,1.216-.239,1.775C132.253,24.582,131.4,25.062,130.656,25.624Z"/>
    <path class="cls-14" d="M100.285,102.306c-1.97.207-3.014-.68-4.178-.823C97.384,100.927,98.462,101.6,100.285,102.306Z"/>
    <path class="cls-63" d="M92.359,11.027c.51.275,1.644-.278,1.434.914a.992.992,0,0,1-1.466.634c-1.334-.559.136-1.036.082-1.567Z"/>
    <path class="cls-63" d="M123.213,3.138l4.728-.125a1.184,1.184,0,0,1,1.1.572,7.624,7.624,0,0,1-4.291,0C124.207,3.541,123.6,3.712,123.213,3.138Z"/>
    <path class="cls-58" d="M200.549,54.125q0,.533.01,1.066,0,2.081,0,4.163C200.268,57.6,199.462,55.834,200.549,54.125Z"/>
    <path class="cls-14" d="M136.86,17.629a3.281,3.281,0,0,1-.835,3.614C135.78,19.764,136.658,18.737,136.86,17.629Z"/>
    <path class="cls-9" d="M76.8,97.713l-.485-.469c.028-.712-1.074-.988-.667-2.006C76.59,95.876,77.92,96.16,76.8,97.713Z"/>
    <path class="cls-11" d="M69.9,68.627A12.769,12.769,0,0,1,71.083,72.9,5.055,5.055,0,0,1,69.9,68.627Z"/>
    <path class="cls-26" d="M83.328,90.282a8.448,8.448,0,0,1,2.849,2.486A3.041,3.041,0,0,1,83.328,90.282Z"/>
    <path class="cls-6" d="M124.749,3.585h4.291A4.038,4.038,0,0,1,124.749,3.585Z"/>
    <path class="cls-14" d="M90.737,104.814c-1.126.4-1.449-.541-2.749-1.137C89.6,103.615,90.2,103.953,90.737,104.814Z"/>
    <path class="cls-44" d="M122.229,70.324c.287.745.867,1.483.464,2.521C121.663,72.065,122.272,71.136,122.229,70.324Z"/>
    <path class="cls-7" d="M75.814,24.014c-1.048-1.243.622-1.066.879-1.633.09-.2.526-.234.534.112a2.942,2.942,0,0,1-.341.978C76.65,23.892,76.41,24.3,75.814,24.014Z"/>
    <path class="cls-51" d="M130.656,25.624l1.612-2.15C132.951,25.106,131.795,25.358,130.656,25.624Z"/>
    <path class="cls-16" d="M189.261,92.831c1.426.239,2.979-.538,4.3.539C192.135,93.132,190.581,93.909,189.261,92.831Z"/>
    <path class="cls-44" d="M83.595,92.731c-1.461.084-1.392-.873-2.08-1.807A2.617,2.617,0,0,1,83.595,92.731Z"/>
    <path class="cls-48" d="M172.059,101.979l2.142-.011.494.128C173.795,102.529,172.883,103.242,172.059,101.979Z"/>
    <path class="cls-51" d="M75.814,24.014l1.072-.543c.449.959,0,1.53-.909,1.515C75.308,24.974,75.752,24.371,75.814,24.014Z"/>
    <path class="cls-49" d="M197.871,87.975q-.009-.259-.007-.518c.589-.025,1.225.09,1.618-.532.592-.3,1.084-.394,1.07.531l-.557.536Z"/>
    <path class="cls-44" d="M113.968,87.437l-1.948-.1C112.785,86.13,113.4,86.63,113.968,87.437Z"/>
    <path class="cls-6" d="M199.384,68.351V65.87A1.63,1.63,0,0,1,199.384,68.351Z"/>
    <path class="cls-6" d="M141.439,10.664c-.39,1.036-.371,1.8-1.339,1.763C139.839,11.51,140.487,11.237,141.439,10.664Z"/>
    <path class="cls-40" d="M160.433,7.127l-.4-.529a5.441,5.441,0,0,1,.846-.491.842.842,0,0,1,.345.513C161.214,7.015,160.948,7.219,160.433,7.127Z"/>
    <path class="cls-20" d="M84.075,101.257A1.457,1.457,0,0,1,82.6,100,1.455,1.455,0,0,1,84.075,101.257Z"/>
    <path class="cls-9" d="M158.609,106.819c-.215-.108-.857-.27-.366-.447a8.02,8.02,0,0,1,2.52-.1C160.2,107.063,159.35,106.73,158.609,106.819Z"/>
    <path class="cls-44" d="M107.216,109.151l-2.211-.355C105.992,108.327,106.622,108.287,107.216,109.151Z"/>
    <path class="cls-44" d="M105.414,58.476c-.111.192-.21.57-.453.727-.259.168-.531-.1-.452-.4a1.538,1.538,0,0,1,.479-.887C105.369,57.674,105.306,58.115,105.414,58.476Z"/>
    <path class="cls-53" d="M130.735,52.295l-.6.511c-.127-.174-.4-.447-.357-.5a1.672,1.672,0,0,1,.7-.652C130.761,51.548,130.869,51.826,130.735,52.295Z"/>
    <path class="cls-59" d="M113.324,44.93a5.228,5.228,0,0,1,1.711-2.162A2.2,2.2,0,0,1,113.324,44.93Z"/>
    <path class="cls-53" d="M143.2,36.743c-.023-1.058.539-1.332,1.259-1.821C144.474,35.988,143.914,36.263,143.2,36.743Z"/>
    <path class="cls-59" d="M80.092,31a3.232,3.232,0,0,1-1.6,2.131A2.548,2.548,0,0,1,80.092,31Z"/>
    <path class="cls-54" d="M105.656,110.868c-.947.331-1.812-.074-1.8-.392.03-.873.65-.2,1.008-.128C105.086,110.4,105.274,110.608,105.656,110.868Z"/>
    <path class="cls-9" d="M173.13,11.646c-.47-.122-1.231.5-1.345-.015-.191-.86.662-.977,1.344-1.052Z"/>
    <path class="cls-59" d="M82.228,28.836c-.407.646-.74,1.367-1.583,1.573A1.5,1.5,0,0,1,82.228,28.836Z"/>
    <path class="cls-44" d="M188.774,26.41a3.845,3.845,0,0,1-.5-.829c-.046-.147.161-.374.254-.565a6.747,6.747,0,0,1,.457.638C189.118,25.887,189.24,26.15,188.774,26.41Z"/>
    <path class="cls-7" d="M58.611,55.726l0-2.143C59.687,54.295,59.176,55.01,58.611,55.726Z"/>
    <path class="cls-40" d="M125.861,60.584c.128.4.3.653.235.793-.09.185-.369.277-.566.41-.063-.156-.208-.338-.17-.462A3.553,3.553,0,0,1,125.861,60.584Z"/>
    <path class="cls-26" d="M200.25,62.023a2.582,2.582,0,0,1,.155,2.029A1.774,1.774,0,0,1,200.25,62.023Z"/>
    <path class="cls-44" d="M188.556,22.507l-.115.582a4.886,4.886,0,0,1-.814-.512c-.182-.169-.241-.539.108-.525C188.025,22.063,188.3,22.358,188.556,22.507Z"/>
    <path class="cls-29" d="M99.223,64.787c.379-.76.5-1.665,1.261-2.208C100.467,63.545,100.3,64.425,99.223,64.787Z"/>
    <path class="cls-2" d="M201.612,66.045a5.6,5.6,0,0,1-.141,1.366c-.662.083-.295-.5-.353-.8a1.836,1.836,0,0,1,.147-.689Z"/>
    <path class="cls-53" d="M175.281,14.338c-.486-.063-1.178-.068-1.167-.648.015-.721.756-.31,1.167-.433Z"/>
    <path class="cls-14" d="M62.217,74.711c-.073.222-.119.5-.174.505-.428.015-.606-.317-.654-.66-.028-.2.135-.423.212-.636Z"/>
    <path class="cls-64" d="M75.2,81.01a.227.227,0,0,1,.168.34l-.415.869c-.189-.15-.5-.274-.543-.456C74.281,81.163,74.765,81.089,75.2,81.01Z"/>
    <path class="cls-20" d="M163.45,110.036h-2.414c1.077-.782,1.762-.65,2.413,0Z"/>
    <path class="cls-20" d="M78.768,88.1a3.238,3.238,0,0,1,.609.748c.119.288-.1.536-.4.33a3.631,3.631,0,0,1-.647-.771Z"/>
    <path class="cls-44" d="M114.985,46.257l-.616.484c-.1-.182-.314-.388-.281-.541.039-.181.289-.316.447-.471Z"/>
    <path class="cls-20" d="M152.139,112.177l-2.664.012A1.792,1.792,0,0,1,152.139,112.177Z"/>
    <path class="cls-65" d="M137.632,8.947,135.011,8.9A1.8,1.8,0,0,1,137.632,8.947Z"/>
    <path class="cls-49" d="M144.614,112.176c-.905-.121-1.932.381-2.685-.524C142.833,111.781,143.858,111.291,144.614,112.176Z"/>
    <path class="cls-44" d="M158.84,5.989A1.823,1.823,0,0,1,156.914,6C157.468,5.6,158.016,5.671,158.84,5.989Z"/>
    <path class="cls-66" d="M94.857,73.549c.3,1.036.99,2.024.716,3.45A4.03,4.03,0,0,1,94.857,73.549Z"/>
    <path class="cls-35" d="M137.008,10.832a5.73,5.73,0,0,1-3.42.014A5.612,5.612,0,0,1,137.008,10.832Z"/>
    <path class="cls-21" d="M121.085,105.452a5.115,5.115,0,0,1,3.247.035A5.164,5.164,0,0,1,121.085,105.452Z"/>
    <path class="cls-35" d="M83.075,86.62c1.182-.4,1.65.239,2.223,1.3A2.764,2.764,0,0,1,83.075,86.62Z"/>
    <path class="cls-67" d="M151.541,104.032H149.02l-.011-.269h2.524Z"/>
    <path class="cls-68" d="M72.571,47.763c-.045.478-.037,1.357-.142,1.37-.666.087-.3-.5-.357-.8a1.845,1.845,0,0,1,.149-.691Z"/>
    <path class="cls-69" d="M146.5,104.877c.9-.217,1.44-.4,1.95.095A1.865,1.865,0,0,1,146.5,104.877Z"/>
    <path class="cls-22" d="M95.968,70.875a1.75,1.75,0,0,1-.023-1.84A1.559,1.559,0,0,1,95.968,70.875Z"/>
    <path class="cls-22" d="M105.359,16.537l-.6-.379a4.415,4.415,0,0,1,.812-.528c.119-.047.335.152.507.24Z"/>
    <path class="cls-22" d="M124.74,11.644h2.418c-1.08.784-1.767.656-2.418,0Z"/>
    <path class="cls-70" d="M124.74,11.644h-2.418c1.08-.785,1.767-.657,2.418,0Z"/>
    <path class="cls-35" d="M128.786,10.892c-.9.215-1.44.405-1.949-.1A1.862,1.862,0,0,1,128.786,10.892Z"/>
    <path class="cls-22" d="M117.6,104.207a2.819,2.819,0,0,1,2.479-.47C119.44,104.347,118.876,104.009,117.6,104.207Z"/>
    <path class="cls-61" d="M226.9,154.129h.54c.788.88,1.835.515,2.771.521,4.99.035,9.98.017,14.97.017-.525.675-1.278.533-1.978.533q-13.279.008-26.558,0a1.652,1.652,0,0,1-1.018-.34C219.412,154.932,223.135,154.271,226.9,154.129Z"/>
    <path class="cls-9" d="M258.064,152.5l-30.086.025c-.185-.841.48-.537.8-.537q13.788-.024,27.575-.011C256.976,151.979,257.62,151.917,258.064,152.5Z"/>
    <path class="cls-51" d="M234.02,143.508H262.9v.268H234.006Z"/>
    <path class="cls-41" d="M248.92,156.8l-3.734.011q-.008-.264-.008-.527a4.387,4.387,0,0,1,3.223,0Z"/>
    <path class="cls-6" d="M224.769,140.79h2.179C226.214,141.529,225.513,141.138,224.769,140.79Z"/>
    <path class="cls-53" d="M248.4,156.276l-3.223,0A2.432,2.432,0,0,1,248.4,156.276Z"/>
    <path class="cls-48" d="M169.366,12.182q-.223-.774-.446-1.548c1.709-.666,1.179.867,1.518,1.545Z"/>
    <path class="cls-40" d="M186.046,92.837c.842-.48,1.546-1.3,2.672-1.074q.005.261-.006.523C187.814,92.422,187.18,93.837,186.046,92.837Z"/>
    <path class="cls-52" d="M106.465,170.253c.345.03.733-.032.883.413-.445.039-.889.113-1.334.113q-45.04.006-90.08,0c-.446,0-.891-.052-1.336-.081.938-.806,2.062-.418,3.092-.419Q62.078,170.239,106.465,170.253Z"/>
    <path class="cls-53" d="M103.776,169.174l3.214.2c-.015.066-.011.172-.049.19a4.4,4.4,0,0,1-.472.168C105.585,169.474,104.489,170.253,103.776,169.174Z"/>
    <path class="cls-50" d="M105.384,168.105h-1.612l.537-1.074C104.983,167.073,105.984,166.788,105.384,168.105Z"/>
    <path class="cls-71" d="M67.386,147.212H93.914l0,.269H67.281Z"/>
    <path class="cls-21" d="M108.977,160.168c-.107.353-.314.652-.7.608a.587.587,0,0,1-.519-.747.753.753,0,0,1,.531-.425A.564.564,0,0,1,108.977,160.168Z"/>
    <path class="cls-51" d="M103.233,165.954l0,.539H64.518c.884-.93,2.026-.516,3.048-.518Q85.4,165.929,103.233,165.954Z"/>
  </g>
</svg>
