<svg id="Layer_1" data-name="Layer 1" xmlns="http://www.w3.org/2000/svg" viewBox="0 0 404.256 104.513">
  <defs>
    <style>
      .cls-1 {
        fill: #040707;
      }

      .cls-2 {
        fill: #00adee;
      }

      .cls-3 {
        fill: #050808;
      }

      .cls-4 {
        fill: #403c3d;
      }

      .cls-5 {
        fill: #3c393a;
      }

      .cls-6 {
        fill: #464343;
      }

      .cls-7 {
        fill: #242021;
      }

      .cls-8 {
        fill: #413e3f;
      }

      .cls-9 {
        fill: #4f4b4c;
      }

      .cls-10 {
        fill: #f5fbfd;
      }

      .cls-11 {
        fill: #7ad4f6;
      }

      .cls-12 {
        fill: #a6e2f9;
      }

      .cls-13 {
        fill: #fbfbfb;
      }

      .cls-14 {
        fill: #2b2728;
      }

      .cls-15 {
        fill: #ececec;
      }
    </style>
  </defs>
  <title>6f31ee19-d8b0-497e-94b0-d5cad85b00ba</title>
  <g>
    <path class="cls-1" d="M214.285,50.372a4.606,4.606,0,0,0-.657,0c-3.457.505-5.487-.317-7.09-4.111-3.127-7.4-14.678-8.065-19.981-1.585-2.589,3.163-3.646,6.919-4.118,10.895A33.815,33.815,0,0,0,183.5,70.313c2.363,7.186,8.575,10.742,15.734,9.157,4.576-1.013,7.079-4.138,8.344-8.379.469-1.571,1.118-2.222,2.844-2.106a68.769,68.769,0,0,0,7.89.012c1.57-.075,1.827.448,1.551,1.875-2.375,12.267-13.077,20.194-25.64,19.38-15.653-1.013-22.545-12.217-23.955-23.5-.873-6.983-.579-13.874,1.874-20.526,3.78-10.253,12.463-16.166,23.433-16.111,4.576.023,9.044.634,13.145,2.811,6.434,3.415,10.088,8.86,11.458,15.944.222,1.146-.055,1.6-1.293,1.523C217.36,50.3,215.82,50.372,214.285,50.372Z"/>
    <path class="cls-1" d="M240.09,51.452c5.265-6.41,12.346-8.163,19.377-5,4.481,2.017,7.119,5.467,7.438,10.475.646,10.148.147,20.308.32,30.461.016.929-.23,1.294-1.215,1.277-3-.052-5.994-.089-8.987.011-1.508.05-1.176-.9-1.177-1.711q-.011-11.619-.01-23.238a21.605,21.605,0,0,0-.134-3.061c-.538-3.709-2.14-5.7-4.9-6.219-3.985-.747-7.445.732-9.174,3.967a14.605,14.605,0,0,0-1.523,6.987c-.018,7.161-.053,14.323.019,21.484.014,1.427-.35,1.863-1.793,1.8-2.625-.121-5.262-.1-7.89-.006-1.19.041-1.436-.368-1.434-1.484q.049-27.074-.008-54.149c0-1.383.407-1.745,1.733-1.692,2.48.1,4.973.12,7.451-.005,1.518-.077,1.97.356,1.944,1.913C240.033,39.158,240.09,45.057,240.09,51.452Z"/>
    <path class="cls-1" d="M105.666,82.857a15.3,15.3,0,0,1-13.949,6.718c-7.585-.293-12.2-4.45-13.133-12A93.792,93.792,0,0,1,78.2,66.193c-.012-6.138.041-12.277-.037-18.414-.017-1.376.379-1.752,1.719-1.7a70.528,70.528,0,0,0,7.45-.01c1.763-.112,2.339.3,2.307,2.207-.127,7.524-.054,15.052-.05,22.579,0,.877-.015,1.757.056,2.629.352,4.325,2.059,6.472,5.4,6.839,4.7.516,8.1-1.411,9.374-5.371a21.838,21.838,0,0,0,.76-6.722c.016-6.723.045-13.446-.026-20.168-.015-1.444.233-2.083,1.869-1.993,2.623.145,5.261.088,7.889.016,1.1-.031,1.518.224,1.514,1.43q-.063,19.839,0,39.679c0,1.127-.262,1.518-1.442,1.477-2.554-.09-5.118-.111-7.67.006-1.369.063-1.81-.346-1.672-1.694C105.759,85.833,105.666,84.657,105.666,82.857Z"/>
    <path class="cls-2" d="M403.412,43.535c1.543,4.181.818,8.275-.944,12.112a63.174,63.174,0,0,0-4.3,13.5,17.939,17.939,0,0,1-.819,3.17c-3.507,8.491-6.553,17.147-9.434,25.867a12.694,12.694,0,0,1-3.567,5.444c-1.561,1.415-2.6,1.138-3.036-.907a47.86,47.86,0,0,1-.628-10.684c.126-10.3,1.188-20.556,1.154-30.863-.011-3.493.454-6.988.374-10.5a8.818,8.818,0,0,1,3.824-7.692,9.778,9.778,0,0,0,6.515,2.026c2.04.023,4.081.063,6.119-.027A9.264,9.264,0,0,0,403.412,43.535Z"/>
    <path class="cls-1" d="M311.034,60.027c0,8.913-.039,17.827.037,26.74.013,1.55-.416,2-1.942,1.916a62.833,62.833,0,0,0-7.229,0c-1.637.1-2.07-.36-2.06-2.027.078-12.42.042-24.84.042-37.261,0-5.48.048-10.96-.033-16.438-.021-1.438.372-1.89,1.827-1.818a73.79,73.79,0,0,0,7.449,0c1.532-.079,1.956.379,1.944,1.925C311,42.054,311.034,51.04,311.034,60.027Z"/>
    <path class="cls-1" d="M67.72,60.061c0,8.914-.044,17.829.041,26.743.015,1.584-.445,1.954-1.943,1.88-2.551-.127-5.114-.069-7.67-.018-1.022.02-1.534-.1-1.531-1.376q.071-27.4.01-54.8c0-1.07.326-1.357,1.362-1.332,2.7.067,5.411.112,8.108-.014,1.43-.067,1.657.459,1.65,1.738C67.7,41.939,67.72,51,67.72,60.061Z"/>
    <path class="cls-1" d="M322.061,59.914c0-8.986.031-17.972-.033-26.958-.01-1.414.332-1.882,1.793-1.814,2.624.123,5.261.1,7.888.006,1.2-.042,1.435.379,1.433,1.489q-.048,27.287,0,54.573c0,1.131-.279,1.5-1.446,1.465-2.627-.087-5.264-.118-7.888.008-1.466.07-1.791-.408-1.781-1.812C322.092,77.886,322.061,68.9,322.061,59.914Z"/>
    <path class="cls-1" d="M355.355,67.587c0,6.433-.047,12.866.035,19.3.019,1.471-.419,1.858-1.84,1.8-2.627-.113-5.263-.088-7.893-.007-1.18.036-1.618-.216-1.613-1.522q.076-19.736.005-39.473c0-1.214.288-1.64,1.56-1.595,2.7.1,5.412.116,8.111-.005,1.447-.065,1.67.5,1.66,1.772C355.325,54.429,355.355,61.008,355.355,67.587Z"/>
    <path class="cls-1" d="M288.955,67.591c0,6.427-.042,12.854.033,19.28.016,1.407-.321,1.882-1.784,1.813-2.623-.124-5.258-.09-7.885-.01-1.184.036-1.614-.236-1.609-1.531q.074-19.718.006-39.436c0-1.192.238-1.674,1.544-1.623,2.625.1,5.264.142,7.884-.01,1.679-.1,1.854.613,1.84,2.019C288.919,54.591,288.955,61.091,288.955,67.591Z"/>
    <path class="cls-1" d="M403.412,43.535c-.039,1.109-.842,1.467-1.724,1.618a35.018,35.018,0,0,1-13.806-.2c-1-.229-2.025-.561-1.847-1.96a8.208,8.208,0,0,1,1.505-1.235c6.9-3.34,9.345-9.306,10.128-16.474.768-7.041,1.835-14.045,1.36-21.165a8.331,8.331,0,0,1,.337-2.739,1.747,1.747,0,0,1,2.21-1.31c1.254.31.38,1.254.214,1.75-.663,1.978.079,3.909.059,5.858-.092,9.061-1.563,18.055-1.22,27.137a8.727,8.727,0,0,0,1.379,5.111A6.172,6.172,0,0,1,403.412,43.535Z"/>
    <path class="cls-3" d="M349.64,30.942c1.807,0,4.2-.706,5.269.183,1.272,1.06.4,3.544.425,5.406.064,4.628.021,4.628-4.626,4.628-1.673,0-3.35-.059-5.019.02-1.147.055-1.717-.16-1.661-1.508.106-2.542.061-5.092.015-7.638-.017-.925.257-1.3,1.232-1.256,1.452.07,2.909.018,4.365.018Z"/>
    <path class="cls-3" d="M283.193,41.236c-1.731-.082-4.025.481-5.047-.413-1.207-1.055-.362-3.418-.386-5.208-.063-4.82-.021-4.836,4.837-4.813,2.025.01,4.581-.621,5.923.364,1.309.961.383,3.664.413,5.6.069,4.393.022,4.394-4.427,4.394H283.2Z"/>
    <path class="cls-4" d="M366.023,30.771c3.142-1.4,5.425-.732,7.393,2.16-.137.275-.25.577-.636.578a8.088,8.088,0,0,0-6.316-2.018C366.166,31.343,365.939,31.151,366.023,30.771Z"/>
    <path class="cls-5" d="M372.951,33.527l.465-.6c1.452,3.589.64,6.015-2.6,7.783-.308-.2-.875.033-.955-.56A7.272,7.272,0,0,0,372.951,33.527Z"/>
    <path class="cls-6" d="M364.7,39.5a4.92,4.92,0,0,1-.984-6.33,1.094,1.094,0,0,1,.742.6c-.237,1.84.45,3.52.914,5.241C365.283,39.352,365.128,39.611,364.7,39.5Z"/>
    <path class="cls-7" d="M369.926,40.359l.885.354a4.846,4.846,0,0,1-4.326.039c-.023-.686.521-.736.983-.882A2.847,2.847,0,0,1,369.926,40.359Z"/>
    <path class="cls-8" d="M364.212,33.794l-.492-.626a4.076,4.076,0,0,1,2.3-2.4l.58.465A4.081,4.081,0,0,1,364.212,33.794Z"/>
    <path class="cls-9" d="M367.365,40.359l-.88.393A2.572,2.572,0,0,1,364.7,39.5l.459-.5C366.15,39.043,367.09,39.163,367.365,40.359Z"/>
    <path class="cls-1" d="M38.5,57.7A12.629,12.629,0,0,0,43.7,52.858a14.545,14.545,0,0,0-7.628-20.311,24.409,24.409,0,0,0-8.388-1.37c-8.553,0-17.106.048-25.657-.042C.4,31.118-.006,31.507,0,33.155.067,50.991.042,68.827.042,86.663a7.34,7.34,0,0,1-.005.877c-.1.847.231,1.143,1.1,1.122,10.224-.244,20.47.549,30.674-.459,7.666-.758,13.229-5.731,14.778-12.86C48.307,67.428,45.952,62.218,38.5,57.7ZM11.439,42.643c-.028-1.161.317-1.506,1.468-1.462,2.261.086,4.528.025,7.232.025,2.766.083,5.989-.217,9.164.5,2.782.625,4.169,2.139,4.455,4.931.313,3.058-.924,5.338-3.511,6.372a12.9,12.9,0,0,1-4.718.834c-4.163.032-8.328-.031-12.49.037-1.235.02-1.632-.338-1.6-1.593Q11.563,47.466,11.439,42.643ZM28.883,78.338c-2.883.566-5.821.151-8.253.267-2.886,0-5.295-.052-7.7.023-1.107.034-1.515-.235-1.494-1.431.074-4.156.053-8.314.011-12.471-.01-.989.2-1.452,1.317-1.416,5.172.168,10.358-.284,15.521.286,4.248.469,6.391,2.6,6.6,6.467C35.141,74.632,33.1,77.509,28.883,78.338Z"/>
    <path class="cls-1" d="M136.709,70.523c4.532.1,9.068.035,13.6.035h10.97c4.784,0,4.784,0,4.567-4.906-.567-12.838-8.23-20.443-20.77-20.612-9.557-.129-17.092,4.85-19.853,13.213a31.648,31.648,0,0,0-1.289,12.784c.573,6.6,2.954,12.167,8.955,15.68a24.494,24.494,0,0,0,20.694,2.046A17.591,17.591,0,0,0,164.84,78.156c.5-1.214.561-2.055-1.27-1.962-2.7.138-5.412.088-8.115.01a2.446,2.446,0,0,0-2.3,1.212c-2.436,3.345-6.737,4.506-11.234,3.167a9.453,9.453,0,0,1-6.756-8.318C135.01,70.939,135.273,70.492,136.709,70.523ZM135.432,62.3a9.057,9.057,0,0,1,8.876-8.058c5.16-.246,9.074,2.737,9.824,7.368.2,1.229.007,1.651-1.331,1.6-2.693-.1-5.393-.03-8.09-.03s-5.394.019-8.091-.017C136.106,63.159,135.319,63.574,135.432,62.3Z"/>
    <path class="cls-10" d="M397.263,65c-.747,6.773-3.284,13-5.863,19.215-.39.093-.609.02-.424-.44,1.067-5.811,3.623-11.179,5.024-16.89.259-1.057.537-2.109.807-3.164C397.881,63.816,397.212,64.535,397.263,65Z"/>
    <path class="cls-11" d="M397.263,65c-.188-.414.024-.97-.457-1.28-.137-.617.247-1.016.7-2.018C397.611,63.2,397.818,64.121,397.263,65Z"/>
    <path class="cls-12" d="M390.975,83.772l.424.44-.467,1.2C390.307,84.749,390.651,84.261,390.975,83.772Z"/>
    <path class="cls-13" d="M367.365,40.359l-2.2-1.36a5.389,5.389,0,0,1-.951-5.2,7.785,7.785,0,0,1,2.391-2.559,5.222,5.222,0,0,1,6.348,2.291c.657,3.78.12,4.993-3.024,6.832Z"/>
    <path class="cls-14" d="M366.406,35.523c-.008-3.333-.008-3.333,2.715-2.969,1.845.247,2.508,1.225,1.512,2.8-.657,1.037.641,1.319.349,2.077-.139.36.241.962-.29,1.133-.595.191-.69-.325-.693-.784-.007-1-.537-1.395-1.5-1.44-1.362-.064-1,.916-1.059,1.644-.025.313-.1.592-.442.628-.49.052-.582-.305-.586-.69C366.4,37.121,366.406,36.322,366.406,35.523Z"/>
    <path class="cls-15" d="M370,34.293c-.005,1-.69,1.162-1.456,1.228-.656.057-1.142-.069-1.124-.893.015-.663-.093-1.359.93-1.294C369.069,33.38,369.839,33.311,370,34.293Z"/>
  </g>
</svg>
