<svg id="Layer_1" data-name="Layer 1" xmlns="http://www.w3.org/2000/svg" viewBox="0 0 335.138 290.059">
  <defs>
    <style>
      .cls-1 {
        fill: #7ac042;
      }

      .cls-2 {
        fill: #f8fcf2;
      }

      .cls-3 {
        fill: #fcfdfa;
      }
    </style>
  </defs>
  <title>05b7af0a-1148-43d1-89cc-93537a5aff97</title>
  <g>
    <path class="cls-1" d="M167.595.023Q243.283.023,318.972,0c9.619-.009,16.179,7.1,16.166,16.174q-.185,128.971-.072,257.942c0,9.587-6.252,15.87-15.8,15.871q-151.913,0-303.825.072A15.551,15.551,0,0,1,0,274.581c.164-34.234.079-68.47.081-102.7Q.086,93.4.087,14.924A14.593,14.593,0,0,1,10.068.677,15.6,15.6,0,0,1,15.359.023Q42.8.011,70.25.014h97.345ZM149.382,233.5a2.838,2.838,0,0,0,2.643,2.438l.854.027a2.648,2.648,0,0,0,2.959-1.242l.024-.038a2.194,2.194,0,0,0,.946-2.041c.334-11.031.4-22.063-.014-33.094l-.009-1.265c.114-2.824-1.306-4.6-3.736-4.666-2.357-.067-3.991,1.574-4.03,4.256-.046,3.133.047,6.268.08,9.4l-.087.865c-.628.071-1.059-.347-1.555-.615-4.759-2.573-9.714-2.274-13.653,1.439-5.043,4.753-5.9,10.876-4.294,17.327.975,3.907,3.116,7.17,7.078,8.822l.127.108.166-.006a8.591,8.591,0,0,0,7,.821l.865-.108a.36.36,0,0,0,.46-.312l-.017.024c1.766.013,2.527-1.975,4.215-2.118ZM59.753,215.056a16.913,16.913,0,0,1,.5,4.861c-.045,3.922-.079,7.846.023,11.766.083,3.2,2.161,4.911,4.985,4.314,1.953-.413,3-1.962,3.037-4.8.055-4.778.024-9.556.012-14.334a2.844,2.844,0,0,0-.339-1.855l-.084-.853a9.1,9.1,0,0,0-6.766-7.681,12.631,12.631,0,0,0-10.872,1.79c0-3.531.016-6.721,0-9.91-.02-3.077-1.429-4.719-4-4.727s-3.983,1.638-3.984,4.716q0,14.023,0,28.046c0,2-.055,4,.033,5.993a3.643,3.643,0,0,0,2.63,3.53,3.883,3.883,0,0,0,4.149-.956,4.879,4.879,0,0,0,1.2-3.757c0-4.068-.028-8.136,0-12.2a10.26,10.26,0,0,1,.381-3.378c1.039-3.009,6-4.486,9.126-.554Zm75.8-32.745c9.755-.211,19.752-.469,29.652-2.084,4.429-.722,6.186-3.347,5.481-7.765a150.507,150.507,0,0,1-1.475-15.339c-.152-2.714-1.337-4.456-3.956-5.095-3.615-.881-7.091-.7-10.165,1.738a11.4,11.4,0,0,1-3.419,1.733c-1.978.691-4.254.919-5.232,3.288-.139.337-.83.5-1.3.637-1.511.429-3.041.79-4.556,1.205-1.08.3-2,.427-2.782-.738a3.031,3.031,0,0,0-2.917-1,31.3,31.3,0,0,1-8.705-.971c-2.007-.435-4.028-.908-5.523-2.58a15.463,15.463,0,0,1-.327-20.36,6.828,6.828,0,0,1,3.342-2.2,34.79,34.79,0,0,1,11.374-1.724,3.162,3.162,0,0,0,2.856-1.072,2,2,0,0,1,2.449-.668c1.582.439,3.186.8,4.77,1.232.539.147,1.288.2,1.468.763.631,1.979,2.358,2.312,3.977,2.841a18.717,18.717,0,0,1,5.146,2.537c2.931,2.085,6.313,2.139,9.668,1.292a4.9,4.9,0,0,0,3.411-2.732,2.982,2.982,0,0,0-.574-3.733,2.763,2.763,0,0,0-3.895-.171c-1.863,1.551-3.688,1.279-5.454-.026a17.925,17.925,0,0,0-5.33-2.673,3.114,3.114,0,0,1-1.934-1.226,5.824,5.824,0,0,0-3.649-2.443c-2.48-.669-4.945-1.431-7.461-1.919-2.4-.466-4.867-.666-6.759,1.475-.368.416-.888.376-1.385.441-2.19.287-4.392.515-6.559.93-4.207.806-8.276,2.052-10.835,5.829-3.566,5.264-5.5,11.024-3.994,17.427,1.662,7.047,4.957,12.711,12.766,14.536,4.221.987,8.48,1.742,12.685,3.015,4.956,1.5,10.418-.432,14.811-3.682,2.982-2.206,6.475-3.341,9.618-5.18.272-.159.7-.039,1.059-.061.874-.055,1.255.3,1.333,1.224.379,4.478.766,8.958,1.279,13.422.17,1.476-.387,1.777-1.7,1.959-4.884.676-9.784,1.1-14.707,1.352a231.96,231.96,0,0,1-38.725-1.1c-2.284-.266-3.472-.948-3.437-3.47a27.36,27.36,0,0,0-.326-3.385,209.079,209.079,0,0,1,.355-49.589c.277-2.274,1.211-2.458,3.037-2.194a136.813,136.813,0,0,0,14.3,1.112,4.554,4.554,0,0,0,4.808-3.181c1.307-3.538,1.244-7.068-.912-10.253a20.392,20.392,0,0,1-2.821-5.937c-.389-1.372-.879-2.681-2.439-3.308-.828-.333-2.687-7.205-2.329-7.989a.847.847,0,0,1,.268-.33c1.7-1.188,1.639-2.9,1.679-4.743a34.894,34.894,0,0,1,1.589-9.692,7.843,7.843,0,0,1,2.926-4.107,16,16,0,0,1,17.584-.844,9.089,9.089,0,0,1,4.285,5.624,43.7,43.7,0,0,1,1.429,8.864c.12,1.89-.392,3.948,1.8,5.1a.783.783,0,0,1,.229.73c-1.31,2.686-.3,6.4-3.643,8.2-.634.343-.724,1.185-1,1.843-.753,1.762-.96,3.785-2.221,5.292a11.2,11.2,0,0,0-2.39,9.227c.571,4.04,2.427,5.619,6.472,5.483,12.222-.413,24.247-2.868,36.448-3.529,2.345-.127,3.514.977,2.134,2.83-2.207,2.962-2.5,6.977-5.536,9.414a4.88,4.88,0,0,0-1.448,2.593c-.666,2.482-1.419,4.953-1.868,7.476-.37,2.083-.805,4.368.71,6.184a5.688,5.688,0,0,1,1.247,3.515,44.042,44.042,0,0,0,1.7,8.819,13.178,13.178,0,0,0,5,7.266,21.99,21.99,0,0,0,24.781,1.144,13.931,13.931,0,0,0,6.776-8.968c.494-2.158.983-4.306,1.326-6.5.236-1.511-.228-3.288.931-4.507a5.708,5.708,0,0,0,1.5-4.723c-.308-3.721-1.505-7.242-2.558-10.789a5.867,5.867,0,0,0-1.478-2.069c-2.535-2.826-3.432-6.572-5.355-9.748-.034-.055-.018-.14-.026-.211-.156-1.31.176-1.987,1.739-1.825,4.546.471,9.111.754,13.656,1.224,3.963.41,6.391-1.217,7.008-5.095a191.857,191.857,0,0,0,2.187-31.59,206.815,206.815,0,0,0-1.9-26.9c-.684-4.94-2.371-6.539-7.34-7.239A185.458,185.458,0,0,0,209.1,42.326,213.6,213.6,0,0,0,170.846,44.1c-4.627.666-6.5,3.135-5.853,7.708.752,5.309,1.217,10.64,1.494,15.986a4.573,4.573,0,0,0,3.409,4.436c3.3,1.035,6.735,1.1,9.68-.943a25.493,25.493,0,0,1,6.933-3.233c.929-.3,1.861-.661,2.162-1.577.36-1.095,1.149-1.343,2.062-1.571,1.314-.328,2.646-.605,3.934-1.019,1.323-.425,2.454-.562,3.4.777a2.19,2.19,0,0,0,2.091.828,28.964,28.964,0,0,1,8.71.816c2.485.534,5,1.121,6.779,3.308a16.221,16.221,0,0,1,.573,18.835,8.12,8.12,0,0,1-4.583,3.324,38.8,38.8,0,0,1-9.916,1.559c-1.692-.007-3.306-.033-4.38,1.589a.9.9,0,0,1-1.135.38c-2.631-1.215-6.261-.2-7.949-3.565a1.848,1.848,0,0,0-1.05-.7,30.755,30.755,0,0,1-8.473-3.994,7.3,7.3,0,0,0-2.621-.882c-3.738-.818-7.5.275-8.943,2.584a3.081,3.081,0,0,0,.254,4.123,2.773,2.773,0,0,0,4.052.1,3.422,3.422,0,0,1,4.7-.255c2.925,2.383,7.111,2.648,9.5,5.854a2.474,2.474,0,0,0,1.325.648c3.107.8,6.214,1.6,9.34,2.325a4.688,4.688,0,0,0,4.129-.558c1.787-1.535,3.875-1.513,5.961-1.873,4.271-.737,8.825-1.025,12.126-4.255,6.009-5.881,7.934-13.021,5.741-21.18-1.922-7.151-6.134-11.827-13.733-13.292-3.669-.707-7.74-.2-10.889-2.929a.724.724,0,0,0-.413-.094,24.308,24.308,0,0,0-13.9,3.361,43.759,43.759,0,0,1-5.75,3.333,14.014,14.014,0,0,0-2.546,1.565,6,6,0,0,1-2.752,1.085c-1.236.162-1.755-.187-1.856-1.559-.3-4.128-.566-8.279-1.26-12.35-.4-2.37.524-2.7,2.437-2.917,6.317-.714,12.645-1.151,19-1.451a204.921,204.921,0,0,1,34.41,1.493c1.706.207,2.469.918,2.615,2.632.346,4.054.909,8.091,1.217,12.147a222.87,222.87,0,0,1-1.2,42.132c-.159,1.394-.654,1.739-2.055,1.6-5.118-.492-10.239-.962-15.388-1.093a4.337,4.337,0,0,0-4.529,2.894c-1.445,3.708-1.437,7.416.955,10.807a17.815,17.815,0,0,1,2.146,4.161c.7,1.881.842,4.139,3.239,4.977.314.11.451.845.589,1.315.422,1.438.811,2.886,1.2,4.333.318,1.178.657,2.264-.826,3.088a2.574,2.574,0,0,0-.91,2.518c.291,3.772-.588,7.373-1.511,10.971a7.346,7.346,0,0,1-2.121,3.641c-4.812,4.531-12.914,5.176-18.663,1.421a8.6,8.6,0,0,1-4.03-5.278,41.388,41.388,0,0,1-1.471-10.337c.009-1,.239-2.236-.684-2.794-1.675-1.012-1.244-2.265-.839-3.652.4-1.371.729-2.762,1.085-4.146.143-.558.264-1.109.924-1.324,1.312-.428,1.743-1.546,2.176-2.719.806-2.185,1.167-4.581,2.728-6.428,2.441-2.889,2.282-6.184,1.474-9.521a4.741,4.741,0,0,0-5.145-3.886,152.7,152.7,0,0,0-15.584,1.173c-7.439.93-14.873,1.875-22.363,2.337-1.948.12-2.231-.756-1.84-2.294a4.553,4.553,0,0,1,.668-1.56,18.916,18.916,0,0,0,3.03-6.1A1.82,1.82,0,0,1,152.7,99.7c1.895-1.1,2.625-2.893,3.065-4.919.469-2.159,1.123-4.279,1.578-6.44.511-2.427.718-4.846-1.381-6.764a2.21,2.21,0,0,1-.516-1.581c-.17-1.562-.338-3.124-.545-4.681-.811-6.084-3.122-11.1-8.844-14.3-10.618-5.942-28.939-2.151-30.122,14.725-.179,2.551.012,5.333-2.143,7.413-.575.555-.394,1.5-.407,2.275-.07,4.078,1.465,7.819,2.509,11.661a2.368,2.368,0,0,0,.819,1.234c3.183,2.255,3.272,6.345,5.521,9.219,1.539,1.967.41,3.471-2.105,3.283-4.057-.3-8.118-.631-12.152-1.149-3.009-.386-5.4.382-7,2.988-.847,1.376-.675,3.033-.894,4.58a205.532,205.532,0,0,0,.19,57.214c.493,3.574,2,5.169,5.59,5.764C115.6,181.831,125.452,182.156,135.556,182.311Zm55.011,51.841c1.448.655,2.512,1.244,3.646,1.629a11,11,0,0,0,11.193-2.179c7.181-5.97,6.609-17.47,1.422-23.637-3.3-3.919-9.235-5.291-13.4-2.916-1.8,1.028-2.7,1.857-4.768-.017-2.55-2.307-6.081.1-6.1,3.913-.047,10.643-.033,21.287-.023,31.931,0,3.022,1.492,4.748,4.012,4.761s3.96-1.641,4-4.743C190.6,240.044,190.567,237.192,190.567,234.153Zm41.866-.975c1.554,2.648,2.9,3.339,5.163,2.782,2.364-.581,2.482-2.478,2.485-4.387q.015-10.7-.013-21.4c0-1.61-.452-3.06-2.13-3.578-1.813-.561-3.666-.419-4.756,1.359-.706,1.151-1.155.824-1.9.2-3.12-2.592-6.649-2.738-10.269-1.424-5.938,2.155-9.613,8.8-8.911,16.226.511,5.4,2.643,9.938,7.874,12.348C224.513,237.4,228.713,236.823,232.433,233.178ZM127.172,221.366h.02q0-5.353,0-10.707c0-1.714-.235-3.4-2.116-4.038a3.961,3.961,0,0,0-4.933,1.47c-.549.818-.849.807-1.616.26a11.154,11.154,0,0,0-16.008,2.527c-3.842,5.179-4.319,10.869-2.292,16.85,2.757,8.14,11.28,10.977,18.336,6.127.615-.423.994-.673,1.445.247.992,2.026,2.826,2.325,4.751,1.8,2.117-.574,2.428-2.365,2.42-4.263C127.163,228.218,127.172,224.792,127.172,221.366Zm-40.383,2.61v-.036c2.571,0,5.143.052,7.711-.016a3.057,3.057,0,0,0,3.346-3.335,11.151,11.151,0,0,0-.248-2.551c-1.158-5.729-4.475-9.722-10.042-11.458a12.778,12.778,0,0,0-13.575,3.477c-3.477,3.511-4.616,7.877-4.367,12.761a14.2,14.2,0,0,0,9.054,12.641c5.618,2.058,14.179.462,17.446-3.276,1.21-1.384,1.53-2.9.366-4.476a3.051,3.051,0,0,0-4.167-.93c-1.221.582-2.382,1.294-3.615,1.849-4.134,1.864-8.947.506-10.452-2.889-.5-1.118-.628-1.85,1.046-1.786C81.788,224.047,84.29,223.976,86.789,223.976Zm195.7-.017v-.015c2.5,0,5,.033,7.5-.01,2.317-.04,3.47-1.116,3.46-3.427-.039-9.232-9.464-17.884-19.772-13.309-6.873,3.05-10.115,11.1-7.916,19.058,1.838,6.649,8.32,10.888,15.718,10.108,3.806-.4,7.477-1.384,10.24-4.3a3.1,3.1,0,0,0,.229-4.446,3.006,3.006,0,0,0-4.18-.792c-1.334.683-2.645,1.431-4.033,1.985-3.953,1.579-8.53.163-9.912-2.976-.534-1.214-.615-1.986,1.166-1.9C277.486,224.047,279.991,223.959,282.491,223.959ZM169.747,236.4c.5,0,1,.038,1.5-.006,4.8-.427,8.812-3.56,9.455-7.364.778-4.6-1.017-7.4-6.346-9.782-1.692-.756-3.462-1.34-5.139-2.125-1.106-.518-2.3-1.236-1.721-2.759.561-1.488,1.885-1.574,3.234-1.284a29.847,29.847,0,0,1,4.789,1.828c2.44.982,4.412-.416,4.563-3.051.116-2.027-1.049-3.228-2.6-4.077a14.6,14.6,0,0,0-10.362-1.424c-3.947.849-6.908,3.7-7.373,7.112-.588,4.313,1.007,7.175,5.285,9.213,1.992.949,4.083,1.686,6.105,2.573,1.117.49,2.4,1.053,2,2.6-.441,1.7-1.962,1.647-3.327,1.59a11.556,11.556,0,0,1-4.771-1.774c-2.651-1.377-4.687-1.061-5.836.856-1.207,2.013-.472,3.994,2.2,5.635A16,16,0,0,0,169.747,236.4Zm71.9-15.273c.006,9.233,6.168,15.684,14.687,15.285a13.215,13.215,0,0,0,7.251-2.253,3.648,3.648,0,0,0,1.293-4.874c-.9-1.641-2.535-2.109-4.611-1.329-.733.276-1.464.566-2.213.792a5.943,5.943,0,0,1-7.5-3.22,9.9,9.9,0,0,1-.2-8.294,6.038,6.038,0,0,1,7.706-3.591,15.578,15.578,0,0,0,3.477,1.021c2.208.181,3.353-.7,3.716-2.89.326-1.963-.548-3.49-2.857-4.439C250.582,202.471,241.486,211.108,241.649,221.125Z" transform="translate(0)"/>
    <path class="cls-2" d="M135.556,182.311c-10.1-.155-19.952-.48-29.7-2.094-3.594-.595-5.1-2.191-5.59-5.764a205.532,205.532,0,0,1-.19-57.214c.219-1.547.047-3.2.894-4.58,1.606-2.607,4-3.375,7-2.988,4.034.518,8.094.847,12.152,1.149,2.515.187,3.645-1.316,2.105-3.283-2.249-2.874-2.338-6.964-5.521-9.219a2.368,2.368,0,0,1-.819-1.234c-1.045-3.841-2.579-7.583-2.509-11.661.013-.777-.168-1.72.407-2.275,2.155-2.08,1.964-4.863,2.143-7.413,1.183-16.877,19.5-20.667,30.122-14.725,5.722,3.2,8.033,8.22,8.844,14.3.208,1.557.376,3.119.545,4.681a2.21,2.21,0,0,0,.516,1.581c2.1,1.918,1.892,4.337,1.381,6.764-.455,2.162-1.108,4.281-1.578,6.44C155.32,96.8,154.59,98.6,152.7,99.7a1.82,1.82,0,0,0-.764,1.233,18.916,18.916,0,0,1-3.03,6.1,4.553,4.553,0,0,0-.668,1.56c-.39,1.538-.108,2.414,1.84,2.294,7.49-.462,14.925-1.408,22.363-2.337a152.7,152.7,0,0,1,15.584-1.173,4.741,4.741,0,0,1,5.145,3.886c.808,3.337.968,6.631-1.474,9.521-1.561,1.847-1.922,4.243-2.728,6.428-.432,1.173-.863,2.291-2.176,2.719-.661.215-.781.766-.924,1.324-.356,1.384-.685,2.775-1.085,4.146-.4,1.387-.836,2.64.839,3.652.923.558.693,1.8.684,2.794a41.388,41.388,0,0,0,1.471,10.337,8.6,8.6,0,0,0,4.03,5.278c5.749,3.755,13.852,3.11,18.663-1.421a7.346,7.346,0,0,0,2.121-3.641c.923-3.6,1.8-7.2,1.511-10.971a2.574,2.574,0,0,1,.91-2.518c1.483-.824,1.144-1.911.826-3.088-.39-1.447-.779-2.9-1.2-4.333-.138-.47-.275-1.205-.589-1.315-2.4-.838-2.543-3.1-3.239-4.977a17.815,17.815,0,0,0-2.146-4.161c-2.392-3.39-2.4-7.1-.955-10.807a4.337,4.337,0,0,1,4.529-2.894c5.149.131,10.27.6,15.388,1.093,1.4.135,1.9-.21,2.055-1.6a222.87,222.87,0,0,0,1.2-42.132c-.308-4.056-.871-8.093-1.217-12.147-.146-1.713-.909-2.425-2.615-2.632a204.921,204.921,0,0,0-34.41-1.493c-6.351.3-12.679.738-19,1.451-1.912.216-2.84.547-2.437,2.917.694,4.071.958,8.222,1.26,12.35.1,1.372.619,1.721,1.856,1.559a6,6,0,0,0,2.752-1.085,14.014,14.014,0,0,1,2.546-1.565,43.759,43.759,0,0,0,5.75-3.333,24.308,24.308,0,0,1,13.9-3.361.724.724,0,0,1,.413.094c3.15,2.73,7.22,2.222,10.889,2.929,7.6,1.465,11.812,6.141,13.733,13.292,2.193,8.159.267,15.3-5.741,21.18-3.3,3.231-7.854,3.518-12.126,4.255-2.086.36-4.174.339-5.961,1.873a4.688,4.688,0,0,1-4.129.558c-3.125-.724-6.233-1.524-9.34-2.325a2.474,2.474,0,0,1-1.325-.648c-2.393-3.205-6.579-3.471-9.5-5.854a3.422,3.422,0,0,0-4.7.255,2.773,2.773,0,0,1-4.052-.1,3.081,3.081,0,0,1-.254-4.123c1.445-2.308,5.2-3.4,8.943-2.584a7.3,7.3,0,0,1,2.621.882,30.755,30.755,0,0,0,8.473,3.994,1.848,1.848,0,0,1,1.05.7c1.688,3.364,5.318,2.351,7.949,3.565a.9.9,0,0,0,1.135-.38c1.073-1.622,2.688-1.6,4.38-1.589a38.8,38.8,0,0,0,9.916-1.559,8.12,8.12,0,0,0,4.583-3.324,16.221,16.221,0,0,0-.573-18.835c-1.775-2.187-4.295-2.774-6.779-3.308a28.964,28.964,0,0,0-8.71-.816,2.19,2.19,0,0,1-2.091-.828c-.944-1.34-2.075-1.2-3.4-.777-1.288.413-2.619.69-3.934,1.019-.913.228-1.7.477-2.062,1.571-.3.915-1.233,1.279-2.162,1.577a25.493,25.493,0,0,0-6.933,3.233c-2.945,2.045-6.381,1.978-9.68.943a4.573,4.573,0,0,1-3.409-4.436c-.276-5.346-.742-10.677-1.494-15.986-.648-4.573,1.226-7.043,5.853-7.708A213.6,213.6,0,0,1,209.1,42.326a185.458,185.458,0,0,1,19.168,1.555c4.968.7,6.656,2.3,7.34,7.239a206.815,206.815,0,0,1,1.9,26.9,191.857,191.857,0,0,1-2.187,31.59c-.617,3.877-3.045,5.5-7.008,5.095-4.546-.47-9.111-.754-13.656-1.224-1.564-.162-1.9.515-1.739,1.825.008.071-.007.156.026.211,1.923,3.176,2.82,6.922,5.355,9.748a5.867,5.867,0,0,1,1.478,2.069c1.053,3.547,2.25,7.068,2.558,10.789a5.708,5.708,0,0,1-1.5,4.723c-1.158,1.219-.695,3-.931,4.507-.343,2.194-.832,4.342-1.326,6.5a13.931,13.931,0,0,1-6.776,8.968,21.99,21.99,0,0,1-24.781-1.144,13.178,13.178,0,0,1-5-7.266,44.042,44.042,0,0,1-1.7-8.819,5.688,5.688,0,0,0-1.247-3.515c-1.515-1.817-1.08-4.1-.71-6.184.448-2.523,1.2-4.994,1.868-7.476a4.88,4.88,0,0,1,1.448-2.593c3.036-2.437,3.329-6.452,5.536-9.414,1.38-1.853.211-2.957-2.134-2.83-12.2.661-24.227,3.116-36.448,3.529-4.045.137-5.9-1.442-6.472-5.483a11.2,11.2,0,0,1,2.39-9.227c1.261-1.507,1.469-3.53,2.221-5.292.281-.658.371-1.5,1-1.843,3.345-1.809,2.332-5.518,3.643-8.2a.783.783,0,0,0-.229-.73c-2.2-1.156-1.683-3.214-1.8-5.1a43.7,43.7,0,0,0-1.429-8.864,9.089,9.089,0,0,0-4.285-5.624,16,16,0,0,0-17.584.844,7.843,7.843,0,0,0-2.926,4.107,34.894,34.894,0,0,0-1.589,9.692c-.04,1.842.018,3.556-1.679,4.743a.847.847,0,0,0-.268.33c-.358.784,1.5,7.656,2.329,7.989,1.56.627,2.049,1.936,2.439,3.308a20.392,20.392,0,0,0,2.821,5.937c2.157,3.185,2.219,6.715.912,10.253a4.554,4.554,0,0,1-4.808,3.181,136.813,136.813,0,0,1-14.3-1.112c-1.826-.264-2.76-.08-3.037,2.194a209.079,209.079,0,0,0-.355,49.589,27.36,27.36,0,0,1,.326,3.385c-.035,2.522,1.153,3.2,3.437,3.47a231.96,231.96,0,0,0,38.725,1.1c4.922-.25,9.822-.676,14.707-1.352,1.309-.181,1.866-.482,1.7-1.959-.513-4.464-.9-8.944-1.279-13.422-.078-.925-.459-1.279-1.333-1.224-.356.022-.787-.1-1.059.061-3.143,1.839-6.636,2.974-9.618,5.18-4.393,3.25-9.855,5.182-14.811,3.682-4.206-1.273-8.464-2.028-12.685-3.015-7.808-1.825-11.1-7.489-12.766-14.536-1.51-6.4.428-12.162,3.994-17.427,2.559-3.778,6.628-5.023,10.835-5.829,2.166-.415,4.369-.643,6.559-.93.5-.065,1.017-.025,1.385-.441,1.892-2.141,4.357-1.941,6.759-1.475,2.517.488,4.981,1.25,7.461,1.919a5.824,5.824,0,0,1,3.649,2.443,3.114,3.114,0,0,0,1.934,1.226,17.925,17.925,0,0,1,5.33,2.673c1.766,1.306,3.591,1.577,5.454.026a2.763,2.763,0,0,1,3.895.171,2.982,2.982,0,0,1,.574,3.733,4.9,4.9,0,0,1-3.411,2.732c-3.355.847-6.737.793-9.668-1.292a18.717,18.717,0,0,0-5.146-2.537c-1.619-.529-3.346-.862-3.977-2.841-.18-.566-.929-.617-1.468-.763-1.584-.432-3.188-.793-4.77-1.232a2,2,0,0,0-2.449.668,3.162,3.162,0,0,1-2.856,1.072,34.79,34.79,0,0,0-11.374,1.724,6.828,6.828,0,0,0-3.342,2.2,15.463,15.463,0,0,0,.327,20.36c1.495,1.672,3.516,2.144,5.523,2.58a31.3,31.3,0,0,0,8.705.971,3.031,3.031,0,0,1,2.917,1c.784,1.165,1.7,1.034,2.782.738,1.515-.415,3.045-.777,4.556-1.205.468-.133,1.159-.3,1.3-.637.979-2.369,3.255-2.6,5.232-3.288a11.4,11.4,0,0,0,3.419-1.733c3.074-2.441,6.55-2.619,10.165-1.738,2.62.638,3.8,2.381,3.956,5.095a150.507,150.507,0,0,0,1.475,15.339c.705,4.418-1.052,7.043-5.481,7.765C155.308,181.843,145.311,182.1,135.556,182.311Z" transform="translate(0)"/>
    <path class="cls-2" d="M190.567,234.153c0,3.039.032,5.891-.009,8.742-.045,3.1-1.474,4.756-4,4.743s-4.009-1.739-4.012-4.761c-.01-10.644-.024-21.287.023-31.931.017-3.81,3.547-6.22,6.1-3.913,2.071,1.874,2.967,1.045,4.768.017,4.164-2.375,10.1-1,13.4,2.916,5.186,6.167,5.758,17.667-1.422,23.637a11,11,0,0,1-11.193,2.179C193.08,235.4,192.015,234.807,190.567,234.153Zm12.114-13.35a7.916,7.916,0,0,0-1.407-4.743,5.391,5.391,0,0,0-9.568.316,9.8,9.8,0,0,0,.188,9.811c2.238,3.99,7.107,3.947,9.49.03A9.41,9.41,0,0,0,202.681,220.8Z" transform="translate(0)"/>
    <path class="cls-2" d="M232.433,233.178c-3.72,3.646-7.92,4.217-12.459,2.126-5.231-2.41-7.363-6.946-7.874-12.348-.7-7.422,2.973-14.071,8.911-16.226,3.621-1.314,7.149-1.168,10.269,1.424.748.622,1.2.948,1.9-.2,1.09-1.777,2.943-1.919,4.756-1.359,1.678.519,2.127,1.968,2.13,3.578q.015,10.7.013,21.4c0,1.909-.121,3.805-2.485,4.387C235.332,236.517,233.987,235.825,232.433,233.178Zm-12.358-12.017a9.3,9.3,0,0,0,1.506,5.465,5.366,5.366,0,0,0,8.872.294c2.3-2.937,2.285-8.461-.039-11.436a5.3,5.3,0,0,0-8.46-.084A8.74,8.74,0,0,0,220.075,221.161Z" transform="translate(0)"/>
    <path class="cls-2" d="M127.172,221.366c0,3.426-.01,6.852,0,10.278.008,1.9-.3,3.689-2.42,4.263-1.925.522-3.759.223-4.751-1.8-.451-.921-.83-.67-1.445-.247-7.056,4.85-15.578,2.012-18.336-6.127-2.026-5.981-1.549-11.672,2.292-16.85a11.154,11.154,0,0,1,16.008-2.527c.768.547,1.067.558,1.616-.26a3.961,3.961,0,0,1,4.933-1.47c1.881.633,2.114,2.323,2.116,4.038q.007,5.353,0,10.707Zm-20.157-.148a10.413,10.413,0,0,0,1.474,5.181c2.274,3.544,6.554,3.721,9.107.386,2.431-3.176,2.1-9.086-.669-11.909a5.324,5.324,0,0,0-7.336-.15C107.663,216.516,107.268,218.883,107.016,221.218Z" transform="translate(0)"/>
    <path class="cls-2" d="M86.789,223.976c-2.5,0-5,.071-7.5-.025-1.673-.064-1.541.668-1.046,1.786,1.5,3.4,6.318,4.753,10.452,2.889,1.232-.556,2.393-1.268,3.615-1.849a3.051,3.051,0,0,1,4.167.93c1.164,1.581.844,3.092-.366,4.476-3.267,3.738-11.828,5.334-17.446,3.276a14.2,14.2,0,0,1-9.054-12.641c-.249-4.884.89-9.25,4.367-12.761a12.778,12.778,0,0,1,13.575-3.477c5.567,1.736,8.883,5.729,10.042,11.458a11.151,11.151,0,0,1,.248,2.551,3.057,3.057,0,0,1-3.346,3.335c-2.569.067-5.141.016-7.711.016ZM83.7,218.5c1.5,0,2.993-.055,4.484.016,1.443.069,1.741-.451,1.266-1.777a6.088,6.088,0,0,0-11.589.281c-.392,1.22-.007,1.529,1.141,1.494C80.567,218.471,82.134,218.507,83.7,218.5Z" transform="translate(0)"/>
    <path class="cls-2" d="M282.491,223.959c-2.5,0-5,.088-7.5-.03-1.78-.084-1.7.688-1.166,1.9,1.381,3.139,5.958,4.555,9.912,2.976,1.387-.554,2.7-1.3,4.033-1.985a3.006,3.006,0,0,1,4.18.792,3.1,3.1,0,0,1-.229,4.446c-2.763,2.919-6.434,3.9-10.24,4.3-7.4.78-13.88-3.459-15.718-10.108-2.2-7.958,1.042-16.007,7.916-19.058,10.308-4.575,19.733,4.077,19.772,13.309.01,2.311-1.143,3.387-3.46,3.427-2.5.043-5,.01-7.5.01Zm-3.235-5.461v.016c1.641,0,3.283-.025,4.924.009,1.019.021,1.2-.466,1.02-1.348a6.219,6.219,0,0,0-5.824-4.538,6.333,6.333,0,0,0-5.9,4.167c-.3,1.123-.086,1.777,1.283,1.71C276.255,218.441,277.757,218.5,279.256,218.5Z" transform="translate(0)"/>
    <path class="cls-3" d="M156.784,198.286q0,.633.009,1.265c-.7.525-.476,1.294-.473,1.975.012,3.31-.2,6.608-.086,9.933a229.758,229.758,0,0,1-.373,23.227l-.023.038c-1.23-.168-2.533-.508-2.959,1.242l-.854-.027a3.8,3.8,0,0,0-2.643-2.438l.02.024c-.538-.732-3.478-1.168-3.85-.565-.059.1-.082.318-.026.363,1.208.974-.507,1.51-.339,2.32l.016-.024-.459.312-.865.108a27.038,27.038,0,0,0-7-.821l-.166.006-.127-.108a2.888,2.888,0,0,0-1.393-2.89,11.628,11.628,0,0,1-5.338-8.421c-.408-2.947.316-5.676,1.072-8.51.794-2.977,3.992-4.009,4.776-6.827.027-.1.227-.164.358-.211,3.917-1.408,7.8-2.523,11.457.7.98.865,1.346.1,1.492-.819l.087-.865c.958-.514.775-1.427.778-2.264.008-2.348-.006-4.7.011-7.043,0-.458-.163-1.165.548-1.163.569,0,.665.615.731,1.137.078.619-.273,1.39.766,1.833-.658-1.521,1.118-2.67.4-4.128-.264-.535-.35-.942.1-1.311.593-.484.816.3,1.225.413C155.469,195.275,155.557,197.279,156.784,198.286Zm-9.02,28.339c2.119-.946,1.211-3.235,2.084-4.748.363-.629-.2-3.36-.566-4.072a5.189,5.189,0,0,1-.283-1.223c-.712-3.219-1.825-4.131-5.057-4.142a3.338,3.338,0,0,1-1.063-.019c-2.185-.791-3.223.573-4.161,2.154-.659.005-1.309.043-1.6.783-2.028,5.114-1.933,9.429,1.912,13.811,1.551,1.768,3.939,1.726,5.726,1.411A4.288,4.288,0,0,0,147.765,226.626Zm-15.919-6.3c.538-1.131.615-1.809.008-2.7A2.538,2.538,0,0,0,131.846,220.321Zm19.878-10.732c.247-.991.537-1.574-.155-2.167C151.024,208.081,151.06,208.627,151.724,209.59Z" transform="translate(0)"/>
    <path class="cls-3" d="M67.885,214.16l.084.853c-.7.632-.412,1.47-.416,2.219-.026,4.565.006,9.129-.022,13.694-.014,2.355-2.152,4.666-3.8,4.184-.748-.219-3.042-3.589-2.938-4.375.617-4.678.289-9.364.162-14.05-.023-.871-.153-1.565-1.206-1.628l.022.014c.311-1.387-.42-2.067-1.591-2.623-1.453-.691-2.956-.453-4.427-.4-2.844.092-4.53,2.21-4.256,5.076a9.159,9.159,0,0,1-.024,2.352,28.016,28.016,0,0,0,.048,10.394c.352,1.695-.6,3.017-1.056,4.443-.359,1.12-3.875,1.137-4.089.049-.367-1.866-1.817-3.235-1.772-5.321.156-7.357.061-14.719.061-22.079,0-2.787-.026-5.574.01-8.36a2.208,2.208,0,0,1,3-2.164,3.864,3.864,0,0,0,1.69.121c2.144-.3,2.508.911,2.058,2.544a9.122,9.122,0,0,0-.269,3.811,10.015,10.015,0,0,1,.028,4.2c-.394,1.528,2.245,3.3,4.081,2.767-.276-.543-1.7-.628-.859-1.511.423-.445.972-1.415,1.94-.564.7.614,1.3.338,1.79-.354.436-.615,1.1-.572,1.747-.577a8.835,8.835,0,0,1,8.341,6.035A1.476,1.476,0,0,0,67.885,214.16Z" transform="translate(0)"/>
    <path class="cls-2" d="M169.747,236.4a16,16,0,0,1-8.353-2.242c-2.671-1.641-3.4-3.622-2.2-5.635,1.149-1.917,3.185-2.233,5.836-.856a11.556,11.556,0,0,0,4.771,1.774c1.365.058,2.886.106,3.327-1.59.4-1.544-.88-2.107-2-2.6-2.023-.887-4.114-1.624-6.105-2.573-4.278-2.038-5.874-4.9-5.285-9.213.465-3.411,3.426-6.263,7.373-7.112a14.6,14.6,0,0,1,10.362,1.424c1.554.849,2.72,2.05,2.6,4.077-.151,2.635-2.123,4.034-4.563,3.051a29.847,29.847,0,0,0-4.789-1.828c-1.348-.289-2.672-.2-3.234,1.284-.574,1.523.616,2.241,1.721,2.759,1.677.785,3.447,1.369,5.139,2.125,5.329,2.381,7.124,5.178,6.346,9.782-.642,3.8-4.656,6.936-9.455,7.364C170.75,236.436,170.247,236.4,169.747,236.4Z" transform="translate(0)"/>
    <path class="cls-2" d="M241.649,221.125c-.162-10.017,8.934-18.653,20.75-13.792,2.309.95,3.183,2.477,2.857,4.439-.364,2.187-1.508,3.071-3.716,2.89a15.578,15.578,0,0,1-3.477-1.021,6.038,6.038,0,0,0-7.706,3.591,9.9,9.9,0,0,0,.2,8.294,5.943,5.943,0,0,0,7.5,3.22c.749-.226,1.479-.517,2.213-.792,2.077-.78,3.713-.312,4.611,1.329a3.648,3.648,0,0,1-1.293,4.874,13.215,13.215,0,0,1-7.251,2.253C247.817,236.809,241.654,230.357,241.649,221.125Z" transform="translate(0)"/>
    <path class="cls-2" d="M67.885,214.16a1.476,1.476,0,0,1-1.661-1.258,8.835,8.835,0,0,0-8.341-6.035c-.647.005-1.311-.038-1.747.577-.491.692-1.092.968-1.79.354-.967-.851-1.517.119-1.94.564-.838.883.583.968.859,1.511-1.836.529-4.475-1.239-4.081-2.767a10.015,10.015,0,0,0-.028-4.2,9.122,9.122,0,0,1,.269-3.811c.45-1.632.086-2.844-2.058-2.544a3.864,3.864,0,0,1-1.69-.121,2.208,2.208,0,0,0-3,2.164c-.036,2.786-.01,5.573-.01,8.36,0,7.36.1,14.722-.061,22.079-.044,2.086,1.4,3.455,1.772,5.321.214,1.087,3.731,1.071,4.089-.049.457-1.426,1.408-2.749,1.056-4.443a28.016,28.016,0,0,1-.048-10.394,9.159,9.159,0,0,0,.024-2.352c-.274-2.867,1.412-4.984,4.256-5.076,1.471-.048,2.974-.286,4.427.4,1.171.557,1.9,1.236,1.591,2.623-3.131-3.931-8.087-2.454-9.127.555A10.26,10.26,0,0,0,50.267,219c-.024,4.068,0,8.135,0,12.2a4.879,4.879,0,0,1-1.2,3.757,3.883,3.883,0,0,1-4.149.956,3.643,3.643,0,0,1-2.63-3.53c-.088-1.994-.033-4-.033-5.993q0-14.023,0-28.046c0-3.078,1.4-4.725,3.984-4.716s3.984,1.65,4,4.727c.021,3.19,0,6.38,0,9.91a12.631,12.631,0,0,1,10.872-1.79A9.1,9.1,0,0,1,67.885,214.16Z" transform="translate(0)"/>
    <path class="cls-2" d="M149.011,208.143c-.145.922-.511,1.684-1.492.819-3.659-3.228-7.539-2.113-11.457-.7-.131.047-.331.114-.358.211-.784,2.818-3.983,3.85-4.776,6.827-.755,2.834-1.479,5.564-1.072,8.51a11.628,11.628,0,0,0,5.338,8.421,2.888,2.888,0,0,1,1.393,2.89c-3.963-1.653-6.1-4.915-7.078-8.823-1.61-6.45-.749-12.573,4.294-17.327,3.939-3.713,8.895-4.012,13.653-1.439C147.951,207.8,148.383,208.214,149.011,208.143Z" transform="translate(0)"/>
    <path class="cls-2" d="M59.753,215.056c1.052.063,1.182.757,1.206,1.628.126,4.686.454,9.372-.162,14.05-.1.787,2.19,4.156,2.938,4.375,1.644.482,3.783-1.828,3.8-4.184.027-4.565,0-9.129.022-13.694,0-.75-.285-1.587.416-2.219a2.844,2.844,0,0,1,.339,1.855c.013,4.778.043,9.557-.012,14.334-.032,2.834-1.084,4.383-3.037,4.8-2.825.6-4.9-1.112-4.985-4.314-.1-3.92-.068-7.844-.023-11.766A16.913,16.913,0,0,0,59.753,215.056Z" transform="translate(0)"/>
    <path class="cls-2" d="M155.861,234.687a229.758,229.758,0,0,0,.373-23.227c-.111-3.325.1-6.623.086-9.933,0-.681-.232-1.449.473-1.975.417,11.031.348,22.063.014,33.094A2.194,2.194,0,0,1,155.861,234.687Z" transform="translate(0)"/>
    <path class="cls-2" d="M156.784,198.286c-1.227-1.008-1.315-3.011-3.128-3.533-.409-.118-.632-.9-1.225-.413-.451.368-.365.776-.1,1.311.719,1.458-1.057,2.607-.4,4.128-1.039-.443-.688-1.214-.766-1.833-.066-.522-.162-1.135-.731-1.137-.711,0-.544.7-.548,1.163-.018,2.348,0,4.7-.011,7.043,0,.837.18,1.75-.778,2.264-.033-3.134-.126-6.27-.08-9.4.04-2.681,1.674-4.323,4.03-4.256C155.478,193.689,156.9,195.462,156.784,198.286Z" transform="translate(0)"/>
    <path class="cls-2" d="M145.187,235.643c-.168-.81,1.547-1.346.339-2.32-.056-.045-.032-.268.026-.363.371-.6,3.311-.167,3.85.565C147.714,233.668,146.954,235.657,145.187,235.643Z" transform="translate(0)"/>
    <path class="cls-2" d="M136.88,235.219a27.038,27.038,0,0,1,7,.821A8.591,8.591,0,0,1,136.88,235.219Z" transform="translate(0)"/>
    <path class="cls-2" d="M152.879,235.966c.426-1.749,1.728-1.41,2.959-1.242A2.648,2.648,0,0,1,152.879,235.966Z" transform="translate(0)"/>
    <path class="cls-2" d="M149.382,233.5a3.8,3.8,0,0,1,2.643,2.438A2.838,2.838,0,0,1,149.382,233.5Z" transform="translate(0)"/>
    <path class="cls-2" d="M144.744,235.932l.459-.312A.36.36,0,0,1,144.744,235.932Z" transform="translate(0)"/>
    <path class="cls-1" d="M202.681,220.8a9.41,9.41,0,0,1-1.3,5.414c-2.383,3.917-7.252,3.96-9.49-.03a9.8,9.8,0,0,1-.188-9.811,5.391,5.391,0,0,1,9.568-.316A7.916,7.916,0,0,1,202.681,220.8Z" transform="translate(0)"/>
    <path class="cls-1" d="M220.078,221.161a8.721,8.721,0,0,1,1.876-5.762,5.3,5.3,0,0,1,8.46.084c2.324,2.975,2.342,8.5.039,11.436a5.366,5.366,0,0,1-8.872-.294A9.271,9.271,0,0,1,220.078,221.161Z" transform="translate(0)"/>
    <path class="cls-1" d="M107.016,221.218c.252-2.334.647-4.7,2.576-6.492a5.324,5.324,0,0,1,7.336.15c2.769,2.823,3.1,8.734.669,11.909-2.553,3.334-6.833,3.158-9.107-.386A10.413,10.413,0,0,1,107.016,221.218Z" transform="translate(0)"/>
    <path class="cls-1" d="M83.7,218.506c-1.566,0-3.133-.035-4.7.013-1.148.035-1.533-.274-1.141-1.494a6.088,6.088,0,0,1,11.589-.281c.475,1.326.177,1.846-1.266,1.777C86.693,218.449,85.2,218.5,83.7,218.506Z" transform="translate(0)"/>
    <path class="cls-1" d="M279.256,218.5c-1.5,0-3-.057-4.5.017-1.369.067-1.579-.587-1.283-1.71a6.333,6.333,0,0,1,5.9-4.167,6.219,6.219,0,0,1,5.824,4.538c.176.882,0,1.368-1.02,1.348-1.641-.034-3.282-.009-4.924-.009Z" transform="translate(0)"/>
    <path class="cls-2" d="M147.765,226.626a4.289,4.289,0,0,1-3.011,3.954c-1.787.316-4.175.357-5.726-1.411-3.844-4.382-3.94-8.7-1.912-13.811.293-.74.943-.777,1.6-.783l.288.283a10.412,10.412,0,0,0-2.091,7.44c.3,2.838,1.274,5.311,4.165,6.449,2.771,1.091,4.8-.22,6.547-2.244Z" transform="translate(0)"/>
    <path class="cls-2" d="M138.719,214.576c.939-1.581,1.976-2.945,4.161-2.154a3.338,3.338,0,0,0,1.063.019c3.231.012,4.345.923,5.057,4.142a5.189,5.189,0,0,0,.283,1.223c.362.712.929,3.444.566,4.072-.873,1.512.035,3.8-2.084,4.748l-.136-.122c.95-2.394,1.672-4.8,1.134-7.445-1.1-5.425-5.122-7.181-9.756-4.2Z" transform="translate(0)"/>
    <path class="cls-2" d="M131.846,220.321a2.538,2.538,0,0,1,.008-2.7C132.462,218.512,132.384,219.19,131.846,220.321Z" transform="translate(0)"/>
    <path class="cls-2" d="M151.724,209.59c-.664-.962-.7-1.508-.155-2.167C152.261,208.015,151.972,208.6,151.724,209.59Z" transform="translate(0)"/>
    <path class="cls-1" d="M139.007,214.859c4.634-2.98,8.654-1.224,9.756,4.2.538,2.647-.184,5.051-1.134,7.445-1.746,2.024-3.777,3.335-6.547,2.244-2.891-1.138-3.866-3.612-4.165-6.449A10.412,10.412,0,0,1,139.007,214.859Z" transform="translate(0)"/>
  </g>
</svg>
