<svg id="Layer_1" data-name="Layer 1" xmlns="http://www.w3.org/2000/svg" viewBox="0 0 57.934 57.933">
  <defs>
    <style>
      .cls-1 {
        fill: #fff;
      }

      .cls-2 {
        fill: #1f76bb;
      }
    </style>
  </defs>
  <title>0c0c55c5-d0ab-4212-ba48-9aa252b9cce5</title>
  <g>
    <g>
      <path class="cls-1" d="M57.118,29.031a28.151,28.151,0,1,1-28-28.215A28.1,28.1,0,0,1,57.118,29.031Z"/>
      <path class="cls-2" d="M28.867,57.933h-.109A28.61,28.61,0,0,1,8.4,49.341,28.952,28.952,0,0,1,29.048,0h.068A28.968,28.968,0,0,1,57.934,29.033h0a28.912,28.912,0,0,1-29.066,28.9Zm.183-56.3A27.446,27.446,0,0,0,1.633,28.787,27.147,27.147,0,0,0,9.564,48.193a26.99,26.99,0,0,0,19.2,8.107h.1a27.335,27.335,0,0,0,.245-54.669Z"/>
    </g>
    <g>
      <path class="cls-2" d="M41.5,41.409h-5.2c0-2.193.007-4.338,0-6.482,0-1.017-.014-2.036-.07-3.051-.086-1.566-.6-2.82-2.441-2.915a2.693,2.693,0,0,0-3.11,2.747c-.166,2.091-.132,4.2-.169,6.3-.019,1.079,0,2.158,0,3.37H25.446V25.084c2.941-.937,4.617-.527,5.112,1.108a16.337,16.337,0,0,1,3.167-1.626c4.222-1.133,7.272,1.067,7.687,5.42.084.876.08,1.762.083,2.644C41.5,35.475,41.5,38.321,41.5,41.409Z"/>
      <path class="cls-2" d="M41.549,41.461H36.243V41.41q0-.964,0-1.917c0-1.5,0-3.05,0-4.565,0-.982-.014-2.026-.07-3.049-.1-1.9-.843-2.787-2.392-2.867a2.646,2.646,0,0,0-3.057,2.7c-.123,1.542-.136,3.119-.15,4.645,0,.55-.01,1.1-.019,1.651-.013.735-.01,1.469-.007,2.247,0,.363,0,.736,0,1.122v.051H25.395V25.047l.035-.011c1.851-.59,3.24-.653,4.128-.186a2.106,2.106,0,0,1,1.03,1.269c.3-.163.612-.349.909-.528a8.925,8.925,0,0,1,2.214-1.074,6.2,6.2,0,0,1,5.271.631,6.348,6.348,0,0,1,2.479,4.834c.078.815.08,1.65.082,2.458v.191c.007,2.038.006,4.061,0,6.2,0,.843,0,1.7,0,2.577Zm-5.2-.1h5.1c0-.859,0-1.7,0-2.526,0-2.142,0-4.165,0-6.2v-.191c0-.8,0-1.637-.082-2.448a6.25,6.25,0,0,0-2.436-4.76,6.1,6.1,0,0,0-5.187-.616,8.825,8.825,0,0,0-2.188,1.062c-.316.191-.644.388-.968.559l-.055.029-.018-.059a2.026,2.026,0,0,0-1-1.267c-.857-.45-2.207-.39-4.014.182v16.2h4.95c0-.368,0-.724,0-1.071,0-.778-.006-1.513.007-2.249.01-.55.015-1.1.019-1.65.014-1.527.027-3.106.15-4.651a2.743,2.743,0,0,1,3.163-2.794c2.09.108,2.422,1.743,2.489,2.964.056,1.025.066,2.071.07,3.054.007,1.516.006,3.067,0,4.566Q36.345,40.421,36.345,41.359Z"/>
    </g>
    <g>
      <path class="cls-2" d="M17.025,24.811h5.1c0,1.462,0,2.851,0,4.241,0,3.589-.052,7.18.026,10.767.029,1.354-.443,1.821-1.759,1.711-1.064-.089-2.141-.018-3.363-.018Z"/>
      <path class="cls-2" d="M20.73,41.6q-.162,0-.346-.015a21.862,21.862,0,0,0-2.239-.032c-.361.007-.733.014-1.12.014h-.051V24.76h5.2v4.292q0,1.531-.008,3.062c-.011,2.526-.021,5.137.034,7.7a1.861,1.861,0,0,1-.4,1.455A1.486,1.486,0,0,1,20.73,41.6Zm-1.585-.162c.422,0,.836.01,1.247.045a1.677,1.677,0,0,0,1.332-.281,1.774,1.774,0,0,0,.371-1.378c-.055-2.568-.045-5.181-.034-7.707q.006-1.531.008-3.061v-4.19H17.076v16.6c.367,0,.723-.008,1.067-.014S18.817,41.435,19.145,41.435Z"/>
    </g>
    <g>
      <path class="cls-2" d="M22.5,19.436a3.049,3.049,0,0,1-2.957,3.028,2.962,2.962,0,0,1-3.06-3.086A3.008,3.008,0,0,1,19.5,16.423,3.128,3.128,0,0,1,22.5,19.436Z"/>
      <path class="cls-2" d="M19.471,22.516a3.008,3.008,0,0,1-2.15-.876,3.1,3.1,0,0,1,2.151-5.267H19.5a3.176,3.176,0,0,1,3.054,3.063,3.082,3.082,0,0,1-3.006,3.08Zm0-6.041a3,3,0,0,0-2.079,5.093,2.908,2.908,0,0,0,2.078.846h.074a2.98,2.98,0,0,0,2.907-2.977A3.07,3.07,0,0,0,19.5,16.474Z"/>
    </g>
  </g>
</svg>
