<svg id="Layer_1" data-name="Layer 1" xmlns="http://www.w3.org/2000/svg" viewBox="0 0 294.161 202.937">
  <defs>
    <style>
      .cls-1 {
        fill: #86b819;
      }

      .cls-2 {
        fill: #135285;
      }
    </style>
  </defs>
  <title>50760594-7673-4232-98e5-2ed6ba69f088</title>
  <g>
    <path class="cls-1" d="M158.917,127.857c-23.487,0-46.975-.069-70.461.064-4.2.024-5.731-1.1-5.62-5.643q.5-20.228,0-40.475c-.126-4.928.974-6.473,6.226-6.446,43.978.233,87.959.134,131.938.131,15.45,0,17.875-2.452,17.884-18.041.009-17.325.129-34.652-.061-51.975-.044-4,.856-5.487,5.182-5.411,15.155.265,30.32.237,45.476.014,3.865-.057,4.713,1.221,4.681,4.839-.165,18.823-.02,37.649-.1,56.473-.133,33.221-22.888,59.6-55.773,64.888a111.909,111.909,0,0,1-17.9,1.4q-30.736-.025-61.472-.006Z" transform="translate(0)"/>
    <path class="cls-2" d="M137.119,52.31q-33.976,0-67.953.01c-5.679.007-10.835.849-13.206,7.255a11.614,11.614,0,0,0-.541,4.262c-.094,19.652-.193,39.3-.038,58.956.03,3.765-.75,5.109-4.835,5.04-15.318-.259-30.644-.19-45.965-.041-3.266.032-4.617-.53-4.579-4.26.2-19.484-.09-38.974.132-58.458A64.507,64.507,0,0,1,58.174,1.288,200.572,200.572,0,0,1,78.849.041Q142.3.3,205.76,0c4.763-.024,5.663,1.438,5.583,5.788q-.385,20.978.011,41.967c.071,3.878-1.172,4.658-4.785,4.634C183.42,52.234,160.269,52.31,137.119,52.31Z" transform="translate(0)"/>
    <path class="cls-2" d="M165.287,191.3c1.333-4.9,2.623-9.813,4.016-14.7a58.775,58.775,0,0,1,2.379-7.079c1.561-3.637,4.608-5.082,8.436-5.013,4.106.074,7.1,1.991,8.327,5.92,2.134,6.814,4.014,13.708,6.028,20.663,2.117-1.032,1.6-3.13,2.018-4.729,1.586-6.115,3.122-12.248,4.432-18.426.472-2.228,1.384-2.921,3.632-3.011,7.259-.29,7.263-.392,5.451,6.761-1.675,6.609-3.329,13.223-5.078,19.813a43.386,43.386,0,0,1-2.109,6.121A7.947,7.947,0,0,1,195,202.8c-3.851-.044-6.843-1.775-8.086-5.517-1.779-5.358-3.175-10.843-4.914-16.215-.634-1.957-.357-4.361-2.533-5.931-1.976,6.82-3.893,13.492-5.844,20.154-1.35,4.61-4.08,7.653-9.239,7.491-4.99-.157-7.323-3.482-8.489-7.8-2.47-9.147-4.818-18.328-7.215-27.495-.2-.765-.7-1.553.135-2.257,2.274-1.914,9.4.391,10.1,3.291q2.721,11.315,5.4,22.64Z" transform="translate(0)"/>
    <path class="cls-2" d="M120.809,164.968c4.494,0,9.01.281,13.474-.085,3.89-.319,3.727,1.795,3.808,4.511.089,2.98-.421,4.439-3.981,4.318-8.312-.283-16.642.016-24.961-.14-3.174-.059-4.621.875-4.344,4.245.405,4.944-1.984,11.246.921,14.514,3.005,3.381,9.424.8,14.331,1.178,1.654.128,3.328-.033,4.991,0,2.444.051,3.015-1.316,3.1-3.495.094-2.392-1.11-2.791-3.062-2.677-1.493.087-3-.011-4.492.031-2.555.073-4.7.433-4.684-3.632.02-3.972,1.76-4.244,4.808-4.14,4.655.159,9.323.166,13.977,0,2.668-.1,3.28.935,3.377,3.473.642,16.728-1.725,19.3-18.25,19.307-4.493,0-8.992.111-13.479-.059-6.878-.261-10.867-4.064-11.192-10.866-.246-5.147-.248-10.324,0-15.471.315-6.668,3.961-10.186,10.69-10.831.662-.063,1.327-.148,1.991-.15,4.327-.014,8.654-.007,12.981-.007Z" transform="translate(0)"/>
    <path class="cls-2" d="M283.669,190.072c0-7.129.286-14.274-.1-21.383-.272-5.068,3.049-3.581,5.554-3.691,2.574-.114,5.213-.76,4.99,3.73-.4,7.969-.151,15.973-.094,23.961.029,4.14-1.052,7.676-5.167,9.377a9.2,9.2,0,0,1-11.29-2.754c-5.658-6.756-11.086-13.7-16.621-20.564-.6-.739-1.268-1.417-2.754-3.065,0,8.311-.323,15.54.114,22.723.289,4.764-2.527,3.916-5.278,3.984-2.922.073-5.42.453-5.174-4.114.42-7.8.181-15.639.1-23.461-.042-4.153,1.033-7.588,5.13-9.391,4.42-1.946,8.344-.738,11.282,2.7,5.4,6.317,10.474,12.918,15.692,19.392.8.989,1.646,1.936,2.471,2.9Z" transform="translate(0)"/>
    <path class="cls-2" d="M.183,179.671A99.492,99.492,0,0,0,.1,168.707c-.437-3.967,1.814-3.968,4.476-3.7,2.44.241,5.868-1.422,5.61,3.635-.339,6.633.15,13.307-.156,19.943-.189,4.093,1.361,5.228,5.2,5,4.639-.276,9.327.211,13.955-.144,4.016-.308,3.718,2.03,3.691,4.637-.025,2.38.383,4.575-3.4,4.385-6.136-.309-12.3.064-18.449-.154C4.294,202.066.378,197.917.2,191.142.1,187.321.179,183.495.183,179.671Z" transform="translate(0)"/>
    <path class="cls-2" d="M222.064,183.317c0-4.98.127-9.964-.052-14.938-.091-2.542.572-3.422,3.284-3.46,7.311-.1,7.309-.254,7.309,6.938,0,8.964-.231,17.936.089,26.888.182,5.082-3.174,3.481-5.631,3.592-2.486.112-5.427.994-5.086-3.589C222.357,193.63,222.064,188.463,222.064,183.317Z" transform="translate(0)"/>
    <path class="cls-2" d="M84.752,175.852c-.364-6.649-4.136-10.406-10.841-10.65-7.31-.266-14.647-.245-21.955.055-5.979.246-9.8,3.787-10.208,9.59A125.743,125.743,0,0,0,41.7,192.3c.414,6.046,4.426,9.635,10.476,9.984,3.483.2,6.988.036,10.482.036v.016c3.662,0,7.328.12,10.984-.026,6.552-.262,10.669-4,11.077-10.488A136.271,136.271,0,0,0,84.752,175.852Zm-9.605,14.4c-.2,2.27-.916,3.344-3.248,3.288-2.984-.071-5.971-.017-8.957-.013-9.179,0-11.21,0-11.631-5.572-.118-1.561-.11-3.56-.1-6.118.045-9.03-1.276-8.228,8.2-8.266h.5C76.626,173.563,76.583,173.559,75.147,190.247Z" transform="translate(0)"/>
  </g>
</svg>
