<svg id="Layer_1" data-name="Layer 1" xmlns="http://www.w3.org/2000/svg" viewBox="0 0 622.635 174.867">
  <defs>
    <style>
      .cls-1 {
        fill: #191917;
      }

      .cls-2 {
        fill: #1c1c1a;
      }

      .cls-3 {
        fill: #1c1d1a;
      }

      .cls-4 {
        fill: #1f1f1d;
      }

      .cls-5 {
        fill: #1d1d1b;
      }

      .cls-6 {
        fill: #20201e;
      }

      .cls-7 {
        fill: #11110f;
      }

      .cls-8 {
        fill: #121210;
      }

      .cls-9 {
        fill: #222220;
      }

      .cls-10 {
        fill: #21211f;
      }

      .cls-11 {
        fill: #1e1e1c;
      }

      .cls-12 {
        fill: #242422;
      }

      .cls-13 {
        fill: #292927;
      }

      .cls-14 {
        fill: #2f2f2d;
      }

      .cls-15 {
        fill: #262624;
      }

      .cls-16 {
        fill: #fcfcfc;
      }

      .cls-17 {
        fill: #1a1a17;
      }

      .cls-18 {
        fill: #eee;
      }

      .cls-19 {
        fill: #151513;
      }

      .cls-20 {
        fill: #0f0f0d;
      }

      .cls-21 {
        fill: #252523;
      }

      .cls-22 {
        fill: #0e0e0d;
      }

      .cls-23 {
        fill: #131311;
      }

      .cls-24 {
        fill: #252524;
      }

      .cls-25 {
        fill: #161613;
      }

      .cls-26 {
        fill: #1a1a18;
      }

      .cls-27 {
        fill: #171715;
      }

      .cls-28 {
        fill: #161614;
      }

      .cls-29 {
        fill: #2e2e2d;
      }

      .cls-30 {
        fill: #2b2b29;
      }

      .cls-31 {
        fill: #080806;
      }

      .cls-32 {
        fill: #0a0a08;
      }

      .cls-33 {
        fill: #0b0b09;
      }

      .cls-34 {
        fill: #10100e;
      }

      .cls-35 {
        fill: #040403;
      }

      .cls-36 {
        fill: #232321;
      }

      .cls-37 {
        fill: #0c0c0a;
      }

      .cls-38 {
        fill: #090907;
      }

      .cls-39 {
        fill: #292928;
      }

      .cls-40 {
        fill: #111110;
      }

      .cls-41 {
        fill: #282826;
      }

      .cls-42 {
        fill: #272726;
      }

      .cls-43 {
        fill: #2a2a29;
      }

      .cls-44 {
        fill: #10100f;
      }

      .cls-45 {
        fill: #fdfdfd;
      }

      .cls-46 {
        fill: #0e0e0c;
      }

      .cls-47 {
        fill: #2e2e2c;
      }

      .cls-48 {
        fill: #040402;
      }

      .cls-49 {
        fill: #0b0b0a;
      }

      .cls-50 {
        fill: #2a2a28;
      }

      .cls-51 {
        fill: #2d2d2c;
      }

      .cls-52 {
        fill: #313130;
      }

      .cls-53 {
        fill: #333332;
      }

      .cls-54 {
        fill: #393938;
      }

      .cls-55 {
        fill: #2c2c2b;
      }

      .cls-56 {
        fill: #282827;
      }

      .cls-57 {
        fill: #22221f;
      }

      .cls-58 {
        fill: #f6f6f6;
      }

      .cls-59 {
        fill: #828281;
      }

      .cls-60 {
        fill: #f9f9f9;
      }

      .cls-61 {
        fill: #c6c6c6;
      }

      .cls-62 {
        fill: #363635;
      }

      .cls-63 {
        fill: #dededd;
      }

      .cls-64 {
        fill: #dfdfde;
      }
    </style>
  </defs>
  <title>378a488e-8bf1-4c73-b264-5b70b4cc8158</title>
  <g>
    <path class="cls-1" d="M437.753,113.358c-4.97.195-6.95-3.492-9.076-6.99q.114-.793.228-1.585c.086-30.438.458-60.877-.2-91.312-.476-1.556-.8-3.1.271-4.569,4.4-5.367,24.522-9.761,30.325-6.664,1.945,1.038,1.7,2.81,1.69,4.506q-.224,52.478-.469,104.955C453.071,114.109,445.214,111.022,437.753,113.358Z" transform="translate(0 0)"/>
    <path class="cls-2" d="M312.033,8.945l2.032-1.771c4.139.186,4.064,3.81,5.259,6.411,1.639,24.854.33,49.742.754,74.614a90.423,90.423,0,0,0,.359,10.4c.734,5.54,4.438,6.909,9.3,6.85,5.229-.063,6-3.575,6.049-7.657.127-11.865.012-23.732.063-35.6a42.834,42.834,0,0,1,.518-8.651c1.02-4.875,3.5-5.86,7.024-2.231,6.869,7.066,13.09,14.594,15.154,24.65-.832,2.27-2.321,3.409-4.822,2.794-3.981-2.955-4.238-9.458-10.112-10.609-2.142,14.345,0,28.8-1.116,43.172-6.934,3.1-14.484-.386-21.485,2-4.255.605-6-2.993-8.6-5.144-1.33-1.381-.9-2.939-.456-4.5.622-30.526.377-61.053.125-91.58A5.488,5.488,0,0,1,312.033,8.945Z" transform="translate(0 0)"/>
    <path class="cls-3" d="M284.258,43.765c.143,7.207.1,14.425.5,21.618.227,4.082-1.61,4.757-5.118,4.684-8.954-.185-17.975.58-26.854-.256-8.078-.76-10.309,2.34-9.107,9.6.328,1.979.459,3.991.68,5.988,11.607,2.366,23.343.458,35,1.05,3.151.16,6.316-.083,9.471.126,3.352,2.493,2.915,5.155.353,7.914-2.155.463-4.055-.989-6.181-.791-11.778-.442-23.555.071-35.323-.225-10.978-.276-12.95-2.2-12.972-13.349-.011-5.311-1.354-11.012,2.77-15.646,12.754-1.575,25.624.614,38.348-1.095,4.4-3.747,3.722-7.987,1.171-12.392a23.049,23.049,0,0,0-2.428-1.11c-8.455-.5-16.876-.056-25.29-.231-10.944-.228-12.571-1.88-12.6-12.754-.034-11.164,1.486-12.8,12.262-12.989,11.608-.207,23.221.31,34.826-.315.525-.111,1.051-.2,1.576-.309a7.323,7.323,0,0,1,3.15.444c2.134,1.481,2.668,3.164.639,5.161-14.01,2.112-28.126.2-42.161,1.053a5.326,5.326,0,0,0-3.431,2.006c-1.253,3.848-2.239,7.657,1.586,10.774C258.165,43.63,271.264,41.74,284.258,43.765Z" transform="translate(0 0)"/>
    <path class="cls-4" d="M520.607,113.694c-17.79-2.941-29.366-13.335-35.822-29.869.544-2.288,1.854-3.752,4.3-4,2.445.755,3.506,2.9,4.638,4.863,6.516,11.3,16.155,18.523,28.621,22.09a31.969,31.969,0,0,0,15.7.079c5.772-1.847,11.925-2.748,17.112-6.064,3.394-2.169,7.093-4.6,3.918-9.725-2.481-4-4.957-7.261-10.334-4.06-2.189,1.3-4.768,2.427-7.163.03a4.278,4.278,0,0,1,.7-4.8c5.522-2.018,9.068-10.5,14.865-8.045,4.294,1.815,6.181,8.994,9.506,13.513,4.844,6.582,5.953,11.419-2.941,16.159-7.365,3.925-14.042,8.959-22.685,9.761A68.528,68.528,0,0,1,520.607,113.694Z" transform="translate(0 0)"/>
    <path class="cls-5" d="M373.363,12.4a6.922,6.922,0,0,1,3.126-7.076c2.357-1.036,4.616-1.553,6.268,1.176a6.066,6.066,0,0,1,.121,2.851c-3.557,9.527-1.635,19.446-1.986,29.194-.3,8.365.16,16.749-.219,25.117-.115,2.55-.153,5.559-3.081,6.612-3.063,1.1-4.905-1.409-6.321-3.463C358.176,47.817,343.646,29.8,332.3,9.6a6,6,0,0,1,0-2.886c1.079-2.136,2.633-2.708,4.743-1.432,10,11.79,17.7,25.23,26.906,37.574,2.539,3.4,3.551,8.558,8.855,9.48C375.368,39.06,374.355,25.73,373.363,12.4Z" transform="translate(0 0)"/>
    <path class="cls-6" d="M144.035,113.675c-4.853.423-9.024-1.413-12.994-3.917-1.756-3.364.6-4.158,3.05-4.906,3.76-.272,7.262,1.091,10.877,1.737a33.867,33.867,0,0,0,16.445.3,66.018,66.018,0,0,0,16.146-6.007c3.6-1.987,7.539-3.911,5.23-9.184-1.889-4.313-4.584-7.413-10.012-5.478a6.544,6.544,0,0,1-4.252.065c-1.139-.74-2-1.58-1.066-3.042,1.552-4.814,6.437-6.069,9.765-8.953,2.853-2.473,4.585-.013,6.053,2.332,2.756,4.4,5.161,9.106,8.448,13.076,5.079,6.135,2.591,9.323-2.924,13.454-7.7,5.77-15.792,9.7-25.368,10.51A64.415,64.415,0,0,1,144.035,113.675Z" transform="translate(0 0)"/>
    <path class="cls-5" d="M383.73,113.4c-1.985.052-4.258,1.076-5.435-1.607.264-3.117,2.156-4.763,5-5.559,13.373-1.746,13.28-1.747,13.433-15.374.306-27.257-.782-54.523.565-81.785a8.337,8.337,0,0,1,1.352-3.033c1.841-1.588,3.612-1.937,4.747.667.7,1.61.331,3.426.329,5.149-.037,32.958.116,65.917-.068,98.87-3.116,3.7-7.284,1.123-10.914,1.782C389.777,113.044,386.611,111.786,383.73,113.4Z" transform="translate(0 0)"/>
    <path class="cls-4" d="M87.62,85.882c-4.91,16.558-16.562,25.056-33.112,27.7a3.2,3.2,0,0,1-2.35-3.857,5.848,5.848,0,0,1,2.487-2.692c11.984-4.329,21.972-10.858,26.132-23.783a17,17,0,0,0-.086-12.36c-2.361-7.528-9.445-11.73-12.976-18.434.741-1.933,1.025-4.411,4.155-3.5,8.915,4.02,14.073,10.935,15.8,20.5A40.916,40.916,0,0,1,87.62,85.882Z" transform="translate(0 0)"/>
    <path class="cls-4" d="M521.361,2.166l3.519-.177A14.243,14.243,0,0,0,535.3,2c3.557,2.523,7.71.791,11.516,1.616,9.675,2.1,16.485,8.625,23.544,14.867,2.048,1.811.517,2.6-.311,3.951-2.492,4.058-4.7,8.294-7.27,12.3-6.257,9.749-6.315,9.712-15.276,1.927a4.35,4.35,0,0,1-.711-4.807c3.778-2.351,9.546.385,12.133-5.868,1.828-4.418,1.7-6.61-2.368-9.081-9.4-5.719-19.94-7.076-30.5-8.541C523.634,6.952,519.444,6.863,521.361,2.166Z" transform="translate(0 0)"/>
    <path class="cls-7" d="M212.776,8.506l1.763-1.42c2.151-.317,2.945,1.166,3.666,2.753,1.928,8.823.948,17.774.92,26.657-.068,21.572.669,43.151-.382,64.719-.894,3.125-1.308,6.662-5.681,6.944l-.057-.021c-1.454-2.1-.866-4.491-.869-6.757q-.058-43.449-.012-86.9C212.125,12.476,211.787,10.412,212.776,8.506Z" transform="translate(0 0)"/>
    <path class="cls-8" d="M216.665,9.386l-2.126-2.3c-.026-2.284.565-3.977,3.386-3.534,23.353-1.618,46.736-.3,70.1-.724,3.6-.066,4.264,1.972,4.206,4.974-.123,6.356.1,12.715-.119,19.072a1.6,1.6,0,0,1-2.493,1.188,3.692,3.692,0,0,0-1.614-3.5,8.546,8.546,0,0,1-2.114-3.739C283.365,9.6,283.364,9.457,271.6,9.623c-16.806.238-33.627-.809-50.421.611A6.171,6.171,0,0,1,216.665,9.386Z" transform="translate(0 0)"/>
    <path class="cls-9" d="M181.7,12.149c6.275-3.633,8.453,2.568,11.958,5.183,4.176,3.116-.411,5.389-1.284,8.011a3.557,3.557,0,0,1-.423.755c-3.735,5.824-6.336,14.143-11.627,16.551-3.274,1.49-10.638-6.007-16.166-9.469a4.363,4.363,0,0,1-.769-4.714c2.984-3.009,5.745-.6,8.562.371,2.735.941,5.482,4.029,8.234.156,2.309-3.25,4.928-6.516,1.92-10.774a7.511,7.511,0,0,1-1.478-3.941A3.443,3.443,0,0,1,181.7,12.149Z" transform="translate(0 0)"/>
    <path class="cls-8" d="M39.853,70.07c-8.94.736-16.495-3.26-24.107-7.06-2.015-2.124-6.321-1.808-6.393-6C7.422,52.042,2.88,48.039,3.816,42.014c1.114-4.151-1.536-9.145,2.816-12.57a3.127,3.127,0,0,1,1.987,1.7c1.436,3.247.44,7.056,2.371,10.192C15.5,54.914,26.1,60.139,39.182,62.217c3.36.534,7.99-.7,8.944,4.693C46.355,70.555,43.4,71.083,39.853,70.07Z" transform="translate(0 0)"/>
    <path class="cls-6" d="M12.312,103.761c-4.126.51-6.312-3.171-9.6-4.531-3.4-1.4-3.352-4.187-1.235-6.958.349-.457.784-.848,1.16-1.286C7.1,85.8,10.693,79.229,16.23,75.757c7.342-4.6,10.61,6.411,17.276,7.092,2.488.254,4.857,1.671,7.28,2.557-1.607,2.748-4.445,3.6-7.152,4.658-2.073.5-3.973-.115-5.887-.849-4.025-1.543-7.47-5.415-12.439-.733-4.669,4.4-3.109,8.616-1.689,13.278A3.172,3.172,0,0,1,12.312,103.761Z" transform="translate(0 0)"/>
    <path class="cls-10" d="M75.255,9.158c12.523,4.871,12.791,5.054,5.847,15.231-3.556,5.211-4.934,14.426-11.419,14.5-5.33.061-10.889-5.8-17.02-7.667A2.167,2.167,0,0,1,52.424,29c1.106-1.785,2.493-3.19,4.706-3.482a16.4,16.4,0,0,1,3.368.489c3.355.676,6.731,4.049,10.052-.224,3.133-4.031,3.962-8.094.732-12.453C71.306,10.7,73.533,10.172,75.255,9.158Z" transform="translate(0 0)"/>
    <path class="cls-4" d="M481.17,42.039c4.815-18.89,14.959-31.27,29.8-36.373,2.3.84,5.172.935,5.566,4.266-1.383,2.877-4.455,3.444-6.85,4.879-11.015,6.6-16.766,16.839-20.368,28.7-.845,2.782-.114,6.638-4.318,7.572C481.434,49.039,482.961,44.836,481.17,42.039Z" transform="translate(0 0)"/>
    <path class="cls-8" d="M56.118,26.449,52.692,29.76c-4.486,2.177-9.435-.167-13.981,1.43-7.378,6.371-2.627,8.883,3.488,10.961,3.533,1.77,7.508-.13,11.079,1.334,2.707-.916,4.434.876,6.3,2.281.544,2.082-.51,3.312-2.231,4.193a8.543,8.543,0,0,1-3.979.177c-4.052-1-8.181-.453-12.288-.586-8.95-1.916-12.817-5.45-13.238-12.4-.4-6.548,1.96-11.359,8.908-12.932,5.642-.265,11.3-.739,16.914.395A5.336,5.336,0,0,1,56.118,26.449Z" transform="translate(0 0)"/>
    <path class="cls-7" d="M402.881,111.7c0-32.684.074-65.368-.147-98.051-.015-2.23,3.022-7.183-3.344-6.7-5.793,3.813-11.594,3.773-17.4.037-1.422-1.912-3.542-1.514-5.5-1.662.516-1.787,1.945-1.85,3.426-1.816a83.828,83.828,0,0,1,24.838.132c.9,36.021.816,72.043.042,108.065A1.253,1.253,0,0,1,402.881,111.7Z" transform="translate(0 0)"/>
    <path class="cls-9" d="M106.88,35.079c4.854-13.94,12.885-24.892,27.708-29.453,2.273.8,4.932,1.064,5.612,4.065-.681,2.2-2.68,2.868-4.466,3.716-9.509,4.519-15.979,11.918-20.457,21.283-1.08,2.259-1.561,5.036-4.4,6.052C107.362,40.392,107.873,37.206,106.88,35.079Z" transform="translate(0 0)"/>
    <path class="cls-11" d="M382.72,107.842l-4.425,3.948c-10.325-9.421-16.6-21.858-24.569-33.03l4.243-2.062a3.1,3.1,0,0,1,4.536,1.044C369.319,87.723,377.7,96.662,382.72,107.842Z" transform="translate(0 0)"/>
    <path class="cls-11" d="M52.625,2.027l3.481,1.889c.054,3.438-2.913,3.232-4.965,4.137a8.916,8.916,0,0,1-2.36.062,14.294,14.294,0,0,0-9.075.729C27.647,11.154,16.683,15.069,11.249,27.52c-.52,1.191-1.909,1.045-3.054.471-2.734-2.225-1.718-4.97-1.077-7.663C12.569,6.874,24.264,3.61,36.99,2.031A32.413,32.413,0,0,0,52.625,2.027Z" transform="translate(0 0)"/>
    <path class="cls-12" d="M125.752,104.915c-11.253-4.33-15.227-14.459-19.438-24.4.711-2.491,1.682-4.789,4.34-5.836,7.067,7.393,9.884,17.534,16.367,25.318C127.432,101.853,127.318,103.574,125.752,104.915Z" transform="translate(0 0)"/>
    <path class="cls-13" d="M290.865,28.106c1.4-24.347,1.4-24.322-22.742-24.356-16.733-.024-33.465-.129-50.2-.2,1.821-2,4.258-1.486,6.5-1.491,20.526-.039,41.055.166,61.576-.153,5.427-.084,7.347,1.535,6.68,6.844-.884,7.039,1.441,14.272-1.191,21.227L290.7,29.2Z" transform="translate(0 0)"/>
    <path class="cls-14" d="M242.189,31.92l2.51-2.479c15.389-.981,30.789-.384,46.185-.319a4.678,4.678,0,0,1,.609.857c-13.436,2.586-27,.431-40.492,1.091-3.64.178-7.239-1-7.4,5.243-.173,6.651,3.6,5.846,7.661,5.829,9.282-.039,18.565-.085,27.845.053,1.745.026,4.172-1.3,5.153,1.57-11.105.008-22.211.075-33.315-.014-3.007-.024-6.376.982-8.7-2.078A21.351,21.351,0,0,1,242.189,31.92Z" transform="translate(0 0)"/>
    <path class="cls-15" d="M212.776,8.506q.114,49.816.228,99.631c-2.293-1.982-1.907-4.72-1.911-7.263q-.055-42.956,0-85.912C211.1,12.706,210.733,10.268,212.776,8.506Z" transform="translate(0 0)"/>
    <path class="cls-16" d="M312.325,104.726l.087,3.455c-2.325-1.579-1.888-4.02-1.889-6.275q-.028-43.67-.01-87.339c0-2.006-.2-4.077,1.52-5.622l.4,1.725c1.539,20.716.492,41.462.6,62.192C313.089,83.476,314.079,94.142,312.325,104.726Z" transform="translate(0 0)"/>
    <path class="cls-17" d="M213.062,108.157l3.6-5.615c10.13,4.269,20.82,2.7,31.339,3.1,12.275.472,24.638-1.5,36.835,1.276a2.5,2.5,0,0,1,1.472,2.555c-2.638,3.335-6.387,2.123-9.7,2.167-16.5.22-33.012-.147-49.51.213-2.291.922-4.939.142-7.154,1.47C215.9,113.934,214.414,111.134,213.062,108.157Z" transform="translate(0 0)"/>
    <path class="cls-18" d="M428.98,8.9l.19,3.508c1.6,13.5.615,27.042.612,40.557,0,17.858.81,35.732-.479,53.58l-.627-.178c-1.97-1.846-1.489-4.279-1.491-6.55q-.038-41.816,0-83.632C427.194,13.651,426.552,10.875,428.98,8.9Z" transform="translate(0 0)"/>
    <path class="cls-9" d="M526.815,31.647c-10.161,3.4-13.74,11.692-15.713,21.172-2.927-2.34-3.491-5.912-4.774-9.117.805-9,5.764-14.427,14.4-16.679A9.613,9.613,0,0,1,526.815,31.647Z" transform="translate(0 0)"/>
    <path class="cls-8" d="M526.815,31.647c-2.323-.293-4.389-1-5.419-3.37,7.034-6.844,20.521-5.255,26.191,3.086q-.041,2.649-.082,5.3C540.93,33.663,534.3,30.87,526.815,31.647Z" transform="translate(0 0)"/>
    <path class="cls-12" d="M149.107,31.917c-8.042,3.229-11.872,9.853-14.232,17.661-2.584-1.2-3.749-3.532-4.808-5.962.49-8.46,4.781-13.916,12.935-16.319C145.8,27.833,148.161,28.94,149.107,31.917Z" transform="translate(0 0)"/>
    <path class="cls-19" d="M473.028,169.805c-.05,4.814-3.722,4.47-6.767,4.433a6.9,6.9,0,0,1-6.6-4.774,8.287,8.287,0,0,1-.583-4.209c.744-3.939-2.379-10.877,2.208-11.167,4.364-.276,1.717,6.549,2.123,10.162.54,4.809.959,8.564,7,4.774A1.718,1.718,0,0,1,473.028,169.805Z" transform="translate(0 0)"/>
    <path class="cls-9" d="M511.25,64.044c2.018,8.385,5.113,16.012,13.84,19.679a8.589,8.589,0,0,1-6.15,4.341c-8.124-2.46-12.325-7.909-12.5-16.428C507.84,68.982,508.47,65.829,511.25,64.044Z" transform="translate(0 0)"/>
    <path class="cls-8" d="M33.489,88.924c1.876-2.327,4.577-2.942,7.3-3.518a39.128,39.128,0,0,0,13.156-1.821c2.521-.6,4,.541,4.766,2.862C54.22,94.931,41.254,96.2,33.489,88.924Z" transform="translate(0 0)"/>
    <path class="cls-10" d="M103.4,68.16l-.16-3.52a25.293,25.293,0,0,0,.069-13.894c-.905-5.208.894-9.811,3.2-14.3,1.435,2.332,3.33,4.318,4.923,6.539.985,6.654-.89,13.091-1.468,19.634C108.479,65.291,108.6,69.886,103.4,68.16Z" transform="translate(0 0)"/>
    <path class="cls-8" d="M219.945,113.327c1.3-1.939,3.329-1.557,5.215-1.628,13.963-1.873,27.991-.435,41.984-.795,7.148-.184,14.307-.142,21.463-.041a1.792,1.792,0,0,1,1.017,2.667C266.4,114.093,243.168,114.484,219.945,113.327Z" transform="translate(0 0)"/>
    <path class="cls-10" d="M99.885,158.37c3.562,1.633,3.524-5.794,8.145-2.44-7.618,5.776-.275,11.963.481,18.505-5.032-.22-4.179-4.889-7.1-6.624-1.657,3.313-3.6,6.609-8.354,6.427l6.479-11.494C98.766,161.216,98.55,159.731,99.885,158.37Z" transform="translate(0 0)"/>
    <path class="cls-20" d="M289.624,113.531q-.008-.925-.016-1.851c-1.828-2.258-2.262-5.126-3.392-7.7-.526-3.4-1.2-6.833,1.86-9.529,2.187-2.015,1.377-4.672,1.526-7.124q-.9-.569-.59-1.119c.2-.363.409-.545.616-.545,1.556-.18,2.826.092,2.829,2.026q.018,11.889-.015,23.779C292.435,113.332,291.234,113.759,289.624,113.531Z" transform="translate(0 0)"/>
    <path class="cls-21" d="M484.985,157.007c2.476-7.45,7.236-3.5,11.288-2.126,5.178,1.751,3.348,6.019,1.875,8.748-1.073,1.986-2.628,2.8-.847,5.3.917,1.284,3.121,3.941.609,5.181-2.606,1.286-3.794-1.409-4.642-3.626a30.57,30.57,0,0,0-1.519-2.993,3.03,3.03,0,0,1-.984-3.025,25.765,25.765,0,0,1,1.161-2.948c.534-1.77-.682-2.136-2-2.417a19.84,19.84,0,0,1-2.132-.367A5.6,5.6,0,0,1,484.985,157.007Z" transform="translate(0 0)"/>
    <path class="cls-21" d="M598.046,35.043c-5.663-1.311-9.125-4.823-10.462-10.461,1.567-3.461.5-7.754,3.4-10.794a2.7,2.7,0,0,1,2.393.456c1.034,10.081,7.885,13.68,16.766,15.023a2.5,2.5,0,0,1,.474,2.444C606.93,34.718,602.1,33.4,598.046,35.043Z" transform="translate(0 0)"/>
    <path class="cls-10" d="M378.621,163.7c4.4,2.092,10.556,2.659,8.6,10.8-5.315-3.385-13.092,4.035-17.106-4.388-1.491-3.13-.214-6.172,2.946-8.076.313.225.626.449.941.667a9.224,9.224,0,0,1,1.061,1.975c.318.643.375,1.614,1.058,1.876,1,.386.952-.739,1.284-1.306A3.242,3.242,0,0,1,378.621,163.7Z" transform="translate(0 0)"/>
    <path class="cls-8" d="M52.6,110.027l1.908,3.556.064.029a59.906,59.906,0,0,1-19.7,0c-2.933,0-5.97.442-8.362-1.92-.525-4.058,2.344-4.7,5.292-5.279a15.171,15.171,0,0,1,4.3.387C41.4,108.919,47.76,105.616,52.6,110.027Z" transform="translate(0 0)"/>
    <path class="cls-22" d="M167.458,83.248l2.127,2.376c-.791,5.246-5.157,4.918-8.828,5.689-3.278.078-6.561.064-9.845,0-3.332-.293-6.608-.71-8.1-4.4-.185-1.658.723-2.54,2.168-3.039l5.245.167a16.775,16.775,0,0,0,10.459-.065Z" transform="translate(0 0)"/>
    <path class="cls-23" d="M519.522,87.583c.929-2.625,3-3.606,5.569-3.861a1.382,1.382,0,0,1,1.518.25,16.063,16.063,0,0,0,10.457.022l5.211-1.753q.04,2.633.081,5.265c-.328,3.415-3.14,3.226-5.45,3.783-3.414.154-6.833.077-10.256.139C523.866,90.911,520.406,91.619,519.522,87.583Z" transform="translate(0 0)"/>
    <path class="cls-24" d="M32.326,107.88c-2.431.519-4.813,1.111-5.814,3.811-5.715-.886-10.843-2.821-14.2-7.929l.409-2.912C20.609,99.421,27.041,102.053,32.326,107.88Z" transform="translate(0 0)"/>
    <path class="cls-5" d="M209.482,156.862c-4.786,2.716-4.709,6.876-3.188,11.3s4.505,1.987,7.041,1.252c1.171-.34,2.49-.619,3.019.6a2.514,2.514,0,0,1-1.595,3.481c-5.081,1.645-9.687,1.594-12.13-4.324.431-3.481-.427-6.945-.144-10.425,1.69-5.387,5.5-6.356,10.422-4.993C213.761,156.988,210.316,155.487,209.482,156.862Z" transform="translate(0 0)"/>
    <path class="cls-21" d="M414.841,159.184c-1.033-2.945-4.625-1.536-7.433-4.257,6.5-2.372,11.717-2.389,18.15.967-10.1.984-6.3,7.849-6.785,12.692-.444,4.455-.208,4.478-3.762,4.135C416.491,168.189,416.792,163.672,414.841,159.184Z" transform="translate(0 0)"/>
    <path class="cls-7" d="M337.042,5.286c-1.483.1-2.932.287-3.875,1.654-3.029,3.754-7.9,1.384-11.426,3.474-1.383.808-2.684,1.806-4.358,1.96l-3.318-5.2c.607-2.446,2.082-3.806,4.69-3.746,5.917-.818,11.828-1.3,17.707.281A3.817,3.817,0,0,1,337.042,5.286Z" transform="translate(0 0)"/>
    <path class="cls-9" d="M592.592,14.117q-.786,0-1.573.018c-1.937.947-2.646-.531-3.48-1.762.509-4.236,3.076-6.916,6.671-8.817,3.123-1.18,6.14-1.453,8.834,1.033C602.729,11.234,596.751,11.679,592.592,14.117Z" transform="translate(0 0)"/>
    <path class="cls-21" d="M610.232,31.587l-.1-2.114a148.376,148.376,0,0,1,4.9-15.372,2.725,2.725,0,0,1,2.443-.211c2.914,3.664,1.918,8.236,2.866,12.357-1.547,4.811-4.714,7.477-9.9,7.472a1.4,1.4,0,0,1-.591-1.376Q610.011,31.587,610.232,31.587Z" transform="translate(0 0)"/>
    <path class="cls-8" d="M437.82,153.889c6.393-2.125,9.342,1.685,11.649,6.7,2.55,5.547-.39,9.093-4.364,12.3-1.43.844-2.233.074-2.878-1.109-.491-4.355,3.855-8.849-.389-13.081C440.669,156.958,437.572,156.8,437.82,153.889Z" transform="translate(0 0)"/>
    <path class="cls-9" d="M617.36,14.161q-.752-.042-1.505-.048c-4.553-1.719-8.759-3.91-11.3-8.354,1.447-3.288,4.775-2.641,7.372-3.524a13.259,13.259,0,0,1,8.478,8.478C619.391,11.865,620.5,14.89,617.36,14.161Z" transform="translate(0 0)"/>
    <path class="cls-23" d="M149.107,31.917l-5.821-3.507c1.268-2.7,3.621-3.321,6.307-3.313a24.3,24.3,0,0,0,9.5.313c2.151.177,4.057.782,5.054,2.939q.005,2.415.011,4.831C159.319,30.612,154.149,32.026,149.107,31.917Z" transform="translate(0 0)"/>
    <path class="cls-25" d="M289.629,85.665q-.008.832-.026,1.664c-12.414-.005-24.828.044-37.24-.06-2.746-.023-5.876,1.029-8-1.871Z" transform="translate(0 0)"/>
    <path class="cls-26" d="M293.221,161.81c2.694.942,6.223-1.137,8.235,2.275-.31,2.354.576,4.614.547,6.946-2.25,2.92-5.442,3.664-8.8,3.3-2.109-.227-5.434-.919-5.05-3.293.722-4.474,3.226-.124,4.934-.343,2.121-.271,5.2.612,5.5-2.514.359-3.836-4.287-1.73-5.594-3.908A1.68,1.68,0,0,1,293.221,161.81Z" transform="translate(0 0)"/>
    <path class="cls-8" d="M39.853,70.07a13.117,13.117,0,0,0,7.481-3.178c4.809-3.323,8.46-1.3,11.73,2.533.54,2.976,1.812,6.227-2.68,7.377C53.131,69.016,44.891,73.475,39.853,70.07Z" transform="translate(0 0)"/>
    <path class="cls-19" d="M341.879,111.686c.007-11.809-.04-23.619.061-35.428.024-2.764-.95-5.84,1.674-8.109v43.556A1.034,1.034,0,0,1,341.879,111.686Z" transform="translate(0 0)"/>
    <path class="cls-27" d="M50.886,153.8c2.959.922,1.505,3.381,1.568,5.1.395,10.775.328,10.777,11.054,13.255-5.506,2.979-9.982,3.172-14.652.685C50.218,166.568,47.313,159.84,50.886,153.8Z" transform="translate(0 0)"/>
    <path class="cls-7" d="M134.381,61.208c1.166,5.9-.076,12.594,5.619,17,.154,3.87-2.458,3.445-4.961,3.2-3.984-1.983-5.288-5.613-5.935-9.653C129.526,67.576,128.859,62.838,134.381,61.208Z" transform="translate(0 0)"/>
    <path class="cls-28" d="M274.779,163.464c1.808-3.363-2.035-9.423,2.841-9.383,3.847.032,1.884,6.234,1.681,9.479-.218,3.484,2.651,10.015-2.042,9.941C272.958,173.433,276.813,166.672,274.779,163.464Z" transform="translate(0 0)"/>
    <path class="cls-29" d="M511,163.731c-4.15-2.081-4.291-5.418-1.541-8.268,3.629-3.762,7.958-2.923,12.556-.612-1.745,3.439-4.213,2-6.183,2.262-4.941.658-3.006,2.76-.988,4.859C514.11,163.752,512.263,163.1,511,163.731Z" transform="translate(0 0)"/>
    <path class="cls-30" d="M293.221,161.81l-.235,2.465c-3.638.083-4.969-1.96-5.186-5.322-.168-2.609.634-4.695,3.15-5.341a15.008,15.008,0,0,1,9.289.271c1.18.455.864,1.335.642,2.051-.575,1.854-2.045,1.209-3.441,1.313C294.844,157.441,289.082,155.237,293.221,161.81Z" transform="translate(0 0)"/>
    <path class="cls-23" d="M373.363,12.4c2.444,13.35,3.309,26.677-.56,39.939Z" transform="translate(0 0)"/>
    <path class="cls-31" d="M127.389,170.6l1.735-1.459c2.93-4.791-.618-10.429,2-15.261,4.819,4.01,4.207,13.365-1.251,19.142C127.612,173.676,127.026,172.622,127.389,170.6Z" transform="translate(0 0)"/>
    <path class="cls-32" d="M254.374,169.22l2.082,1.953c.165,1.792-.512,2.54-2.327,1.878-5.674-4.883-6.314-15.385-1.165-19.127C255.236,158.856,252.786,164.224,254.374,169.22Z" transform="translate(0 0)"/>
    <path class="cls-33" d="M50.886,153.8c-1.066,6.3,2.164,13.066-2.031,19.035C48.651,166.4,45.01,159.595,50.886,153.8Z" transform="translate(0 0)"/>
    <path class="cls-34" d="M481.169,42.039c3.338,2.223,3.272,5.893,3.935,9.253,3.019,3.968,1.868,8.583,2.045,13-.861,3.708-.145,8.446-5.813,9.071a.9.9,0,0,1-.231-1.289c-.914-1.7-.5-3.628-.979-5.4.9-5.845.56-11.722.414-17.6.081-1.773-.616-3.666.8-5.234Z" transform="translate(0 0)"/>
    <path class="cls-15" d="M56.385,76.8c2.277-1.98,1.212-4.7,1.565-7.1,2.917-.4,4.08,1.517,4.993,3.775a17.577,17.577,0,0,1,.087,8.237c-.838,2.288-1.957,4.24-4.887,3.933l-4.2-2.06A11,11,0,0,0,56.385,76.8Z" transform="translate(0 0)"/>
    <path class="cls-2" d="M338.309,164.019c-5.183-1.743-4.977-5.6-2.249-8.677,3.371-3.8,7.5-3.187,10.393.1.527,5.2-10.514-3.316-6.114,6.3C340.913,163.613,340.29,164.42,338.309,164.019Z" transform="translate(0 0)"/>
    <path class="cls-9" d="M134.381,61.208c-2.492,3.1-2.964,6.846-3.408,10.6-4.605-1.171-3.39-4.781-3.34-7.91a21.165,21.165,0,0,0,.426-11.6,4.949,4.949,0,0,1,1.162-3.733c5.663-1.769,3.576,3.611,5.165,5.6Z" transform="translate(0 0)"/>
    <path class="cls-8" d="M57.646,49.612l1.932-3.847c4.647-1.06,8.381,1.4,12.291,3.188l-3.99,3.73C63.764,54.008,60.123,53.75,57.646,49.612Z" transform="translate(0 0)"/>
    <path class="cls-35" d="M153.836,165.974l1.511,1.959c1.426,2.387.885,3.55-2.018,3.244-1.5-.593-1.472-1.941-1.583-3.219-2.865-2.77-3.577-.568-4.151,1.824-.348,1.451.277,3.687-2.572,2.939a41.885,41.885,0,0,1,.056-18.786l1.623-.217c2.3,1.743,1.534,4.89,3.211,6.889,1.366,1.066,3.571.434,4.573,2.223A3.953,3.953,0,0,1,153.836,165.974Z" transform="translate(0 0)"/>
    <path class="cls-36" d="M226.9,153.923c3.116-.407,6.4-2.088,9.016,1.223-.709,1.551-2.648,2.1-3.1,3.854-.491,1.808-.442,3.7-.948,5.506a6.277,6.277,0,0,1-1.273,2.175c-2.48,1.336.881,5.9-3.449,6.193C225.315,166.576,225.642,160.255,226.9,153.923Z" transform="translate(0 0)"/>
    <path class="cls-24" d="M127.389,170.6l2.48,2.422c-5.061,2.755-8.851,1.864-10.968-3.825,2.274-4.972-.518-10.491,1.673-15.472,4.275,2.9,1.286,7.146,1.815,10.713C122.884,167.775,122.882,170.809,127.389,170.6Z" transform="translate(0 0)"/>
    <path class="cls-20" d="M71.649,171.027c-3.568-4.563-.993-9.835-1.655-14.736-.2-1.484.476-2.93,2.338-2.677,1.882.255,1.717,1.942,1.695,3.3-.057,3.4-.211,6.805-.326,10.208C74.527,169.215,74.971,171.11,71.649,171.027Z" transform="translate(0 0)"/>
    <path class="cls-8" d="M75.255,9.158l-4.014,3.534c-4.358,2.045-7.769.713-10.529-2.95-.424-3.163,1.861-3.585,4.105-4.049C69.082,4.482,71.386,9.178,75.255,9.158Z" transform="translate(0 0)"/>
    <path class="cls-37" d="M81.979,166.76a59.685,59.685,0,0,1-.39-7.74c.137-1.944-1.4-5.362,2.323-5.28,3.015.066,1.97,3.144,1.811,4.822-.393,4.144,1.727,8.677-1.7,12.4C80.5,170.946,81.617,168.669,81.979,166.76Z" transform="translate(0 0)"/>
    <path class="cls-15" d="M324.87,172.563c-3.147,4.074-7.422,1.541-10.989,1.368-2.877-.139-1.989-3.838-1.669-5.811.775-4.782-2.543-10.1,1.823-14.388,2.759,2.8-.189,6.359,1.24,9.332.251,2.844-1.927,6.268,1.959,8.252C319.66,172.465,322.487,171.159,324.87,172.563Z" transform="translate(0 0)"/>
    <path class="cls-5" d="M169.355,3.887l3.2-.075c1.91,1.21,5.705-.954,5.913,3.306a10.911,10.911,0,0,1-6.247,4.638c-4.335-.168-8.97.559-11.927-3.868C162.2,4.035,166.6,5.813,169.355,3.887Z" transform="translate(0 0)"/>
    <path class="cls-5" d="M158.919,2.019,162.4,3.911c-.331,3.448-3.815,3.028-5.66,4.633a13.51,13.51,0,0,1-8.193-.127c-2.36-1.408-5.52-2.374-3.56-6.245l3.515-.183A14.4,14.4,0,0,0,158.919,2.019Z" transform="translate(0 0)"/>
    <path class="cls-15" d="M437.82,153.889l5.19,2.774c-3.773,3.245-7.515,6.507-6.336,12.31a3.765,3.765,0,0,1-2.6,2.346,1.752,1.752,0,0,1-1.657-1.892,18.035,18.035,0,0,1-.037-10.97C433.218,155.775,434.845,154.029,437.82,153.889Z" transform="translate(0 0)"/>
    <path class="cls-38" d="M511,163.731l3.843-1.759c5.372,1.912,12.177,3.143,5.182,10.923-1.854.554-3.922,1.55-3.855-1.866C523.682,162.053,511.038,167.359,511,163.731Z" transform="translate(0 0)"/>
    <path class="cls-4" d="M347.225,171.256c-.88,4.116-4.192,3.123-6.815,2.992-2.125-.107-5.45-.528-5.265-2.933.3-3.964,3.168-1.434,5.052-.959,2.69.678,4.222-.742,5.384-2.883C348.506,167.7,348.3,169.289,347.225,171.256Z" transform="translate(0 0)"/>
    <path class="cls-8" d="M610.232,31.587l.212,2.131c-3.625,5.184-8.05,2.893-12.4,1.326C600.892,29.606,606.088,32.453,610.232,31.587Z" transform="translate(0 0)"/>
    <path class="cls-23" d="M587.539,12.373l3.481,1.762c-.588,3.666,1.471,8.2-3.436,10.448A11.788,11.788,0,0,1,587.539,12.373Z" transform="translate(0 0)"/>
    <path class="cls-8" d="M488.63,79.663a7.177,7.177,0,0,1-3.845,4.163c-1.923-1.954-2.242-4.54-2.772-7.042,1.39-2.033.8-6.067,5.165-5.1C489.163,74.068,490.526,76.571,488.63,79.663Z" transform="translate(0 0)"/>
    <path class="cls-12" d="M230.374,156.992c1.358-2.086,3.558-1.645,5.544-1.845,11.946,2.977.856,8.209,1.207,12.322-3.187.234-2.674-2.228-3-4.081C234.5,160.309,232.215,158.779,230.374,156.992Z" transform="translate(0 0)"/>
    <path class="cls-33" d="M347.225,171.256l-1.645-3.783c-1.491-3.115-5.353-1.238-7.271-3.453l2.03-2.28C350.008,162.962,351.6,165.161,347.225,171.256Z" transform="translate(0 0)"/>
    <path class="cls-8" d="M64.817,5.694l-3.6,3.6c-4.136,2.413-7.53,1.464-10.307-2.277l5.193-3.1C59.48,2.2,62.264,3.383,64.817,5.694Z" transform="translate(0 0)"/>
    <path class="cls-15" d="M153.836,165.974l-.144-3.831a10.309,10.309,0,0,1-.535-6.331c1.136-1.322,2.364-1.9,3.837-.479C162.083,160.7,158.381,163.463,153.836,165.974Z" transform="translate(0 0)"/>
    <path class="cls-34" d="M125.752,104.915l.107-5.038c5.043-.658,7.6,2.084,8.91,6.522-2.182.076-3.575,1.029-3.727,3.358C128.879,108.579,125.414,108.824,125.752,104.915Z" transform="translate(0 0)"/>
    <path class="cls-39" d="M134.652,80.323c2.069.015,4.192.168,5.348-2.119,2.65,1.025,3.981,3.207,4.983,5.677l-2.054,1.793C138.118,87.065,134.918,85.963,134.652,80.323Z" transform="translate(0 0)"/>
    <path class="cls-8" d="M172.882,10.58a5.453,5.453,0,0,1,5.246-3.434,1.028,1.028,0,0,1,1.74-.189,5.36,5.36,0,0,1,1.83,5.192l-.312,2.682C177.355,15.808,174.548,14.335,172.882,10.58Z" transform="translate(0 0)"/>
    <path class="cls-14" d="M404.753,3.642,379.915,3.51C388.207,1.228,396.488.855,404.753,3.642Z" transform="translate(0 0)"/>
    <path class="cls-20" d="M7.316,29.792c-3.931,3.282.52,8.964-3.5,12.221-2.334-5.267-.5-10.447.326-15.648C6.66,26.156,8.078,26.965,7.316,29.792Z" transform="translate(0 0)"/>
    <path class="cls-40" d="M507.627,43.767c2.834,2.374,3.03,5.761,3.475,9.052q-.023,5.048-.047,10.1a1.758,1.758,0,0,1-2.52-.216c-2.037-5.377-3.286-10.88-2.633-16.687A4.486,4.486,0,0,1,507.627,43.767Z" transform="translate(0 0)"/>
    <path class="cls-13" d="M156.993,155.333c-1.385.014-2.622.314-3.292,1.707-1.934,1.973-3.238,4.4-4.768,6.659-4.46-2.5-1.458-6.661-2.231-9.982C150.276,153.34,153.979,152.142,156.993,155.333Z" transform="translate(0 0)"/>
    <path class="cls-8" d="M437.753,113.358c7.367-3.631,15.212-.7,22.774-1.66C453.243,116.463,445.378,113.265,437.753,113.358Z" transform="translate(0 0)"/>
    <path class="cls-7" d="M341.879,111.686q.867.015,1.734.02c-7.229,4.786-15.033,1.549-22.6,1.619C327.746,109.942,334.949,112.551,341.879,111.686Z" transform="translate(0 0)"/>
    <path class="cls-12" d="M226.9,153.923c.853,6.226-1.848,12.761,1.631,18.759q.821.406.577.864c-.166.314-.336.472-.511.472-3.894.423-3.222-2.566-2.991-4.537C226.215,164.3,223.818,158.873,226.9,153.923Z" transform="translate(0 0)"/>
    <path class="cls-8" d="M110.309,74.744c-.339,2.611-1.259,4.819-3.995,5.772-2.59-1.763-.756-4.76-1.93-6.917.663-1.925,1.019-4.128,3.767-4.176A4.482,4.482,0,0,1,110.309,74.744Z" transform="translate(0 0)"/>
    <path class="cls-8" d="M516.3,8.964c-2.329-.2-4.294-1-5.326-3.3A9.433,9.433,0,0,1,519.579,3.5a4.476,4.476,0,0,1,.584,5.3A2.854,2.854,0,0,1,516.3,8.964Z" transform="translate(0 0)"/>
    <path class="cls-13" d="M145.079,153.934c.83,6.1-1.272,12.423,1.368,18.391q.919.414.735,1.012c-.131.429-.283.644-.459.644-1.527.357-3.222.061-3.07-1.644C144.2,166.208,141.389,159.8,145.079,153.934Z" transform="translate(0 0)"/>
    <path class="cls-41" d="M484.985,157.007l3.477.081a4.428,4.428,0,0,1,.953,3.3c-.637,3.743-1.457,7.473-.945,11.317a2.44,2.44,0,0,1-.271,2.146c-2.967,1.1-3.55-.71-3.525-3.009C484.723,166.228,484.875,161.618,484.985,157.007Z" transform="translate(0 0)"/>
    <path class="cls-41" d="M176.116,163.977c-.727,3.406,1.93,9.722-1.923,9.717-5.4-.007-1.883-6.295-2.859-9.706,4.523,1.726,1.29,5.154,2.307,7.19C175.413,169.7,171.374,165.107,176.116,163.977Z" transform="translate(0 0)"/>
    <path class="cls-7" d="M611.926,2.236C609.92,4.419,607.169,5,604.474,5.707l-.628,0L594.21,3.556c.607-1.849,2.111-1.8,3.631-1.718a54.977,54.977,0,0,1,12.678-.029A1.1,1.1,0,0,1,611.926,2.236Z" transform="translate(0 0)"/>
    <path class="cls-8" d="M402.881,111.7l1.914,0c-6.706,4.5-14,1.691-21.065,1.69C389.843,109.771,396.526,112.6,402.881,111.7Z" transform="translate(0 0)"/>
    <path class="cls-42" d="M516.172,171.028l3.855,1.866c-.865,1.376-2.272,1.425-3.674,1.521a9.642,9.642,0,0,1-7.75-2.447c-.275-.266.083-1.81.566-2.132C511.793,168.091,513.771,170.908,516.172,171.028Z" transform="translate(0 0)"/>
    <path class="cls-32" d="M202.484,158.746c2.462,3.442,2.362,6.919.144,10.425C200.32,165.727,200.1,162.255,202.484,158.746Z" transform="translate(0 0)"/>
    <path class="cls-30" d="M34.873,113.61l19.7,0A30.3,30.3,0,0,1,34.873,113.61Z" transform="translate(0 0)"/>
    <path class="cls-43" d="M520.607,113.694l20.414-.065C534.223,115.711,527.419,116.048,520.607,113.694Z" transform="translate(0 0)"/>
    <path class="cls-44" d="M134.386,54.169c-2.139-1.253-1.21-5.367-4.859-5.212-1.8-2.244-2.063-4.173,1.11-5.394,2.914.948,3.683,3.407,4.239,6.015Z" transform="translate(0 0)"/>
    <path class="cls-5" d="M71.649,171.027c1.642-.8,1.715-2.423,2.052-3.908,1.26,1.857,2.432,3.831,5.084,3.849.949.995,2.732.306,3.472,1.722C78.191,175.518,74.606,175.279,71.649,171.027Z" transform="translate(0 0)"/>
    <path class="cls-26" d="M314.037,163.984q0-5.126,0-10.252c3.63.161,7.6-2.225,10.761,1.451-2.478,2.343-7.746-1.171-8.788,4.186l-.053,2.216a1.874,1.874,0,0,1,.353,2.383A1.472,1.472,0,0,1,314.037,163.984Z" transform="translate(0 0)"/>
    <path class="cls-8" d="M617.36,14.162l3.044-3.448a1.089,1.089,0,0,1,.425,1.383,55.626,55.626,0,0,1-.042,12.681,1.211,1.211,0,0,1-.447,1.468C616.783,22.85,617.487,18.4,617.36,14.162Z" transform="translate(0 0)"/>
    <path class="cls-21" d="M373.058,162.038c-1.942-3.41-3.3-6.682,1.964-8.41,1.849,1.333,4.479,2.08,3.921,5.224-1.46,1.782-2.658,3.992-5.556,3.49Z" transform="translate(0 0)"/>
    <path class="cls-45" d="M479.384,68.145a25.534,25.534,0,0,1-.073-19.171,5.305,5.305,0,0,1,1.878,3.754c.156,3.36.113,6.721.045,10.083C481.033,64.733,480.816,66.649,479.384,68.145Z" transform="translate(0 0)"/>
    <path class="cls-9" d="M378.353,158.733l-3.331-5.1c3.289-1.631,5.583.421,7.327,2.543,1.513,1.841.757,3.754-1.8,4.47C378.7,161.3,378.236,160.349,378.353,158.733Z" transform="translate(0 0)"/>
    <path class="cls-8" d="M139.833,8.925c-2.3-.217-4.27-.968-5.244-3.3l5-2.359c2.936.783,5.556,1.788,4.034,5.717A2.831,2.831,0,0,1,139.833,8.925Z" transform="translate(0 0)"/>
    <path class="cls-35" d="M235.571,162.481c.1,1.791-.329,3.75,1.554,4.986l2.269,3.044c-.626,5.2-2.629,1.12-4.1.608-1.582-.588-1.451-2.009-1.6-3.293-.409-1.589-2.775-.753-3.072-2.48l-.092-1.848C232.063,162.445,233.51,160.942,235.571,162.481Z" transform="translate(0 0)"/>
    <path class="cls-46" d="M176.116,163.977c-2.531,1.733-1.062,4.7-2.063,7.235-2.17-2.169.11-5.683-2.72-7.224a.827.827,0,0,1-.415-1.153,1.825,1.825,0,0,1,.426-2.8l2.8.2c2.04-.382,3.082.231,2.477,2.485A1.067,1.067,0,0,1,176.116,163.977Z" transform="translate(0 0)"/>
    <path class="cls-37" d="M261.518,168.783a1.278,1.278,0,0,1,.339-1.32c2.173-4.39-.652-9.383,1.661-13.755,4.179,5.745,2.968,11.5.043,17.268C261.815,171.237,260.944,170.684,261.518,168.783Z" transform="translate(0 0)"/>
    <path class="cls-47" d="M336.462,3.708l-17.707-.281C324.69,1.449,330.605.765,336.462,3.708Z" transform="translate(0 0)"/>
    <path class="cls-8" d="M108.119,69.885,104.383,73.6c-2.054-1.5-1.054-3.553-.981-5.438,3.66.152,2.709-4.015,4.9-5.236C110.4,65.3,110.462,67.626,108.119,69.885Z" transform="translate(0 0)"/>
    <path class="cls-13" d="M144.035,113.675l19.394-.008A29.247,29.247,0,0,1,144.035,113.675Z" transform="translate(0 0)"/>
    <path class="cls-21" d="M620.787,24.778a16.315,16.315,0,0,1,.042-12.681A11.913,11.913,0,0,1,620.787,24.778Z" transform="translate(0 0)"/>
    <path class="cls-8" d="M143.255,8.611c.115-2.7-2.844-3.286-3.661-5.344C141,.979,143.1,2.113,144.984,2.172c-.205,2.614,2.5,3.165,3.495,4.925C147.107,8.878,145.565,10.069,143.255,8.611Z" transform="translate(0 0)"/>
    <path class="cls-32" d="M171.344,160.035l-.426,2.8c-3.006-2.054-3.937-5.3-5.49-9.217C170.625,153.573,171.634,156.2,171.344,160.035Z" transform="translate(0 0)"/>
    <path class="cls-48" d="M315.843,164.012l.112-2.427,8.936.671c-1.9,4.886-6.741,1.346-8.93,4Q314.517,165.2,315.843,164.012Z" transform="translate(0 0)"/>
    <path class="cls-49" d="M414.841,159.184c.549-.658,1.651-2.276,1.637-1.742-.137,5.106,2.051,10.517-1.467,15.28C413.962,168.221,414.266,163.7,414.841,159.184Z" transform="translate(0 0)"/>
    <path class="cls-9" d="M610.518,1.809a16.265,16.265,0,0,1-12.678.029A11.927,11.927,0,0,1,610.518,1.809Z" transform="translate(0 0)"/>
    <path class="cls-12" d="M378.353,158.733l2.2,1.908-1.932,3.061-.308,2.483c-1.9.561-3.306-.421-4.679-1.5l-.246-2.341C375.05,161.148,375.69,158.548,378.353,158.733Z" transform="translate(0 0)"/>
    <path class="cls-41" d="M261.518,168.783l2.043,2.192c-2.29,4.573-5.637,4.346-9.433,2.075l2.327-1.878Z" transform="translate(0 0)"/>
    <path class="cls-32" d="M99.885,158.37l-.348,4.375-6.469-9.054C98.019,153.474,99.84,154.788,99.885,158.37Z" transform="translate(0 0)"/>
    <path class="cls-37" d="M120.574,153.722c-.723,5.139,1.754,10.625-1.673,15.472C118.635,163.948,115.373,158.377,120.574,153.722Z" transform="translate(0 0)"/>
    <path class="cls-42" d="M131.12,153.877c-.683,5.085,2.148,10.629-2,15.261C130.908,164.2,127.475,158.574,131.12,153.877Z" transform="translate(0 0)"/>
    <path class="cls-41" d="M176.624,162.722l-2.477-2.485c.2-.821.13-1.9.638-2.413,1.425-1.436,1.1-5.441,4.166-4.194,3.315,1.35.107,3.741-.266,5.6C178.435,160.482,177.34,161.564,176.624,162.722Z" transform="translate(0 0)"/>
    <path class="cls-8" d="M157.2,7.026,162.4,3.911l6.958-.024c-2.386,2.7-5.631,3.136-8.942,3.4A2.2,2.2,0,0,1,157.2,7.026Z" transform="translate(0 0)"/>
    <path class="cls-41" d="M254.374,169.22c-3.044-4.862-1.054-10.187-1.411-15.3C256.086,158.778,253.587,164.151,254.374,169.22Z" transform="translate(0 0)"/>
    <path class="cls-34" d="M52.625,2.027a16.418,16.418,0,0,1-15.634,0A37.942,37.942,0,0,1,52.625,2.027Z" transform="translate(0 0)"/>
    <path class="cls-5" d="M473.028,169.805l-2.614-.781c1.909-4.913-2.067-10.675,2.2-15.248,1.589,5.285.809,10.63.406,15.965Z" transform="translate(0 0)"/>
    <path class="cls-33" d="M473.017,169.741q-.2-7.983-.406-15.965C477.181,158.985,475.882,164.343,473.017,169.741Z" transform="translate(0 0)"/>
    <path class="cls-50" d="M87.62,85.882q.023-8.216.046-16.432A20.819,20.819,0,0,1,87.62,85.882Z" transform="translate(0 0)"/>
    <path class="cls-4" d="M486.322,71.643l-4.309,5.14-.677-3.421c3.069-2.314,3.131-5.839,3.69-9.163C489.056,66.054,488.6,68.691,486.322,71.643Z" transform="translate(0 0)"/>
    <path class="cls-7" d="M509.171,62.914l1.884,0,.441.5-.246.624c-.6,2.832-.223,6.141-3.694,7.572a4.649,4.649,0,0,1-1.627-2.3C505.806,66.575,504.638,63.3,509.171,62.914Z" transform="translate(0 0)"/>
    <path class="cls-41" d="M263.518,153.708c-.817,4.553,1.587,9.5-1.661,13.755C262.307,162.865,259.364,157.858,263.518,153.708Z" transform="translate(0 0)"/>
    <path class="cls-47" d="M153.329,171.176c1.468-.587,1.881-1.83,2.018-3.244,2.539,1.151,3.485,3.3,3.808,5.929C156.212,174.955,154.119,174.466,153.329,171.176Z" transform="translate(0 0)"/>
    <path class="cls-8" d="M103.311,50.746a13.53,13.53,0,0,1-.069,13.894A31.379,31.379,0,0,1,103.311,50.746Z" transform="translate(0 0)"/>
    <path class="cls-8" d="M7.316,29.792,4.143,26.366a9.161,9.161,0,0,1,2.974-6.037A16.361,16.361,0,0,0,9.341,28.56a2.66,2.66,0,0,1-.024,3.262,1.426,1.426,0,0,1-1.99-.358Q7.337,30.628,7.316,29.792Z" transform="translate(0 0)"/>
    <path class="cls-30" d="M38.711,31.19c4.379-3.228,9.321-.944,13.98-1.43q-.008.731-.028,1.462Z" transform="translate(0 0)"/>
    <path class="cls-38" d="M302,171.03c-2.459-2.136-2.376-4.472-.547-6.946C304.062,166.209,304.415,168.51,302,171.03Z" transform="translate(0 0)"/>
    <path class="cls-7" d="M519.635,8.61q-.028-2.553-.056-5.106c.2-.965.615-1.655,1.782-1.338-.141,3.652,3.96,2.706,5.232,4.827C524.665,9.217,522.451,10.208,519.635,8.61Z" transform="translate(0 0)"/>
    <path class="cls-51" d="M316.008,159.369c.394-6.717,5.687-3.151,8.788-4.186l.964.94a10.04,10.04,0,0,1-2.115.87C320.984,157.437,317.7,155.816,316.008,159.369Z" transform="translate(0 0)"/>
    <path class="cls-52" d="M488.2,173.849q-.2-.844-.365-1.695c-.576-3.14-1.166-6.284,1.982-8.563a1.478,1.478,0,0,1,2,1.159l-.07,2.736C486.989,167.613,491.325,172.812,488.2,173.849Z" transform="translate(0 0)"/>
    <path class="cls-47" d="M146.723,173.982a9.183,9.183,0,0,0-.274-1.654c.518-2.269-.883-5.34,2.377-6.461,1.565-.538,2.562.525,2.92,2.091C145.054,165.782,150.753,173.938,146.723,173.982Z" transform="translate(0 0)"/>
    <path class="cls-53" d="M230.618,165.347c1.485.256,2.949.538,3.072,2.48-6.6-1.966-.922,6.159-5.09,6.19q-.046-.667-.065-1.335C228.879,170.137,228,167.245,230.618,165.347Z" transform="translate(0 0)"/>
    <path class="cls-5" d="M442.853,170.657l2.252,2.232c-3.086,2.224-6.124,2.235-9.109-.2a5.976,5.976,0,0,1,3.607-2.725A3.423,3.423,0,0,1,442.853,170.657Z" transform="translate(0 0)"/>
    <path class="cls-54" d="M432.375,158.457l.037,10.97C430.143,165.778,429.774,162.122,432.375,158.457Z" transform="translate(0 0)"/>
    <path class="cls-14" d="M537.066,83.994c-3.491,2.5-6.977,2.543-10.457-.022Z" transform="translate(0 0)"/>
    <path class="cls-7" d="M535.3,2c-3.477,2.546-6.951,2.571-10.423-.01A21.721,21.721,0,0,1,535.3,2Z" transform="translate(0 0)"/>
    <path class="cls-20" d="M158.919,2.019c-3.48,2.5-6.954,2.54-10.419-.03A21.569,21.569,0,0,1,158.919,2.019Z" transform="translate(0 0)"/>
    <path class="cls-55" d="M160.687,83.983q-5.206,3.832-10.459.065Z" transform="translate(0 0)"/>
    <path class="cls-56" d="M53.277,43.485c-3.777.251-7.682,1.575-11.079-1.334C45.96,42.029,49.722,41.9,53.277,43.485Z" transform="translate(0 0)"/>
    <path class="cls-26" d="M324.87,172.563l-9.123.024c-1.009-1.347-1.081-2.638.229-3.846C317.814,172.639,323.094,168.524,324.87,172.563Z" transform="translate(0 0)"/>
    <path class="cls-53" d="M235.292,171.12c1.4.025,3.028,1.577,4.1-.608,1.372.985,3.285,2.429.926,3.628C238.024,175.307,235.853,174.012,235.292,171.12Z" transform="translate(0 0)"/>
    <path class="cls-57" d="M479.74,52.442l-.43-3.468,2.028-5.131q.043,2.518.087,5.035C482.2,50.7,482.9,52.482,479.74,52.442Z" transform="translate(0 0)"/>
    <path class="cls-27" d="M315.977,168.741q-.114,1.924-.229,3.847c-2.969-2.392-1.3-5.7-1.711-8.6l1.806.027q.06,1.12.119,2.24Z" transform="translate(0 0)"/>
    <path class="cls-57" d="M479.384,68.145l.3-5.21c3.216-.089,2.517,1.7,1.706,3.551l-.287,5.588Z" transform="translate(0 0)"/>
    <path class="cls-33" d="M439.45,171.215,436,172.693l-1.926-1.375,2.109-2.193C438.031,168.63,439.018,169.487,439.45,171.215Z" transform="translate(0 0)"/>
    <path class="cls-23" d="M110.172,42.008c-2.572-.965-3.367-3.1-3.664-5.563a1.026,1.026,0,0,1,.373-1.366l3.587,5.788Z" transform="translate(0 0)"/>
    <path class="cls-5" d="M82.258,172.69c-1.426-.032-2.72-.331-3.472-1.722l3.194-4.208c.446,1.515.412,3.264,2.048,4.2A1.636,1.636,0,0,1,82.258,172.69Z" transform="translate(0 0)"/>
    <path class="cls-36" d="M209.482,156.862l3.424-3.108,3.162,2.159C214.214,158.6,211.709,156.764,209.482,156.862Z" transform="translate(0 0)"/>
    <path class="cls-18" d="M455.029,58.567c0,14.211-.2,28.426.106,42.63.111,5.089-.936,7.075-6.6,7.04-14.133-.088-14.137.237-14.137-13.961,0-24.941-.04-49.883.043-74.824.012-3.607-1.457-8.407,2.8-10.153,5.112-2.1,10.925-1.405,16.269-.367,2.7.525,1.446,4,1.462,6.133C455.081,29.565,455.031,44.066,455.029,58.567Z" transform="translate(0 0)"/>
    <path class="cls-8" d="M429.3,106.546c-1.059-31.378-.827-62.757-.133-94.137,1.779,1.5,1.593,3.57,1.593,5.575q0,41.45,0,82.9C430.765,102.9,430.9,104.945,429.3,106.546Z" transform="translate(0 0)"/>
    <path class="cls-16" d="M317.383,12.374l1.964-3.235c4.557-1.973,9.215-1.194,13.87-.512q20.412,29.26,40.831,58.514c.775,1.11,1.121,3,2.9,2.719,2.47-.391,1.765-2.6,1.77-4.163.051-15.629.034-31.259.037-46.888,0-3.736-.558-7.649,3.195-10.211,5.8-.516,11.623-1.547,17.341.558-.029,29.122.033,58.244-.127,87.365-.071,12.985,2.492,11.27-11.253,11.462-1.728.024-3.458-.091-5.186-.141-7.585-6.73-11.855-15.976-18.062-23.748-2.068-2.59-2.91-6.344-6.689-7.4-4.7-10.225-11.624-18.9-19.858-29.136,0,17.97-.046,34.055.025,50.139.026,5.8,1.246,11.328-8.327,10.535-11.726-.971-12.141-.525-12.175-11.511Q317.5,54.549,317.383,12.374Z" transform="translate(0 0)"/>
    <path class="cls-7" d="M312.325,104.726c-.872-31.353-1.062-62.706.109-94.056,2.039,1.777,1.574,4.192,1.576,6.447q.029,40.61,0,81.22C314.008,100.592,314.464,103.014,312.325,104.726Z" transform="translate(0 0)"/>
    <path class="cls-16" d="M285.924,108.007c-19.931,0-39.864-.135-59.792.1-4.632.054-7.836-1.1-9.468-5.56q0-46.579,0-93.157l3.271-.808C240.443,7.385,260.97,8.446,281.482,8c4.083-.089,5.991,1.281,5.5,5.459-.43,3.677.955,7.508-.943,11.061l.042-.071c-13.18,2.2-26.458.781-39.678.8-6.27.007-8.573,1.317-8.386,8.086.408,14.788.023,14.56,14.484,14.888,8.83.2,17.77-1.527,26.5,1.133l-.064-.314c1.916,4.685,1.3,9.44.395,14.205-1.029.992-2.044,2.137-3.586,2.112-12.22-.2-24.47,1.115-36.658-.711-3.474,7.884-1.117,16.15-1.4,24.224-.118,3.392,3.448,2.239,5.482,2.244,14.151.033,28.3-.082,42.455-.15C288.016,96.6,287.542,102.3,285.924,108.007Z" transform="translate(0 0)"/>
    <path class="cls-14" d="M279,49.353c-11.521-1.64-23.105-.589-34.655-.639-4.917-.021-7.119-.732-7.13-6.53-.034-17.584-.329-17.566,17.6-17.59,10.422-.014,20.844-.094,31.265-.145-3.98,3.648-8.821,1.633-13.24,1.8-8.969.33-17.968.357-26.935.005-5.455-.214-7.331,1.954-6.837,7.115a44.518,44.518,0,0,1,.011,7.815c-.373,4.578,1.665,6.115,6.106,6,8.685-.22,17.382-.161,26.071,0C273.937,47.232,277.207,45.887,279,49.353Z" transform="translate(0 0)"/>
    <path class="cls-13" d="M286.042,24.52c.544-15.954.544-15.955-15.106-15.953q-25.5,0-51,.011C223.8,5.492,228.318,7.153,232.5,7.09c15.066-.227,30.16.413,45.2-.283,8.644-.4,11.5,2.68,10.323,10.812A47.12,47.12,0,0,0,288,24.566Z" transform="translate(0 0)"/>
    <path class="cls-20" d="M290.885,29.122q-23.1.162-46.189.322c11.165-3.034,22.545-.674,33.8-1.353,3.694-.223,7.412-.031,11.119-.029.418,0,.835.018,1.249.044A1.267,1.267,0,0,1,290.885,29.122Z" transform="translate(0 0)"/>
    <path class="cls-20" d="M239.089,64.644l30.9-.535c3.09-.054,6.3.564,9.022-1.579q1.412.967.149,2.122A94.387,94.387,0,0,1,239.089,64.644Z" transform="translate(0 0)"/>
    <path class="cls-5" d="M285.924,108.007c.42-5.69.909-11.382-.3-17.045,1.861.429,2.18,1.939,2.447,3.489q-.016,5.095-.037,10.186c.8,1.953,1.331,3.765-1.886,3.631Z" transform="translate(0 0)"/>
    <path class="cls-19" d="M279.163,64.651l-.149-2.122q-.038-6.746-.075-13.491C282.226,54.2,281.842,59.407,279.163,64.651Z" transform="translate(0 0)"/>
    <path class="cls-7" d="M241.173,83.635V71.827l.808-.02V83.272Z" transform="translate(0 0)"/>
    <path class="cls-7" d="M242.189,31.92q.028,4.88.053,9.756A8.093,8.093,0,0,1,242.189,31.92Z" transform="translate(0 0)"/>
    <path class="cls-45" d="M519.635,8.61l6.958-1.617c11.423.444,22.351,2.44,32.2,8.858,4.755,3.1,5.6,5.2,2.052,10.6C557.071,32.2,554.8,37,547.587,31.362c-8.29-4.769-16.715-8.387-26.191-3.086-8.25,1.91-11.92,7.891-13.769,15.49a1.111,1.111,0,0,0-.311,1.444,218.867,218.867,0,0,0-.048,25.071.961.961,0,0,0,.288,1.334c.935,7.611,6.063,12.079,11.965,15.967,1.645,2.689,4.383,1.173,6.587,1.713a22.327,22.327,0,0,0,11.5.02c1.76-.141,3.832.541,4.75-1.809,2.065-.7,4.769-.8,6.084-2.2,5.25-5.6,7.793-2.714,10.84,2.35,4.686,7.787,3.456,14.413-5.063,16.565-5.178,1.308-9.995,4.012-15.435,4.275a50.64,50.64,0,0,1-17.394-.089c-15.883-3.923-25.973-14.45-32.76-28.741l-2.308-8.019a13.085,13.085,0,0,0-1.3-7.444l.078-12.907C488.6,32.1,497.421,16.824,516.3,8.964Z" transform="translate(0 0)"/>
    <path class="cls-43" d="M521.39,108.4l17.394.089A20.754,20.754,0,0,1,521.39,108.4Z" transform="translate(0 0)"/>
    <path class="cls-14" d="M399.287,9.157,381.946,8.6a11.416,11.416,0,0,1,.041-1.61l17.4-.036Q399.338,8.053,399.287,9.157Z" transform="translate(0 0)"/>
    <path class="cls-47" d="M333.217,8.628l-13.87.512c4.04-4.3,9.255-1.2,13.82-2.2A8.166,8.166,0,0,1,333.217,8.628Z" transform="translate(0 0)"/>
    <path class="cls-45" d="M110.172,42.008a.741.741,0,0,0,.3-1.141c5.433-14.652,14.561-25.906,29.366-31.941l3.422-.314L148.479,7.1l8.725-.072,3.209.259,12.47,3.3,8.5,4.251c5.812,5.015,4.981,14.015-1.5,18.725-2.148,1.562-2.951-.481-4.382-.866-3.94-1.061-6.784-4.981-11.366-4.341l-5.214-1.976a11.192,11.192,0,0,1-8.688.071c-2.785-.994-4.395,2.169-6.956,1.966-7.058,2.679-10.564,8.323-12.65,15.153-2.252,1.411-1.116,3.518-1.11,5.394l-.182,3.511a14.627,14.627,0,0,1-.008,10.443c-.379,3.137-.331,6.195,1.635,8.9a16.993,16.993,0,0,0,3.679,8.513c1.216,4.17,5.021,4.336,8.277,5.352,1.481,2.627,3.6,4.072,6.736,3.655a21.4,21.4,0,0,0,11.409-.079c3.5.342,6.182-1.226,8.512-3.627,9.535-3.662,13.638-1.582,17.149,7.923,1.2,3.241-.827,4.262-2.515,5.54-6.482,4.909-13.92,7.707-21.818,9.382a51.438,51.438,0,0,1-17.385-.021L134.768,106.4l-8.91-6.522c-7.917-6.687-11.26-16.2-15.55-25.133l-2.19-4.859a9.88,9.88,0,0,0,.187-6.961Z" transform="translate(0 0)"/>
    <path class="cls-13" d="M145.017,108.448l17.385.021A21.027,21.027,0,0,1,145.017,108.448Z" transform="translate(0 0)"/>
    <path class="cls-45" d="M8.875,31.529l.466-2.969C13.6,12.549,26.686,9.257,40.465,6.968a12.791,12.791,0,0,1,8.677,0l1.769.043A27.112,27.112,0,0,0,61.219,9.291c3.2,1.545,6.311,3.357,10.022,3.4,1.389,2.667,7.243,2.127,5.825,6.04-1.594,4.4-4.235,10.153-7.877,11.57-3.351,1.3-8.637-2.371-13.07-3.853l-.626-.406-.738.106a46.432,46.432,0,0,0-18.12.019c-6.99,1.639-7.961,7.112-7.078,12.7C30.59,45.4,35.8,47.314,41.824,47.4c4.028,1.876,8.534-.414,12.565,1.44l3.258.771L67.88,52.683a35.1,35.1,0,0,1,14.409,17.2c1.419,4.616,1.074,9.263.242,13.918-4.476,13.8-14.44,21.311-28.145,24.522a53.83,53.83,0,0,1-19.169.037l-2.892-.485c-6.6-2.16-12.583-6.043-19.6-7.03-1.854-3.005-7.641-5.944-2.6-9.531C14.26,88.367,16.22,77.84,25,85.343a13.445,13.445,0,0,0,8.485,3.581c11.426,4.031,19.6,2.944,24.655-3.279l3.393-3.156a13.323,13.323,0,0,0-.047-9.423L57.951,69.7c-3.327-1.737-6.708-3.271-10.616-2.809-2.306-3.033-5.785-1.937-8.763-2.356C24.452,62.552,13.433,56.629,8.987,42A17.289,17.289,0,0,1,8.875,31.529Z" transform="translate(0 0)"/>
    <path class="cls-30" d="M35.218,108.365l19.169-.037-1.786,1.7C46.806,109.47,40.74,111.761,35.218,108.365Z" transform="translate(0 0)"/>
    <path class="cls-50" d="M82.531,83.805l-.242-13.918C85.088,74.479,84.854,79.124,82.531,83.805Z" transform="translate(0 0)"/>
    <path class="cls-12" d="M8.875,31.529,8.987,42c-3.07-3.116-1.194-7.011-1.66-10.538Q8.1,31.51,8.875,31.529Z" transform="translate(0 0)"/>
    <path class="cls-30" d="M36.634,26.167c6.037-2.82,12.078-2.223,18.12-.019Z" transform="translate(0 0)"/>
    <path class="cls-56" d="M54.388,48.841c-4.264.181-8.539.465-12.564-1.44C46.071,47.362,50.49,45.832,54.388,48.841Z" transform="translate(0 0)"/>
    <path class="cls-12" d="M49.143,6.971l-8.677,0Q44.8,3.5,49.143,6.971Z" transform="translate(0 0)"/>
    <path class="cls-3" d="M286.152,108.269c1.438-.789,1.7-2.192,1.885-3.631,2.252,1.962,1.411,4.614,1.571,7.042l-64.449.019c2.542-2.828,5.918-1.659,8.938-1.683,14.652-.116,29.305-.008,43.958-.091C280.813,109.909,283.878,110.863,286.152,108.269Z" transform="translate(0 0)"/>
    <path class="cls-58" d="M490.18,157.183c4.739-.592,6.742.608,3.454,5.274C488.166,163.526,488.671,160.684,490.18,157.183Z" transform="translate(0 0)"/>
    <path class="cls-59" d="M490.18,157.183c-.3,2.706-.778,5.534,3.454,5.274l-1.816,2.292-2.085-.269c-2.4-.435-2.529-1.919-1.755-3.817q.242-1.788.485-3.575A3.559,3.559,0,0,1,490.18,157.183Z" transform="translate(0 0)"/>
    <path class="cls-60" d="M603.845,5.712l.628,0c4.887,1.322,9.03,3.651,11.381,8.406,1.412,6.356-.879,11.332-5.72,15.359-13.438,1.93-18.048-2.1-17.543-15.355C595.012,9.533,599.02,7.075,603.845,5.712Z" transform="translate(0 0)"/>
    <path class="cls-61" d="M373.633,164.683l4.679,1.5c.373,1.6,3.665,3.8.024,4.662C373.361,172.019,373.943,167.742,373.633,164.683Z" transform="translate(0 0)"/>
    <path class="cls-55" d="M161.074,89.251a12.5,12.5,0,0,1-11.409.079Z" transform="translate(0 0)"/>
    <path class="cls-14" d="M537.607,89.316a12.786,12.786,0,0,1-11.5-.02Z" transform="translate(0 0)"/>
    <path class="cls-20" d="M150.243,26.444a12.285,12.285,0,0,1,8.688-.071C156.055,28.9,153.158,28.835,150.243,26.444Z" transform="translate(0 0)"/>
    <path class="cls-4" d="M481.392,66.485c-.116-1.4-.354-2.744-1.706-3.551a24.851,24.851,0,0,1,.055-10.493q.841-1.781,1.684-3.563A21.242,21.242,0,0,1,481.392,66.485Z" transform="translate(0 0)"/>
    <path class="cls-62" d="M61.49,73.066c1.836,3.132,2.083,6.272.047,9.423Q61.514,77.778,61.49,73.066Z" transform="translate(0 0)"/>
    <path class="cls-7" d="M129.337,62.91a21.764,21.764,0,0,1,.008-10.443Q133.288,57.692,129.337,62.91Z" transform="translate(0 0)"/>
    <path class="cls-63" d="M148.933,163.7c-1.523-4.448-1.512-7.8,4.768-6.659,1.847,1.7.752,3.4-.009,5.1Z" transform="translate(0 0)"/>
    <path class="cls-64" d="M235.571,162.481l-5.045,1.018-.152-6.508C234.261,156.782,238.07,156.646,235.571,162.481Z" transform="translate(0 0)"/>
    <path class="cls-9" d="M507.268,70.282a38.187,38.187,0,0,1,.048-25.071c.113,5.954,2.732,11.645,1.855,17.7C506.576,64.863,508,67.852,507.268,70.282Z" transform="translate(0 0)"/>
    <path class="cls-7" d="M487.977,160.663l1.755,3.816c-1.782,2.277-1.722,5.008-1.9,7.678A11.176,11.176,0,0,1,487.977,160.663Z" transform="translate(0 0)"/>
  </g>
</svg>
