<svg id="Layer_1" data-name="Layer 1" xmlns="http://www.w3.org/2000/svg" viewBox="0 0 459.471 189.348">
  <defs>
    <style>
      .cls-1 {
        fill: #114783;
      }

      .cls-2 {
        fill: #0b3058;
      }

      .cls-3 {
        fill: #114784;
      }

      .cls-4 {
        fill: #d5d7d9;
      }

      .cls-5 {
        fill: #18518a;
      }

      .cls-6 {
        fill: #124d88;
      }

      .cls-7 {
        fill: #dadcdd;
      }

      .cls-8 {
        fill: #104984;
      }

      .cls-9 {
        fill: #114b86;
      }

      .cls-10 {
        fill: #104a85;
      }

      .cls-11 {
        fill: #b2b5b7;
      }

      .cls-12 {
        fill: #607faf;
      }

      .cls-13 {
        fill: #b4b6b7;
      }

      .cls-14 {
        fill: #bcbcbf;
      }

      .cls-15 {
        fill: #9b9d9e;
      }

      .cls-16 {
        fill: #a5a8aa;
      }

      .cls-17 {
        fill: #4872a5;
      }

      .cls-18 {
        fill: #9d9fa1;
      }

      .cls-19 {
        fill: #c6c9cc;
      }

      .cls-20 {
        fill: #6683b2;
      }

      .cls-21 {
        fill: #b1b6bb;
      }

      .cls-22 {
        fill: #bcbebf;
      }

      .cls-23 {
        fill: #cccecf;
      }

      .cls-24 {
        fill: #949aa1;
      }

      .cls-25 {
        fill: #a5a8ab;
      }

      .cls-26 {
        fill: #b1b4b8;
      }

      .cls-27 {
        fill: #9da3a9;
      }

      .cls-28 {
        fill: #b3b8bf;
      }

      .cls-29 {
        fill: #c4c8ce;
      }

      .cls-30 {
        fill: #afb2b5;
      }

      .cls-31 {
        fill: #8b939a;
      }

      .cls-32 {
        fill: #114884;
      }

      .cls-33 {
        fill: #c6ccd2;
      }

      .cls-34 {
        fill: #3e6da0;
      }

      .cls-35 {
        fill: #cfd2d6;
      }

      .cls-36 {
        fill: #bdc3ca;
      }

      .cls-37 {
        fill: #235d95;
      }

      .cls-38 {
        fill: #b8bcc1;
      }

      .cls-39 {
        fill: #406ea3;
      }

      .cls-40 {
        fill: #215d96;
      }

      .cls-41 {
        fill: #a1a8ae;
      }

      .cls-42 {
        fill: #125490;
      }

      .cls-43 {
        fill: #abb3ba;
      }

      .cls-44 {
        fill: #0b0c0e;
      }

      .cls-45 {
        fill: #5b7dad;
      }

      .cls-46 {
        fill: #4a73a7;
      }

      .cls-47 {
        fill: #3b6ba0;
      }

      .cls-48 {
        fill: #6683b1;
      }

      .cls-49 {
        fill: #4570a4;
      }

      .cls-50 {
        fill: #3c6b9f;
      }

      .cls-51 {
        fill: #bdc1c6;
      }
    </style>
  </defs>
  <title>55c9118d-dd43-4553-92b5-a34fb4218b71</title>
  <g>
    <path class="cls-1" d="M0,135.428c13.832-3.034,27.832-.759,41.744-1.286,2.421-.092,4.574.852,4.029,3.889-.468,2.607-1.677,4.974-4.785,5.085-5.078.181-10.165.086-15.245.221-3.933.1-8.482-1.186-8.574,5.6-.1,7.312,4.807,6.015,9.086,6.133,3.493.1,6.99.033,10.483.142,3.031.095,4.642,1.695,4.689,4.791.051,3.373-1.984,4.344-4.91,4.345-3.813,0-7.645.259-11.436-.026-5.446-.409-8.1,1.1-8.015,7.3.081,5.727,1.761,8.108,7.659,7.684,5.374-.386,10.8-.1,16.2-.058,2.875.021,6.013-.235,6.211,3.975.206,4.387-2.609,5.236-6.181,5.278q-20.478.236-40.955.529Z"/>
    <path class="cls-2" d="M459.471,187.118c-2.455-.557-5.5,2.437-7.371-1.136a2.714,2.714,0,0,1,.812-2.438c2.766-2.11,4.04,2.308,6.559,1.66Z"/>
    <path class="cls-3" d="M111.032,156.6c-5.111,8.323-10.407,16.541-15.269,25.008-3.2,5.578-5.422,4.744-8.381-.153-4.765-7.889-9.885-15.564-15.7-24.648-2.423,8.607-1.206,16.052-1.264,23.327-.045,5.662-1.158,8.775-7.906,8.87-7.332.1-7.334-3.929-7.267-9.136.152-11.8-.084-23.6.138-35.4.059-3.141-1.893-8.041,3.029-8.789,5.037-.765,11-2.57,14.822,3.26,4.893,7.466,9.916,14.86,14.484,22.522,2.909,4.879,4.855,5.042,7.721.017,4.1-7.2,8.641-14.144,12.972-21.212,1.518-2.477,3.034-4.529,6.392-5.076,10.621-1.73,12.921.052,12.941,10.958.022,11.8-.181,23.606.065,35.4.129,6.175-2.971,7.305-8.324,7.391-5.794.093-6.974-2.626-6.819-7.62.246-7.961.066-15.935.066-23.9Z"/>
    <path class="cls-3" d="M424.787,168.38c0-10.749.272-18.707-.091-26.635-.263-5.754,1.724-7.9,7.619-7.851,6.034.051,7.659,2.693,7.558,8.182-.222,12.1.059,24.212-.142,36.314-.058,3.5,1.807,8.382-3.46,9.692-4.692,1.167-9.451.926-13.1-3.4-7.177-8.523-14.509-16.916-21.825-25.321-1.173-1.347-1.926-3.421-5.582-3,0,7.969-.2,16.1.068,24.206.183,5.588-1.715,8.017-7.651,8.089-6,.073-7.676-2.309-7.528-7.946.309-11.779-.09-23.576.2-35.356.091-3.741-2.331-9.137,3.3-10.69,5.613-1.547,11.049-1.18,15.422,4.311C407.058,148.362,415.174,157.241,424.787,168.38Z"/>
    <path class="cls-1" d="M137.846,159.6c.763-6.906-3.668-17.784,1.745-23.348,5.873-6.036,16.99-1.545,25.789-2.178a114.818,114.818,0,0,1,12.422.005c2.38.087,5.72-.58,5.791,3.156.069,3.589-1.9,6-5.883,6.022-5.417.032-10.838.182-16.25.03-4.226-.119-6.473,1.1-6.444,5.9.029,4.767,2.266,6.063,6.492,5.916,4.137-.144,8.284-.016,12.426.042,3.375.047,5.438,1.483,5.324,5.182-.108,3.5-2.443,4.032-5.227,4.032-3.505,0-7.031.257-10.511-.033-5.751-.479-8.621.911-8.663,7.691-.046,7.333,3.868,7.431,9.087,7.259,5.411-.179,10.833,0,16.25-.01,3.009,0,4.905,1.153,4.816,4.458-.085,3.121-1.815,4.673-4.827,4.686-12.426.055-24.853.008-37.279.08-4.441.026-5.14-2.636-5.088-6.263C137.917,175.215,137.846,168.2,137.846,159.6Z"/>
    <path class="cls-3" d="M277.741,189.347a61.737,61.737,0,0,1-17.051-2.2c-2.585-.724-6.419-.591-5.458-4.876.938-4.18,3.849-5.313,8.043-4.172a38.015,38.015,0,0,0,10.323,1.619c4.985-.07,12.2,2.7,13.309-5.071,1.006-7.028-6.263-6.719-10.724-8.378-4.166-1.549-8.55-2.5-12.748-3.975-5.688-2-8.736-6.03-8.954-12.2-.218-6.188,2.721-10.424,8.055-12.928,12.259-5.755,24.825-4.339,37.348-.974,1.528.41,4.235.892,3,3.665-1.339,3-3.189,5.633-7.188,4.958-4.38-.739-8.743-1.856-13.15-2.084-3.939-.2-9.342-1.078-10.229,4.367-.827,5.073,4.635,5.282,7.917,6.615,3.814,1.548,7.924,2.349,11.853,3.636,8.083,2.647,13.134,7.565,12.52,16.8-.608,9.148-7.1,12.254-14.553,14C286.074,189.081,281.853,188.981,277.741,189.347Z"/>
    <path class="cls-4" d="M237.148,39.668c-1.69-5.449-6.948-8.437-9.28-13.443-.375-5.451.869-9.612,7.533-9.453,7.092,7.147,13.143,15.145,19.037,23.271,2.21,3.017,1.7,5.686-1.03,8.077-3.044,1.6-5.992.79-8.934-.337C241.328,45.725,236.429,45.221,237.148,39.668Z"/>
    <path class="cls-5" d="M251.263,64.684c1.577,6.742-.747,10.636-8.851,14.829-4.338,1.309-7.18-2.408-10.9-3.223a7.3,7.3,0,0,1-3.679-4.172c-1.058-4.937.768-8.809,4.425-12.01a7.767,7.767,0,0,1,4.191-1.137c1.88.067,3.6.848,5.41,1.25C245.263,61.126,247.931,63.6,251.263,64.684Z"/>
    <path class="cls-6" d="M245.1,45.4l7.576,2.094c4.048-.873,6.986,1.028,9.566,3.827-2.191,5.313-3.16,11.832-11.213,11.358-3.193.826-5.77-1.116-8.609-1.912a15.79,15.79,0,0,1-4.852-2.387,6.057,6.057,0,0,1-1.528-2.4C236.064,49.89,237.9,45.344,245.1,45.4Z"/>
    <path class="cls-7" d="M200.586,83.826l12.058,14.955c1.514,6.181.616,10.564-7.264,9.74L193.264,93.5C192.772,88.054,194.233,84.088,200.586,83.826Z"/>
    <path class="cls-8" d="M176.335,72.132c1.3-5.811,4.084-10.56,9.588-13.354,4-1.275,6.965,1.483,10.363,2.619a9.876,9.876,0,0,1,4.285,5.813c-.085,6.662-3.384,10.488-10.033,11.353a12.536,12.536,0,0,1-2.97-.22A25.261,25.261,0,0,1,176.335,72.132Z"/>
    <path class="cls-9" d="M242.8,81.757c-.387,6.619-2.33,12.064-9.967,13.215-2.273,1.131-4.25-.156-6.318-.76a12.035,12.035,0,0,1-3.849-1.438,8.618,8.618,0,0,1-4.3-5.592c-.293-5.075,1.832-8.71,6.47-10.85a9.34,9.34,0,0,1,4.3-.27C234,77.208,238.054,80.308,242.8,81.757Z"/>
    <path class="cls-10" d="M195.442,39.634c1.641-5.636,4.136-10.59,10.172-12.708,7.326-.371,11.35,3.766,13.79,10.092-.663,6.1-4.319,8.879-10.2,9.193a14.964,14.964,0,0,1-8.493-1.97A24.868,24.868,0,0,1,195.442,39.634Z"/>
    <path class="cls-11" d="M218.316,35.69q-6.358-4.391-12.708-8.774c-2.264-3.92.823-6.519,2.34-9.53,1.531-3.037,3.068-3.725,5.43-.615,3.411,4.492,7.779,8.256,10.229,13.481-.336,2.121.614,4.607-1.746,6.155C220.515,36.978,219.267,37.065,218.316,35.69Z"/>
    <path class="cls-8" d="M186.019,56.944c1.327-5.643,2.173-11.629,9.334-13.123a7.6,7.6,0,0,1,4.926-.135c1.9,1.113,4.058,1.7,5.894,2.953a6.57,6.57,0,0,1,2.043,3.74c-.33,6-3.987,9.09-9.337,10.714A18.794,18.794,0,0,1,186.019,56.944Z"/>
    <path class="cls-12" d="M207.732,83.862l-6.918-2.436a4.88,4.88,0,0,1-1.092-2.47c.507-4.86,2.488-8.873,6.7-11.612a7.814,7.814,0,0,1,2.807-.481c4.265,1.278,8.122,3.111,10.038,7.536.289,4.714-1.036,8.78-4.8,11.857C211.611,87.169,209.975,84.664,207.732,83.862Z"/>
    <path class="cls-13" d="M235.4,16.771c-3.808,2.118-4.936,6.371-7.533,9.453L222,18.812C219.288,12.7,219.869,8.2,227.664,7.241Z"/>
    <path class="cls-14" d="M205.381,108.521c4.433-1.746,6.146-5.521,7.264-9.74l7.72,9.537c1.284,5.475-.721,9.025-6.176,10.557A33.228,33.228,0,0,1,205.381,108.521Z"/>
    <path class="cls-15" d="M227.664,7.241c-4.3,2.674-5.463,6.89-5.669,11.571-3.49-3.422-7.8-6.675-8.223-11.73-.239-2.874,2.416-6.881,5.4-7.07C223.37-.255,225.412,4.073,227.664,7.241Z"/>
    <path class="cls-16" d="M227.8,91.612c2.565-.2,3.175,2.527,5.042,3.363,3.861,6.225-2.182,9.262-3.971,13.933-3.575-2-5.275-4.953-7.139-7.761C221.979,96.84,224.6,94.044,227.8,91.612Z"/>
    <path class="cls-17" d="M245.1,45.4a14.687,14.687,0,0,0-7.583,11.233c-3.891,1.8-5.618-.847-7.333-3.549-1.528-5.36.874-8.975,5.23-11.716l1.736-1.7C238.582,43.266,242.752,43.07,245.1,45.4Z"/>
    <path class="cls-18" d="M214.188,118.875l6.176-10.557c9.368,5.974,1.406,11.058-.7,16.6A8.574,8.574,0,0,1,214.188,118.875Z"/>
    <path class="cls-19" d="M207.732,83.862l6.791,1.421c2.683-.994,4.122.679,5.471,2.549l4.111,3.386c.825,4.772-1.444,6.468-5.928,5.959Z"/>
    <path class="cls-20" d="M235.413,41.37c.121,4.231-4.649,6.885-3.673,11.391a3.957,3.957,0,0,1-3.968,1.695,5.227,5.227,0,0,1-3.48-2.8c-1.6-3.707-.083-7.037,1.261-10.391a6.165,6.165,0,0,1,2-2.258,4.192,4.192,0,0,1,4.254.628Z"/>
    <path class="cls-21" d="M242.8,81.757c-5.753,3.741-9.008-2.077-13.41-3.505.161-2.558,2.6-2.722,4.086-3.894,4.071-.16,6.151,3.128,8.942,5.163C242.542,80.261,242.672,81.009,242.8,81.757Z"/>
    <path class="cls-22" d="M191.47,91.327c-1.938-1.246-4.346-2.117-4.1-5.115-1.458-3.3-1.385-6.273,1.794-8.6,2.617-.723,5.206-1.288,7.162,1.4C198.2,84.49,194.016,87.585,191.47,91.327Z"/>
    <path class="cls-23" d="M191.47,91.327c-.865-4.568,3.619-7.364,3.834-11.574,2.208-1.1,4.252-1.458,5.61,1.251l-.1.421-.228,2.4L193.265,93.5Z"/>
    <path class="cls-24" d="M262.24,51.323c-3.571-.32-6.955-1.106-9.565-3.827q.882-3.727,1.764-7.454C257.849,43.243,261.659,46.167,262.24,51.323Z"/>
    <path class="cls-25" d="M176.335,72.132l11.293,3.925c1.023,3.5-.953,5.006-3.89,5.882C180,79.631,178.2,75.853,176.335,72.132Z"/>
    <path class="cls-26" d="M218.176,97.176a13.094,13.094,0,0,0,5.928-5.959l3.693.395c-.747,3.99-2.123,7.58-6.068,9.535Z"/>
    <path class="cls-27" d="M186.019,56.944l12.549,2.211a1.637,1.637,0,0,1,.849,2.235c-1.243,1.683-2.74,2.546-4.83,1.5-3.893.747-5.894-2.491-8.664-4.112A2.855,2.855,0,0,1,186.019,56.944Z"/>
    <path class="cls-28" d="M243.075,59.076c3.331-.3,5.643,1.651,7.952,3.605q.117,1,.235,2c-4.217,3.564-6.769-1-10.042-2.056C240.129,60.549,241.5,59.758,243.075,59.076Z"/>
    <path class="cls-29" d="M231.807,39.631l-4.073.379a2.836,2.836,0,0,1-2.287.47,5.476,5.476,0,0,1-3.277-3.458c-.018-.409-.033-.82-.048-1.23-.04-1.989-.174-4,1.485-5.538C225.765,33.882,230.349,35.389,231.807,39.631Z"/>
    <path class="cls-30" d="M183.738,81.938l3.89-5.882,1.85.052c.624.181.87.436.739.766-.145.365-.3.549-.482.549l-2.363,8.789A6.9,6.9,0,0,1,183.738,81.938Z"/>
    <path class="cls-31" d="M199.207,45.2l-3.853-1.379q.043-2.091.088-4.185c2.09.029,4.143.159,5.588,1.992A3.788,3.788,0,0,1,199.207,45.2Z"/>
    <path class="cls-3" d="M232.047,164.788c8.947-4,15.514-8.8,12.837-18.524-2.608-9.472-11.091-10.051-19.11-11.075a183.592,183.592,0,0,0-25.674-1.156c-4.588.059-7.057,1.68-7,6.726.157,13.99.115,27.983.023,41.974-.026,4,1.669,5.473,5.639,5.838,9.873.908,11.527-.423,11.61-10.621.018-2.226-.061-4.456.051-6.676.091-1.811-.34-4,2.061-4.768,2.059-.659,3.762.245,5.069,1.77,3.515,4.1,7.424,7.96,10.335,12.459,6.26,9.673,14.817,8.626,25.361,6.439Zm-14.213-7.211c-6.544.915-7.641-2.077-7.519-6.594.116-4.269-.287-8.488,6.1-7.9,5.07.468,11.055.241,11.242,7.128C227.848,157.348,221.2,156.535,217.834,157.577Z"/>
    <path class="cls-32" d="M351.088,134.322c-23.6-3.975-42.876,3.523-41.186,30.153,1.023,16.113,11.558,24.568,31.291,24.56q28.807-.013,31.718-24.649C374.657,149.467,366.139,136.858,351.088,134.322Zm1.23,38.543c-1.919,5.178-5.985,7.6-10.98,7.7a11.229,11.229,0,0,1-11.554-8.277c-1.784-5.762-2.66-11.556-1.189-17.788,1.758-7.447,5-12.18,13.35-11.919,8.789.275,10.753,6.565,12.05,13.4a21.217,21.217,0,0,1,.053,4.687A26.77,26.77,0,0,1,352.318,172.865Z"/>
    <path class="cls-33" d="M233.478,74.357l-4.086,3.894L225.909,78c-2.293-1-5.434-.446-6.569-3.576-.863-1.974-2.622-3.732-1.513-6.191a4.983,4.983,0,0,1,3.65-1.405,13.978,13.978,0,0,1,5.043,1.551c1.558.971,2.214,2.616,3.059,4.122C230.314,74.3,232.186,73.723,233.478,74.357Z"/>
    <path class="cls-34" d="M229.58,72.5l-3.658-2.409c-3.633-5.4-1.085-9.038,3.44-12.122,2.174-.2,4.446-.525,4.2,2.851C231.786,64.558,229.355,68.075,229.58,72.5Z"/>
    <path class="cls-35" d="M233.564,60.818l-3.778-2.1a3.348,3.348,0,0,1-3-2.017,3.275,3.275,0,0,1,.822-3.512l4.133-.425,5.776,3.873a12.831,12.831,0,0,1,1.714.519c.808,2.084-.186,3.3-1.986,4.133Z"/>
    <path class="cls-36" d="M237.244,61.287l1.986-4.133,3.846,1.922-1.855,3.55C239.735,62.653,238.166,62.931,237.244,61.287Z"/>
    <path class="cls-37" d="M189.734,77.423a4.771,4.771,0,0,0-.256-1.314c6.126-.1,8.1-4.466,9.571-9.338,3.518-2.651,5.793-1.192,7.467,2.258L200.915,81c-2.246,1.267-3.824-.46-5.61-1.251C194.131,77.343,191.758,77.8,189.734,77.423Z"/>
    <path class="cls-38" d="M206.516,69.029c-2.506-.7-4.521-3.016-7.467-2.258l-4.461-3.881,4.591-2.145a8.418,8.418,0,0,1,7.973.529,6.772,6.772,0,0,1,2.623,3.239,3.833,3.833,0,0,1-1.084,3.844Z"/>
    <path class="cls-39" d="M219.822,73.881,225.909,78c-3.816,2.169-5.136,5.839-5.916,9.834l-5.471-2.548c-.51-4.312,2.234-7.547,3.709-11.2l.733-.6Z"/>
    <path class="cls-40" d="M218.316,35.69l3.806.1-.331.5c1.745,6.3-1.208,9.765-6.966,11.544a7.665,7.665,0,0,1-5.842-1.438,2.247,2.247,0,0,1-.48-2.765C214.347,44.167,216.451,40.077,218.316,35.69Z"/>
    <path class="cls-41" d="M208.5,43.635q.355.766.665,1.552c-.809,2.092-2.742,2.194-4.527,2.557L199.206,45.2l1.824-3.573Z"/>
    <path class="cls-42" d="M206.733,62.855c-2.7-.066-5.311-.427-7.555-2.11q-.328-.786-.609-1.59c3.737-2.32,7.338-4.757,8.168-9.562a3.4,3.4,0,0,1,2.314-1.375,4.652,4.652,0,0,1,4.262,3.141C213.228,56.393,211.162,60.3,206.733,62.855Z"/>
    <path class="cls-43" d="M208.764,49.1l-2.027.5-2.1-1.85c1.036-1.688,2.718-2.232,4.526-2.556l4.617.665q1.621.05,1.118,1.589C213.32,49.711,210.757,48.345,208.764,49.1Z"/>
    <path class="cls-44" d="M227.607,53.187l.09,3.6a3.847,3.847,0,0,1-2.168,1.383,9.348,9.348,0,0,1-7.193-2.953,7.33,7.33,0,0,1-1.358-2.272,4.978,4.978,0,0,1,.549-3.8,5.009,5.009,0,0,1,2.2-1.29,6.531,6.531,0,0,1,2.523.162c1.628.676,2.511,2.123,3.511,3.45Z"/>
    <path class="cls-45" d="M225.76,51.462c-1.371-.453-3.088-.238-3.8-1.969-1.335-5.055.067-8.087,5.834-7.893Z"/>
    <path class="cls-46" d="M227.8,41.6c-3.354,1.589-4.256,4.991-5.834,7.893a11.091,11.091,0,0,1-1.768-.5c-1.216-5.034-.381-8.8,5.744-9.3q.9.155,1.793.32Q227.785,40.8,227.8,41.6Z"/>
    <path class="cls-47" d="M225.941,39.689c-3.711,1.992-5,5.48-5.744,9.3l-2.014.242c-2.106,1.062-3.031-.164-3.689-1.905q-.37-.732-.71-1.477c5.329-.955,5.891-5.907,8.006-9.557A5.777,5.777,0,0,1,225.941,39.689Z"/>
    <path class="cls-48" d="M218.386,52.68l7.5,4.463c3,5.281-1.363,8.051-3.9,11.443l-4.083-.119-5.526-3.609C210.558,58.912,213.562,55.346,218.386,52.68Z"/>
    <path class="cls-49" d="M221.986,68.585c.23-4.18,4.756-6.894,3.9-11.443a4.209,4.209,0,0,1,1.808-.355l2.089,1.929c-1.605,3.683-4.215,7.025-3.864,11.373C224.428,70.065,222.883,70.172,221.986,68.585Z"/>
    <path class="cls-50" d="M218.386,52.68c-.549,4.777-4.592,7.829-6.011,12.176l-4.044-.293-1.6-1.708c.362-4.484,3.121-7.756,5.639-11.15,2.5-2.463,4.068.019,5.895,1.121Z"/>
    <path class="cls-51" d="M218.267,52.827l-5.895-1.122L208.764,49.1c1.515-1.871,3.679-1.634,5.73-1.767l3.689,1.906Q218.225,51.03,218.267,52.827Z"/>
  </g>
</svg>
