<svg id="Layer_1" data-name="Layer 1" xmlns="http://www.w3.org/2000/svg" viewBox="0 0 328.93 60.828">
  <defs>
    <style>
      .cls-1 {
        fill: #d3047f;
      }
    </style>
  </defs>
  <title>0e44aac3-670f-4f63-888a-72c86c4b8c32</title>
  <g>
    <path class="cls-1" d="M276.2.024,324.8,52.113c1.6-2.367,1.008-4.553,1-6.584-.026-13.161-.155-26.322-.163-39.483,0-1.481-.836-3.984,1.544-4.039,2.552-.059,1.555,2.5,1.561,3.924.071,17,.051,33.991.034,50.987,0,.961.272,2.022-.97,3.174L279.4,8.18c0,6.283,0,11.032,0,15.78,0,10.664.027,21.328-.018,31.992-.005,1.2.5,2.947-1.495,3.143-1.719.169-1.677-1.259-1.678-2.422C276.2,38.206,276.2,19.739,276.2.024Z"/>
    <path class="cls-1" d="M232.567,30.79A30.352,30.352,0,0,1,202.2,60.828c-16.595,0-30.409-13.66-30.406-30.073a30.384,30.384,0,0,1,60.768.035ZM202.459,57.739a27.085,27.085,0,1,0-27.327-26.712A27.191,27.191,0,0,0,202.459,57.739Z"/>
    <path class="cls-1" d="M27.23,0c3.879,8.264,7.245,15.447,10.621,22.625,5.165,10.983,10.363,21.951,15.467,32.962.473,1.02,2.2,2.41.438,3.384-1.681.927-2.664-.613-3.306-2.081a10.582,10.582,0,0,1-.827-1.811C47.257,44.4,40.49,41,30.1,42.712a40.63,40.63,0,0,1-11.948,0c-5.992-.823-9.235,1.576-10.941,7.145-.819,2.674-2.351,5.128-3.549,7.687-.552,1.179-1.441,2.044-2.73,1.513C-.9,58.3.453,57.1.871,56.206,9.456,37.842,18.078,19.5,27.23,0Zm.013,6.9L12.273,39.547h30Z"/>
    <path class="cls-1" d="M112.073,53.13c4.778-10.271,9.518-20.462,14.259-30.652,2.805-6.03,5.6-12.064,8.431-18.082.619-1.315,1.234-3.31,3.082-2.437,2.124,1,.251,2.583-.263,3.693q-12.659,27.342-25.446,54.6c-1.859-.656-1.957-2.174-2.494-3.316Q97.758,31.665,86,6.335c-.62-1.339-2.7-3.329-.928-4.281,2.577-1.386,3.118,1.627,3.893,3.279,6.776,14.451,13.47,28.941,20.221,43.4C109.871,50.2,110.119,51.957,112.073,53.13Z"/>
  </g>
</svg>
