<svg id="Layer_1" data-name="Layer 1" xmlns="http://www.w3.org/2000/svg" viewBox="0 0 411.567 102.977">
  <defs>
    <style>
      .cls-1 {
        fill: #010101;
      }

      .cls-2 {
        fill: #020202;
      }

      .cls-3 {
        fill: #fefcfb;
      }

      .cls-4 {
        fill: #fce2e3;
      }

      .cls-5 {
        fill: #fee4e6;
      }

      .cls-6 {
        fill: #fcf8f7;
      }

      .cls-7 {
        fill: #fbf7f6;
      }

      .cls-8 {
        fill: #faecec;
      }

      .cls-9 {
        fill: #c12127;
      }

      .cls-10 {
        fill: #eb8c90;
      }

      .cls-11 {
        fill: #cf353b;
      }

      .cls-12 {
        fill: #d00f17;
      }

      .cls-13 {
        fill: #b61d25;
      }

      .cls-14 {
        fill: #bf1c23;
      }

      .cls-15 {
        fill: #ce1b22;
      }

      .cls-16 {
        fill: #ce3f45;
      }

      .cls-17 {
        fill: #b81c25;
      }

      .cls-18 {
        fill: #c71118;
      }

      .cls-19 {
        fill: #d03238;
      }

      .cls-20 {
        fill: #ce363c;
      }

      .cls-21 {
        fill: #c82e34;
      }

      .cls-22 {
        fill: #d2121a;
      }

      .cls-23 {
        fill: #c4141d;
      }

      .cls-24 {
        fill: #d9151e;
      }

      .cls-25 {
        fill: #c20911;
      }

      .cls-26 {
        fill: #d91721;
      }

      .cls-27 {
        fill: #da161c;
      }

      .cls-28 {
        fill: #d71921;
      }
    </style>
  </defs>
  <title>96761d88-089e-4b01-90fc-821d05e88464</title>
  <g>
    <path class="cls-1" d="M129.348,0c6.2.577,11.654,1.4,17.118,1.49,4.175.068,3.251,2.622,3.367,5.019.175,3.632-2.42,2.447-4.123,2.315-6.791-.526-13.569-1.512-20.394-.914-8.612.755-10.642,3.3-10.321,11.8.129,3.415,1.55,5.418,4.876,5.771,4.789.508,9.607.742,14.4,1.19a67.67,67.67,0,0,1,8.391,1.122,11.443,11.443,0,0,1,9.322,9.241,29.827,29.827,0,0,1-.62,15.78c-1.584,5.108-5.609,7.5-10.695,8.555-10.136,2.1-20.215.448-30.312-.234-3.878-.262-2.412-3.295-2.576-5.327-.226-2.808,1.517-2.424,3.609-2.295,8.277.51,16.542,2.049,24.871.661,5.655-.942,7.711-3.5,7.736-9.627.025-6.207-1.457-8.132-7.482-9.046-6.41-.972-12.96-.155-19.37-1.6-6.931-1.564-10.08-4.755-10.641-11.783a47.046,47.046,0,0,1,.006-7.476c.629-7.837,4.066-11.875,11.673-13.347C122.08.537,126.088.36,129.348,0Z"/>
    <path class="cls-2" d="M261.375,39.571c0-5.823-.03-11.647.01-17.47.029-4.146,2.891-5.8,6.334-3.459,1.089.74,1.494,1.907,3.18.988,5.418-2.953,11.358-2.108,17.1-1.72,6.321.426,9.316,3.387,10.269,9.523,1.642,10.574.548,21.237.81,31.858.09,3.641-2.81,2.388-4.723,2.633-2.578.329-3.525-.844-3.49-3.434.111-8.151.178-16.308.018-24.457-.164-8.336-1.372-9.366-9.778-9.373-11.92-.01-11.918-.01-11.913,11.665,0,6.655-.038,13.311.014,19.966.023,2.867.589,5.343-4.05,5.328-4.946-.017-3.738-2.984-3.767-5.574C261.334,50.553,261.375,45.062,261.375,39.571Z"/>
    <path class="cls-2" d="M249.358,39.961c0,5.662.019,11.325-.007,16.987-.02,4.418-2.156,6.036-6.193,4.035a5.107,5.107,0,0,0-4.9-.156,26.3,26.3,0,0,1-7.31,1.458c-13.874,1.148-18.585-3.246-18.581-17.151,0-7.827.149-15.659-.074-23.48-.092-3.232,1.117-3.849,4.051-3.832,2.98.017,4.137.8,4.068,3.952-.182,8.323-.138,16.653-.031,24.979.087,6.794,1.89,8.472,8.683,8.574,12.3.184,12.3.184,12.294-11.919,0-7.328.112-14.658-.061-21.982-.069-2.917.972-3.69,3.763-3.593,2.641.092,4.475.171,4.354,3.645C249.2,27.632,249.358,33.8,249.358,39.961Z"/>
    <path class="cls-3" d="M176.3,86.955c3.064-2.024,6.883-.237,10-1.983,1.888,1,3.925.488,5.882.489q105.612.047,211.224.051c1.962,0,3.994-.486,5.894.46l1,1.011c-2.426,2.126-5.389,1.37-8.136,1.372q-103.08.067-206.16.044a40.112,40.112,0,0,0-7.449.268c-2.674,1.147-1.63,3.568-1.926,5.556s1.367,3.723.7,5.741c-1.955,4.021-2.257,4.021-5.048-.007-.895-1.89.514-3.5.652-5.277.27-3.461.005-6.415-4.507-6.582A2.8,2.8,0,0,1,176.3,86.955Z"/>
    <path class="cls-4" d="M187.322,99.962c-2.856-3.785-2.735-7.833-1.057-12.017a.921.921,0,0,1,1.464.506,4.334,4.334,0,0,1,.077,1.882c.122,5.748.444,6.2,5.778,6.2,71.13-.022,142.261.151,213.373-.083,1.917-.353,1.962-1.835,2.017-3.342.058-1.609-.08-3.26.821-4.727.195-.17.393-.338.591-.505,1.865,2.914,1.019,6.157.795,9.194-.206,2.782-2.855,2.985-5.025,2.84-28.89-1.934-57.811-.528-86.716-.789-29.768-.269-59.541-.1-89.312-.043C215.856,99.105,201.568,98.557,187.322,99.962Z"/>
    <path class="cls-5" d="M187.314,87.978l-1.049-.032c1.5-1.566,3.449-.947,5.207-.948q109.413-.04,218.825-.015a5.969,5.969,0,0,0,.087.9l-.283.315c-1.86,1.536-4.105,1.175-6.234,1.175q-104.944.042-209.888,0C191.684,89.371,189.265,89.733,187.314,87.978Z"/>
    <path class="cls-6" d="M152.287,97.981c-.442.221-.886.439-1.325.665-2.9,1.5-6.511,2.753-8.674.18-2.356-2.8-1.129-6.981-.65-10.5.254-1.864,6.97-2.054,9.056-.272.511.436.89.872,1.579.9A7.471,7.471,0,0,1,152.287,97.981Z"/>
    <path class="cls-6" d="M128.6,94.76c.111,2.38.073,5.1-4.371,5.283-4.114.167-5.048-1.725-5-5.389.046-3.628-1.891-7.863,4.6-7.747C129.2,87,127.919,90.959,128.6,94.76Z"/>
    <path class="cls-7" d="M101.376,99.992c-3.2.158-5.516-2.094-4.461-4.367,1.327-2.858-2.863-8.555,4.087-8.682,3.128-.057,5.359,2.169,4.694,4.316C104.775,94.231,107.817,99.742,101.376,99.992Z"/>
    <path class="cls-7" d="M82.289,92.5c0,1.339.033,2.168-.006,2.993-.13,2.723-1.5,4.3-4.285,4.454-3,.17-3.509-2.151-3.816-4.25-.435-2.975.868-5.752,2.146-8.267.531-1.045,2.837-.732,4.194-.13C83.156,88.464,81.961,91.015,82.289,92.5Z"/>
    <path class="cls-7" d="M94.183,96a3.878,3.878,0,0,1-3.736,3.911c-2.231.261-4.013-.392-4.1-3.053-.077-2.312.024-4.63-.048-6.943-.065-2.109.888-2.983,2.97-2.952,1.992.03,3.736.362,3.956,2.741C93.42,91.833,93.153,94.014,94.183,96Z"/>
    <path class="cls-6" d="M139.227,92.558c-.254,2.522,2.509,7.732-4.537,7.4-6.351-.3-3.951-5.251-4.339-8.558-.586-4.989,3.093-4.212,6.225-4.5C141.279,86.482,139.4,89.5,139.227,92.558Z"/>
    <path class="cls-8" d="M152.287,97.981q-.007-4.512-.014-9.023c1.452-3.7,4.551-1.917,6.822-1.7,2.661.257,2.357,2.9,2.157,4.8-.275,2.613,1.559,6.178-1.895,7.528C157.126,100.463,154.054,101.032,152.287,97.981Z"/>
    <path class="cls-8" d="M163.278,94.408c.081-4.222-.219-7.518,4.934-7.559,3.643-.029,5.456,2.107,4.717,4.615-.877,2.975,1.77,8.57-4.769,8.5C163.757,99.92,163.1,97.081,163.278,94.408Z"/>
    <path class="cls-7" d="M116.35,93.646c-.4,2.473,1.166,6.126-3.438,6.28-5.073.17-4.837-3.457-4.584-6.875.2-2.639-1.457-6.288,3.816-6.159C117.4,87.02,116.076,90.655,116.35,93.646Z"/>
    <path class="cls-4" d="M176.3,86.955c8.7.085,10.554,4.118,5.974,13q-.485-.017-.971-.02c-1.535-1.124-3.483.114-5.04-.88l-1.049-1.046c-1.131-2.587.407-5.472-.9-8.039A3.028,3.028,0,0,1,176.3,86.955Z"/>
    <path class="cls-8" d="M174.315,89.972c1.884,2.5.572,5.362.9,8.039C173.4,95.5,174.676,92.644,174.315,89.972Z"/>
    <path class="cls-8" d="M176.264,99.056c1.707.142,3.583-.688,5.04.881C179.6,99.781,177.733,100.555,176.264,99.056Z"/>
    <path class="cls-1" d="M33.226,37.806c-1.659-2.4-1.362-3.474,1.568-3.82,3.977-.469,7.452-2.071,9.637-5.516,4.176-6.584,3.919-13.642,1.192-20.575C43.159,1.628,37.259.565,31.548.345,22.233-.013,12.894.27,3.567.174,1.145.149,0,.684.018,3.489.133,21.646.167,39.8,0,57.96c-.034,3.651,1.918,3.471,4.4,3.528s4.091-.128,3.973-3.379c-.236-6.488-.088-12.991-.067-19.488,0-1.129-.406-2.394.56-3.327,1.787-1.727,11.843-.7,13.309,1.441,4.129,6.045,8.656,11.891,12.089,18.316,3.263,6.109,7.7,7.539,14.525,5.834C43.429,52.909,38.41,45.3,33.226,37.806ZM20.745,27.069C8.3,27.062,8.274,27.062,8.3,14.7c.018-7.843-.894-6.855,6.881-6.91,4.655-.033,9.314-.122,13.966.008,7.266.2,9.544,2.569,9.559,9.605.016,7.161-2.049,9.309-9.484,9.647C26.4,27.184,23.572,27.077,20.745,27.069Z"/>
    <path class="cls-2" d="M347.522,3.5c.084-3.352-1.62-3.316-4-3.329-2.42-.013-4.224.05-3.966,3.369.284,3.644-.061,7.334.111,10.992.136,2.9-.352,4.234-3.835,3.625a58.708,58.708,0,0,0-10.963-.437c-8.086.128-12.926,3.716-14.69,11.577a49.97,49.97,0,0,0,.073,21.8c1.53,6.959,6.285,10.321,13.035,11.15a27.5,27.5,0,0,0,12.333-1.26c2.08-.716,3.368-1.265,5.731.1,3.727,2.147,6.086.218,6.091-4.091q.016-13,0-26C347.442,21.826,347.292,12.656,347.522,3.5ZM333.14,55.082c-1.823.086-3.647.259-5.468.23-6.779-.107-9.03-1.878-9.9-8.5a48.125,48.125,0,0,1,.344-15.846c.782-3.879,3.083-5.974,7.169-6.3,14.35-1.141,14.346-1.187,14.353,15.319.006,2.657-.393,5.389.088,7.955C340.776,53.545,337.675,54.869,333.14,55.082Z"/>
    <path class="cls-2" d="M66.2,43.09c3.81.268,7.63.408,11.446.6l.009-.167q3.5,0,6.994,0c11.887-.008,13.546-2.1,11.357-13.892-1.14-6.144-4.035-10.5-10.656-11.447a57.287,57.287,0,0,0-17.409-.009c-6.122,1-10.124,4.56-11.375,10.951a54.269,54.269,0,0,0-.151,20.832C57.667,56.467,61.53,60.4,68.345,61.612c7.523,1.343,14.886.326,22.343-.291,3.78-.313,3.732-2.431,3.609-5.06-.17-3.629-2.8-2.132-4.417-1.885a65.127,65.127,0,0,1-17.4.682c-5.626-.657-8.37-3.707-8.957-9.044C63.276,43.789,63.956,42.932,66.2,43.09Zm2.721-17.97A31.982,31.982,0,0,1,83.63,25c3.054.711,5.234,5.708,4.4,9.618-.748,3.523-3.689,1.859-5.689,2.133a60.976,60.976,0,0,1-7.424.065,32.085,32.085,0,0,1-4.958-.32c-2.119-.4-5.313,1.718-6.084-2.223C63.114,30.369,65.379,25.962,68.923,25.121Z"/>
    <path class="cls-1" d="M200.924,29.136c-.607-5.748-3.646-9.543-9.438-10.7a51,51,0,0,0-19.288-.049c-5.56,1.019-8.5,4.673-9.385,10.2a66.475,66.475,0,0,0,.148,23.277c1.023,5.3,4.171,8.589,9.481,9.539a53.974,53.974,0,0,0,8.892.914c16.136.169,20.164-3.828,20.165-19.761q0-1.246,0-2.493l.209-.015C201.456,36.412,201.307,32.762,200.924,29.136Zm-7.706,19.306c-.428,4.373-2.769,6.739-7.483,6.93-14.562.592-15.512-.27-15.385-15.529q0-1.991,0-3.982c.007-3.808-.7-8.441,3.354-10.226a21.711,21.711,0,0,1,16.49-.026c2.188.819,2.784,3.259,2.992,5.425A90.125,90.125,0,0,1,193.218,48.442Z"/>
    <path class="cls-9" d="M409.184,97.876c-10.492.049-20.984.137-31.477.139q-91.707.02-183.414.008c-8.493,0-8.935-.564-7.033-9.136,1.933-.778,3.955-.379,5.93-.38q104.429-.036,208.859-.02C410.834,88.487,411.046,88.766,409.184,97.876Z"/>
    <path class="cls-10" d="M409.184,97.876c.813-8.908.813-8.9-8.124-8.907q-106.9-.039-213.8-.082a1.943,1.943,0,0,1,.053-.91q108.9,0,217.808.005c1.661,0,3.322.136,4.982.209C410.226,91.461,411.912,94.878,409.184,97.876Z"/>
    <path class="cls-11" d="M143.038,93.3c.176-2.15-.858-4.929,2.974-5,3.9-.075,3,2.729,3,4.883s.868,4.979-2.931,5.038C142.253,98.282,143.177,95.482,143.038,93.3Z"/>
    <path class="cls-12" d="M121.064,93.39c.7-1.667-1.435-4.751,2.45-4.788,3.21-.03,2.629,2.41,2.537,4.3-.1,2.091,1.105,5.216-2.771,5.114C119.916,97.923,121.648,95.06,121.064,93.39Z"/>
    <path class="cls-13" d="M99.041,92.981c.491-1.639-.99-4.28,1.934-4.352,3.6-.088,2.272,2.942,2.306,4.782.032,1.733,1.033,4.633-2.1,4.515C97.68,97.794,99.74,94.622,99.041,92.981Z"/>
    <path class="cls-14" d="M80.312,93.15c-.51,1.787.881,4.634-1.793,4.557-2.507-.072-1.491-2.87-1.471-4.481.019-1.576-1.109-4.407,1.592-4.34C81.313,88.952,79.571,91.853,80.312,93.15Z"/>
    <path class="cls-15" d="M91.782,93.284c-.657,1.539,1.3,4.709-2.008,4.512-2.948-.176-1.518-3.168-1.62-4.908-.091-1.559-1.051-4.305,1.927-4.1C92.912,88.989,91.343,91.646,91.782,93.284Z"/>
    <path class="cls-16" d="M136.37,88.819c3.238,2.421,1.489,5.554,1,8.37-.219,1.259-1.867,1.071-3.024,1.028s-2.016-.726-1.976-1.8c.093-2.509-1.111-5.206.9-7.484,1.752,1.1.537,3.349,1.793,4.578a12.077,12.077,0,0,1,.429-3.654A3.359,3.359,0,0,1,136.37,88.819Z"/>
    <path class="cls-17" d="M136.33,95.971c-1.921,1.708-2.82.905-2.962-1.294-.123-1.908-.069-3.827-.094-5.742a2.814,2.814,0,0,1,3.1-.116L136.3,90A4.534,4.534,0,0,0,136.33,95.971Z"/>
    <path class="cls-18" d="M159.772,94c.087,1.715.621,4.2-3.176,4.039-3.936-.169-2.621-3.054-2.813-5.089-.2-2.168-.429-4.375,2.989-4.37C160.625,88.588,159.8,91.157,159.772,94Z"/>
    <path class="cls-19" d="M171.587,92.174c-.252,3.152.836,6.026-3.332,6.036-3.456.008-3.764-1.851-3.371-4.453.321-2.124-1.425-5.261,2.888-5.412C171.363,88.219,171.91,90.173,171.587,92.174Z"/>
    <path class="cls-20" d="M115.16,93.1c-.485,1.751,1.179,4.808-2.259,5.006-3.888.224-2.617-3.053-2.7-5.091-.075-1.795-.924-4.415,2.19-4.61C115.943,88.184,114.949,91.021,115.16,93.1Z"/>
    <path class="cls-21" d="M176.009,93.691c-.1-3.026-.612-5.263,3.224-5.258,4.29.005,3.21,2.769,3.308,5.059.1,2.37.345,4.655-3.323,4.662C174.99,98.162,176.141,95.263,176.009,93.691Z"/>
    <path class="cls-22" d="M188.322,94.961c-.611-3.871.884-5.084,4.9-5.077q105.08.181,210.161-.032c5.207-.013,5.193,2.552,4.918,6.121a1.137,1.137,0,0,1-1.591-.279,7.138,7.138,0,0,1-.942-1.583c-1.851-1.978-4.328-1.494-6.572-1.5q-100.906-.081-201.812,0c-2.565,0-5.434-.545-7.337,2.058A1.417,1.417,0,0,1,188.322,94.961Z"/>
    <path class="cls-23" d="M407.3,95.971l1,0c-1.488,1.61-3.44.945-5.187.946q-104.809.05-209.619,0c-1.746,0-3.7.673-5.185-.945,2.051-1.368,4.369-1.422,6.72-1.421q103.053,0,206.106.018C403.285,94.571,405.511,94.349,407.3,95.971Z"/>
    <path class="cls-24" d="M407.3,95.971l-218.986,0q0-.506.007-1.012.49.011.98.011c1.918-1.718,4.3-1.62,6.623-1.621q102.377-.048,204.753,0c2.32,0,4.7-.1,6.623,1.618Z"/>
    <path class="cls-25" d="M100.675,91.148a6.547,6.547,0,0,1,.272,4.953C99.708,94.332,100.7,92.675,100.675,91.148Z"/>
    <path class="cls-26" d="M136.33,95.971C133.162,94,133.182,92.006,136.3,90Q136.315,92.986,136.33,95.971Z"/>
    <path class="cls-27" d="M181.285,93.526c-.108,1.479.258,3.274-2,3.261s-1.974-1.794-1.953-3.228c.023-1.57-.389-3.655,2.222-3.444C181.773,90.3,181.09,92.22,181.285,93.526Z"/>
    <path class="cls-28" d="M407.3,94.97l-218,0c-.63-4.121,2.017-4.032,4.916-4.028q48.673.067,97.346.029,55.412,0,110.824-.028C405.282,90.941,407.938,90.841,407.3,94.97Z"/>
  </g>
</svg>
