<svg id="Layer_1" data-name="Layer 1" xmlns="http://www.w3.org/2000/svg" viewBox="0 0 57.943 57.932">
  <defs>
    <style>
      .cls-1 {
        fill: #fff;
      }

      .cls-2 {
        fill: #1f76bb;
      }
    </style>
  </defs>
  <title>85b9d22c-5912-40e9-9834-953e21f96bd9</title>
  <g>
    <g>
      <path class="cls-1" d="M57.126,29.016A28.155,28.155,0,1,1,29.291.817,28.13,28.13,0,0,1,57.126,29.016Z"/>
      <path class="cls-2" d="M28.889,57.932h-.126A28.985,28.985,0,0,1,0,28.793,28.944,28.944,0,0,1,29.079,0H29.3A28.915,28.915,0,0,1,57.942,29.02l-.816,0,.816,0A28.945,28.945,0,0,1,28.889,57.932Zm.191-56.3A27.327,27.327,0,0,0,9.568,48.213,27.017,27.017,0,0,0,28.77,56.3h.115A27.456,27.456,0,0,0,56.31,29.012h0A27.28,27.28,0,0,0,29.285,1.633Z"/>
    </g>
    <path class="cls-2" d="M41.418,29.109c0,1.764.083,3.533-.014,5.291-.232,4.181-2.623,6.716-6.784,6.9-3.789.172-7.6.17-11.388-.01-4.052-.192-6.5-2.737-6.646-6.8-.131-3.727-.132-7.466.009-11.192.144-3.8,2.372-6.35,6.142-6.617a88.427,88.427,0,0,1,12.389-.016c3.884.272,6.035,2.809,6.27,6.738C41.51,25.3,41.416,27.209,41.418,29.109ZM29.051,18.828v-.035q-2.442,0-4.884,0c-.2,0-.407.009-.61.025-2.844.227-4.472,1.607-4.611,4.426-.182,3.718-.2,7.457-.033,11.176.137,3.024,1.619,4.509,4.6,4.648,3.654.17,7.328.172,10.982,0,2.944-.14,4.461-1.758,4.557-4.7.119-3.657.122-7.324-.01-10.981-.1-2.81-1.7-4.351-4.5-4.536C32.72,18.73,30.883,18.828,29.051,18.828Z"/>
    <path class="cls-1" d="M29.051,18.828c1.831,0,3.669-.1,5.492.023,2.8.185,4.4,1.726,4.5,4.536.132,3.656.129,7.324.01,10.981-.1,2.941-1.613,4.559-4.557,4.7-3.654.174-7.328.172-10.982,0-2.98-.139-4.461-1.624-4.6-4.648-.169-3.718-.149-7.457.033-11.176.138-2.819,1.767-4.2,4.611-4.426.2-.016.407-.025.61-.025q2.442,0,4.884,0Zm6.338,10.079a6.4,6.4,0,1,0-6.414,6.5A6.405,6.405,0,0,0,35.389,28.907Zm2.363-6.624c-.928-.683-1.534-1.46-1.979-1.377-.6.113-1.087.884-1.621,1.373.534.487,1.015,1.256,1.618,1.369C36.216,23.731,36.822,22.961,37.752,22.283Z"/>
    <path class="cls-2" d="M35.389,28.907a6.4,6.4,0,1,1-6.5-6.4A6.415,6.415,0,0,1,35.389,28.907Zm-2.26-.05a4.154,4.154,0,0,0-8.306.2,4.154,4.154,0,0,0,8.306-.2Z"/>
    <path class="cls-2" d="M37.752,22.283c-.93.678-1.536,1.448-1.982,1.365-.6-.113-1.085-.882-1.618-1.369.535-.489,1.016-1.26,1.621-1.373C36.218,20.823,36.824,21.6,37.752,22.283Z"/>
    <path class="cls-1" d="M33.129,28.857a4.154,4.154,0,1,1-4.253-4.009A4.18,4.18,0,0,1,33.129,28.857Z"/>
  </g>
</svg>
