<svg id="Layer_1" data-name="Layer 1" xmlns="http://www.w3.org/2000/svg" viewBox="0 0 594.637 75.075">
  <defs>
    <style>
      .cls-1 {
        fill: #05325c;
      }

      .cls-2 {
        fill: #6d8da2;
      }

      .cls-3 {
        fill: #fefefe;
      }
    </style>
  </defs>
  <title>aa6fbe73-126d-4d1d-98d1-ac951f2d57b4</title>
  <g>
    <path class="cls-1" d="M456.5,33.722c0,10-.134,19.993.079,29.984.067,3.128-.808,4.12-3.888,3.818-4.273-.419-9.847,1.742-12.534-.805-2.711-2.571-.793-8.178-.825-12.446-.108-14.161.11-28.327-.148-42.484-.07-3.865,1.111-4.826,4.745-4.581a114.588,114.588,0,0,0,13.986.01c2.789-.154,4.165.9,5.32,3.322,4.335,9.1,8.864,18.11,14.064,27.011,0-8.873.09-17.748-.054-26.619-.044-2.709.615-3.657,3.54-3.718,13.542-.282,13.541-.384,13.54,13.252,0,14.329-.115,28.659.074,42.985.044,3.36-.978,4.278-4.2,4.089-5.142-.3-11.1,1.385-15.243-.7-4.187-2.105-5.081-8.581-7.464-13.114-3.526-6.707-6.825-13.534-10.22-20.309Z" transform="translate(0)"/>
    <path class="cls-1" d="M557.344,27.479c4.577-6.548,8.266-11.878,12.021-17.16.917-1.289,1.474-3.048,3.594-3.034,6.075.038,12.15.013,19.154.013-5.268,6.975-9.84,13.244-14.673,19.305-1.6,2-1.6,3.457-.47,5.665,5.895,11.488,11.6,23.071,17.667,35.2-7,0-13.426-.1-19.847.055-2.239.054-2.723-1.32-3.427-2.853-2.969-6.462-5.99-12.9-8.946-19.249-6.634,4.31-5.652,10.787-5.318,16.852.221,4-.661,5.843-5.04,5.253-4.548-.613-10.689,1.97-13.311-1.05-2.263-2.606-.761-8.555-.777-13.026-.052-13.988.04-27.977-.1-41.964-.032-3.086.539-4.561,4.069-4.268,4.79.4,11.044-1.517,14.05.866,3.184,2.524.632,9.038,1.009,13.791C557.107,23.291,557.173,24.708,557.344,27.479Z" transform="translate(0)"/>
    <path class="cls-2" d="M37.812,47.608c-10.817,0-21.636-.109-32.45.071-2.94.049-4.081-1-4.661-3.745C-3.517,23.943,11.854,2.5,31.895.235c3.057-.345,3.67.37,3.641,3.206-.118,11.648-.075,23.3-.011,34.947.01,1.766-.92,4.279,2.515,4.2s2.351-2.624,2.363-4.344c.082-11.482.136-22.966-.005-34.447C40.359.619,40.873-.4,44.492.136c20.287,3.008,33.8,21.894,30.75,43.578-.419,2.977-1.864,4.028-4.981,3.971C59.448,47.488,48.629,47.609,37.812,47.608Zm-28.2-17.98c0,3.5.032,6.993-.013,10.489-.023,1.752.517,2.942,2.472,2.965,4.819.057,9.693.5,14.4-.833,5.612-1.6,7.418-7.665,3.233-11.679-1.9-1.824-1.409-2.386-.223-4.16,2.812-4.209.625-9.336-4.275-9.754-4.931-.42-10.781-1.858-14.624.622C7.67,19.156,10,25.046,9.612,29.129A3.7,3.7,0,0,0,9.616,29.628ZM57.626,15.5c-7.369-.029-13.126,6.1-13.133,13.975C44.486,36.792,50.381,43.1,57.424,43.3c6.9.2,13.451-6.555,13.478-13.911A13.537,13.537,0,0,0,57.626,15.5Z" transform="translate(0)"/>
    <path class="cls-1" d="M281.983,7.3c7-.006,14,.128,20.989-.07,2.875-.082,3.556.87,3.591,3.64.135,10.675.235,10.875-10.374,10.664-3.9-.078-4.687,1.187-4.623,4.8.218,12.324,0,24.656.158,36.982.039,3.065-.484,4.6-3.993,4.214-4.9-.545-11.49,2.063-14.3-1.1-2.433-2.741-.779-9.171-.806-13.972-.051-9-.145-18,.063-26.987.072-3.116-.889-4.318-3.93-3.845a6.277,6.277,0,0,1-1,0c-10.681-.078-10.576-.075-10.227-11.031.085-2.672.92-3.393,3.458-3.343C267.987,7.392,274.986,7.3,281.983,7.3Z" transform="translate(0)"/>
    <path class="cls-1" d="M189.326,37.431c0,8.828-.115,17.658.063,26.482.058,2.859-.787,3.787-3.637,3.617-4.955-.3-11.47,1.593-14.472-.89-3.125-2.584-.888-9.341-.936-14.263-.131-13.657.047-27.317-.117-40.973-.038-3.184.717-4.432,4.095-4.17,4.786.37,11.064-1.509,14.016.886,3.129,2.539.777,9.052.949,13.823C189.472,27.1,189.328,32.268,189.326,37.431Z" transform="translate(0)"/>
    <path class="cls-1" d="M525.65,37.853c0,8.661-.1,17.325.058,25.983.049,2.7-.514,3.884-3.5,3.7-4.968-.3-11.449,1.638-14.531-.824-3.229-2.58-.955-9.34-1.007-14.261-.145-13.657.035-27.317-.112-40.974-.034-3.122.608-4.521,4.073-4.253,4.783.37,11.037-1.53,14.014.852,3.157,2.525.8,9.029.966,13.788C525.8,27.187,525.65,32.523,525.65,37.853Z" transform="translate(0)"/>
    <path class="cls-2" d="M19.521,52.324c4.16,0,8.323.1,12.478-.034,2.475-.083,3.616.59,3.53,3.324-.173,5.486-.145,10.983-.011,16.47.06,2.472-.648,3.022-3.153,2.671-12.2-1.712-21.294-7.823-27.437-18.5-1.955-3.4-.887-4.173,2.614-3.985C11.525,52.485,15.527,52.321,19.521,52.324Z" transform="translate(0)"/>
    <path class="cls-2" d="M71.836,52.332c-2.914,12.216-16.8,21.589-29.248,22.724-2.03.185-2.123-1-2.122-2.437,0-5.831.024-11.661-.021-17.492-.014-1.756.414-2.827,2.473-2.817C52.523,52.359,62.128,52.332,71.836,52.332Z" transform="translate(0)"/>
    <path class="cls-1" d="M151.581,36.025c6.888-3.892,9.385-8.878,7.987-15.947a15.406,15.406,0,0,0-14.325-12.5c-11.3-.476-22.635-.205-33.954-.3-1.824-.015-2.713.49-2.706,2.538q.086,27.472.012,54.945c0,1.8.4,2.756,2.456,2.733,11.818-.129,23.665.3,35.447-.393,9.573-.566,14.106-5.289,15.576-13.959C163.344,45.647,160.6,41.177,151.581,36.025ZM127.45,21.586c1.183-2.636,3.873-.6,5.568-1.341,3.758.394,8.4-1.161,8.582,5.006.089,3.06-1.375,4.69-4.329,4.994a39.634,39.634,0,0,1-4,.038C127.825,30.289,125.218,26.559,127.45,21.586Zm11.324,32.086a50.8,50.8,0,0,1-5.261.377c-2.072-.433-5.086.908-5.686-.858-.91-2.676-.347-5.855-.4-8.82,0-.141.084-.378.186-.414,3.684-1.329,7.469-.632,11.2-.381a4.172,4.172,0,0,1,3.907,3.87C143.218,50.658,142.3,53.077,138.774,53.672Z" transform="translate(0)"/>
    <path class="cls-1" d="M357.448,45.28c-1.366-2.477-1.415-3.67,1.3-5.347,6.56-4.047,8.431-10.484,7.2-17.754-1.5-8.873-8.224-14.266-18.7-14.682-9.8-.389-19.631-.015-29.439-.287-3.4-.094-4.515.683-4.455,4.288.227,13.639.007,27.286.14,40.927.048,4.922-2.2,11.677.942,14.26,3,2.474,9.512.578,14.467.844,2.736.146,3.8-.6,3.655-3.525-.24-4.98-.16-9.983,0-14.969.043-1.366-1.2-3.5,1.5-3.983,2.207-.4,3.272.749,4.1,2.643,2.467,5.621,5.118,11.161,7.589,16.78.877,1.994,1.851,3.163,4.369,3.07,5.977-.22,11.967-.071,18.979-.071C364.978,59.566,361.347,52.349,357.448,45.28ZM335.955,32.327c-6.191.228-2.173-4.515-3.2-5.918-.787-4.5-.423-6.978,4.661-6.558,6.372.527,9.129,1.9,9.114,6C346.512,30.049,342.966,32.069,335.955,32.327Z" transform="translate(0)"/>
    <path class="cls-1" d="M235.112,6.524c-21.6-4.658-38.665,8.651-37.287,33.279.718,12.837,6.2,23.182,19.239,27.579,21,7.085,39.432-7.026,39.447-29.958C256.521,21.306,248.348,9.378,235.112,6.524Zm-.526,42.889c-1.364,3.424-3.765,5.435-7.548,5.434a7.235,7.235,0,0,1-7.224-5.178A36.94,36.94,0,0,1,220.3,24.3a6.962,6.962,0,0,1,6.946-4.775c3.355.071,5.536,2.044,6.868,4.971q.356.783.64,1.58a36.59,36.59,0,0,1,1.653,11.584C236.311,41.654,236.092,45.631,234.586,49.412Z" transform="translate(0)"/>
    <path class="cls-1" d="M394.049,6.413C380.14,9.25,370.842,22.834,371.984,38.832c.868,12.157,5.08,22.6,17.062,27.639,18.973,7.982,42.086-2.621,41.619-29.058C430.643,14.993,415.371,2.064,394.049,6.413Zm14.916,42.7a7.555,7.555,0,0,1-7.836,5.75c-3.869-.058-5.989-2.52-7.313-5.8q-.287-.71-.507-1.43a31.716,31.716,0,0,1-.959-10.37A29.8,29.8,0,0,1,393.744,26.1q.278-.767.625-1.522c1.426-3.094,3.716-5.2,7.313-5.054a7.269,7.269,0,0,1,6.743,5.124A37.507,37.507,0,0,1,408.964,49.111Z" transform="translate(0)"/>
    <path class="cls-3" d="M9.613,29.628a4.335,4.335,0,0,1,0-.5c.393-4.083-1.942-9.972.97-11.851,3.844-2.48,9.693-1.042,14.624-.622,4.9.418,7.087,5.544,4.275,9.754-1.186,1.775-1.679,2.336.223,4.16,4.185,4.014,2.378,10.082-3.233,11.679-4.7,1.338-9.577.89-14.4.833-1.955-.023-2.5-1.213-2.472-2.965C9.648,36.621,9.616,33.124,9.613,29.628ZM19.77,38.76c2.425-.258,5.793.554,5.839-3.412s-3.053-3.957-5.99-4.049c-2.582-.08-4.321.046-4.273,3.548C15.393,38.218,16.547,39.355,19.77,38.76ZM18.7,27.368c3.281-.112,6.342-.364,6.355-3.51.015-3.693-3.364-3.225-6.007-3.456-2.85-.249-3.642.845-3.687,3.652C15.311,27.305,16.952,27.6,18.7,27.368Z" transform="translate(0)"/>
    <path class="cls-3" d="M57.626,15.5A13.537,13.537,0,0,1,70.9,29.394c-.027,7.356-6.575,14.115-13.478,13.911-7.044-.208-12.938-6.512-12.931-13.831C44.5,21.6,50.257,15.469,57.626,15.5ZM64.8,29.3c.173-5.542-2.44-8.989-6.861-9.051-4.263-.061-7.137,3.165-7.339,8.237-.206,5.179,3.084,9.879,6.963,9.946C61.5,38.5,64.633,34.557,64.8,29.3Z" transform="translate(0)"/>
    <path class="cls-2" d="M19.77,38.76c-3.223.595-4.378-.542-4.424-3.913-.048-3.5,1.691-3.629,4.273-3.548,2.937.092,6.036.08,5.99,4.049S22.2,38.5,19.77,38.76Z" transform="translate(0)"/>
    <path class="cls-2" d="M18.7,27.368c-1.752.235-3.393-.062-3.34-3.313.046-2.807.837-3.9,3.687-3.652,2.643.231,6.022-.237,6.007,3.456C25.046,27,21.986,27.256,18.7,27.368Z" transform="translate(0)"/>
    <path class="cls-2" d="M64.8,29.3c-.164,5.252-3.292,9.2-7.237,9.131-3.879-.067-7.17-4.767-6.963-9.946.2-5.072,3.076-8.3,7.339-8.237C62.356,20.316,64.969,23.763,64.8,29.3Z" transform="translate(0)"/>
  </g>
</svg>
