<svg id="Layer_1" data-name="Layer 1" xmlns="http://www.w3.org/2000/svg" viewBox="0 0 404.267 121.377">
  <defs>
    <style>
      .cls-1 {
        fill: #2f3475;
      }

      .cls-2 {
        fill: #8a7c6f;
      }

      .cls-3 {
        fill: #8a7d70;
      }

      .cls-4 {
        fill: #8a7c70;
      }

      .cls-5 {
        fill: #897b6f;
      }
    </style>
  </defs>
  <title>c64413f9-d095-4465-9abe-e2667ad02a26</title>
  <g>
    <path class="cls-1" d="M165.676,61.629c-.08.14-.231.281-.231.421a51.641,51.641,0,0,0,.081,6.985c.632,4.7,3.32,7.389,8.725,7.509,6.28.14,12.566.033,18.85.034.405,0,.811,0,1.216,0,1.318.027,1.513.224,1.52,1.55.005,1.149-.019,2.3.006,3.446.019.842-.321,1.247-1.192,1.243-5.54-.023-11.087.138-16.619-.078-9.5-.371-17.867-8.393-18.915-17.829-.142-1.28-.143-2.561-.206-3.842-.485-.407-.416-.815,0-1.223q.016-6.121.034-12.243c0-1.436.2-1.637,1.629-1.65,1.046-.01,2.091-.007,3.137,0,1.549.008,1.707.172,1.707,1.77q0,5.818,0,11.637c0,.427-.1.908.491,1.065C165.75,60.811,166.354,61.345,165.676,61.629Z" transform="translate(0)"/>
    <path class="cls-1" d="M284.416,96.574c0,3.477-.226,6.972.04,10.428.374,4.846,2.949,7.772,8.821,7.934,6.546.181,13.1.041,19.653.043,1.806,0,1.865.063,1.867,1.9,0,1.013-.021,2.027,0,3.039.021.886-.367,1.324-1.262,1.315-5.672-.061-11.351.241-17.014-.14a20.5,20.5,0,0,1-18.42-17.535c-.294-2.326-.1-4.655-.222-6.98a.74.74,0,0,1,0-1.225q.016-4.75.034-9.5c.006-1.313.156-1.468,1.446-1.478,1.213-.01,2.426-.013,3.638,0,1.124.013,1.358.238,1.364,1.377.015,3.032.008,6.064.013,9.1,0,.168.026.335.04.5A.7.7,0,0,1,284.416,96.574Z" transform="translate(0)"/>
    <path class="cls-1" d="M89.414,95.351q.025-4.648.051-9.3c.009-1.549.137-1.679,1.67-1.684,1.179,0,2.359.023,3.538-.006.91-.022,1.26.387,1.256,1.282-.012,3.234.013,6.468.024,9.7a.763.763,0,0,1,0,1.227A94.4,94.4,0,0,0,96.06,107.3c.536,4.828,3.19,7.477,8.8,7.634,6.578.184,13.165.043,19.749.045,1.655,0,1.731.077,1.734,1.7,0,1.148-.01,2.3,0,3.444,0,.64-.263,1.087-.927,1.08-6.14-.066-12.327.589-18.41-.287-10.339-1.489-17.407-9.937-17.536-20.4q-.024-1.974-.052-3.947A.69.69,0,0,1,89.414,95.351Z" transform="translate(0)"/>
    <path class="cls-1" d="M207.043,62.493q-.017,9.359-.034,18.718c0,1.8-.035,1.834-1.792,1.836-1.147,0-2.293-.008-3.44-.006a.931.931,0,0,1-1.059-1.056c.086-5.933-.229-11.87.182-17.8.035-.5.122-1,.185-1.5a2.059,2.059,0,0,0-1.414-.688c-.341-.035-.7-.072-.668-.56,1.927.271,2.608-.755,3.356-2.455,3.532-8.033,9.8-12.362,18.6-12.674,5.057-.179,10.126-.043,15.189-.04,1.288,0,1.442.17,1.45,1.483q.011,1.671,0,3.342c-.009,1.281-.19,1.471-1.471,1.472q-9.823.008-19.646.007a14.85,14.85,0,0,0-2.222.095,8.3,8.3,0,0,0-7.221,8.63A.742.742,0,0,1,207.043,62.493Z" transform="translate(0)"/>
    <path class="cls-1" d="M121.168,55.713a3.717,3.717,0,0,0-1.15.971q-5.521,5.5-11.032,11.006c-1.231,1.229-1.316,1.226-2.577-.035-.668-.668-1.339-1.333-2-2-.948-.954-.958-1.213-.022-2.15q4-4.01,8.018-8.01c.4-.4.776-.839,1.162-1.259-.2-.88.484-.867,1.016-1.008a21.605,21.605,0,0,1,8.095-5.03c7.825-2.421,14.853-.981,20.936,4.572,1.791,1.635,3.469,3.4,5.167,5.13a2.907,2.907,0,0,0,1.948,1.1c-.021.527,1.095.573.558,1.319,1.088,1.107,2.181,2.209,3.263,3.322.774.8.771,1.152-.013,1.949q-1.208,1.227-2.439,2.43c-.841.824-1.155.821-2.014-.033q-4.092-4.073-8.165-8.163a2.859,2.859,0,0,0-1.522-.9c-.365-.53-1.086-.628-1.431-1.181a1.551,1.551,0,0,0-.6-.878c-1.349-1.113-2.459-2.482-3.841-3.57a8.09,8.09,0,0,0-10.784.461c-.387.367-.945.567-1.152,1.12C122.291,55.448,121.644,55.437,121.168,55.713Z" transform="translate(0)"/>
    <path class="cls-1" d="M273.83,54.632c1.663,1.91,3.546,3.606,5.311,5.416q1.8,1.849,3.652,3.652a1.077,1.077,0,0,1-.023,1.8c-.86.81-1.677,1.665-2.521,2.491-.868.85-1.136.853-2.005-.013q-5.56-5.54-11.111-11.088c-.3-.3-.554-.7-1.048-.739-.4-.325-.944-.443-1.249-.9-1.605-1.671-3.315-3.165-5.7-3.63a8.009,8.009,0,0,0-7.21,2.048c-1.368,1.221-2.51,2.681-3.984,3.79-.235.177-.231.458-.346.687-.475.549-1.243.656-1.749,1.159a2.64,2.64,0,0,0-1.052.754q-3.928,3.931-7.866,7.853c-.9.9-1.184.9-2.079.009-.813-.807-1.595-1.646-2.431-2.427-.706-.661-.638-1.209.016-1.874a24.605,24.605,0,0,0,2.846-2.986c-.535-.466.039-.715.262-.86a4.649,4.649,0,0,1,1.132-.5c2.183-1.913,4.144-4.053,6.207-6.089a20.109,20.109,0,0,1,10.127-5.6,20.337,20.337,0,0,1,18.367,4.77c.483.419.958.848,1.437,1.272C273.345,53.77,274.038,53.744,273.83,54.632Z" transform="translate(0)"/>
    <path class="cls-1" d="M267.352,96.6q2.624,2.673,5.249,5.345c.954.97.956,1.276-.019,2.247q-1.148,1.144-2.306,2.279c-.876.854-1.124.852-2-.022q-4.556-4.544-9.109-9.09c-.286-.285-.6-.544-.9-.815a8.321,8.321,0,0,1-1.639-.864c-.137-.588-.666-.836-1.055-1.2a34.944,34.944,0,0,0-3.173-2.963,8.026,8.026,0,0,0-10.524.768,30.385,30.385,0,0,1-2.939,2.589c-.314.24-.364.577-.561.853a12.923,12.923,0,0,1-1.547.812q-4.879,4.854-9.756,9.709c-1.087,1.084-1.263,1.088-2.357-.011q-1.035-1.04-2.073-2.078c-1-1.009-1-1.228-.023-2.221q2.626-2.665,5.246-5.337c-.185-1,.749-.877,1.219-1.22,1.207-1.174,2.421-2.341,3.619-3.525,8.57-8.468,21.227-8.466,29.8.005,1.2,1.183,2.415,2.347,3.623,3.519C266.6,95.722,267.559,95.578,267.352,96.6Z" transform="translate(0)"/>
    <path class="cls-1" d="M119.415,95.379c1.208-1.174,2.424-2.339,3.622-3.523,8.508-8.408,20.936-8.491,29.573-.192q1.931,1.855,3.857,3.715c.469.344,1.429.2,1.221,1.22q2.625,2.671,5.251,5.341c.953.968.954,1.265-.028,2.244q-1.148,1.144-2.306,2.278c-.88.858-1.124.858-2-.014q-4.557-4.541-9.109-9.088c-.286-.285-.6-.545-.9-.817a8.224,8.224,0,0,1-1.637-.867c-.134-.594-.67-.839-1.062-1.205a34.854,34.854,0,0,0-3.173-2.963,8.108,8.108,0,0,0-10.023.258c-1.284,1.015-2.282,2.329-3.616,3.277-.245.174-.173.492-.37.678a12.288,12.288,0,0,1-1.556.824q-4.884,4.851-9.767,9.7c-1.084,1.078-1.266,1.082-2.36-.014-.691-.693-1.387-1.381-2.078-2.075-.988-.992-.987-1.255-.022-2.23q2.633-2.661,5.262-5.327C118,95.6,118.948,95.725,119.415,95.379Z" transform="translate(0)"/>
    <path class="cls-1" d="M192.475,121.222a19.953,19.953,0,0,1-13.807-5.482c-3.841-3.653-7.523-7.473-11.287-11.208a1.034,1.034,0,0,1,.009-1.721c.828-.795,1.625-1.623,2.44-2.431,1-.989,1.226-.992,2.226.008q6.989,6.981,13.969,13.971a9.473,9.473,0,0,0,5.125,2.873,8.563,8.563,0,0,0,7.906-2.675q6.551-6.56,13.112-13.109c.478-.477.957-.954,1.444-1.422a.9.9,0,0,1,1.422.01q1.468,1.469,2.934,2.94a.923.923,0,0,1-.052,1.489c-4.007,3.968-7.9,8.065-12.05,11.872A19.41,19.41,0,0,1,192.475,121.222Z" transform="translate(0)"/>
    <path class="cls-2" d="M273.83,54.632l-1.016-1q3.794-.866,7.588-1.732,14.956-3.391,29.6-7.943a384.031,384.031,0,0,0,57.744-23.269A382.859,382.859,0,0,0,402.595.912c.478-.305.962-.6,1.461-.912.349,1.255.35,1.26-.66,1.9A386.851,386.851,0,0,1,342.5,33.562a389.272,389.272,0,0,1-48.391,16.273C287.394,51.616,280.623,53.171,273.83,54.632Z" transform="translate(0)"/>
    <path class="cls-2" d="M114.579,53.224l-1.016,1.008c-6.525-1.425-13.023-2.964-19.476-4.692A385.5,385.5,0,0,1,28.635,25.519C19.147,21.025,9.868,16.134.745,10.941a1.354,1.354,0,0,1-.671-1.72,1.9,1.9,0,0,1,1.053.444A381.739,381.739,0,0,0,44.5,31.243,378.182,378.182,0,0,0,83.627,45.271c9.8,2.917,19.686,5.487,29.694,7.586C113.747,52.947,114.16,53.1,114.579,53.224Z" transform="translate(0)"/>
    <path class="cls-3" d="M284.416,96.574q0-.612,0-1.223,59.328,0,118.656.017c.425,0,1.174-.394,1.172.594,0,.409-.105.642-.564.614-.336-.021-.675,0-1.013,0Z" transform="translate(0)"/>
    <path class="cls-3" d="M89.414,95.351q0,.612,0,1.223-44.121,0-88.241-.011c-.477,0-1.256.341-1.165-.7.027-.315.1-.517.457-.506.3.009.608,0,.912,0Z" transform="translate(0)"/>
    <path class="cls-3" d="M157.687,96.6a4.776,4.776,0,0,1-1.22-1.22c.3-.009.606-.027.91-.027q35.4,0,70.8,0c.3,0,.607.018.91.028a5.325,5.325,0,0,1-1.219,1.22c-.27-.009-.539-.025-.809-.025q-34.281,0-68.562,0C158.227,96.575,157.957,96.591,157.687,96.6Z" transform="translate(0)"/>
    <path class="cls-2" d="M199,61.434c.365.015.73.042,1.1.043,1.253,0,1.253,0,.987,1.206q-17.726.232-35.407-1.054c-.323-.48-.507-.933.235-1.2C176.93,61.165,187.957,61.613,199,61.434Z" transform="translate(0)"/>
    <path class="cls-2" d="M236.676,59.28l-1.4,1.362c-5.638.5-11.273,1.054-16.927,1.364-3.769.206-7.536.452-11.312.488q0-.6,0-1.2c4.811-.257,9.623-.5,14.432-.776,4.675-.272,9.337-.7,13.993-1.2C235.867,59.276,236.273,59.292,236.676,59.28Z" transform="translate(0)"/>
    <path class="cls-4" d="M119.415,95.379A5.607,5.607,0,0,1,118.2,96.6l-22.244-.025q0-.613,0-1.227Z" transform="translate(0)"/>
    <path class="cls-4" d="M147.377,95.322a5.6,5.6,0,0,1,1.223,1.221H127.162l1.222-1.222a4.022,4.022,0,0,1,2.01-.476q7.438,0,14.876,0A4.455,4.455,0,0,1,147.377,95.322Z" transform="translate(0)"/>
    <path class="cls-4" d="M236.83,96.538l1.244-1.221a3.71,3.71,0,0,1,1.914-.472q7.525,0,15.05,0a4.432,4.432,0,0,1,2.006.48,5.465,5.465,0,0,1,1.224,1.221Z" transform="translate(0)"/>
    <path class="cls-2" d="M265.168,55.011c.315.374.835.583.916,1.144-6.291,1.126-12.6,2.16-18.932,3.013-.433.058-.869.1-1.3.145.19-.673.814-.967,1.246-1.429a5.924,5.924,0,0,1,2.758-.9c4.479-.6,8.938-1.335,13.384-2.142A2.889,2.889,0,0,1,265.168,55.011Z" transform="translate(0)"/>
    <path class="cls-2" d="M121.168,55.713l1-1.1a5.511,5.511,0,0,1,3.24.087c3.877.681,7.75,1.384,11.652,1.905a5.188,5.188,0,0,1,2.413.869c.21.542,1.218.578.918,1.445C133.954,58.036,127.549,56.944,121.168,55.713Z" transform="translate(0)"/>
    <path class="cls-4" d="M267.352,96.6a4.926,4.926,0,0,1-1.22-1.219l11.751-.03q0,.612,0,1.225Z" transform="translate(0)"/>
    <path class="cls-5" d="M151.283,60.312q-.374-.4-.748-.791c-.289-.3-.138-.448.191-.528l8.185.855q0,.611,0,1.223Z" transform="translate(0)"/>
  </g>
</svg>
