<svg id="Layer_1" data-name="Layer 1" xmlns="http://www.w3.org/2000/svg" viewBox="0 0 461 262">
  <defs>
    <style>
      .cls-1 {
        fill: #006cb5;
      }

      .cls-2 {
        fill: #5d86a0;
      }

      .cls-3 {
        fill: #006bb5;
      }

      .cls-4 {
        fill: #557b93;
      }

      .cls-5 {
        fill: #50748a;
      }

      .cls-6 {
        fill: #364e5d;
      }

      .cls-7 {
        fill: #3b5566;
      }

      .cls-8 {
        fill: #50c2ef;
      }

      .cls-9 {
        fill: #44b0e3;
      }

      .cls-10 {
        fill: #3aa2da;
      }

      .cls-11 {
        fill: #1c7bc0;
      }

      .cls-12 {
        fill: #2787c8;
      }

      .cls-13 {
        fill: #3da6dd;
      }

      .cls-14 {
        fill: #3094d1;
      }

      .cls-15 {
        fill: #1777bc;
      }

      .cls-16 {
        fill: #379dd7;
      }

      .cls-17 {
        fill: #4ab9ea;
      }

      .cls-18 {
        fill: #47b5e7;
      }

      .cls-19 {
        fill: #40abe0;
      }

      .cls-20 {
        fill: #1f7fc2;
      }

      .cls-21 {
        fill: #41abe1;
      }

      .cls-22 {
        fill: #2a8bcb;
      }

      .cls-23 {
        fill: #2383c5;
      }

      .cls-24 {
        fill: #1273ba;
      }

      .cls-25 {
        fill: #2687c8;
      }

      .cls-26 {
        fill: #41abe0;
      }

      .cls-27 {
        fill: #4bbaea;
      }

      .cls-28 {
        fill: #2d90ce;
      }

      .cls-29 {
        fill: #44b0e4;
      }

      .cls-30 {
        fill: #369dd7;
      }

      .cls-31 {
        fill: #3499d4;
      }

      .cls-32 {
        fill: #1274ba;
      }

      .cls-33 {
        fill: #3398d4;
      }

      .cls-34 {
        fill: #2a8ccb;
      }

      .cls-35 {
        fill: #3399d4;
      }

      .cls-36 {
        fill: #1b7bc0;
      }

      .cls-37 {
        fill: #4abaea;
      }

      .cls-38 {
        fill: #3498d4;
      }

      .cls-39 {
        fill: #1777bd;
      }

      .cls-40 {
        fill: #4ebeec;
      }

      .cls-41 {
        fill: #4ebeed;
      }

      .cls-42 {
        fill: #4ebfed;
      }

      .cls-43 {
        fill: #1b7bbf;
      }

      .cls-44 {
        fill: #3da7dd;
      }

      .cls-45 {
        fill: #3194d1;
      }

      .cls-46 {
        fill: #0c70b8;
      }

      .cls-47 {
        fill: #52c8f3;
      }

      .cls-48 {
        fill: #52c7f3;
      }

      .cls-49 {
        fill: #066db6;
      }

      .cls-50 {
        fill: #0d70b8;
      }

      .cls-51 {
        fill: #51c3f0;
      }

      .cls-52 {
        fill: #4ab9e9;
      }

      .cls-53 {
        fill: #3398d3;
      }

      .cls-54 {
        fill: #0b70b8;
      }

      .cls-55 {
        fill: #207fc2;
      }

      .cls-56 {
        fill: #51c2ef;
      }

      .cls-57 {
        fill: #47b4e6;
      }

      .cls-58 {
        fill: #076db6;
      }

      .cls-59 {
        fill: #076bb3;
      }
    </style>
  </defs>
  <title>488625db-2ab0-4e32-83ff-c0ee6586d525</title>
  <g>
    <path class="cls-1" d="M461,107c-3.732,2.6-6.091,6.5-9.189,9.7-10.57,10.933-21.881,20.951-34.82,29.031-7.9-3.032-14.84-7.858-22.119-12.027-5.145-2.947-10.563-5.465-15.276-9.166-1.309-1.028-2.892-1.689-2.874-3.688,15.248-10.741,29.719-22.395,42.183-36.354,1.646-1.843,2.89-1.431,4.668-.383C436.023,91.456,448.519,98.715,461,106Z"/>
    <path class="cls-1" d="M279,0c11.773,6.913,23.472,13.957,35.363,20.66,3.654,2.06,3.978,3.271.733,6.138-12.658,11.183-26.031,21.3-41.146,28.963-7.175-1.975-13.079-6.47-19.313-10.176-5.69-3.383-11.654-6.336-17.08-10.153-1.6-1.128-4.347-1.511-3.617-4.553,13.99-7.851,27.789-15.988,39.841-26.724C275.253,2.844,276.6,1.388,278,0Z"/>
    <path class="cls-2" d="M131,262a8.9,8.9,0,0,0-1.621-.992c-9.641-3.39-13.432-8.06-13.811-18.393-.354-9.646-.047-19.316-.166-28.973-.032-2.577.871-3.38,3.455-3.513,12.034-.615,12.029-.7,12.031,11.338,0,5.829-.079,11.659.044,17.486a34.553,34.553,0,0,0,.886,6.9c.689,3.023,2.552,4.986,5.844,5.258,3.5.29,5.671-1.534,7.036-4.5,1.426-3.1,1.584-6.442,1.592-9.785.018-7.494.1-14.99-.037-22.482-.05-2.793.455-4.167,3.758-4.234,9.646-.2,9.643-.355,9.643,9.3q0,8.493,0,16.987c0,16.112-2.407,19.812-16.655,25.606h-2a13.4,13.4,0,0,0-8,0Z"/>
    <path class="cls-2" d="M211,262c-2.1-2.024-5.118-2.105-7.54-3.536-2.2-1.3-2.859-2.518-1.216-4.639a8.913,8.913,0,0,0,1.227-2.168c1.417-3.6,3.151-5.627,7.056-2.389a8.537,8.537,0,0,0,6.176,1.584c2.769-.24,5.222-1.122,6.468-3.92,1.19-2.671.252-5.076-1.557-6.872-3.419-3.394-7.071-6.566-10.752-9.68-5.662-4.79-9.021-10.593-6.488-18.009,2.552-7.473,8.964-10.378,16.282-11.362a31.088,31.088,0,0,1,15.684,2.048c2.494.979,3.319,2.033,1.916,4.788-1.861,3.654-3.065,7.468-8.429,4.453-1.161-.653-2.968-.43-4.425-.23-4.216.579-5.3,3.37-2.522,6.591a42.233,42.233,0,0,0,4.772,4.385,61.152,61.152,0,0,1,9.553,9.481c7.753,10.264,4.164,23.088-7.736,27.88-1.163.468-2.746.147-3.466,1.6h-2a25.7,25.7,0,0,0-11,0Z"/>
    <path class="cls-2" d="M266.9,261.1c-17.124-3.831-26.228-17.483-21.968-32.943,3.338-12.114,16.967-20.349,31.095-18.775,1.155.129,2.3.34,3.45.526,7.572,1.228,7.86,1.869,4.529,8.566-.88,1.77-1.759,2.545-3.811,2.019a21.255,21.255,0,0,0-4.95-.451c-9.217-.121-15.156,5.852-15.268,15.294s5.63,15.584,14.812,15.782a12.974,12.974,0,0,0,4.457-.256c3.859-1.362,4.856.464,6.19,3.816,1.978,4.969-.078,6.153-4.29,6.446-1.6.986-3.58-.308-5.143.873h-4C270.456,260.809,268.469,262.138,266.9,261.1Z"/>
    <path class="cls-3" d="M0,104c4.658-3.174,6.526-8.817,10.866-12.273,7.005,1.448,12.435,6.083,18.432,9.459,6.17,3.474,12.269,7.137,18.333,10.829,1.566.953,3.275,1.755,3.322,3.966a1.6,1.6,0,0,1-.179.462c-3.359,4.077-6.072,10.327-10.28,11.588-3.982,1.193-8.742-4.3-13.236-6.714C18.077,116.383,9.482,110.4,0,106Z"/>
    <path class="cls-3" d="M171.858,6.923C176.711,4.192,182.34,3.156,187,0h2c2.255,3.051,5.876,4.087,8.934,5.9,10.385,6.16,20.89,12.118,31.949,18.5A93.935,93.935,0,0,1,213,31.7a148.348,148.348,0,0,1-16.578-8.813c-6.66-4.015-13.442-7.788-20.2-11.622C174.489,10.278,172.084,9.584,171.858,6.923Z"/>
    <path class="cls-4" d="M213,262a13.413,13.413,0,0,1,11,0Z"/>
    <path class="cls-5" d="M133,262a7.737,7.737,0,0,1,8,0Z"/>
    <path class="cls-6" d="M266.9,261.1c1.794-.228,3.557-.287,5.1.9h-5A1.945,1.945,0,0,0,266.9,261.1Z"/>
    <path class="cls-7" d="M276,262c1.562-1.187,3.338-1.117,5.143-.873A3.321,3.321,0,0,0,281,262Z"/>
    <path class="cls-1" d="M332.786,88.911c13.763-9.66,27.045-19.9,38.6-32.2,1.487-1.583,2.618-1.374,4.266-.409q17.856,10.466,35.8,20.778c1.966,1.128,2.166,1.953.535,3.648-11.561,12.017-23.806,23.207-38.038,32.047-5.585-1.337-9.9-5.123-14.84-7.7-8.2-4.268-15.844-9.488-24.039-13.756C334.057,90.793,332.986,90.246,332.786,88.911Z"/>
    <path class="cls-1" d="M284.984,58.968c13.7-8.832,26.987-18.222,38.615-29.741,1.648-1.633,2.96-1.439,4.793-.362Q346.01,39.22,363.741,49.38c1.812,1.04,2.55,1.712.677,3.544-12.031,11.767-24.7,22.7-39.442,31.009-3.264.11-5.486-2.244-7.937-3.722-9.471-5.708-19.132-11.076-28.676-16.65C286.688,62.583,283.984,62.046,284.984,58.968Z"/>
    <path class="cls-2" d="M358.9,260.812l-14.913.219q-.161-23.976-.331-47.952c-.013-1.754.508-2.92,2.512-2.864,8.316.232,16.665-.711,24.947.564,6.537,1.006,11.736,3.848,13.4,10.883,1.463,6.2-1.62,13.253-7.47,17.319a18.24,18.24,0,0,1-8.742,3.448c-2.385.214-5.934,2.258-6.876-1.206-.821-3.019-1.894-7.159,3.729-8.45,3.7-.849,5.616-4.241,4.8-8.235-.843-4.135-4.252-4.49-7.752-4.75-3.3-.245-3.32,1.643-3.31,4.033C358.945,236.15,358.907,248.481,358.9,260.812Z"/>
    <path class="cls-2" d="M420.972,260.937l-33.772-.274c.028-15.141.168-30.283,0-45.423-.04-3.755.717-5.343,4.888-5.15,7.472.347,14.977.284,22.456.028,4.112-.141,3.547,2.394,3.52,4.868-.026,2.416.706,5.287-3.465,4.877-2.142-.21-4.36.222-6.478-.087-4.5-.655-5.729,1.165-5.5,5.509.174,3.3.812,5.021,4.452,4.561a39.361,39.361,0,0,1,4.987-.034c5.428.013,7.155,2.443,5.657,7.655-.434,1.511-1.358,1.7-2.568,1.71a42.781,42.781,0,0,1-6.482-.034c-4.864-.7-6.03,1.245-6.117,6-.093,5.112,1.394,7.019,6.391,6.17a18.1,18.1,0,0,1,2.991-.024C421.379,251.29,421.379,251.29,420.972,260.937Z"/>
    <path class="cls-2" d="M198.791,260.654l-33.773.3c-.054-15.645-.068-31.291-.2-46.936-.022-2.626.523-3.953,3.552-3.888q11.981.257,23.97.014c4.5-.088,2.835,3.092,3.03,5.221.212,2.307.617,4.9-3.233,4.494a57.341,57.341,0,0,0-5.989-.034c-5.856.007-7.637,2.5-6.084,8.223.411,1.516,1.32,1.734,2.547,1.742a55.4,55.4,0,0,0,7.483-.038c4.359-.569,5.282,1.33,5.157,5.33-.1,3.3-1.094,4.548-4.308,4.131a20.026,20.026,0,0,0-2.994-.016c-9.095.2-7.6-1.507-7.928,7.923-.114,3.254.855,4.5,4.185,4.222,3.141-.261,6.339.156,9.48-.108,3.8-.318,5.7.789,5.052,4.929A26.066,26.066,0,0,0,198.791,260.654Z"/>
    <path class="cls-2" d="M114.981,260.956c-11.25-.144-22.507.485-33.75-.333.038-15.12.179-30.241.039-45.359-.034-3.7.649-5.268,4.857-5.187,10.714.208,10.718-.015,10.718,10.659,0,8.807.132,17.617-.065,26.419-.074,3.294,1.014,4.426,4.252,4.184,3.14-.235,6.333.186,9.462-.109,3.768-.355,5.214,1.026,4.686,4.756A46.911,46.911,0,0,0,114.981,260.956Z"/>
    <path class="cls-1" d="M99.394,142.141c-3.316,3.936-6.768,7.769-9.894,11.852-1.646,2.15-2.966,1.845-4.97.665q-16.967-9.993-34.065-19.763c-2.2-1.257-2.953-2.28-1.116-4.495,3.173-3.824,5.8-8.1,9.537-11.457,1.945-.784,3.773.181,5.147,1.068,10.228,6.606,21.184,11.965,31.435,18.519C96.982,139.5,98.687,140.285,99.394,142.141Z"/>
    <path class="cls-3" d="M146.3,171.108c-3.206,3.6-6.489,7.141-9.583,10.836-1.382,1.65-2.512,1.556-4.226.549q-17.654-10.371-35.419-20.553c-2.142-1.225-2.522-2.223-.751-4.085,3.319-3.489,6.505-7.1,9.747-10.666,6.137,1.382,10.888,5.422,16.123,8.5,6.421,3.78,12.887,7.484,19.3,11.277C143.34,168.063,145.331,169,146.3,171.108Z"/>
    <path class="cls-8" d="M326,182.836c-3.664,1.626-6.827.87-10.26-1.211-11.5-6.973-23.2-13.605-34.8-20.416-1.225-.72-2.874-.954-3.526-2.675a16.524,16.524,0,0,1,6.107-1.677c5.821-.594,9.61,3.792,14.218,6.024,8.72,4.223,16.665,9.892,25.252,14.409C325.122,178.412,327.726,179.514,326,182.836Z"/>
    <path class="cls-9" d="M300.924,152.781a5.512,5.512,0,0,1,3.8-.881c3.938-1.113,6.943.951,10.087,2.816,9.647,5.722,19.482,11.123,29.118,16.861,2.041,1.215,6.465,1.988,3.095,6.21l-4.051,1.07c-6.148.08-9.952-4.716-14.813-7.262a258.56,258.56,0,0,1-24.9-14.311C301.7,156.238,299.322,155.506,300.924,152.781Z"/>
    <path class="cls-10" d="M315.836,148.93a20.525,20.525,0,0,1,7.047-2.221c4.023.778,7.222,3.258,10.629,5.26,8.964,5.265,18.159,10.137,26.913,15.753,1.815,1.165,4.437,2.441,1.585,5.192a14.715,14.715,0,0,1-6,2.028c-10-7-20.983-12.336-31.377-18.664C321.368,154.291,317.185,153.26,315.836,148.93Z"/>
    <path class="cls-11" d="M403.944,153.811a16.546,16.546,0,0,1-5.93,3.23c-8.259-3.81-15.795-8.909-23.671-13.4-3.3-1.88-6.569-3.787-9.919-5.585-2.61-1.4-6.021-2.365-6.575-6.137a7.518,7.518,0,0,1,3.822-2.049c2.942-1.143,5.624-.124,8.039,1.338,9.924,6.006,20.011,11.732,29.939,17.725C401.448,150.021,404.163,150.756,403.944,153.811Z"/>
    <path class="cls-12" d="M390.954,160.784a12.484,12.484,0,0,1-4.929,2.275c-5.727-.6-9.734-4.754-14.56-7.191-7.82-3.95-15-9.063-22.78-13.133-1.885-.987-3.921-2.213-2.807-5.025a7.729,7.729,0,0,1,3.96-1.795,7.9,7.9,0,0,1,5.6,1.255c10.823,6.064,21.437,12.485,32.128,18.774C389.38,157.011,391.566,157.956,390.954,160.784Z"/>
    <path class="cls-13" d="M268,117.036a8.821,8.821,0,0,1,4.649-1.206c4.992-.417,8.9,2.333,12.728,4.784,7.966,5.105,16.4,9.385,24.426,14.369,2.151,1.336,5.076,2.307,4.174,5.887a20.06,20.06,0,0,1-6.965,2c-11.809-7-23.616-14-35.649-20.616C269.305,121.124,267.108,120.075,268,117.036Z"/>
    <path class="cls-14" d="M377.958,166.781l-4.994,2.039c-8.555-2.076-15.177-7.9-22.816-11.759-5.777-2.915-10.929-6.911-16.782-9.7a3.863,3.863,0,0,1-2.517-3.433,10.833,10.833,0,0,1,5.058-1.96c2.581-.868,4.705.053,6.919,1.406,10.446,6.384,21.4,11.909,31.643,18.643C376.211,163.158,378.549,163.91,377.958,166.781Z"/>
    <path class="cls-15" d="M156.99,161l-3.8,3.427c-6.859-1.722-12.349-6.162-18.432-9.4-6.389-3.4-12.7-6.981-18.841-10.837-1.529-.96-3.327-1.7-2.858-4.058a12.6,12.6,0,0,1,4-3.86c5.242,1.305,9.512,4.574,14.081,7.173,7.642,4.346,15.3,8.684,22.7,13.441C155.454,157.912,156.944,158.856,156.99,161Z"/>
    <path class="cls-16" d="M218,75.987l-7.974,1.884c-6.187-5.93-14.2-8.928-21.374-13.264-6.717-4.059-13.756-7.6-19.82-12.681a24.932,24.932,0,0,1,9.125-2.043,202.714,202.714,0,0,1,27.364,15.424c3.05,1.982,6.354,3.483,9.444,5.373C216.737,71.888,218.919,73,218,75.987Z"/>
    <path class="cls-17" d="M291.017,146.8l-5.024,1.155c-5.2-1.463-9.334-4.945-13.887-7.584-8.431-4.887-17.1-9.377-25.172-14.885-.989-.675-1.961-1.248-2.108-2.563,2.217-1.264,4.7-1.582,7.153-1.981,3.816.273,6.924,2.413,9.895,4.375,6.63,4.38,13.949,7.6,20.335,12.361,2.406,1.792,5.652,1.975,7.87,4.126C291.572,143.256,294.032,144.514,291.017,146.8Z"/>
    <path class="cls-13" d="M262.97,109.8l-4.988,1.116c-5.417-.1-9.575-3.131-13.966-5.786-10.026-6.061-20.042-12.152-30.486-17.488a2.921,2.921,0,0,1-1.68-1.71A25.384,25.384,0,0,1,220.96,83.9c8.076,1.518,13.956,7.354,21.063,10.8,6.092,2.956,11.684,6.91,17.579,10.284C261.506,106.072,263.5,107.041,262.97,109.8Z"/>
    <path class="cls-13" d="M102.867,80.7a9.769,9.769,0,0,1,4.156-2.637c5.905,1.447,10.245,5.789,15.526,8.413,7.536,3.743,14.366,8.74,21.808,12.667,1.653.872,3.237,1.719,3.5,3.822a7.139,7.139,0,0,1-3.532,2.163c-2.725,1.2-5.154.333-7.558-1.008-10.408-5.8-20.441-12.246-30.9-17.961C103.746,85,101.87,83.613,102.867,80.7Z"/>
    <path class="cls-18" d="M197.725,89.875A13.841,13.841,0,0,1,204,87.993c7.106,1.17,12.631,5.721,18.647,9.074,6.495,3.62,12.857,7.536,19.2,11.453,1.975,1.221,4.7,2.158,4.15,5.429l-6,1.838c-12.807-6.224-24.794-13.92-37.253-20.771C200.626,93.852,198.352,92.6,197.725,89.875Z"/>
    <path class="cls-19" d="M211.851,85.938c6.344-.284,10.572,4.427,15.565,7.032,10.463,5.458,20.408,11.909,30.566,17.951l-7.97,1.977c-13.29-6.935-25.824-15.174-38.875-22.522-1.463-.823-2.983-1.515-3.265-3.428A5.664,5.664,0,0,1,211.851,85.938Z"/>
    <path class="cls-13" d="M152.034,110.182l3.887-2.356c5.586.419,9.6,4.3,14.261,6.671,7.372,3.757,14.271,8.392,21.626,12.232,2.46,1.284,5.533,2.745,5.541,6.455A5.818,5.818,0,0,1,193.994,135c-2.234,1.2-4.21.18-6.1-.838-11.248-6.067-22-13-33.16-19.215C152.941,113.943,151.39,112.644,152.034,110.182Z"/>
    <path class="cls-20" d="M306.123,94.262l-5.131,2.507c-8.983-4.192-17.418-9.384-25.844-14.544-5.449-3.336-11.555-5.675-16.22-10.254a21.727,21.727,0,0,1,7.041-3.049,19.174,19.174,0,0,1,7.73,3.158c9.668,5.969,19.646,11.413,29.366,17.294C304.806,90.428,307.147,91.363,306.123,94.262Z"/>
    <path class="cls-21" d="M57,50l4.009-2.749C72.315,52.9,83.171,59.35,93.876,66.031c2.579,1.61,6.792,1.624,7.164,5.985l-4.918,3.268c-4.323.091-7.271-2.979-10.681-4.845-8.548-4.679-16.8-9.878-25.147-14.912C58.306,54.327,55.431,53.426,57,50Z"/>
    <path class="cls-22" d="M130.055,125.236l3.959-3.013c4.721,1.264,8.648,4.186,12.726,6.605,7.421,4.4,15.065,8.427,22.344,13.059,2.143,1.364,5.067,2.012,5.772,5.075l-4.679,3.442c-7.6-.863-12.69-6.759-19.306-9.639-6.031-2.625-11.11-7.006-17.065-9.874C131.717,129.885,129.271,128.456,130.055,125.236Z"/>
    <path class="cls-23" d="M123.03,131.069a9.9,9.9,0,0,1,3.891-3.286c4.628.6,8.012,3.794,11.816,5.964,8.915,5.086,17.719,10.375,26.648,15.444,1.194.678,2.276,1.366,2.6,2.806a10.206,10.206,0,0,1-3.9,3.038c-2.08,1.438-4.05.923-6.014-.3q-15.569-9.661-31.707-18.339C124.291,135.279,122.256,134.025,123.03,131.069Z"/>
    <path class="cls-24" d="M272.013,66a17.18,17.18,0,0,1,5.957-3.072c5.5-.348,8.9,4.017,13.27,6.126,8.459,4.084,16.166,9.607,24.471,14.04,2,1.066,3.892,2.2,2.3,4.94a7.528,7.528,0,0,1-3.912,2.184c-7.312-1.587-12.859-6.573-19.125-10.124-6.859-3.887-13.738-7.753-20.526-11.769C273.5,67.763,272.33,67.293,272.013,66Z"/>
    <path class="cls-9" d="M207.872,86.947c5.769,2.426,11.006,5.825,16.4,8.94q11.7,6.757,23.4,13.5c1.4.8,3.322,1.159,2.344,3.509a7.273,7.273,0,0,1-4.02,1.052c-11.552-7.988-23.794-14.84-36-21.744-2.16-1.222-4.5-2.086-5.994-4.213A5.606,5.606,0,0,1,207.872,86.947Z"/>
    <path class="cls-25" d="M251.9,74.757l5.029-1.935c5.172.645,9.033,4.084,13.267,6.554,7.985,4.658,16,9.275,23.94,14.008,1.933,1.152,5,2.378,1.886,5.475a11.886,11.886,0,0,1-5,2.02C278.9,93.857,267.1,86.293,254.731,79.709,252.789,78.675,250.89,77.522,251.9,74.757Z"/>
    <path class="cls-26" d="M197.348,133.183c-11.753-8.759-25.219-14.626-37.626-22.283-1.409-.87-3.018-1.449-3.8-3.074l5.086-2.692c8.256,3.545,15.757,8.472,23.445,13.028,4.558,2.7,9.532,4.689,13.731,8.007,1.673,1.322,3.891,2.265,2.923,5.079A7.116,7.116,0,0,1,197.348,133.183Z"/>
    <path class="cls-27" d="M216.362,124.168a8.3,8.3,0,0,1-4.3,1.854c-5.907,2.511-9.892-2.159-13.95-4.539-8.656-5.077-17.54-9.824-25.864-15.481-1.824-1.24-3.81-2.174-3.231-4.908l4.021-1.9c3.715-.094,6.751,1.946,9.571,3.771,9.869,6.386,20.384,11.653,30.317,17.911C214.285,121.738,216.083,122.167,216.362,124.168Z"/>
    <path class="cls-14" d="M236.9,79.782a3.575,3.575,0,0,1,2.876-.864c2.657-.8,5.387-.858,7.7.67,10.643,7.043,22.2,12.532,32.856,19.553,1.728,1.139,3.409,2.215,2.641,4.712a16.476,16.476,0,0,1-5.953,1.983c-12.427-6.453-24.307-13.858-36.334-21C238.958,83.808,236.124,82.968,236.9,79.782Z"/>
    <path class="cls-23" d="M248.993,66.963a11.523,11.523,0,0,1-5,1.869c-3.052-.446-5.3-2.509-7.932-3.794-10.28-5.028-19.732-11.47-29.773-16.885-1.876-1.012-3.982-1.807-4.514-4.257a14.436,14.436,0,0,1,6.052-1.991c6.189-.045,10.5,4.106,15.386,6.937,7.694,4.459,15.3,9.077,22.969,13.573C247.793,63.36,249.88,64.328,248.993,66.963Z"/>
    <path class="cls-14" d="M137.027,120.064a9.745,9.745,0,0,1,3.984-2.84c8.724,2.953,16.035,8.547,24.012,12.893,3.914,2.132,7.54,4.767,11.578,6.717,2.346,1.133,4.866,2.258,5.557,5.23l-4.971,3.37c-3.109-.229-5.469-2.106-8.045-3.564-9.476-5.358-18.734-11.093-28.3-16.3C138.778,124.445,136.089,123.419,137.027,120.064Z"/>
    <path class="cls-20" d="M309.676,101.85l6.2-3.14a20.9,20.9,0,0,1,7.769,3.089c9.521,5.727,19.107,11.343,28.8,16.773C354.428,119.68,356.715,121,355,124a7.486,7.486,0,0,1-3.977,2.054c-7.233-1.681-12.749-6.721-19.141-10.034-6.252-3.24-12.368-6.9-18.376-10.649C312.043,104.459,309.97,104.084,309.676,101.85Z"/>
    <path class="cls-28" d="M290.8,109.914a10.74,10.74,0,0,1,5.082-1.959c3.262-1.255,6.112-.133,8.921,1.472,10.2,5.83,20.208,12.005,30.56,17.582,1.823.982,3.933,2.037,3.587,4.779a15.6,15.6,0,0,1-5.9,2.333c-7.208-2.19-13.076-6.883-19.5-10.518C305.848,119.246,297.831,115.392,290.8,109.914Z"/>
    <path class="cls-29" d="M201.1,131.248c-2.912-3.2-6.562-5.288-10.324-7.36-9.387-5.17-18.613-10.632-27.9-15.98a3.715,3.715,0,0,1-1.873-2.775,7.851,7.851,0,0,1,4.009-2.05c3.053.419,5.69,2,8.179,3.541,9.856,6.1,19.813,12.017,29.957,17.626,1.684.931,3.742,1.612,4.21,3.917C205.723,130.1,202.913,129.659,201.1,131.248Z"/>
    <path class="cls-30" d="M144.04,115.2a13.676,13.676,0,0,1,4.973-3.151c8.791,4.283,17.124,9.394,25.454,14.47,4.118,2.51,8.5,4.53,12.523,7.177,1.378.906,3.057,1.453,3.292,3.428a14,14,0,0,1-5.033,3c-5.537.7-8.869-3.75-13.129-5.876-8.366-4.174-15.915-9.851-24.365-13.956C145.777,119.332,143.384,118.268,144.04,115.2Z"/>
    <path class="cls-23" d="M119.348,123.186a7.565,7.565,0,0,1-3.319,2.826c-1.75,1.308-3.487.755-5.112-.176-11.012-6.31-21.822-12.97-33.059-18.892-1.548-.816-3.07-2.042-3.279-4.114a13.458,13.458,0,0,1,4.377-3.96c3.162-.326,5.022,2.226,7.442,3.476,10.38,5.36,20.3,11.53,30.275,17.6C117.985,120.745,119.254,121.443,119.348,123.186Z"/>
    <path class="cls-31" d="M330.849,143.923q20.039,11.372,40.06,22.777a10.636,10.636,0,0,1,2.055,2.12l-5,1.979c-5.694-.755-9.762-4.792-14.52-7.376-7.7-4.184-15.23-8.705-22.789-13.156-1.924-1.133-4.426-1.8-5.061-4.465A11.81,11.81,0,0,1,330.849,143.923Z"/>
    <path class="cls-24" d="M322.879,94.939a5.929,5.929,0,0,1,3.213-1.91c4.076-2.08,7.044.89,10,2.59,9.765,5.617,19.6,11.108,29.291,16.863,1.69,1,3.114,1.962,2.547,4.23l-4.94,2.981c-9.261-4.861-18.253-10.2-27.287-15.457-3.15-1.835-6.647-3.023-9.6-5.225C324.664,97.934,322.838,97.182,322.879,94.939Z"/>
    <path class="cls-9" d="M196.022,81.775l-4.031,1.177c-7.119-1.861-12.93-6.357-19.157-9.9-7.14-4.06-14.3-8.115-21.325-12.4-1.122-.685-2.371-1.24-2.675-2.726a12.655,12.655,0,0,1,5.972-2c2.253-.815,4.334-.056,6.133,1.094,10.648,6.8,21.92,12.524,32.735,19.024C195.313,77.028,199.605,78.133,196.022,81.775Z"/>
    <path class="cls-25" d="M347.01,128.023a7.5,7.5,0,0,1-4.031,1.9c-5.24.192-8.8-3.584-12.868-5.846-8.673-4.82-17.252-9.833-25.812-14.866-1.4-.825-3.057-1.421-3.492-3.29a8.276,8.276,0,0,1,4.236-1.905c3.07-1.239,5.716-.275,8.4,1.331,9.955,5.944,20.225,11.351,30.082,17.464C345.411,123.976,347.939,124.9,347.01,128.023Z"/>
    <path class="cls-32" d="M14.979,86.964a7.147,7.147,0,0,1,2.748-3.093c2.614-1.146,4.6.728,6.385,1.833,10.817,6.688,21.964,12.8,32.974,19.144A3.5,3.5,0,0,1,58.991,107l-2.8,3.077c-2.758,1.765-5.173,1.125-7.845-.56-9.4-5.924-19.094-11.349-28.706-16.916C17.483,91.354,14.475,90.528,14.979,86.964Z"/>
    <path class="cls-24" d="M106.115,135.252l-3,2.992c-4.463-.568-7.868-3.338-11.626-5.441C82.8,127.942,74.409,122.562,65.552,118a5.34,5.34,0,0,1-3.032-3.153,15.661,15.661,0,0,1,4.51-4.722,130.439,130.439,0,0,1,18.644,10.041c5.709,3.542,11.449,6.991,17.332,10.228C104.817,131.388,107.041,132.386,106.115,135.252Z"/>
    <path class="cls-25" d="M167.985,152c-7.748-1.555-13.381-7.135-20.1-10.657-6.569-3.446-12.8-7.54-19.2-11.3a3.44,3.44,0,0,1-1.767-2.254l3.134-2.547a173.69,173.69,0,0,0,24.369,15.14c5.493,2.921,11.036,5.85,15.754,10.028Z"/>
    <path class="cls-18" d="M207.362,128.167c-11.732-4.676-21.917-12.144-32.8-18.342-3.333-1.9-7.623-2.744-9.546-6.742a7.722,7.722,0,0,1,4-1.989c10,7.641,21.2,13.35,32.012,19.658,3.489,2.035,6.494,5.346,11.032,5.27A10.044,10.044,0,0,1,207.362,128.167Z"/>
    <path class="cls-27" d="M164.274,94.12a7.521,7.521,0,0,1-3.98,1.993c-5.915,1.97-9.538-2.89-13.927-5.006-8.652-4.17-16.517-9.81-24.847-14.607-2.18-1.255-4.08-2.478-2.518-5.4a7.57,7.57,0,0,1,4-2.084c8.634,3.944,16.567,9.141,24.731,13.918,4.288,2.51,8.882,4.473,12.947,7.384C162.151,91.368,164.016,91.958,164.274,94.12Z"/>
    <path class="cls-10" d="M262.97,109.8c-8.476-6.381-18.108-10.848-27.086-16.4-5.017-3.1-10.564-5.38-14.924-9.511,1.4-1.01,3.027-1.034,4.649-1.083,4.572-.477,7.571,2.86,11.222,4.621,9.546,4.606,18.231,10.717,27.518,15.785,1.784.974,5.58,1.923,2.674,5.561Z"/>
    <path class="cls-14" d="M227.014,73.915a7.221,7.221,0,0,1-4,1c-6.369-2.017-11.645-6.1-17.252-9.47-6.931-4.161-13.911-8.247-20.832-12.427-1.565-.945-3.456-1.746-1.974-4.147a5.7,5.7,0,0,1,3.923-.912c2.288-1.123,4.181.037,6.056,1.1C203.6,55.085,214.1,61.413,224.792,67.4a11.065,11.065,0,0,1,3.62,2.6C229.918,71.953,229.522,73.339,227.014,73.915Z"/>
    <path class="cls-10" d="M313.98,140.87c-5.913-5.972-13.823-8.821-20.765-13.178-6.7-4.2-13.7-7.927-20.563-11.861a15.076,15.076,0,0,1,6.288-1.861c1.8-.527,3.2.543,4.579,1.327,11.313,6.422,22.518,13.033,33.847,19.428,1.548.874,3.248,1.869,2.619,4.2C317.988,139.586,316.193,140.874,313.98,140.87Z"/>
    <path class="cls-33" d="M182.954,48.868c.634,2.616,3.241,2.531,4.99,3.581,11.554,6.939,23.147,13.811,34.721,20.716.708.422.552,1.1.346,1.747A9.606,9.606,0,0,1,218,75.987c-2.366-3.781-6.8-4.5-10.148-6.831-8.591-5.978-18-10.588-26.926-16.006-1.206-.732-1.99-2.16-2.969-3.266C179.484,48.869,181.221,48.879,182.954,48.868Z"/>
    <path class="cls-20" d="M123.03,131.069c4.647,4.878,11.108,6.842,16.633,10.313,6.826,4.289,13.814,8.318,20.7,12.515a7.391,7.391,0,0,0,3.728,1.137l-3.78,3.124c-3.93,1.271-6.71-1.387-9.548-3.135-9.029-5.561-18.234-10.8-27.48-15.985-1.948-1.092-4.358-2.18-3.4-5.278A6.813,6.813,0,0,1,123.03,131.069Z"/>
    <path class="cls-28" d="M36.038,66.089l2.637-2.237a5.984,5.984,0,0,1,5.208.675c10.627,6.364,21.389,12.5,32.1,18.722,1.675.973,3.691,1.673,4.319,3.863a8.389,8.389,0,0,1-3.408,2.852,3.819,3.819,0,0,1-4.631.338c-11.2-6.449-22.544-12.666-33.582-19.4C37.03,69.9,35.274,68.589,36.038,66.089Z"/>
    <path class="cls-34" d="M36.038,66.089c5.143,5.381,12.178,7.924,18.3,11.771,6.393,4.017,13.311,7.279,19.71,11.394a9.258,9.258,0,0,0,2.842.711,9.821,9.821,0,0,1-3.629,3.171c-2.411.856-4.482.073-6.589-1.139C56.658,86.23,46.723,80.325,36.731,74.517c-2.048-1.19-4.519-2.47-3.811-5.68Z"/>
    <path class="cls-13" d="M57,50c4.334,4.9,10.509,7.118,15.771,10.657,7.615,5.122,16.207,8.715,23.35,14.622a4.693,4.693,0,0,1-2.734,1.861c-5.22,1.37-8.751-2.488-12.488-4.661-8.089-4.7-16.155-9.463-24.233-14.2-2.014-1.18-4.756-2.153-3.771-5.513A9.371,9.371,0,0,1,57,50Z"/>
    <path class="cls-33" d="M135.081,111.189l-2.948,2.1c-4.42.572-7.4-2.587-10.711-4.492-8.985-5.176-18.064-10.2-26.863-15.705-1.86-1.163-3.986-2.009-2.548-4.832l4-2.954c8.715,3.77,16.4,9.378,24.686,13.923,3.9,2.141,7.828,4.342,11.552,6.839C134.107,107.313,135.963,108.471,135.081,111.189Z"/>
    <path class="cls-28" d="M282.975,103.854c-2.993-3.765-7.376-5.689-11.373-7.887-8.565-4.709-16.9-9.791-25.306-14.752a13.229,13.229,0,0,0-6.515-2.3,14.725,14.725,0,0,1,6.062-1.98c4.8-1.752,7.688,2.274,11.138,4.031,9.742,4.959,18.83,11.11,28.366,16.465,1.814,1.018,3.565,1.99,2.652,4.557A11.194,11.194,0,0,1,282.975,103.854Z"/>
    <path class="cls-10" d="M190.282,137.124c-9.356-3.428-17.2-9.607-25.895-14.245-4.2-2.239-8.247-4.756-12.338-7.191-1.417-.843-2.875-1.719-3.036-3.639l3.02-1.867c5.221,4.908,11.873,7.547,17.888,11.185,7.889,4.771,15.648,9.8,24.072,13.631A7.555,7.555,0,0,1,190.282,137.124Z"/>
    <path class="cls-24" d="M265.994,59.8l-4.005,1.93c-2.883.013-4.911-1.964-7.08-3.343-10.047-6.388-20.793-11.571-30.8-18.016-1.388-.894-3.033-1.487-3.285-3.442a9.457,9.457,0,0,1,4.768-2.068c4.541-1.476,7.662,1.85,10.847,3.779,8.776,5.316,17.8,10.209,26.545,15.564C265.116,55.505,267.714,56.46,265.994,59.8Z"/>
    <path class="cls-16" d="M45.985,57.968a9.448,9.448,0,0,1,3.992-3.02c5.651,2.069,10.542,5.57,15.732,8.487,7.5,4.215,14.675,9.007,22.339,12.944,1.233.633,2.363,1.192,2.82,2.585a10.426,10.426,0,0,1-4.023,2.985,6.154,6.154,0,0,1-6.058-.375C70.511,75.827,60.664,69.345,50.251,63.831,47.989,62.633,45.237,61.491,45.985,57.968Z"/>
    <path class="cls-35" d="M45.985,57.968c3.751,4.749,9.527,6.581,14.49,9.329,7.4,4.1,14.361,8.862,21.687,13.038a25.993,25.993,0,0,0,4.683,1.614,10.028,10.028,0,0,1-3.912,3.019c-2.406.445-4.46-.356-6.565-1.5C66.405,78.052,56.932,71.79,46.884,66.506c-2.02-1.062-5.311-1.8-4.851-5.428A9.594,9.594,0,0,1,45.985,57.968Z"/>
    <path class="cls-20" d="M74.579,102.829c7.211,4,14.432,7.989,21.632,12.015,6.618,3.7,13.213,7.443,19.819,11.168a8.06,8.06,0,0,1-3.229,2.924c-2.179,1.268-4.015.384-5.974-.727-10.074-5.717-19.751-12.116-30.083-17.394-2.267-1.158-4.924-2.3-4.676-5.672A4.925,4.925,0,0,1,74.579,102.829Z"/>
    <path class="cls-19" d="M196.022,81.775c1.026-3-1.808-3.284-3.242-4.122q-15.908-9.292-32.021-18.232c-2.013-1.124-3.447-3.23-5.951-3.495a17.081,17.081,0,0,1,7.1-2.156c7.753,3.4,14.607,8.4,22.068,12.334,5.093,2.684,10.276,5.27,14.861,8.849,1.681,1.313,3.872,2.19,3.154,4.977Z"/>
    <path class="cls-28" d="M128.107,116.249l-2.238,1.689c-4.69,1.5-7.941-1.836-11.275-3.86-9-5.461-18.243-10.5-27.177-16.065C85.84,97.03,84.238,96.1,84.9,93.8l3.169-2.531c5.6-.208,9.324,3.849,13.743,6.223,7.715,4.145,15.1,8.89,22.8,13.076C126.818,111.763,129.167,112.989,128.107,116.249Z"/>
    <path class="cls-17" d="M337.127,180.3a16.067,16.067,0,0,1-6.1,1.52c-12.94-6.813-25.176-14.867-38.142-21.637-2.164-1.13-4.515-2.079-5.99-4.223a7.6,7.6,0,0,1,4.679-1.078c3.959-1.058,7.718.081,10.914,2.036,10.006,6.119,20.308,11.7,30.469,17.535C334.9,175.568,338.207,176.622,337.127,180.3Z"/>
    <path class="cls-9" d="M110.034,76.193l3.88-2.383c5.475.552,9.8,3.727,14.145,6.587,8.569,5.64,17.88,9.991,26.457,15.6.858.56,1.683,1.064,1.852,2.173a14.893,14.893,0,0,1-5.234,2.9c-2.521.732-4.536-.7-6.465-1.8-10.741-6.176-21.436-12.433-32.024-18.87C110.988,79.385,109.508,78.464,110.034,76.193Z"/>
    <path class="cls-31" d="M236.9,79.782c12.059,8.685,25.317,15.385,38.046,22.96,1.292.769,2.969.983,2.07,3.094l-3.068.962c-5.536.128-9.662-3.407-13.882-6.022-9-5.578-18.419-10.4-27.435-15.931-1.267-.777-2.744-1.28-3.008-3.026A20.516,20.516,0,0,1,236.9,79.782Z"/>
    <path class="cls-18" d="M156.367,98.166c-6.021-1.236-10.523-5.419-15.767-8.16-9.235-4.828-17.916-10.591-26.686-16.2L119,71.1c1.119,4.5,5.619,4.749,8.68,6.656,9.066,5.646,18.343,10.955,27.586,16.311a37.942,37.942,0,0,0,5.026,2.048A7.779,7.779,0,0,1,156.367,98.166Z"/>
    <path class="cls-16" d="M229.628,81.82c7.552,2.617,14.009,7.344,20.986,11.057,7.987,4.251,15.577,9.249,23.339,13.922l-6.93,1.983c.182-3.378-3.155-3.692-4.891-4.747-12.03-7.311-24.318-14.2-36.523-21.22A6.234,6.234,0,0,1,229.628,81.82Z"/>
    <path class="cls-36" d="M355,124c-1.167-4.5-5.814-4.589-8.822-6.529-9.046-5.833-18.563-10.931-27.857-16.384a14.1,14.1,0,0,1-2.446-2.381l3.193-1.685c1.883-1.2,3.4-.174,5.007.731,10.524,5.918,20.98,11.956,31.486,17.905,2.091,1.184,5.262,1.928,4.558,5.582A12.507,12.507,0,0,1,355,124Z"/>
    <path class="cls-27" d="M197.725,89.875q14.811,8.508,29.629,17c2.879,1.641,5.836,3.147,8.773,4.685,1.808.947,3.474,1.995,3.869,4.223l-4,1.16c-6.019-.2-10.1-4.631-14.928-7.235-8.243-4.447-16.227-9.413-24.42-13.991-1.849-1.033-3.873-1.838-4.95-3.86A12.533,12.533,0,0,1,197.725,89.875Z"/>
    <path class="cls-18" d="M291.017,146.8c.8-3.664-2.654-3.983-4.458-4.857-10.281-4.979-19.351-12.021-29.585-17.06-1.875-.923-3.851-1.972-4.994-3.942a5.472,5.472,0,0,1,3.905-.99c3.176-.749,5.853.692,8.289,2.287,10.078,6.6,20.97,11.8,31.156,18.208,1.8,1.131,3.48,2.009,2.668,4.531C295.886,146.413,293.4,146.4,291.017,146.8Z"/>
    <path class="cls-18" d="M64.058,45.288,68,43.009a16.657,16.657,0,0,1,8.128,3.176c8.535,5.584,17.775,9.991,26.422,15.4,2.416,1.511,5.633,2.2,6.622,5.489l-5.024,3c-3.528.815-6.091-1.777-8.494-3.259-9.01-5.556-18.553-10.177-27.42-15.954C66.189,49.527,63.737,48.429,64.058,45.288Z"/>
    <path class="cls-13" d="M201.99,79.93c-9.139-7.822-20.172-12.556-30.4-18.608-3.566-2.111-7.477-3.724-9.688-7.552a3.6,3.6,0,0,1,2.972-.816c2.83-.92,5.48.479,7.435,1.779,10.237,6.809,21.306,12.159,31.725,18.619,1.815,1.126,5.05,2.373,1.973,5.525Z"/>
    <path class="cls-22" d="M190.905,46.962a23.952,23.952,0,0,1,7.777-2.124c5.888.941,10.541,4.634,15.28,7.662,6.852,4.379,14.16,7.849,21.086,12.021,2.124,1.28,6.356,2.162,2.975,6.294l-3.075.969c-6.3-.788-11.33-4.649-16.394-7.778-7.589-4.689-15.418-8.9-23.138-13.326A11.546,11.546,0,0,1,190.905,46.962Z"/>
    <path class="cls-17" d="M109.175,67.072c-6.966-2.317-12.578-7.12-19.031-10.42-7.706-3.941-15.5-7.9-22.141-13.643l3.857-2.3c4.446.035,7.752,2.772,11.22,4.944,8.711,5.457,17.8,10.266,26.556,15.64,1.57.963,3.414,1.663,2.519,4.1Z"/>
    <path class="cls-37" d="M140.861,60.944a9.97,9.97,0,0,1,5.091-1.968c4.443-.012,7.526,3.044,11.1,4.964,9.329,5.013,18.259,10.722,27.519,15.859,1.9,1.052,3.933,2.187,2.421,4.97l-5.982,2.139c-11.574-7.509-23.61-14.248-35.5-21.224C143.529,64.523,141.395,63.52,140.861,60.944Z"/>
    <path class="cls-36" d="M20.821,80.627,23.774,77.6c6.779,1.124,11.775,5.823,17.486,9,5.9,3.28,11.642,6.822,17.721,9.792,2.306,1.127,5.053,2.159,4.926,5.569a7.556,7.556,0,0,1-2.977,3c-2.958,1.142-5.208-.739-7.4-2.037C43.542,97,33.353,91.416,23.458,85.325,21.607,84.186,20.134,83.077,20.821,80.627Z"/>
    <path class="cls-20" d="M63.907,101.966C53.476,95.913,43.013,89.915,32.634,83.774c-3.091-1.829-6.695-2.99-8.861-6.171a6.538,6.538,0,0,1,2.782-2.792,4.72,4.72,0,0,1,3.8.485c10.854,6.559,21.733,13.078,32.8,19.276,1.745.977,3.463,2.045,3.588,4.382A5.817,5.817,0,0,1,63.907,101.966Z"/>
    <path class="cls-25" d="M32.92,68.837C41.484,76.625,52.394,80.655,61.926,86.9c3.6,2.356,7.548,4.172,11.337,6.235a7.721,7.721,0,0,1-3.2,2.9c-2.223.857-4.1.16-6.117-.942C53.638,89.46,43.854,82.932,33.5,77.381c-2.111-1.131-4.577-2.451-3.656-5.714A7.111,7.111,0,0,1,32.92,68.837Z"/>
    <path class="cls-24" d="M113.061,140.126q17.254,9.83,34.519,19.64c2.174,1.228,4.519,2.163,5.612,4.657l-3.049,2.866c-4.338.1-7.143-3.208-10.579-4.993-8.648-4.49-16.847-9.809-25.384-14.526-2.053-1.135-4.674-2.344-3.142-5.65Z"/>
    <path class="cls-38" d="M281.957,112.983a14.815,14.815,0,0,1,5.972-2.021c3.489-.276,6.225,1.457,9.064,3.163,8.79,5.28,17.8,10.188,26.605,15.44,2.362,1.409,5.877,2.213,5.369,6.248a16.576,16.576,0,0,1-5.957,2.105c-13.076-7.293-25.962-14.915-38.93-22.4A3.6,3.6,0,0,1,281.957,112.983Z"/>
    <path class="cls-9" d="M298,144.981c-1.322-2.883-4.411-3.369-6.755-4.745-11.715-6.88-23.559-13.542-35.358-20.28a7.729,7.729,0,0,1,4.728-1.085c4.757-1.232,8.139,1.941,11.77,3.916,9.533,5.184,18.806,10.836,28.231,16.218,1.945,1.111,3.866,2.17,2.385,4.915A7.981,7.981,0,0,1,298,144.981Z"/>
    <path class="cls-23" d="M296.02,98.86c1.055-2.75-1.43-2.93-2.835-3.764q-16.642-9.882-33.345-19.663a6.577,6.577,0,0,1-2.914-2.611l2-.851c6.238.2,10.273,5.018,15.388,7.54,7.521,3.708,14.618,8.292,21.808,12.647,1.9,1.15,4.347,1.923,4.869,4.61Z"/>
    <path class="cls-16" d="M135.081,111.189c-6.35-5.862-14.047-9.627-21.476-13.815-5.016-2.827-9.993-5.724-14.97-8.618a5,5,0,0,1-2.622-3.45l3.034-2.076c4.637.076,7.7,3.558,11.361,5.565,8.832,4.842,17.414,10.154,26.135,15.213,1.594.925,3.264,1.741,3.322,3.941Z"/>
    <path class="cls-26" d="M303,143.921A3.959,3.959,0,0,0,300.6,141c-10.3-5.709-20.582-11.443-30.783-17.321-3.01-1.734-5.612-4.2-9.2-4.808,2.323-1.175,4.884-1.4,7.391-1.836,1.077,2.033,3.066,2.888,4.939,3.961,10.742,6.153,21.446,12.375,32.175,18.551,1.32.76,2.807,1.334,1.9,3.325A7.214,7.214,0,0,1,303,143.921Z"/>
    <path class="cls-22" d="M300.808,105.92c7,1.865,12.787,6.22,18.839,9.8,7.823,4.631,16.135,8.527,23.333,14.2l-4.03,1.866Q319.1,120.234,299.225,108.72a11.748,11.748,0,0,0-3.342-.765A10.4,10.4,0,0,1,300.808,105.92Z"/>
    <path class="cls-39" d="M403.944,153.811q-16.658-9.86-33.311-19.731c-2.856-1.7-5.681-3.43-8.963-4.208a14.533,14.533,0,0,1,5.29-2.967c3.853-.3,6.481,2.378,9.395,4.114,9.238,5.5,18.818,10.432,27.779,16.4,1.62,1.079,3.7,1.913,2.857,4.557Z"/>
    <path class="cls-18" d="M186.992,84.769c-.282-1.911-1.808-2.6-3.263-3.426-10.742-6.093-21.486-12.184-32.182-18.359a67.4,67.4,0,0,1-5.6-4.008,3.619,3.619,0,0,1,2.882-1.046c7.115,1.289,12.172,6.524,18.331,9.66,7.068,3.6,13.8,7.87,20.612,11.955,1.533.919,3.266,1.712,4.214,3.408Z"/>
    <path class="cls-28" d="M190.905,46.962c9.461,3.309,17.955,8.55,26.216,14.005,5.822,3.844,12.774,5.774,17.827,10.818a27.449,27.449,0,0,1-7.934,2.13c1.2-1.095,1.564-2.045-.192-3.047-7.065-4.031-13.925-8.435-20.975-12.449-5.032-2.865-10.317-5.271-14.856-8.935a6.637,6.637,0,0,0-4.112-1.528A6.26,6.26,0,0,1,190.905,46.962Z"/>
    <path class="cls-30" d="M325.592,145.8c5.144,1.868,9.684,4.853,14.354,7.628,7.635,4.536,15.408,8.842,23.081,13.314,1.841,1.073,3.786,2.1,4.934,4.055a16.945,16.945,0,0,1-5.951,2.115c-.926-4.311-4.942-5.2-8-7.02-9.523-5.671-19.163-11.145-28.715-16.767a13.44,13.44,0,0,1-2.412-2.417A3.556,3.556,0,0,1,325.592,145.8Z"/>
    <path class="cls-12" d="M119.348,123.186q-19.718-11.312-39.414-22.66c-.484-.28-.659-1.093-.978-1.657l3.108-2.7c5.476.738,9.434,4.593,14.064,7.019,8.753,4.586,16.861,10.324,25.6,14.973a2.8,2.8,0,0,1,1.459,1.9Z"/>
    <path class="cls-11" d="M210.727,40.878a10.964,10.964,0,0,1,5.11-1.94,8.132,8.132,0,0,1,7.577,1.076c10.19,6.453,21.081,11.706,31.185,18.3,2.065,1.349,3.975,2.641,2.4,5.515a12.1,12.1,0,0,1-4.974,2.024c-13.636-8-27.106-16.272-40.824-24.13A1.332,1.332,0,0,1,210.727,40.878Z"/>
    <path class="cls-40" d="M286.893,155.957c4.585-.37,7.618,3.028,11.156,4.922,10.625,5.69,20.969,11.9,31.443,17.876,1.266.722,2.3,1.4,1.532,3.062L326,182.836a4.6,4.6,0,0,0-2.534-3.507c-13.176-6.771-25.887-14.348-38.5-22.093a5.177,5.177,0,0,0-1.44-.379A4.254,4.254,0,0,1,286.893,155.957Z"/>
    <path class="cls-39" d="M360.122,121.244c-9.2-6.247-18.971-11.527-28.627-17.006-4.165-2.363-8.284-4.806-12.424-7.213a7.612,7.612,0,0,1,3.808-2.086q17.774,9.895,35.548,19.792c2.062,1.149,3.939,2.482,4.562,4.961Z"/>
    <path class="cls-10" d="M139.865,107.95c-9.755-5.693-19.9-10.707-29.248-17.117-3.8-2.606-8.409-4-11.569-7.6l3.819-2.533c.6.781,1.028,1.87,1.816,2.3,13.3,7.215,25.49,16.439,39.643,22.129A11.237,11.237,0,0,1,139.865,107.95Z"/>
    <path class="cls-41" d="M216.362,124.168c-9.8-4.113-18.83-9.71-27.74-15.368-5.154-3.273-11.1-5.284-15.587-9.6A11.65,11.65,0,0,1,178,97.069c6.058,1.931,11.011,5.921,16.481,8.938,7.061,3.895,14,8.016,20.883,12.228,1.822,1.116,3.836,2.146,3.71,4.8A3.47,3.47,0,0,1,216.362,124.168Z"/>
    <path class="cls-39" d="M272.013,66c7.169,1.329,12.635,6.2,18.913,9.343,7.487,3.752,14.421,8.612,21.561,13.046a8.537,8.537,0,0,1,1.618,1.829c-1.211.96-2.377,2.032-4.12,1.709-5.586-.785-9.794-4.318-14.431-7.072-7.907-4.7-16.02-9.046-23.815-13.933-1.345-.843-3.175-1.155-3.805-2.951A8.239,8.239,0,0,1,272.013,66Z"/>
    <path class="cls-26" d="M110.034,76.193c8.285,5.751,17.122,10.6,25.787,15.724,5.117,3.028,10.209,6.1,15.312,9.15a5.778,5.778,0,0,1-3.274,1.9c-9.719-3.979-17.786-10.864-27.167-15.434-5.046-2.458-9.921-5.144-13.668-9.469Z"/>
    <path class="cls-10" d="M206.012,78.877c.727-2.635-1.694-3.018-3.042-3.823q-16.162-9.65-32.508-18.99c-1.844-1.048-3.259-2.928-5.584-3.11a5.747,5.747,0,0,1,3.951-1.027c5.6-.458,8.943,4.078,13.008,6.5,8.771,5.215,17.949,9.714,26.533,15.231,1.413.908,4.331,1.564,1.653,4.218Z"/>
    <path class="cls-39" d="M256.994,63.833c-1.092-4.387-5.384-5.526-8.476-7.149-9.565-5.02-18.525-11.055-28.067-16.085-1.489-.785-2.867-1.678-4.614-1.661a10.793,10.793,0,0,1,4.986-2.014c7.665,4.144,15.365,8.225,22.983,12.454,4.74,2.631,9.03,6.005,13.988,8.323a7.545,7.545,0,0,1,4.195,4.024Z"/>
    <path class="cls-31" d="M144.04,115.2c4.781,4.538,11.111,6.521,16.546,10,8.09,5.18,16.43,9.969,24.663,14.924a5.636,5.636,0,0,1-3.091,1.939,286.927,286.927,0,0,1-27.747-16.152c-2.926-1.978-6.154-3.215-9.225-4.826-1.732-.908-3.8-1.477-4.175-3.861Z"/>
    <path class="cls-23" d="M390.954,160.784c-7.411-5.892-16.123-9.671-24.032-14.765-5.558-3.58-11.38-6.751-17.084-10.1a7.8,7.8,0,0,1,4.073-1.961c6.13-.831,9.983,4.017,14.664,6.393,7.639,3.876,14.934,8.54,22.33,12.944,1.953,1.163,4.846,2.078,4.043,5.47Z"/>
    <path class="cls-42" d="M112.155,65.394c-6.792-5.287-14.86-8.465-21.944-13.276C84.249,48.07,77.4,45.445,71.861,40.711L76.054,38.3c7.667,2.054,13.663,7.269,20.414,11.022,5.318,2.957,10.8,5.7,15.83,9.2,1.758,1.222,3.924,1.946,3.951,4.6Z"/>
    <path class="cls-22" d="M288,101.992c-2.357-4.077-7.106-4.558-10.613-6.914C268.119,88.853,257.76,84.4,248.632,77.9a10.36,10.36,0,0,0-2.789-.956,15.872,15.872,0,0,1,6.055-2.182c4.7,4.738,11.059,6.864,16.539,10.381,7.044,4.521,14.355,8.625,21.569,12.878a1.988,1.988,0,0,1,1.01,2.864A4.433,4.433,0,0,1,288,101.992Z"/>
    <path class="cls-23" d="M29.842,71.666c4.755,5.643,12.018,7.443,17.837,11.522,7.016,4.917,14.885,8.617,22.385,12.844-.524,1.639-2.5,1.63-3.324,2.922C55.764,92.614,44.764,86.316,33.832,79.9c-2.545-1.493-4.857-3.383-7.276-5.09Z"/>
    <path class="cls-30" d="M281.957,112.983c7.652,2.078,13.575,7.435,20.519,10.884,6.2,3.078,12.044,6.868,17.962,10.481,1.231.751,3.374,1.206,2.571,3.571a4.25,4.25,0,0,1-3.024,1.006c-8.678-5.132-17.207-10.545-26.091-15.291-5.292-2.827-9.961-6.462-14.954-9.665A3.939,3.939,0,0,1,281.957,112.983Z"/>
    <path class="cls-28" d="M137.027,120.064c1.163,2.206,3.38,3.013,5.381,4.16q16.247,9.323,32.419,18.776a12.617,12.617,0,0,1,2.36,2.433l-2.331,1.529c-6.111-1.836-10.824-6.236-16.478-8.991-7.11-3.465-13.724-7.954-20.5-12.081-1.515-.922-3.279-1.706-3.861-3.666Z"/>
    <path class="cls-43" d="M72.066,105.143c13.134,8.691,27,16.125,40.734,23.793l-3.652,3.371c-3.414.408-6.053-1.666-8.7-3.143-8.93-4.985-17.308-10.911-26.464-15.549-2.137-1.082-5.053-2.119-4.936-5.511A7.267,7.267,0,0,1,72.066,105.143Z"/>
    <path class="cls-44" d="M315.836,148.93q15.854,9.211,31.71,18.419c2.147,1.245,4.342,2.409,6.476,3.677,1.454.864,2.937,1.8,1.986,3.916a4.173,4.173,0,0,1-3.025.961c-4.5-.581-7.785-3.692-11.5-5.784-8.539-4.811-17.114-9.577-25.476-14.694-1.913-1.171-4.91-1.981-4.007-5.421A5.731,5.731,0,0,1,315.836,148.93Z"/>
    <path class="cls-39" d="M20.821,80.627c5.687,5.44,13.12,8.1,19.613,12.271,6.667,4.279,13.651,8.066,20.5,12.068L58.991,107c-6.5-.858-11.18-5.473-16.671-8.34C33.857,94.24,25.9,88.85,17.727,83.871Z"/>
    <path class="cls-20" d="M210.727,40.878a11.018,11.018,0,0,1,5.63,1.654c11.055,6.657,22.182,13.194,33.28,19.78,1.344.8,3.4,1.15,2.383,3.544l-3.027,1.106c-4.037-4.125-9.5-6.022-14.262-9-8.857-5.532-17.926-10.725-26.907-16.06A3.725,3.725,0,0,1,210.727,40.878Z"/>
    <path class="cls-22" d="M123.184,120.066c-4.308-.322-8.013-2.6-11.172-4.963-7.864-5.88-16.817-9.784-25.108-14.856a14.249,14.249,0,0,1-4.84-4.075L84.9,93.8c13.146,8.914,27.029,16.578,40.97,24.142Z"/>
    <path class="cls-23" d="M347.01,128.023c-5.456-5.5-12.572-8.512-19.121-12.27-6.029-3.46-12.122-6.829-18.121-10.354a8.806,8.806,0,0,0-4.724-1.384,10.229,10.229,0,0,1,4.632-2.165c7.643,2.215,13.7,7.4,20.564,11.059,5.254,2.8,10.271,6.053,15.564,8.773a11.848,11.848,0,0,1,5.221,4.376A7.469,7.469,0,0,1,347.01,128.023Z"/>
    <path class="cls-9" d="M64.058,45.288c10.9,8.225,23.084,14.3,34.929,20.946a48.558,48.558,0,0,1,5.165,3.841,5.626,5.626,0,0,1-3.111,1.941Q83.417,61.957,65.788,51.91c-2.019-1.147-4.267-1.99-4.778-4.655Z"/>
    <path class="cls-45" d="M328.967,135.814c-6.529-5.731-14.324-9.506-21.863-13.546-6.564-3.517-12.529-7.979-19.175-11.306a3.8,3.8,0,0,1,2.872-1.049c4.428-.432,7.358,2.852,10.749,4.679,9.618,5.18,18.941,10.906,28.391,16.4a7.793,7.793,0,0,1,3.113,3.13A7.9,7.9,0,0,1,328.967,135.814Z"/>
    <path class="cls-46" d="M14.979,86.964a223.938,223.938,0,0,0,26.761,15.991c4.766,2.441,8.364,7.369,14.447,7.121l-3.441,3.908c-1.406,1.228-2.379.071-3.52-.566C37.639,106.954,26.5,99.72,14.828,93.4c-1.774-.96-3.063-2.066-1.786-4.274Z"/>
    <path class="cls-19" d="M312,150c7.18,6.271,16.023,9.889,23.921,15.006,5.663,3.669,12.532,5.456,17.06,10.893l-5.962,1.884c.822-1.67-.29-2.385-1.5-3.084q-19.426-11.251-38.86-22.487a5.736,5.736,0,0,0-1.943-.316A20.462,20.462,0,0,1,312,150Z"/>
    <path class="cls-12" d="M238.023,70.816c.624-3.47-2.355-3.988-4.372-5.031-12.1-6.255-23.949-12.9-34.969-20.946a4.084,4.084,0,0,1,3.091-.942c12.39,5.783,23.675,13.531,35.6,20.138,2.326,1.288,5.494,1.735,6.616,4.8Z"/>
    <path class="cls-20" d="M394.949,158.76c-4.5-4.535-10.431-6.854-15.752-10.1-8.324-5.074-16.846-9.824-25.284-14.711a7.805,7.805,0,0,1,3.937-2.031c12.6,7.317,25.395,14.306,37.609,22.277,1.134.74,2.3,1.353,2.556,2.842Z"/>
    <path class="cls-20" d="M143.849,14.936c2.582-1.218,5.4-1.425,8.154-1.917,6.067,1.088,10.582,5.212,15.751,8.053,7.687,4.225,15.214,8.724,22.666,13.348,1.344.834,3.235,1.3,2.58,3.58a18.594,18.594,0,0,1-7,1.89C172.206,31.134,157.54,23.859,143.849,14.936Z"/>
    <path class="cls-39" d="M69.05,108.1l40.1,24.2-3.033,2.945c-4.33-4.17-10.057-6.1-14.973-9.341a224.367,224.367,0,0,0-21.411-12.466,4.221,4.221,0,0,1-2.7-3.322Z"/>
    <path class="cls-18" d="M337.127,180.3c-3.461-4.268-8.465-6.371-13.1-8.8-9.232-4.838-17.677-11.042-27.2-15.358a14.726,14.726,0,0,0-5.255-1.262l9.352-2.1c3,3.86,7.317,6.091,11.432,8.211,10.53,5.425,20.642,11.51,30.612,17.865A14.335,14.335,0,0,1,337.127,180.3Z"/>
    <path class="cls-36" d="M267.932,67.973c3.584-.653,5.9,2.07,8.52,3.547,10.707,6.024,21.219,12.4,31.779,18.681a10.165,10.165,0,0,1,1.752,1.728c-1.294.766-2.09,2.357-3.861,2.333-5.219-4.7-11.575-7.624-17.5-11.214-7.612-4.61-15.885-8.158-22.651-14.126Z"/>
    <path class="cls-14" d="M128.107,116.249a11.88,11.88,0,0,0-5.426-4.863c-11.929-6.027-23.191-13.213-34.613-20.12l3.942-3.005c3.856,4.439,9.177,6.749,14.122,9.557,8.774,4.982,17.587,9.887,26,15.473Z"/>
    <path class="cls-28" d="M377.958,166.781c-13.3-9.495-27.818-16.912-42.051-24.818a10.724,10.724,0,0,1,4.97-2.029,6.263,6.263,0,0,1,4.71.772c11.249,6.8,22.734,13.2,33.979,20.007,1.623.982,3.131,1.948,2.424,4.228Z"/>
    <path class="cls-10" d="M90.869,78.964A51.152,51.152,0,0,1,75.486,71.3c-6.448-4.45-13.572-7.926-20.445-11.75a12.5,12.5,0,0,1-5.063-4.6L52.9,52.775c3.43,4.614,9.028,5.94,13.6,8.785,8.792,5.471,17.909,10.42,26.892,15.585A4.1,4.1,0,0,1,90.869,78.964Z"/>
    <path class="cls-47" d="M129.009,66.053a8.856,8.856,0,0,1,4.936-2.189c6.745,1.334,11.466,6.444,17.381,9.365a150.577,150.577,0,0,1,20.612,11.932c1.7,1.205,3.577,2.113,2.057,4.647L171.006,91c-3.038.363-5.46-1.288-7.757-2.763-9.433-6.061-19.387-11.221-28.947-17.045C132.3,69.976,129.045,69.5,129.009,66.053Z"/>
    <path class="cls-48" d="M227.969,119.778l-3.813,1.281c-2.477.928-4.619-.344-6.5-1.454-11.655-6.862-23.31-13.725-35.067-20.413-1.246-.709-2.18-1.535-1.58-3.15.844-.4,1.4-1.414,2.54-1.191,3.244-.751,6.049-.493,8.634,2.164,2.289,2.353,5.64,3.512,8.539,4.854,8.248,3.819,15.263,9.747,23.671,13.257C226.06,115.826,228.68,116.789,227.969,119.778Z"/>
    <path class="cls-22" d="M381.989,164.942c-5.7-4.906-12.612-7.874-18.9-11.835-7.281-4.584-14.8-8.8-22.21-13.172a12.059,12.059,0,0,1,5-2.226c2.457,4.392,7.442,5.228,11.225,7.662,8,5.151,16.511,9.517,24.769,14.279,1.544.89,3.255,1.685,4.154,3.409A7.462,7.462,0,0,1,381.989,164.942Z"/>
    <path class="cls-41" d="M164.274,94.12c-8.488-4.134-16.45-9.191-24.577-13.962-4.287-2.517-8.692-4.834-12.969-7.368-1.524-.9-3.292-1.726-3.725-3.777a7.382,7.382,0,0,1,4-2c12.869,7.216,25.571,14.72,38.289,22.2,1.237.727,2.748,1.276,3.1,2.974A7.849,7.849,0,0,1,164.274,94.12Z"/>
    <path class="cls-46" d="M111.038,142.121c2.545,4.168,7.1,5.627,10.947,7.988,9.37,5.752,19.562,10.154,28.157,17.18l-1.848,1.829c-1.694.919-3.03.226-4.592-.637-11.148-6.155-21.862-13.053-33.029-19.172-1.556-.853-4.166-1.267-2.628-4.167A7.542,7.542,0,0,1,111.038,142.121Z"/>
    <path class="cls-14" d="M42.034,61.078Q57.947,70.5,73.866,79.919c2.98,1.754,6.043,3.37,9.067,5.05L80.3,87.112c-2.313.066-3.99-1.356-5.836-2.434Q56.584,74.239,38.674,63.852A7.593,7.593,0,0,1,42.034,61.078Z"/>
    <path class="cls-14" d="M122.907,19.775a3.658,3.658,0,0,1,2.987-.816c3.053-.863,5.485.863,7.828,2.207q16.367,9.385,32.6,19c1.438.854,3.07,1.5,2.639,3.671l-7.938,1.971c-6.358-5.045-13.594-8.648-20.6-12.642-5.29-3.016-10.612-5.993-15.65-9.442C123.29,22.7,122.035,21.806,122.907,19.775Z"/>
    <path class="cls-41" d="M191.693,91.861c4.336.417,7.558,3.245,11.089,5.3,11.136,6.481,22.638,12.356,33.209,19.786A16.022,16.022,0,0,1,230,118.964c-8.74-5.512-17.8-10.478-26.708-15.7-4.512-2.646-9.625-4.341-13.352-8.268a3.219,3.219,0,0,1-1.172-2.1A3.527,3.527,0,0,1,191.693,91.861Z"/>
    <path class="cls-36" d="M119.884,133.761c4.407,5.318,11.158,7.057,16.653,10.733,7.579,5.071,15.817,9.157,23.773,13.664L156.99,161c-11.921-7.119-23.6-14.656-35.956-21.029a11.589,11.589,0,0,1-3.97-3.7Z"/>
    <path class="cls-23" d="M143.849,14.936c4.082-.182,7.375,2.151,10.41,4.15,8.807,5.8,18.422,10.164,27.274,15.86,2.018,1.3,3.922,2.433,4.464,4.944l-4.026.966c-7.322-2.732-13.491-7.557-20.294-11.238-7.794-4.217-15.363-8.857-22.811-13.675A8.942,8.942,0,0,1,143.849,14.936Z"/>
    <path class="cls-41" d="M140.861,60.944q13.862,8.1,27.721,16.2c3.413,2,6.827,4,10.184,6.088,1.3.81,3.3,1.362,2.244,3.677l-2.055.873c-3.3.365-5.7-1.7-8.113-3.325-9.9-6.663-20.9-11.445-30.827-18.049-1.495-.994-3.251-1.664-4.088-3.436A9.611,9.611,0,0,1,140.861,60.944Z"/>
    <path class="cls-26" d="M101,27a3.6,3.6,0,0,1,2.83-1.062c3.658-.963,6.347,1.438,9.167,2.907,10,5.207,19.252,11.708,29.2,17.029,1.747.934,4.743,2.107,1.817,5.037a4.383,4.383,0,0,1-3.017,1.062,35.363,35.363,0,0,1-11.868-5.376c-8.23-5.422-17.219-9.575-25.418-15.062C102.042,30.416,100.123,29.574,101,27Z"/>
    <path class="cls-28" d="M168.967,43.834c-14.292-8.4-28.386-17.153-43.072-24.874a5.849,5.849,0,0,1,3.977-1.007c4.4-1.335,7.744,1.518,11.009,3.376,10.041,5.712,20.149,11.332,29.911,17.527,1.436.911,3.679,1.479,2.2,4.025Z"/>
    <path class="cls-13" d="M144.01,50.906a1.765,1.765,0,0,0-.952-2.473q-19.613-11.254-39.23-22.5a3.5,3.5,0,0,1,2.866-1.044c4.416-1.326,7.7.71,11.429,2.925,9.5,5.64,18.948,11.4,28.6,16.791,1.645.918,3.867,1.588,3.256,4.3Z"/>
    <path class="cls-49" d="M376.723,120.853q18.031,10.52,36.064,21.035c1.687.982,3.8,1.471,4.2,3.846l-3.048,2.018c-5.772-.5-9.886-4.522-14.458-7.281-7.625-4.6-15.806-8.3-22.909-13.764-1.377-1.06-3.54-1.533-2.734-4.046Z"/>
    <path class="cls-24" d="M159.782,10.9a4.213,4.213,0,0,1,3.085-.953,9.08,9.08,0,0,1,8.4,1.107c10.335,6.433,21.042,12.238,31.547,18.386,1.675.98,3.632,1.864,3.151,4.426a10.575,10.575,0,0,1-5.014,1.919c-9.36-3.866-17.644-9.673-26.319-14.756-3.988-2.337-8.394-3.955-12.015-6.915C161.5,13.2,159.909,12.7,159.782,10.9Z"/>
    <path class="cls-46" d="M265.994,59.8c-2.026-5.3-7.537-6.29-11.62-8.583-8.78-4.931-17.246-10.378-26.036-15.274a21.507,21.507,0,0,0-2.746-1.082,8.77,8.77,0,0,1,4.227-1.957,6.6,6.6,0,0,1,5.22.964c8.416,5.218,17.161,9.881,25.518,15.188a62.894,62.894,0,0,0,7.819,4.344c1.568.707,3.2,1.231,2.6,3.491C269.444,58.077,268.026,59.461,265.994,59.8Z"/>
    <path class="cls-29" d="M101,27c2.443,3.571,6.587,5.174,10.011,6.976,8.457,4.45,16.169,10.146,24.788,14.278,1.892.907,3.472,2.463,5.2,3.72l-5,1.946c-10.441-4.976-20.161-11.224-30.1-17.084a45.594,45.594,0,0,0-6.183-3.163c-2.157-.863-3.788-2.075-3.729-4.674C97.538,28.03,99.027,26.91,101,27Z"/>
    <path class="cls-12" d="M138.865,15.944a11.416,11.416,0,0,1,6.571,1.975c9.877,6.44,20.242,12.049,30.532,17.787a15.182,15.182,0,0,1,6,5.151l-4.017.953c-6.671-1.3-11.714-5.858-17.412-9.018-7.484-4.15-14.783-8.655-22.3-12.78-1.369-.751-3.219-1.173-3.569-3.163A6.316,6.316,0,0,1,138.865,15.944Z"/>
    <path class="cls-39" d="M159.782,10.9c9.265,4.521,18.036,9.924,26.787,15.329,4.888,3.019,10.82,4.539,14.387,9.557l-3.975,1.123c-7-1.419-12.247-6.236-18.251-9.547q-9.7-5.349-19.183-11.126c-1.685-1.024-3.663-1.9-2.671-4.522A3.8,3.8,0,0,1,159.782,10.9Z"/>
    <path class="cls-32" d="M406.992,151.979c-6.788-6.172-15.347-9.536-22.905-14.481-5.622-3.678-11.933-6.232-17.126-10.591a5.391,5.391,0,0,1,3.113-1.868c3.087-.707,5.7.89,7.881,2.431,9.072,6.4,19.186,11.032,28.426,17.107,1.842,1.211,5.08,1.64,4.548,5.13Z"/>
    <path class="cls-50" d="M410.93,149.707c-8.871-6.23-18.476-11.244-27.769-16.776-4.377-2.605-8.725-5.26-13.086-7.893a7.153,7.153,0,0,1,3.768-2.376c11.969,8.784,25.472,15.067,37.838,23.2a25.087,25.087,0,0,1,2.263,1.888Z"/>
    <path class="cls-46" d="M318.016,88.037c-.3-2.4-2.3-2.924-4.037-3.936-12.04-6.992-24.014-14.1-36.009-21.17l3.919-2.162c1.589-.152,2.769.678,4.095,1.428q16.639,9.408,33.1,19.118c1.782,1.053,3.561,1.963,2.878,4.52A8.7,8.7,0,0,1,318.016,88.037Z"/>
    <path class="cls-10" d="M149.983,48.9c-4.678-3.816-10.183-6.285-15.309-9.37-6.094-3.667-12.392-7.013-18.344-10.893a22.577,22.577,0,0,0-9.635-3.751,12.4,12.4,0,0,1,5.945-2.019c4.614-.888,7.864,2.373,11.2,4.353,9.052,5.378,18.305,10.4,27.331,15.811,1.58.948,4.328,1.717,2.825,4.731Z"/>
    <path class="cls-41" d="M244.826,122.926c8.612,4.146,16.7,9.226,24.8,14.242,5.55,3.435,12.185,5.27,16.364,10.79A6.641,6.641,0,0,1,282,149c-4.71-.329-8.056-3.66-11.8-5.823-8.445-4.875-17.129-9.366-25.259-14.785-1.668-1.112-3.562-2-3.183-4.518A3.752,3.752,0,0,1,244.826,122.926Z"/>
    <path class="cls-16" d="M153.992,47.766c-3.406-4.589-8.956-5.9-13.514-8.7-9.148-5.613-18.545-10.821-27.839-16.2a3.8,3.8,0,0,1,3.045-.981c5.229-1.606,8.765,1.882,12.663,4.236,9.052,5.465,18.624,10.04,27.385,16,1.78,1.212,4.293,2.219,1.285,4.729Z"/>
    <path class="cls-51" d="M135.927,62.972c6.737,1.673,11.913,6.391,17.963,9.428,8.729,4.382,16.745,10.185,25.064,15.381l-4.961,2.027c-2.533-4.406-7.159-6.428-11.229-8.491-8.755-4.437-17.05-9.6-25.5-14.521a7.269,7.269,0,0,1-3.316-2.932A1.981,1.981,0,0,1,135.927,62.972Z"/>
    <path class="cls-46" d="M62.52,114.844c11.219,4.612,21.242,11.39,31.507,17.686,3.035,1.862,7.042,2.28,9.085,5.713l-1.835,1.9c-2.38,1.028-4.166-.415-5.976-1.519-10.6-6.463-21.639-12.179-32.212-18.694-1.264-.779-2.914-1.132-2.23-3.2Z"/>
    <path class="cls-22" d="M134.677,16.85c4.993.672,8.643,4.1,12.746,6.474,10.3,5.948,20.92,11.393,30.53,18.486L173,42.881c-4.294-4.541-10.183-6.668-15.311-9.919-8.088-5.127-16.572-9.631-24.926-14.332a10.647,10.647,0,0,0-2.886-.678A8.181,8.181,0,0,1,134.677,16.85Z"/>
    <path class="cls-18" d="M95.986,28.994c8.491,4.413,16.261,10.03,24.778,14.477C126.1,46.258,132.075,48.778,136,53.914a4.276,4.276,0,0,1-2.95,1.19c-6.47-.4-10.9-5.1-16.171-7.932-6.5-3.488-12.811-7.344-19.287-10.906-2.287-1.258-5.459-1.948-5.863-5.407A7.646,7.646,0,0,1,95.986,28.994Z"/>
    <path class="cls-51" d="M188.766,92.9q15.119,8.8,30.241,17.6c2.559,1.485,5.166,2.888,7.739,4.35,1.632.927,3,2.088,3.254,4.112l-2.03.814c-7.848-4.708-15.576-9.637-23.59-14.044-4.881-2.684-9.949-5.034-14.465-8.326a17.952,17.952,0,0,0-6.369-2.557A10.334,10.334,0,0,1,188.766,92.9Z"/>
    <path class="cls-46" d="M205.97,33.868c-12.235-8.528-25.7-15-38.279-22.961-1.46-.924-3.163-.9-4.824-.958a15.272,15.272,0,0,1,6.052-1.994c3.555-.67,5.809,1.96,8.394,3.505,9.908,5.925,20.126,11.3,30.048,17.2,1.606.954,3.313,1.748,2.592,4.122C208.679,33.341,207.486,34.2,205.97,33.868Z"/>
    <path class="cls-31" d="M157.015,46.857c.779-1.647-.21-2.369-1.485-3.1-12.035-6.9-24.039-13.855-36.091-20.723a17.521,17.521,0,0,0-3.755-1.145,17.744,17.744,0,0,1,7.224-2.114c4.53,5.329,11.158,7.487,16.856,11.027,6.149,3.819,12.63,7.1,18.89,10.745,1.479.861,3.339,1.869,2.375,4.258Z"/>
    <path class="cls-49" d="M332.786,88.911c10.65,3.987,19.758,10.82,29.668,16.176,4.026,2.176,8.448,3.964,11.5,7.688l-2.964,1.976c-5.74-.88-9.92-4.911-14.791-7.5-8.107-4.309-15.791-9.4-23.951-13.637-1.195-.621-2.361-1.231-2.565-2.757A5.676,5.676,0,0,1,332.786,88.911Z"/>
    <path class="cls-51" d="M241.753,123.87c7.119,6.039,15.65,9.827,23.551,14.6C270.941,141.879,276.86,144.807,282,149l-5.98,1.835c-6.946-5.129-14.763-8.823-22.057-13.376-6.132-3.828-13.068-6.393-18.314-11.617A12.768,12.768,0,0,1,241.753,123.87Z"/>
    <path class="cls-51" d="M181.005,96.043c5.733,3.54,11.382,7.227,17.219,10.586,8.573,4.933,17.281,9.631,25.932,14.43l-5.078,1.973c-11.794-8.792-25.191-14.941-37.573-22.764-1.372-.867-3.107-1.282-3.5-3.2A3.236,3.236,0,0,1,181.005,96.043Z"/>
    <path class="cls-43" d="M156.876,11.715c5.634,5.821,13.353,8.362,19.96,12.657,6.63,4.31,13.882,7.629,20.144,12.538A6.655,6.655,0,0,1,193,38q-18.554-11.012-37.111-22.019c-1.415-.838-3.046-1.376-3.886-2.962A10.421,10.421,0,0,1,156.876,11.715Z"/>
    <path class="cls-49" d="M321.963,85.835c-1.144-1.98-3.147-2.814-5.015-3.887q-15.208-8.737-30.339-17.607a48.923,48.923,0,0,1-4.72-3.572c.768-1.054,1.605-1.989,3.1-1.8,7.515,5.8,16.146,9.755,24.218,14.635,5.382,3.254,11.108,5.982,15.773,10.33Z"/>
    <path class="cls-51" d="M116.248,63.12Q98.7,52.6,81.14,42.1c-1.845-1.1-3.854-1.911-5.086-3.8L78.911,36.8c5.492,1.4,10.233,4.258,14.976,7.274,7.214,4.587,14.954,8.31,22.044,13.129,1.626,1.105,3.546,1.8,4.26,3.873A7.433,7.433,0,0,1,116.248,63.12Z"/>
    <path class="cls-46" d="M329.681,90.856c10.994,4.275,20.349,11.5,30.605,17.1,3.682,2.013,7.9,3.337,10.7,6.79l-3.058,1.96c-7.393-6.125-16.064-10.183-24.353-14.819-5.691-3.183-10.9-7.423-17.484-8.863Z"/>
    <path class="cls-8" d="M168.389,92.181c-8.784-4.827-17.641-9.528-26.32-14.536-4.142-2.39-7.986-5.284-12.349-7.337-1.307-.615-3.552-.782-2.719-3.3a2.214,2.214,0,0,1,2.007-.959l42,24.95A3.488,3.488,0,0,1,168.389,92.181Z"/>
    <path class="cls-16" d="M204.035,139.185l3.973-2c13.586,7.233,26.521,15.617,40.195,22.695a2.049,2.049,0,0,1,.888,1.158,8.276,8.276,0,0,1-4.125,1.953c-1.978,1.114-3.823.475-5.573-.524-11-6.283-21.711-13.066-32.9-19.033C204.846,142.55,203.335,141.48,204.035,139.185Z"/>
    <path class="cls-52" d="M269.058,153.023l-6,2.125c-7.179-2.4-12.822-7.585-19.581-10.761-5.4-2.54-10.345-5.931-15.571-8.807-2.131-1.173-4.658-2.235-3.9-5.522l4.975-1.923c4.555,4.765,10.862,6.736,16.267,10.148C253.141,143.264,261.6,147.335,269.058,153.023Z"/>
    <path class="cls-27" d="M91.726,30.86Q110.756,41.877,129.78,52.9c1.133.658,2.18,1.463,3.267,2.2A7.575,7.575,0,0,1,129,56.893a20.368,20.368,0,0,1-7.13-3.063c-9.656-5.928-19.73-11.153-29.3-17.245-1.866-1.188-3.832-2.211-2.722-4.977Z"/>
    <path class="cls-41" d="M89.849,31.608c1,2.323,3.141,3.252,5.159,4.428q16.681,9.717,33.271,19.59c.362.215.483.836.717,1.268l-4,1.92c-8.459-4.168-16.294-9.43-24.528-13.994-3.9-2.159-7.983-4.018-11.58-6.664-1.53-1.126-3.6-1.9-3.973-4.187A11.214,11.214,0,0,1,89.849,31.608Z"/>
    <path class="cls-49" d="M270.976,56.886c-3.825-3.15-8.561-4.72-12.712-7.387-9.228-5.929-18.935-11.112-28.446-16.6a8.013,8.013,0,0,1,4.122-2.021c7.211,5.67,15.686,9.285,23.284,14.306,5.509,3.64,11.93,5.83,16.727,10.577C273.074,56.441,272.238,57.226,270.976,56.886Z"/>
    <path class="cls-29" d="M217,133.058l4-1.822c12.24,7.269,24.659,14.224,37.091,21.157,1.343.749,3.014,1.786,2.039,3.947l-1.957.73a5.679,5.679,0,0,1-5.231-.245c-11.372-7.026-23.176-13.317-34.55-20.34C217,135.622,215.8,134.885,217,133.058Z"/>
    <path class="cls-51" d="M84.913,33.967q12.4,7.146,24.8,14.3c3.845,2.232,7.672,4.5,11.44,6.861,1.5.943,3.281,1.708,3.837,3.684l-2.035.984c-3.289.58-5.78-1.509-8.124-3.036C104.6,50.1,93.76,44.5,83.321,38.206c-.975-.588-2.176-.91-2.445-2.256A7.382,7.382,0,0,1,84.913,33.967Z"/>
    <path class="cls-23" d="M187.027,149.08l2.982-1.923c13.206,6.739,25.635,14.844,38.616,21.979a2.748,2.748,0,0,1,1.465,1.9l-3.147,1.936c-3.926,1.369-6.6-1.449-9.462-3.1-9.546-5.493-19.26-10.7-28.565-16.611C187.383,152.29,185.493,151.45,187.027,149.08Z"/>
    <path class="cls-53" d="M204.035,139.185c4.967,5.068,11.782,7.15,17.612,10.832,7.52,4.748,14.935,9.75,23.319,12.971a8.169,8.169,0,0,1-3.985,2c-3.874.825-6.6-2-9.357-3.619-9.36-5.491-18.841-10.779-28.132-16.386-1.47-.887-3.527-1.587-2.533-4.081Z"/>
    <path class="cls-19" d="M217,133.058c2.168,3.105,5.811,4.172,8.807,6.007,9.7,5.941,19.672,11.435,29.564,17.057a15.222,15.222,0,0,0,2.8.948,10.25,10.25,0,0,1-4.908,2.063c-3.492.472-5.814-2.2-8.3-3.69-9.446-5.65-19.307-10.6-28.451-16.754-1.5-1.011-3.915-1.671-2.511-4.409Z"/>
    <path class="cls-54" d="M216.231,180.1l-4.156,3.077c-7.778-4.341-15.66-8.5-23.167-13.316A25.738,25.738,0,0,0,180.8,166.2l.1.055c-1.221-1.646-3.313-2.078-4.746-3.363-1.3-1.164-3.8-2-2.137-4.617l1.91-1.413c5.558.9,9.709,4.718,14.345,7.352,7.588,4.312,15.345,8.362,22.717,13.06C214.215,178.053,215.789,178.425,216.231,180.1Z"/>
    <path class="cls-47" d="M235.648,125.838c3.7.257,6.267,2.9,9.263,4.555,9.457,5.219,18.764,10.712,28.106,16.139,1.621.942,4.022,1.461,3,4.3l-.432.25-.5-.048c-2.056.785-3.88.031-5.581-.984-10.8-6.441-21.709-12.691-32.555-19.049-1.488-.872-5.074-1.881-1.956-4.98A.436.436,0,0,1,235.648,125.838Z"/>
    <path class="cls-12" d="M230.089,171.035c-7.377-1.9-12.943-7.176-19.552-10.527-6.21-3.149-12.118-6.892-18.178-10.338a4.11,4.11,0,0,1-2.35-3.012l2-1.144c3.336-.763,5.706,1.425,8.083,2.992,8.218,5.415,16.992,9.833,25.492,14.741,2.558,1.477,6.022,2.338,6.34,6.223Z"/>
    <path class="cls-43" d="M181.045,153.1a5.451,5.451,0,0,1,2.979-2.041c6.966,2.639,12.935,7.1,19.377,10.686q8.171,4.554,16.248,9.285c1.718,1.009,3.592,1.812,3.754,4.188l-3.2,2.189c-7.8-2.574-14.347-7.51-21.427-11.428-5.062-2.8-9.968-5.9-14.97-8.82C182.288,156.279,180.276,155.6,181.045,153.1Z"/>
    <path class="cls-24" d="M216.231,180.1c-7.884-2.753-14.655-7.649-21.837-11.691-6.3-3.546-13.081-6.483-18.466-11.55l2.134-1.65c2.745-.527,4.723,1.216,6.774,2.469,11.357,6.935,23.3,12.881,34.321,20.38Z"/>
    <path class="cls-13" d="M214.011,134.281c2.061,2.95,5.221,4.538,8.176,6.262,10.43,6.083,21.216,11.565,31.083,18.591l-2.114.928c-4.979.9-8.433-2.693-12-4.842-8.771-5.287-17.964-9.835-26.562-15.4-1.365-.884-3.168-1.378-2.561-3.622Z"/>
    <path class="cls-55" d="M223.4,175.223Q205.767,164.9,188.12,154.588c-1.606-.934-3.177-1.828-4.1-3.523a5.391,5.391,0,0,1,3-1.984c3.184,4.777,8.606,6.323,13.2,9,8.806,5.132,17.341,10.765,26.711,14.888Z"/>
    <path class="cls-28" d="M195.036,144.15a8.207,8.207,0,0,1,3.955-2.176c10.352,7.026,21.851,12.134,32.143,19.281,2.5,1.737,5.961,1.99,7.9,4.757a7.746,7.746,0,0,1-3.87,2.072c-3.747.842-6.24-1.942-8.866-3.562-9.25-5.708-19.1-10.376-28.121-16.456C196.751,147.106,194.735,146.53,195.036,144.15Z"/>
    <path class="cls-22" d="M195.036,144.15c7.309,5.872,15.967,9.491,23.909,14.308,5.375,3.26,10.81,6.421,16.217,9.627a5.717,5.717,0,0,1-3.242,1.885c-8.875-6.716-19.186-11.019-28.515-16.975-3.755-2.4-7.6-4.658-11.4-6.981A5.389,5.389,0,0,1,195.036,144.15Z"/>
    <path class="cls-47" d="M80.876,35.95C87.791,38.021,93.262,42.806,99.6,46c8.058,4.059,15.595,9.15,23.357,13.8l-2.767,1.285c-9.129-5.3-18.459-10.293-27.3-16.033-4.563-2.961-10.167-4.09-13.977-8.243C79.277,35.857,80.089,35.932,80.876,35.95Z"/>
    <path class="cls-14" d="M239.032,166.012c-10.2-3.36-18.5-10.193-27.791-15.217-4.45-2.407-9.639-3.84-12.249-8.821l1.967-1.069c4.781,4.936,11.383,7.048,16.946,10.811,7.331,4.959,15.352,8.9,23.076,13.275Z"/>
    <path class="cls-56" d="M235,126.021c-.785,1.764.611,2.441,1.7,3.081q18.215,10.744,36.489,21.389a7.931,7.931,0,0,0,1.908.543,5.137,5.137,0,0,1-3.573,1.12c-1.731.627-3.2-.019-4.665-.887-11.306-6.693-22.7-13.23-34.059-19.836-1.3-.758-3.354-1.087-2.794-3.435A8.929,8.929,0,0,1,235,126.021Z"/>
    <path class="cls-39" d="M219.157,178.059c-1.425-.39-3.014-.5-4.249-1.213-12.316-7.154-24.573-14.409-36.847-21.636l2.984-2.105c9.395,6.825,19.727,12.1,29.688,17.993,3.268,1.933,6.912,3.311,9.468,6.315Z"/>
    <path class="cls-10" d="M210.033,136.192c6.081,4.93,13.159,8.234,19.907,12.053,7.044,3.986,13.755,8.579,21.216,11.816l-2.066.974c-3.728-.008-6.5-2.366-9.485-4.046-9.8-5.511-19.489-11.213-29.237-16.813a4.142,4.142,0,0,1-2.36-2.994Z"/>
    <path class="cls-57" d="M260.135,156.34c-2.9-4.75-8.361-5.658-12.66-8.267-7.322-4.443-14.948-8.383-22.329-12.734-1.618-.954-3.454-2.043-4.141-4.1l3-1.179c4.246,5.476,10.843,7.438,16.443,10.855,7.605,4.64,15.89,8.184,22.608,14.236C262.3,156.085,261.195,156.15,260.135,156.34Z"/>
    <path class="cls-49" d="M209.953,32.78c-2.342-3.21-5.957-4.676-9.217-6.573-10.568-6.15-21.206-12.178-31.817-18.253a4.067,4.067,0,0,1,2.939-1.031q18.6,10.57,37.186,21.165c1.549.888,3.285,1.7,3.952,3.608Z"/>
    <path class="cls-40" d="M230,128c11.546,6.771,23.054,13.607,34.669,20.256,2.276,1.3,4,3.614,6.848,3.9a2.843,2.843,0,0,1-2.459.868c-5.371-1-9.448-4.593-14.046-7.11-7.235-3.961-14.4-8.063-21.418-12.4-1.943-1.2-5.583-1.483-4.61-5.382Z"/>
    <path class="cls-49" d="M108.046,145.142c2.217,4.55,7.24,4.937,10.936,7.263,9.522,5.995,19.23,11.69,29.313,16.713l-1.991,1.99c-11.906-5.738-22.829-13.184-34.247-19.77-2.086-1.2-4.787-1.629-5.986-4.147Z"/>
    <path class="cls-58" d="M60.86,116.73c9.1,6.4,19.083,11.3,28.615,16.974,3.85,2.29,7.864,4.3,11.8,6.441l-1.883,2q-14.036-7.973-28.069-15.952c-4.167-2.379-8.294-4.828-12.439-7.245Z"/>
    <path class="cls-49" d="M13.041,89.129c1.636,4.8,6.594,5.2,10.112,7.382,9.733,6.036,19.712,11.677,29.593,17.474l-1.794,2C38.59,108.7,26.52,100.915,13.747,94.341a6.125,6.125,0,0,1-2.882-2.614Z"/>
    <path class="cls-59" d="M180.8,166.2c3.382-1.563,5.831.879,8.116,2.4,6.307,4.194,13.18,7.334,19.659,11.188a8.472,8.472,0,0,1,3.5,3.393c-.621.843-1.355.751-2.153.277Q195.364,174.824,180.8,166.2Z"/>
    <path class="cls-59" d="M174.018,158.272c.685,4.048,5.66,4.4,6.883,7.979-2.319-1.217-4.6-2.511-6.967-3.635C170.626,161.044,171.056,159.664,174.018,158.272Z"/>
    <path class="cls-2" d="M338.553,228.4a24.778,24.778,0,0,0-28.879-18.637c-11.116,2.044-19.118,10.75-20.462,22.263-1.452,12.428,4.719,23.68,15.376,28.177,1.171.494,2.7.41,3.412,1.8h11c.742-1.2,2.081-.834,3.142-1.17C334.829,256.82,342.108,242.461,338.553,228.4Zm-17.21,18.113c-1.485,2.934-3.717,4.6-7.091,4.623a7.127,7.127,0,0,1-7.092-4.6,28.327,28.327,0,0,1-.283-21.418,7.438,7.438,0,0,1,7.327-5.07c3.544-.017,5.938,1.882,7.415,5,1.619,3.411,1.641,7.094,1.728,10.544C323.147,239.464,323.057,243.128,321.343,246.514Z"/>
    <path class="cls-2" d="M67.5,233.821c-.184-.057-.266-.441-.49-.842,1.017-.594,2.013-1.148,2.981-1.747a10.506,10.506,0,0,0,5.27-10.536c-.384-4.533-3.14-7.186-7.08-8.832a23.457,23.457,0,0,0-9.271-1.683c-5.829.029-11.673.249-17.484-.074-4.041-.225-5.433.849-5.358,5.159.265,15.152.087,30.312.077,45.469l23.87.379a73.034,73.034,0,0,0,7.8-1.66c6.982-2.267,11.005-7.564,10.856-13.912C78.54,240.011,74.8,236.1,67.5,233.821Zm-15.98-9.236c.7-2.368-1.589-6.167,3.5-6,4.148.137,6.706,2.168,6.566,5.672-.142,3.563-3.117,6-7.125,6C49.476,230.257,52.588,226.4,51.523,224.585Zm3.134,28.2c-3.022-.028-3.022-.028-3.02-7.589.746-2.276-2.156-6.874,4.02-6.5,5.007.305,7.436,2.3,7.32,6.725C62.861,249.831,59.475,252.828,54.657,252.783Z"/>
  </g>
</svg>
