<svg id="Layer_1" data-name="Layer 1" xmlns="http://www.w3.org/2000/svg" viewBox="0 0 545.971 119.578">
  <defs>
    <style>
      .cls-1 {
        fill: #d23036;
      }

      .cls-2 {
        fill: #676768;
      }
    </style>
  </defs>
  <title>a3c95fdf-0f1b-432b-a58c-268070bb1622</title>
  <g>
    <path class="cls-1" d="M181.448,23.8c-.871,9.089-1.787,18.174-2.578,27.27-.188,2.157-.224,4.041-3.227,3.613-3.257-.465-1.676-2.749-1.482-4.207,1.693-12.7,3.5-25.386,5.337-38.067.176-1.214-.451-3.035,1.15-3.486,1.987-.558,2.331,1.481,2.979,2.706,5.439,10.287,10.823,20.6,16.24,30.941,2.206-.866,2.527-2.848,3.348-4.351,4.943-9.05,9.771-18.163,14.649-27.248.538-1,.958-2.355,2.421-2.114,1.533.252,1.32,1.708,1.447,2.812,1.545,13.394,3.052,26.791,4.622,40.182.2,1.739.141,3.177-2.092,2.807-1.795-.3-4.616,1.469-4.909-2.3-.528-6.8-1.079-13.607-1.794-20.392-.263-2.495.508-6.421-1.956-6.992s-2.9,3.422-4.026,5.481c-3.352,6.131-6.434,12.409-9.734,18.57-.827,1.544-1.067,4.233-2.955,4.228-2.211-.006-2.427-2.833-3.3-4.5-3.644-6.918-7.115-13.926-10.671-20.891-.732-1.433-1.552-2.821-2.331-4.229Z" transform="translate(0)"/>
    <path class="cls-1" d="M400.655,41.586c0,12.058.029,12.275-11.447,13.823-6.664.9-13.407,1.832-20.134-.361-11.543-3.763-18.139-12.2-18.677-24.366-.586-13.266,5.463-23.7,16.726-27.925a40.234,40.234,0,0,1,31.142.785c2.517,1.1,2.842,5.657.566,7.191-1.7,1.144-2.3-.69-3.2-1.392-9.932-7.753-22.507-7.073-31.2,1.752-11.112,11.283-6.545,34.227,7.951,40.406a24.058,24.058,0,0,0,10.534,2.013c8.489-.293,10.746-2.437,10.744-10.7,0-2.831.168-5.676-.048-8.491-.234-3.043.444-4.064,3.935-4.165,3.777-.109,3.081,1.873,3.1,3.932C400.676,36.589,400.655,39.088,400.655,41.586Z" transform="translate(0)"/>
    <path class="cls-1" d="M45.344,47.636c.905,2.942-.082,4.621-2.329,5.678C31.616,58.675,15.93,58.655,6,47c-8.269-9.706-7.96-26.242.734-36.42C15.3.55,26.717.547,38.421,1.9A27.55,27.55,0,0,1,44.18,3.446c1.179.409,2.915.708,2.651,2.442-.242,1.587-.641,3.527-1.708,4.512-1.179,1.089-2.226-.829-3.242-1.513C27.149-1.043,9.77,7.39,8.5,25.144c-.153,2.148-.049,4.319.01,6.478C9.046,51.077,27.262,56.819,41.1,50,42.433,49.345,43.7,48.557,45.344,47.636Z" transform="translate(0)"/>
    <path class="cls-1" d="M284.874,20.841q0,13.652,0,27.3c0,1.333-.026,2.666,0,4,.032,1.513-.3,2.531-2.176,2.546-1.977.015-2.077-1.174-2.076-2.6q0-20.243.015-40.487c0-1.087-.308-2.477,1.3-2.832,1.988-.439,3.021,1.008,4.139,2.235q12.616,13.857,25.233,27.714c1.106,1.214,2.263,2.381,4.368,4.59,0-8.039,0-14.912,0-21.785q0-4.748.01-9.5c0-1.381.013-2.646,2-2.689,1.8-.039,2.3.8,2.3,2.407q-.027,20.243-.013,40.486c0,.964.149,2.124-1.141,2.434-1.556.374-2.428-.749-3.324-1.743Q303.626,39.75,291.741,26.578c-1.877-2.079-3.768-4.146-5.652-6.218Z" transform="translate(0)"/>
    <path class="cls-1" d="M452.854,32.2c-.005-6.33.084-12.661-.048-18.988-.055-2.639.533-3.984,3.554-3.885,5.824.191,11.658.062,17.488.062,1.549,0,3.022-.093,2.94,2.241-.09,2.551-1.843,1.747-3.192,1.8-.663.025-1.331-.111-2-.1-15.3.331-11.52-2.742-12.116,12.66-.093,2.4.853,3.317,3.206,3.16,3.318-.222,6.646-.3,9.969-.467,1.4-.072,2.585-.2,2.637,1.879.054,2.17-.884,2.451-2.737,2.294-4.121-.348-9.468-2.032-12.06.393-2.861,2.677-.457,8.2-1.037,12.418-.649,4.719,1.3,6.275,5.8,5.738,3.135-.374,6.313-.38,9.473-.546,1.347-.071,2.737-.316,2.727,1.806-.009,1.815-1,2.238-2.543,2.234-6.5-.019-12.993-.059-19.488.016-2.421.028-2.6-1.366-2.589-3.227C452.888,45.194,452.859,38.7,452.854,32.2Z" transform="translate(0)"/>
    <path class="cls-1" d="M529.657,55.022c-13.751,2.438-24.776-5.088-26.8-17.752-2.277-14.285,5.579-26.131,19.077-28.656,7.172-1.342,14.233-1.006,21.013,1.948,1.134.494,2.945.683,2.7,2.422-.2,1.417-.691,3.212-1.7,3.99-1.325,1.017-2.188-.941-3.18-1.653-9.4-6.746-21.985-4.746-28.094,4.522-6.258,9.493-3.18,24.922,6.054,30.774C522.128,52.772,525.953,53.743,529.657,55.022Z" transform="translate(0)"/>
    <path class="cls-1" d="M143.464,32.05c-.006-6.327.1-12.657-.057-18.98-.07-2.752.694-3.852,3.622-3.747,5.654.2,11.321.015,16.981.09,1.3.017,3.286-.711,3.19,1.851-.093,2.489-1.813,2.226-3.547,2.169-3.159-.1-6.323-.072-9.485-.087-.832,0-1.948-.317-2.452.1-4.211,3.466-1.01,8.189-1.9,12.262-.443,2.036.223,3.608,2.845,3.447,3.318-.2,6.643-.294,9.965-.422,1.444-.056,3.036-.553,3.075,1.925.036,2.26-1.116,2.3-2.845,2.175-4.131-.3-9.5-2-12.081.379-2.866,2.641-.5,8.188-1.049,12.413-.594,4.577,1.08,6.389,5.713,5.8,3.128-.4,6.311-.339,9.468-.523,1.339-.078,2.748-.452,2.864,1.639.1,1.765-.781,2.309-2.4,2.3-6.493-.033-12.988-.071-19.481.016-2.587.034-2.425-1.616-2.423-3.323Q143.479,41.791,143.464,32.05Z" transform="translate(0)"/>
    <path class="cls-2" d="M237.006,100.313c-3.074,5.369-3.028,10.3-4.732,14.634-.658,1.673-.1,4.355-3.151,4.28s-2.446-2.743-2.913-4.446c-1.755-6.407-3.349-12.858-4.937-19.309-.277-1.125-1.45-2.685.681-3.246,1.847-.486,2.594.533,2.987,2.334,1.231,5.644,2.648,11.248,4.247,17.926,2.669-5.9,3.286-11.326,4.939-16.418.5-1.538.115-3.953,2.891-3.957s2.417,2.241,2.834,3.9c1.335,5.3,2.631,10.617,4.275,17.274,1.744-6.638,3.127-12.05,4.6-17.437.442-1.613.3-4.382,2.979-3.542s.766,3.081.375,4.574c-1.685,6.427-3.571,12.8-5.349,19.2-.456,1.642-.746,3.31-3.063,3.169-2.143-.131-2.039-1.908-2.416-3.247C239.923,111.273,238.678,106.519,237.006,100.313Z" transform="translate(0)"/>
    <path class="cls-1" d="M109.813,31.937c0-6.487.062-12.975-.034-19.46-.034-2.289.581-3.188,3.1-3.183,2.6,0,2.979,1.117,2.966,3.283-.064,11.144.216,22.3-.148,33.428-.151,4.626,1.487,5.781,5.685,5.437,3.447-.283,6.941.028,10.414.029,1.387,0,2.258.421,2.069,1.995-.166,1.38-1.233,1.359-2.219,1.361-6.32.016-12.642-.059-18.961.044-2.626.043-2.917-1.381-2.9-3.474C109.855,44.911,109.813,38.424,109.813,31.937Z" transform="translate(0)"/>
    <path class="cls-1" d="M486.736,31.64q0-9.248,0-18.5c0-1.971-.44-3.93,2.843-3.915,2.886.013,3.221,1.246,3.208,3.608q-.111,19.246-.013,38.492c.007,2.066-.165,3.379-2.867,3.433-2.909.058-3.241-1.272-3.2-3.626C486.8,44.639,486.737,38.139,486.736,31.64Z" transform="translate(0)"/>
    <path class="cls-2" d="M309.655,105.406c0-3.165.208-6.347-.057-9.489-.271-3.218,1.069-4.07,4.022-3.853,2.816.207,5.66.031,8.491.049,1.009.007,2.137.052,2.232,1.388.116,1.631-1.088,1.824-2.339,1.835a31.036,31.036,0,0,1-3.994-.012c-3.272-.4-4.711.5-4.687,4.239.023,3.6,1.552,3.989,4.489,3.995,1.9,0,5.36-1.4,5.5,1.275.164,3.236-3.392,1.666-5.134,1.584-3.615-.17-4.955.776-4.857,4.67.093,3.719.8,5.435,4.969,5.168,2.069-.133,6.17-1.684,6.128,1.482-.039,2.935-4.1,1.387-6.313,1.437-8.441.189-8.444.067-8.444-8.271Q309.654,108.154,309.655,105.406Z" transform="translate(0)"/>
    <path class="cls-2" d="M386.835,119.53a22.664,22.664,0,0,1-2.672-.461c-1.248-.329-2.856-.544-2.535-2.415.4-2.327,1.992-1.109,3.081-.768a10.349,10.349,0,0,0,5.412.342,4.154,4.154,0,0,0,3.486-3.172,4.05,4.05,0,0,0-1.963-4.72c-1.714-1.005-3.61-1.7-5.357-2.652-4.543-2.485-5.917-6.648-3.488-10.344,2.2-3.35,9.045-4.948,12.215-2.917a1.593,1.593,0,0,1,.883,2.018,1.44,1.44,0,0,1-1.911,1.03,17.785,17.785,0,0,0-3.922-.573c-1.871.08-3.728.63-4.3,2.748a3.915,3.915,0,0,0,2.388,4.9c1.048.507,2.106.994,3.177,1.451,4.229,1.8,7.063,4.528,6.013,9.579C396.518,117.546,392.9,119.694,386.835,119.53Z" transform="translate(0)"/>
    <path class="cls-2" d="M280.491,104.437c2.05-3.828,3.818-6.975,5.429-10.2.882-1.765,2.268-2.859,3.922-1.823,1.615,1.012-.113,2.335-.677,3.287-3.891,6.561-8.567,12.814-7.044,21.192a1.766,1.766,0,0,1-1.911,2.3c-1.4,0-1.757-1.005-1.571-2.006,1.58-8.52-3.272-14.938-6.946-21.763-.47-.873-2.025-1.986-.528-2.939,1.365-.869,2.879-.471,3.741,1.209C276.623,97.035,278.372,100.365,280.491,104.437Z" transform="translate(0)"/>
    <path class="cls-2" d="M149.917,105.7c0-3.157-.1-6.319.046-9.469.073-1.567-1.045-4.129,2.063-4.033,2.737.085,1.693,2.419,1.726,3.832.119,5.148.287,10.316-.033,15.447-.238,3.814,1.1,4.885,4.789,4.76,2.149-.073,6.24-1.577,6.26,1.41.021,3.189-4.021,1.45-6.161,1.508-8.69.234-8.694.1-8.693-8.469Q149.915,108.2,149.917,105.7Z" transform="translate(0)"/>
    <path class="cls-1" d="M531.366,53.87c7.344-1.188,8.256-2.248,8.261-8.923,0-2.646.061-5.294-.013-7.938-.056-2.031.113-3.369,2.832-3.413,2.8-.045,3.381,1.091,3.264,3.511-.136,2.8.1,5.63-.07,8.43-.158,2.557,1.319,5.964-.933,7.49-3.251,2.2-7.5,2.135-11.441,2.348C532.792,55.4,532.275,54.617,531.366,53.87Z" transform="translate(0)"/>
    <path class="cls-1" d="M428.606,32.949c2.345-.885,4.11-1.406,5.745-2.2,5.5-2.657,7.925-6.874,7.249-12.378-.623-5.077-3.949-8.556-10.159-9.257-5.585-.631-11.276-.337-16.92-.431-2.636-.044-2.227,1.96-2.232,3.537-.034,12.969,0,25.939-.055,38.909-.009,2.249.135,3.722,3.145,3.633,2.672-.079,3.422-.936,3.342-3.478-.157-4.983-.08-9.976-.025-14.963.012-1.053-.521-2.555,1.092-2.9,1.1-.235,1.737.805,2.351,1.582,4.021,5.086,8.369,9.956,11.937,15.343,2.865,4.326,6.219,5.3,11.2,3.713Zm-7.548-2.525c-1.684.022-2.407-.709-2.378-2.375.043-2.488.011-4.978.011-7.467h-.023a5.048,5.048,0,0,1,.021-1.487c.794-2.447-1.958-5.992,1.679-7.4,4.454-1.729,11.834.993,13.68,4.781,1.976,4.055,1.164,7.751-2.272,10.75C428.7,29.908,424.945,30.373,421.058,30.425Z" transform="translate(0)"/>
    <path class="cls-1" d="M97.784,17.154c-3.9-6.469-10.659-7.711-16.831-8.633-8.127-1.214-16.453-.343-22.663,6.5-7.34,8.086-9.072,17.59-4.966,27.328C57.392,52,65.9,55.906,77.733,55.954c8.338-.534,17.3-3.242,22.018-12.7C104.149,34.438,102.888,25.619,97.784,17.154ZM83.318,52.433c-2.359,1.272-4.479.4-6.426.933-8.986-.251-15.9-5.831-17.7-14.465-1.758-8.452.343-16.044,5.459-22.993,6.055-8.223,20.526-5.391,25.787.958C99.3,27.553,95.56,45.833,83.318,52.433Z" transform="translate(0)"/>
    <path class="cls-1" d="M271.711,50.472c-4.172-9.78-8.512-19.488-12.8-29.219-1.34-3.042-2.758-6.055-3.974-9.146a4.018,4.018,0,0,0-2.829-2.558c-1.822-.4-1.869,1.553-2.386,2.632-1.723,3.595-3.314,7.254-4.944,10.893q-6.99,15.6-13.983,31.237c5.479,2.013,6.14-1.786,7.334-5.07,4.625-12.718,4.649-12.564,16.582-12.657,3.287-.026,4.748,1.213,5.749,4.063,1.43,4.072,3.149,8.042,4.732,12.06,1.43,3.629,4.809,2.326,6.841,1.82C274.38,53.942,272.241,51.715,271.711,50.472Zm-17.206-17.1c-3.091-.164-6.2-.039-10-.039l6.481-15.744c2.082,4.916,3.749,8.91,5.466,12.881C257.337,32.518,257.05,33.51,254.505,33.375Z" transform="translate(0)"/>
    <path class="cls-2" d="M361.823,116.171c-.511-5.045-5.348-9.932-.266-15.251.884-.925.471-3.249-.394-4.784-2.488-4.412-6.77-4.141-10.969-4.235-3.6-.081-5.654.954-5.139,5.131a69.577,69.577,0,0,1,.065,8.487A36.84,36.84,0,0,0,345.2,112c.44,2.43-1.965,6.879,2.025,6.839,3.249-.032.911-4.4,1.609-6.726.461-1.532-1.223-3.991,1.635-4.462,2.66-.438,5.08.289,6.132,3.091a51.114,51.114,0,0,1,1.734,6.245c.354,1.5,1.068,2.495,2.716,2.227C363.488,118.818,361.935,117.281,361.823,116.171Zm-9.66-11.477c-4.338.33-3.214-2.611-3.32-4.841.049-2.439-.851-5.418,3.351-5.061,3.076.262,5.9,1.155,5.949,4.707C358.2,103.182,355.648,104.429,352.163,104.694Z" transform="translate(0)"/>
    <path class="cls-2" d="M204.471,116.222c-2.361-6.839-4.981-14.907-7.987-22.83-.857-2.26-4.366-1.735-5.267.784-2.687,7.515-5.177,15.1-7.744,22.657-.32.943-.828,1.987.708,2.3,1,.205,2.06.167,2.538-.975a19.158,19.158,0,0,0,1.309-3.76c.557-2.968,2.136-3.851,5.188-3.926,3.846-.095,6.376.6,6.944,4.9a7.247,7.247,0,0,0,1.771,3.452c.376.442,1.579.408,2.328.24C204.969,118.9,205.036,118.109,204.471,116.222Zm-13.261-9.1c-1.146-2.842,1.314-5.648,2.13-9.26,2.862,3.118,2.967,6.432,4.343,9.424C195.094,107.847,191.81,108.609,191.21,107.12Z" transform="translate(0)"/>
  </g>
</svg>
