<svg id="Layer_1" data-name="Layer 1" xmlns="http://www.w3.org/2000/svg" viewBox="0 0 420 61.133">
  <defs>
    <style>
      .cls-1 {
        fill: #0c4b7c;
      }

      .cls-2 {
        fill: #96979a;
      }
    </style>
  </defs>
  <title>d1768bff-4220-47bf-8fa6-71bd8ba8964a</title>
  <path class="cls-1" d="M420,32.59c-4.962-.2-8.742,3.056-13.13,4.536-1.888.637-.936,2.192-.473,3.368,1.1,2.783,2.316,5.517,3.388,8.309.281.732.568,1.86.217,2.349-.656.913-1.779.491-2.726.085-2.443-1.049-4.983-1.913-7.317-3.163-2.8-1.5-4.087-.688-5.051,2.179-1.214,3.61-2.84,7.083-4.4,10.881-2.12-2.091-2.5-4.794-3.507-7.142-3.12-7.3-3.071-7.332-10.6-4.223-2.116.874-4.213,1.791-7.359,3.131,1.672-4.242,2.669-7.717,4.359-10.813,1.976-3.619.883-5.161-2.7-6.312-3.264-1.047-6.36-2.618-10.561-4.394,4.734-1.989,8.431-3.646,12.209-5.09,2.2-.843,2.683-1.92,1.669-4.117-1.668-3.613-3.044-7.361-4.7-11.437,3.813.133,6.8,1.964,9.764,3.46,3.548,1.792,5.589,1.609,6.81-2.61.952-3.288,2.571-6.383,4.128-10.126,3.1,4.839,5.355,9.587,5.881,14.311.552,4.955-3.642,9.329-4.764,14.306.455.134.841.382,1.008.278,8.479-5.272,16.946-5.7,25.485-.109.605.4,1.57.241,2.368.342Z" transform="translate(0 0)"/>
  <path class="cls-2" d="M93.789,46.71c-2,.007-3.991.046-5.986,0-6.937-.158-9.617-3.277-8.581-10.2,1.122-7.5,4.6-14.558,4.247-22.363-.08-1.752,1.485-1.476,2.582-1.484,4.323-.032,8.648.071,12.968-.03,2.738-.063,2.917,1.072,2.293,3.393q-2.393,8.889-4.334,17.9c-.416,1.92-2.827,4.532.865,5.753,4.325,1.43,8.923-.028,9.7-3.2,1.654-6.755,4.1-13.371,4.43-20.382.119-2.535.75-3.588,3.4-3.473,3.817.165,7.65.135,11.47-.005,2.735-.1,3.528.924,2.953,3.57-2.073,9.544-5.673,18.756-6.162,28.648-.132,2.666-2.361,1.828-3.822,1.84C111.139,46.739,102.464,46.7,93.789,46.71Z" transform="translate(0 0)"/>
  <path class="cls-1" d="M216.964,19.123l-13.907,0c-.41-.434-.754-.354-1.043.139-2.737,2.065-1.752,3.254,1.027,3.406,3.986.218,7.994-.012,11.989.076,8.194.182,9.983,2.548,8.088,10.519-2.768,11.647-5.078,13.466-17.147,13.476q-10.244.009-20.488,0c-7.341-.014-7.341-.024-6.1-7.814,7.616,2.659,15.492,1.107,23.255,1.5,1.626.082,3.147-.257,3.254-2.222.14-2.553-1.959-1.74-3.224-1.773-4.328-.114-8.665.062-12.99-.1-6.316-.232-7.941-2.347-6.871-8.545,2.11-12.222,5.6-15.147,18.005-15.116,7.162.018,14.325-.028,21.487.033,1.213.01,3.069-.714,3.45.986.464,2.064.626,4.463-.847,6.218-1.059,1.261-2.641.845-4.087.048A11.411,11.411,0,0,0,218,19.223C217.7,18.756,217.354,18.693,216.964,19.123Z" transform="translate(0 0)"/>
  <path class="cls-1" d="M262.791,39.349c-.471,6.174-3.371,8.109-8.891,7.486-4.606-.519-9.317-.082-13.981-.106-7.3-.039-9.562-2.759-8.1-10.015.887-4.4,1.984-8.763,3.152-13.1.7-2.6,1.1-4.553-2.764-4.111-1.091.125-3.7.972-2.913-1.71.547-1.854-.42-5.45,3.314-5.039,3.913.431,5.91-.979,6.24-4.867.072-.844.328-1.9,1.243-1.94,4.983-.211,9.977-.447,14.957-.3,1.744.052,1.009,1.933.634,2.824-1.68,3.991.353,4.529,3.618,4.214a13.682,13.682,0,0,1,3.985.033c1.494.3,4.291-1.346,4.213,1.449-.067,2.41.01,5.568-4.533,5.541-9.971-.059-9.973.226-12.481,10.022C247.65,40.8,247.65,40.8,259.217,39.765,260.353,39.664,261.483,39.5,262.791,39.349Z" transform="translate(0 0)"/>
  <path class="cls-2" d="M60.777,46.7c-2.506-.26-6.481,1.28-8.16-.7-1.585-1.865,1.6-4.951,2.144-7.7,2.367-12,6.884-23.546,7.808-35.847C62.738.209,64,.622,65.21.608,69.364.56,73.522.7,77.672.557c2.865-.1,3.264.862,2.575,3.543-2.971,11.56-5.729,23.174-8.522,34.779C69.844,46.692,69.876,46.7,60.777,46.7Z" transform="translate(0 0)"/>
  <path class="cls-1" d="M338.942,17.534c4.748-5.9,10.313-4.732,15.55-4.884,2.139-.062,2.632.928,1.849,2.809a6.284,6.284,0,0,0-.309,1.459c-.617,4.025-1.2,6.8-7.052,5.836-8.729-1.431-10.017.114-12.2,8.913C335.7,36,334,40.242,334.376,44.815c.187,2.273-1.331,1.878-2.565,1.886-5.48.036-10.961.016-16.91.016,4.121-8.772,5.066-18.062,7.783-26.859.737-2.384-1.427-5.787,1.6-7,2.151-.864,4.924-.178,7.419-.183a24.923,24.923,0,0,0,3.49-.028C338.129,12.218,339.972,12.934,338.942,17.534Z" transform="translate(0 0)"/>
  <path class="cls-1" d="M416.468,4.475c-1.7,11.545-7.785,18.477-19.222,19.9C398.284,12.809,401.338,9.584,416.468,4.475Z" transform="translate(0 0)"/>
  <path class="cls-2" d="M202.015,19.258c.289-.493.632-.573,1.043-.139Z" transform="translate(0 0)"/>
  <path class="cls-2" d="M216.964,19.123c.389-.43.731-.368,1.032.1Z" transform="translate(0 0)"/>
  <path class="cls-2" d="M45.012,12.751a102.428,102.428,0,0,0-17.736.363c-.97-4.369,4.456-9.488.465-12.067C24.561-1.009,19.01.6,14.512.586c-.5,0-1,.017-1.5.04-.969.046-1.368.481-1.459,1.529-.749,8.656-3.48,16.9-5.639,25.234C4.322,33.541,4.368,40.316,0,45.59v1c6.141-.6,12.5-.709,18.456-.817,5.469-.1,11.628.555,17.45.826,7.29.338,11.042-2.708,13.067-9.772,1.374-4.793,2.589-9.644,3.6-14.526C53.815,16.32,51.207,12.981,45.012,12.751ZM34.43,26.777a75.177,75.177,0,0,0-1.884,7.707c-.584,4.312-2.687,6.217-6.9,5.2-4.495.813-5.447-1.212-4.418-5.029,1.034-3.833,1.945-7.7,2.875-11.559a4.166,4.166,0,0,1,4.12-3.54C35.333,18.855,36.159,19.741,34.43,26.777Z" transform="translate(0 0)"/>
  <path class="cls-2" d="M171.525,12.723c-8.644-.149-17.293-.125-25.939-.03-7.362.081-10.537,2.6-12.411,9.765-1.344,5.138-2.562,10.312-3.7,15.5-1.365,6.239.586,8.65,7.131,8.713,9.145.088,18.318-.4,27.427.177,5.94.378,8.529-1.957,9.317-7.746-8.021,1.25-15.659.451-23.271.657-1.9.051-3.269-.448-3.189-2.756.073-2.077.562-3.486,3.126-3.414,4.486.126,8.978.015,13.468.021,12.128.015,12.128.018,14.857-11.931C179.771,15.431,177.914,12.833,171.525,12.723Zm-16.861,13.7c-1-.77-4.873,2.355-4.7-2.364.164-4.425,3.307-4.879,6.708-4.427,1.927.255,5.208-1.521,5.129,2.528C161.721,26.318,159.13,27.431,154.665,26.421Z" transform="translate(0 0)"/>
  <path class="cls-1" d="M306.589,12.723c-7.993-.17-16.029.414-23.977-.212-6.03-.475-8.99,1.619-9.762,8.029,7.423-1.7,14.568-.712,21.677-.916,1.332-.038,3.405-.687,3.559,1.559.16,2.328-1.761,2.431-3.507,2.434-5.164.01-10.333-.109-15.492.068-6.34.217-9.357,2.669-11.147,8.769a54.031,54.031,0,0,0-1.627,6.792c-.76,4.845,1.224,7.276,6.214,7.431,5.159.161,10.33-.059,15.491.084,2.16.06,4.387-2.427,5.459-1.635,4.719,3.486,9.829.607,14.62,1.561.879.175,2.14.274,2.178-1.232.2-7.915,3.686-15.154,4.691-22.891C315.861,15.674,313.518,12.87,306.589,12.723Zm-17.6,27.071c-1.876-.1-5.03,1.56-5.165-2.432-.168-4.989,1.8-6.8,7.6-6.811,1.058,1.009,4.012-1.791,4.268,1.708C296.025,36.9,293.282,40.017,288.985,39.794Z" transform="translate(0 0)"/>
</svg>
