<svg id="Layer_1" data-name="Layer 1" xmlns="http://www.w3.org/2000/svg" viewBox="0 0 281.898 99.537">
  <defs>
    <style>
      .cls-1 {
        fill: #8d1b3d;
      }

      .cls-2 {
        fill: #8d1c3d;
      }
    </style>
  </defs>
  <title>2d4dde2b-3525-453c-8d1b-61d30d93ff72</title>
  <path class="cls-1" d="M81.907,0c1.329.245,2.653.518,3.988.721.467.071.612.236.611.7q-.02,6.2,0,12.4c0,.6-.212.537-.652.381a8.99,8.99,0,0,0-4.841-.568,4.041,4.041,0,0,0-3.135,3.825c-.385,3.23-.127,6.479-.2,9.719-.016.707.5.484.834.485q7.713.017,15.426.008c1.771,0,1.772,0,1.772-1.765,0-4.071.019-8.142-.017-12.212-.007-.733.2-.919.921-.915,5.2.03,10.406.037,15.609-.005.815-.007.924.268.919.984-.032,4.315.011,8.631-.04,12.946-.01.847.243,1.008,1.022.985,1.927-.056,3.856,0,5.784-.029.559-.008.732.165.729.73-.022,3.673-.029,7.346,0,11.018.006.681-.246.81-.853.8-1.928-.031-3.857.025-5.784-.03-.734-.021-.9.2-.894.909.022,11.814.008,23.629.033,35.443,0,.8-.142,1.077-1.02,1.069-5.172-.047-10.345-.038-15.517-.006-.732,0-.913-.207-.912-.924.022-11.814.007-23.629.035-35.443,0-.829-.2-1.056-1.04-1.05q-8.034.062-16.068,0c-.751,0-.959.161-.957.94.028,11.814.009,23.629.041,35.443,0,.86-.242,1.039-1.056,1.033-5.05-.037-10.1-.014-15.15-.022-1.3,0-1.144.174-1.145-1.192,0-11.692-.016-23.384.024-35.076,0-.969-.277-1.162-1.17-1.129-1.864.069-3.734,0-5.6.033-.551.01-.735-.122-.73-.705q.04-5.555,0-11.11c-.006-.648.234-.742.791-.734,1.958.027,3.918-.014,5.876.025.647.013.825-.187.824-.828-.005-3.824-.111-7.656.085-11.471.389-7.571,4.2-13.045,12.4-14.827A15.909,15.909,0,0,0,75.663,0Z"/>
  <path class="cls-2" d="M281.9,65.378c-.369.34-.3.83-.419,1.253-1.626,5.763-5.588,9.237-11.035,11.228a32.688,32.688,0,0,1-13.665,1.453,41.364,41.364,0,0,1-18.186-5.432,1.034,1.034,0,0,1-.581-1.423q1.663-5.906,3.232-11.838c.17-.642.322-.65.793-.258a27.355,27.355,0,0,0,14.933,6.393,15.5,15.5,0,0,0,5.739-.293c2.422-.658,3.518-2.2,3.219-4.481a3.561,3.561,0,0,0-2.327-2.837,26.487,26.487,0,0,0-5.186-1.482,42.049,42.049,0,0,1-10.391-3.482c-3.827-2.022-6.675-4.852-7.445-9.3-1.3-7.539,2.423-14.1,9.545-16.976a29.734,29.734,0,0,1,13.245-1.756,49.664,49.664,0,0,1,16.362,4.107c.588.25.766.451.555,1.125-1.1,3.526-2.142,7.07-3.179,10.614-.18.615-.333.766-.95.361a24.56,24.56,0,0,0-13.843-4.418,10.023,10.023,0,0,0-3.6.564,3.158,3.158,0,0,0-2.284,2.912,3.042,3.042,0,0,0,1.94,2.957,36.928,36.928,0,0,0,6.625,2.088,45.658,45.658,0,0,1,9.446,3.434c3.862,2.078,6.571,5.033,7.327,9.5.007.043.085.074.13.11Z"/>
  <path class="cls-1" d="M181.032,48.08c-2.119-12.115-12.1-20.846-22.837-21.895-6.288-.614-11.972.748-16.695,5.191a1.315,1.315,0,0,1-.8.521c0-1.118-.042-2.21.015-3.3.036-.7-.145-.925-.89-.919q-7.069.055-14.139,0c-.917-.009-1.2.173-1.2,1.162q.048,35.348.025,70.7h16.9c-.01-6.059.008-12.118-.042-18.177a65.728,65.728,0,0,0-.486-8.752,12.988,12.988,0,0,0,3.643,3.752,20.125,20.125,0,0,0,15.236,2.684A26.828,26.828,0,0,0,181.032,48.08Zm-28.244,17.3a12.675,12.675,0,1,1,12.891-12.626A12.74,12.74,0,0,1,152.788,65.378Z"/>
  <path class="cls-2" d="M52.715,48.106c-1.146-6.739-4.114-12.445-9.589-16.671-5.708-4.406-12.234-5.915-19.335-5.2C11.578,27.452,2.841,35.441.486,47.5A6.551,6.551,0,0,1,0,49.768V56.38c.238.078.176.291.2.458a25.669,25.669,0,0,0,2.977,8.989C9.194,76.561,22.657,81.9,34.736,78.32A24.691,24.691,0,0,0,49.548,67.2c.247-.412.479-.713-.2-1.016-3.962-1.756-7.9-3.556-11.847-5.355-.4-.183-.609-.159-.846.261a9.656,9.656,0,0,1-2,2.5c-2.8,2.488-6.126,2.993-9.693,2.519a10.909,10.909,0,0,1-9.214-8.845c-.175-1.151-.175-1.152.988-1.152q17.72,0,35.439.016c.7,0,.94-.172.944-.893A41.047,41.047,0,0,0,52.715,48.106ZM36.447,46.125H26.91c-3.3,0-6.6-.02-9.9.015-.679.007-.74-.232-.625-.794a10.238,10.238,0,0,1,10.407-8.531A10.335,10.335,0,0,1,37.371,44.9C37.665,46.124,37.665,46.125,36.447,46.125Z"/>
  <path class="cls-2" d="M210.864,25.98A26.712,26.712,0,1,0,237.594,52.7,26.7,26.7,0,0,0,210.864,25.98Zm.013,38.664a11.952,11.952,0,1,1,11.917-11.892A11.987,11.987,0,0,1,210.877,64.643Z"/>
</svg>
