<svg id="Layer_1" data-name="Layer 1" xmlns="http://www.w3.org/2000/svg" viewBox="0 0 303.597 96.66">
  <defs>
    <style>
      .cls-1 {
        fill: #083260;
      }

      .cls-2 {
        fill: #a31d64;
      }
    </style>
  </defs>
  <title>8b072a70-8c01-4d50-98b9-b2b4910afb8d</title>
  <path class="cls-1" d="M265.65,27.4c-5.983-1.553-7.865,1.96-8.85,6.777-1.921,9.391-4,18.748-5.877,28.148-1.085,5.445-5.29,2.831-8.011,2.932-3.732.138-1.617-2.761-1.273-4.334,1.725-7.883,3.019-15.928,5.573-23.544,3.3-9.856,10.878-17.354,23.02-17.668,2.676-.069,1.777,2.182,1.1,3.554-.53,1.067-.622,1.911.246,2.625,1.238,1.019,1.592-.523,2.273-.98,5.783-3.879,11.8-5.952,19.057-4.822,10.371,1.613,12.138,13.154,9.751,20.9-.437,1.416-1.762,1.278-2.9,1.43-7.565,1.013-15.119,2.13-22.7,3-1.951.224-2.468.9-2.543,2.751-.219,5.421,2.508,8.912,7.959,9.3A55.365,55.365,0,0,0,290.891,57c1.347-.111,3.46-1.676,3.8.185.387,2.142.656,5.454-2.376,6.3-7.3,2.026-14.65,3-21.5-1.647-5.566-3.771-6.474-9.528-5.9-15.441.46-4.7.908-9.567,3.773-13.772.938-1.377,3.124-2.913,1.945-4.738C269.563,26.226,267.242,27.74,265.65,27.4Zm9.115,12.675c4.562-.264,8.918-.054,13.044-.929,2.437-.517,6.129-.49,6.547-4.489.322-3.082.252-6.214-2.863-7.821-3.388-1.748-6.8-1.023-9.729,1.336C278.079,31.146,275.916,35.076,274.765,40.077Z"/>
  <path class="cls-1" d="M19.123,65.418C3.205,66.328-1.286,55.048.3,42.943,1.736,31.968,4.756,21.2,7.039,10.335,7.4,8.626,8.155,7.652,10.053,7.822a15.415,15.415,0,0,0,3.492.006c4.286-.6,5.755.333,4.208,5.126-1.973,6.113-2.693,12.62-4.425,18.826a203.887,203.887,0,0,0-4.7,21.434c-.54,3.244.62,4.061,3.325,4.68,3.786.866,7.567.025,11.336.368,1.9.173,4.035-.416,3.859,2.9-.151,2.832-1.03,4.372-4.023,4.265C21.789,65.375,20.455,65.414,19.123,65.418Z"/>
  <path class="cls-1" d="M144.918,65.127c-4.469.918-4.425-1.033-3.448-5.211,1.952-8.341,2.768-16.988,6.293-24.892,3.962-8.886,10.78-14.256,20.645-15.441,1.649-.2,2.752.145,2.414,1.972-.379,2.049.94,4.921-2.413,5.7a6.023,6.023,0,0,1-1.988.022c-8.654-.973-9.1,2.063-10.867,10.944-1.609,8.091-3.273,16.17-4.714,24.295C150.243,65.875,147.579,65.083,144.918,65.127Z"/>
  <path class="cls-2" d="M225.851,94.83c-7.351,2.618-5.092-5.379-8.682-7.207-.525,2.156-.945,4.193-1.529,6.182-.487,1.66-1.914,1.666-3.263,1.419-1.37-.25-1.177-1.293-.989-2.32,1.07-5.844,2.046-11.706,3.2-17.533.624-3.149,3.621-2.417,5.638-2.783,2.832-.514,6.11.278,7.345,2.756.889,1.785,1.31,4.83-.718,6.929-.773.8-1.541,1.864-2.512,2.17-3.316,1.044-2.564,2.945-1.067,4.778C224.581,90.82,225,92.692,225.851,94.83ZM217.872,80.6c.462,1.142-1.479,3.779,1.586,3.408,2.928-.354,4.273-2.768,4.615-5.587.247-2.043-.854-2.98-2.841-3.07C217.159,75.167,218.282,78.316,217.872,80.6Z"/>
  <path class="cls-2" d="M136.133,95.115c-3.785.387-6.673.393-6.793-3.878-.047-1.7-1.471-1.716-2.327-1.793-1.531-.138-1.064,1.328-1.1,2.2-.071,1.816.355,3.79-2.572,3.708-1.818-.051-2.923-.239-2.181-2.516,1.653-5.067,1.98-10.377,2.759-15.611.606-4.071,5.029-5.534,10.291-4.224,4.708,1.172,4.334,4.327,3.529,7.715-.336,1.412-1.132,3.144-2.948,2.734-1.765-.4-.872-2.184-.961-3.4-.132-1.8,1.122-4.238-2.091-4.608-4.587-.529-2.587,3.684-3.84,5.543-1.123,1.666-.814,3.271,1.813,3.137,3.9-.2,1.658,3.862,3.657,5.313C134.743,90.429,135.094,92.834,136.133,95.115Z"/>
  <path class="cls-2" d="M148.431,78.406c.156,4.111-4.94,5.832-1.657,9.761.392.469-.29,1.292-1.072,1.216-2.885-.28-3.017,2.088-3.658,3.838-.733,2-2.357,2.746-3.872,1.843-1.6-.954.062-2.216.615-3.316,2.292-4.556,4.517-9.146,6.811-13.7.664-1.319,1.452-2.578,2.231-3.835.89-1.436,2.344-.956,3.6-.908,1.73.065,1.388,1.509,1.533,2.592.727,5.416,1.175,10.873,2.658,16.173.38,1.357.945,3.057-1.548,3.269-1.882.16-2.353-.789-2.991-2.424C149.4,88.583,151.76,83.665,148.431,78.406Z"/>
  <path class="cls-2" d="M164.75,87.88c3.659-5.372,3.888-10.963,7.76-14.536.47-.434,1.832.1,2.893.192-2.347,7.189-6.345,13.316-9.089,20.011a2.5,2.5,0,0,1-2.669,1.772c-1.605-.088-1.807-1.132-1.886-2.38-.345-5.473-2.275-10.737-2.162-16.271.029-1.44-1.234-3.358,1.806-3.494s2.47,1.8,2.569,3.571C164.161,80.06,164.43,83.369,164.75,87.88Z"/>
  <path class="cls-2" d="M265.93,79.374c-1.382,2.86-3.844,4.924-3.373,8.78.223,1.821-3.056,4.1-4.83,6.1a1.46,1.46,0,0,1-1.413.007,2.3,2.3,0,0,1-.558-2.727c2.593-5.537,5.09-11.149,8.188-16.4.934-1.584,3.694-2.046,4.952.739,2.56,5.665,2.572,11.851,3.575,17.834.25,1.492-.822,1.513-1.829,1.618-1.639.171-2.111-.822-2.8-2.15C265.531,88.758,267.343,83.956,265.93,79.374Z"/>
  <path class="cls-2" d="M185.419,94.159c-.185.521-.215.779-.29.792C173.723,97,173.7,97,175.831,85.418c.6-3.255,1.546-6.456,1.962-9.73.4-3.162,2.605-2.353,4.462-2.465a8.523,8.523,0,0,1,2.484.02c1.41.346,3.978-1.2,4,1.222.02,1.843-2.459.953-3.762.933-3.256-.05-3.029,2.405-3.533,4.4-.693,2.748,1.341,2.4,2.892,2.5.987.064,1.513.42,1.541,1.458.02.711-.12,1.592-.8,1.573-2.922-.083-5.294.308-5.238,4.051C179.9,93,183.177,93.131,185.419,94.159Z"/>
  <path class="cls-2" d="M240.706,84.651c-4.064-.224-6.151,1.365-6.685,5.363-.661,4.947,4.35,2.094,5.985,4.829H229.693c-.705-6.02,1.539-12.035,2.018-18.236.175-2.266,1.074-3.374,3.316-3.383,1.993-.009,3.988-.033,5.98.021.766.021,1.792-.1,1.8,1.122,0,1.165-.953,1.1-1.754,1.2-2.227.3-5.543-1.473-5.049,3.445C236.343,82.422,235.849,82.471,240.706,84.651Z"/>
  <path class="cls-2" d="M294.628,94.084c-3.376,3.553-7,1.875-10.264,2.01-.468.019-1.251-.691-.854-1.846,1.946-5.668.049-12.046,3.281-17.553.8-1.371,1.192-2.89,3.1-2.355,1.634.459,1.587,1.942,1.328,3.285-.5,2.579-.588,5.177-1.591,7.734C287.365,91.111,288.482,93,294.628,94.084Z"/>
  <path class="cls-2" d="M199.41,93.749c-.141.839-.136,1.125-.2,1.141-3.142.792-7.087,3.031-9.332.82-2.2-2.167-.044-6.17.551-9.341.672-3.58,1.378-7.156,1.919-10.757.272-1.812.995-2.595,2.906-2.4,2.616.263,1.623,2.056,1.44,3.329-.47,3.275-1.14,6.52-1.692,9.783C194.363,90.108,193.172,94.213,199.41,93.749Z"/>
  <path class="cls-2" d="M116.8,73.22c1.158,0,2.322-.067,3.473.023.885.069,2.193-.459,2.449.9.286,1.52-1.047,1.472-1.954,1.39-3.435-.308-3.272,2.935-3.317,4.371-.129,4.145-1.848,7.956-1.946,12.06-.045,1.9-.58,3.773-3.168,3.354-2.929-.474-1.386-2.426-1.07-3.812.986-4.326.876-8.837,2.327-13.1.379-1.112.563-2.75-1.58-2.836-.869-.035-2.247.292-2.057-1.272.168-1.377,1.473-1.019,2.376-1.063C113.821,73.166,115.313,73.219,116.8,73.22Z"/>
  <path class="cls-2" d="M228.97,10.945c-.029,1.886-1.386,3.381-3.737,2.186a22.207,22.207,0,0,1-9.147-9.489c-.811-1.477-.654-3.449,1.82-3.626C222.992-.346,228.788,5.082,228.97,10.945Z"/>
  <path class="cls-2" d="M245.546,94.794c2.383-5.8,1.745-12.064,3.811-17.741.246-.676-.195-1.136-.914-1.456-3.245-1.444-.386-2.109.5-2.257a28.277,28.277,0,0,1,5.448-.072c1.276.037,2.082,1.381,1.131,1.8-4.217,1.843-2.217,5.81-3.247,8.674a24.616,24.616,0,0,0-1.3,7.766C250.9,95.456,248.967,95.92,245.546,94.794Z"/>
  <path class="cls-2" d="M282.533,78.18c-1.608,3.454-1.366,8.444-2.539,13.166-.53,2.133-1.3,3.546-3.518,2.989-2.8-.7-1.012-2.677-.61-3.976,1.368-4.429,1.113-9.084,2.1-13.546.356-1.606,1.108-3.487,3.088-3.257C282.8,73.758,283.068,75.463,282.533,78.18Z"/>
  <path class="cls-2" d="M136.368,65.077l-.055-.228s.225.072.222.076S136.368,65.077,136.368,65.077Z"/>
  <path class="cls-1" d="M235.013,20.374c-8.573-2.3-15.622.211-21.8,6.084-3.521,3.349-5.457,7.822-7.9,11.929l-1.441-.36L211.581.433c-10.1-.16-10.07-.155-11.843,9.059-.344,1.788-1.3,3.5-1.407,5.283-.243,4.065-2.253,4.988-6.08,4.813-18.714-.856-27.388,16.009-26.839,30.775.221,5.948,3.1,10.712,9.02,13.16,5.6,2.315,11.5,1.024,17.208,1.723,4.812.589,6.707-1.319,7.491-5.766,1.028-5.829,2.545-11.571,3.734-17.374.279-1.363.273-2.96,2.1-2.659,2.063.34.914,2.1.92,3.247.01,1.828-.221,3.657-.234,5.487a17.769,17.769,0,0,0,26.773,15.451,4.845,4.845,0,0,0,2.213-5.386c-.454-1.876-2.348-.4-3.688-.313a50.751,50.751,0,0,1-7.763-.261,8.8,8.8,0,0,1-8.313-8.263c-.256-2.443.148-3.7,3.243-4.085,7.819-.963,15.548-2.635,23.334-3.894a2.174,2.174,0,0,0,2.024-1.757C245.229,32.831,243.284,22.593,235.013,20.374ZM194.884,31.591c-1.727,8.083-3.531,16.149-5.308,24.221-.243,1.106-.189,2.559-1.758,2.6-3.438.1-7.021.655-9.829-2.173-2.471-2.488-2.549-5.629-2.383-8.833.359-8.514,3.247-15.629,10.551-20.758,3.088-2.169,6.111-.848,8.764-.315C196.891,26.732,195.272,29.775,194.884,31.591Zm39.688,4.224c-.177,1.512-1.474,1.634-2.6,1.827-5.313.91-10.633,1.781-16.416,2.745,1.654-7.234,4.2-12.307,10.815-14.081,2.554-.685,4.954-.428,6.838,1.57C235.38,30.177,234.9,33.041,234.572,35.815Z"/>
  <path class="cls-1" d="M106.658,21.407c-9.573-4.245-25.613-1.178-31.988,6.745a31.426,31.426,0,0,0-6.452,26.562,12.588,12.588,0,0,0,5.129,7.625c5.082,3.944,10.745,2.279,16.28,2.131C88.874,71.053,84.9,75.058,78.842,75.35c-3.119.15-6.3.273-9.217-1.092-2.205-1.033-3.377-.488-3.931,1.839-.5,2.1-.955,4.621,1.531,5.264C79.59,84.558,94.06,82.613,98.8,67.368c4.335-13.933,6.184-28.455,9.678-42.591C108.978,22.768,108.175,22.079,106.658,21.407ZM96.686,32.642C95.3,39.281,94.156,45.971,92.709,52.6c-.439,2.008-.6,4.2-2.472,5.757-4.057,3.375-8.684,2.162-11.417-3.087a11.666,11.666,0,0,1-1.168-6.293c1.053-7.513,1.683-15.181,8.375-20.446a9.726,9.726,0,0,1,4.349-2.16C97.1,25.091,98.06,26.043,96.686,32.642Z"/>
  <path class="cls-1" d="M53.516,19.676c-2.741-.253-5.583.567-8.377.9-3.822.457-6.134,2.214-5.49,6.732,5.108,0,10.257.03,15.405-.015,2.091-.018,3.82.642,3.808,2.9-.011,1.912-.308,4.1-2.9,4.575-1.144.211-2.3.384-3.436.62-6.64,1.375-13.318,2.535-18.468,7.656a14.833,14.833,0,0,0-3.817,15.571c1.384,4.56,5.96,5.9,10.5,6.108,5.151.231,10.339-.006,15.455.514,4.707.478,6.113-2.168,6.564-5.871.856-7.024,2.655-13.856,3.928-20.791C68.747,27.353,65.382,20.769,53.516,19.676Zm1.2,29.067c-.062,1.477-.722,2.942-.7,4.407.072,4.658-2.161,6.268-5.956,5.332-4.017.054-7.411-.112-8.863-3.971-1.017-2.7,2.135-9.158,5.238-11.126a8.1,8.1,0,0,1,1.342-.643c3.36-1.342,7.311-3.971,10.237-2.115C58.2,42.011,54.838,45.843,54.717,48.743Z"/>
  <path class="cls-1" d="M135.813,21.209c-6.2-2.669-12.383-1.294-18.525.222-2.351.58-2.158,2.876-2.173,4.546-.019,2.129,1.972,1.247,3.087,1.277,4.163.114,8.331.049,12.5.05,3.361,0,4.209,1.538,3.459,4.778-.653,2.82-2.613,2.879-4.711,3.19-6.906,1.024-13.844,2.167-19.178,7.184-4.328,4.07-6.891,9.372-5.208,15.173,1.635,5.639,6.957,7.053,12.324,7.224,6.324.2,12.656.159,18.984.222l-.055-.228s.225.072.222.076c2.762-9.545,4.267-19.368,6.041-29.115C143.84,28.866,140.941,23.418,135.813,21.209ZM130.149,50.17a26.7,26.7,0,0,0-.474,2.935c-.314,3.937-1.456,6.85-5.025,5.628-4.5-.541-8.259.182-9.6-3.938-1.179-3.625,1.484-9.259,5.135-11.522a2.223,2.223,0,0,1,.434-.24c3.51-1.191,7.53-4.47,10.519-2.169C133.227,42.47,130.767,46.98,130.149,50.17Z"/>
</svg>
