<svg id="Layer_1" data-name="Layer 1" xmlns="http://www.w3.org/2000/svg" viewBox="0 0 336.59 24.81">
  <defs>
    <style>
      .cls-1 {
        fill: #958e7f;
      }

      .cls-2 {
        fill: #9d9789;
      }
    </style>
  </defs>
  <title>1a890d0f-0afc-49bf-8e81-319a31e6d2cb</title>
  <path class="cls-1" d="M236.316.663l8.3,17.992,8.546-18c1.724,7.9,3.17,14.408,4.541,20.933.185.881.492,2.2-.963,2.336-1.206.114-1.582-.979-1.8-1.984a52.452,52.452,0,0,0-3.511-11.685L244.637,24.71,237.4,9.18c-1.035,4.625-1.821,8.159-2.618,11.69-.282,1.251-.306,3.259-1.9,2.973-2.155-.387-1.02-2.45-.771-3.7C233.315,14.132,234.682,8.155,236.316.663Z"/>
  <path class="cls-1" d="M15.245,1.125l6.078,15.5C25.054,11.733,25.06,5.312,28.734.856l1.393.593L21.695,24.431,15.119,7.77,8.294,24.21C5.465,16.683,2.966,10.039.472,3.393.137,2.5-.594,1.39.927,1.011c1.208-.3,1.638.733,2,1.731,1.652,4.518,3.35,9.02,5.4,14.529Z"/>
  <path class="cls-1" d="M202.924,12.781c0,3,.017,6-.015,9-.01.962.081,2.23-1.348,2.14-.929-.059-1.086-1.064-1.223-1.921-.407-2.548,1.274-6.1-1.23-7.432-2.247-1.2-5.523-.365-8.326-.63-3.042-.287-4.335.891-3.959,3.952a13.828,13.828,0,0,1,0,2.995c-.116,1.2.573,3.159-1.415,3.09-1.841-.064-1.36-1.972-1.369-3.215-.041-5.665-.025-11.33-.01-17,0-1.14-.182-2.672,1.4-2.718,1.7-.05,1.246,1.558,1.422,2.639.385,2.362-1.34,5.989,1.083,6.853,3.112,1.109,6.881.447,10.366.4,1.466-.018,1.825-1.231,1.857-2.489.038-1.5.022-3,.061-4.5.031-1.155-.088-2.732,1.363-2.816,1.715-.1,1.31,1.582,1.33,2.648C202.965,6.781,202.927,9.781,202.924,12.781Z"/>
  <path class="cls-2" d="M291.729,24.309c-7.451,0-7.453,0-7.455-6.91,0-4.326.1-8.654-.032-12.975-.087-2.814,1.031-4.022,3.825-3.7.492.057,1.009-.064,1.494.018,2.676.452,7.757-.86,7.609.948-.286,3.5-4.512,1.176-6.99,1.524-2.709.381-2.688,1.934-2.643,3.823.042,1.8-.309,3.871,2.495,3.924a5.558,5.558,0,0,1,1,.035c1.454.3,4-.823,3.952,1.535-.037,1.848-2.478,1.113-3.759,1-3.353-.309-3.74,1.41-3.767,4.174-.029,2.94.808,4.158,3.947,4.128,2.315-.022,6.773-1.044,6.6.956C297.725,26,293.612,23.422,291.729,24.309Z"/>
  <path class="cls-2" d="M113.318,23.548c-4.389,1.413-8.485.585-12.48.667-1.2.024-1.634-1.018-1.638-2.1q-.033-9.48-.014-18.96c0-1.04.214-2.212,1.441-2.254,4-.135,8.056-.657,12.659.589C110.627,4.281,108,3.152,105.72,3.246c-2.506.1-3.608.928-3.543,3.533.059,2.4.246,4.4,3.387,4.209a12.32,12.32,0,0,1,1.994.041c.939.1,2.254-.009,1.993,1.451-.237,1.324-1.56.886-2.477.991-2.114.242-4.794-.864-4.927,3.047-.123,3.628.567,5.692,4.829,5.306C108.874,21.652,111.258,20.795,113.318,23.548Z"/>
  <path class="cls-1" d="M161.764,12.84c-.106-8.972,7.651-14.568,15.873-11.489,1.124.421,2.53.715,1.991,2.211-.529,1.467-1.664.179-2.495.045-8.525-1.376-13.016,2.252-12.44,10.1.453,6.177,4.4,8.694,11.845,7.643,1.094-.154,2.712-1.694,3.206.525.4,1.8-1.39,2-2.6,2.349C169.029,26.547,161.863,21.225,161.764,12.84Z"/>
  <path class="cls-1" d="M336.307,4.159c-2.6-.377-4.181-.71-5.779-.81-1.738-.109-3.378.252-3.989,2.22a3.445,3.445,0,0,0,1.769,4.222c1.7,1.03,3.569,1.785,5.253,2.837a5.907,5.907,0,0,1,2.81,6.861,6.142,6.142,0,0,1-5.719,4.817c-2.826.284-5.885.351-7.571-3.636,2.605.329,4.669.719,6.747.812a3.566,3.566,0,0,0,3.793-2.644,3.5,3.5,0,0,0-1.877-4.208c-1.428-.834-2.943-1.523-4.439-2.235-2.712-1.291-4-3.324-3.623-6.4.358-2.948,2.28-4.333,4.859-4.977C331.337.32,334.026.271,336.307,4.159Z"/>
  <path class="cls-1" d="M125.2,24.261c-8.461-.1-7.9,1.057-7.932-7.145-.014-3.82-.121-7.646.054-11.459.073-1.593-1.042-4.513,1.529-4.4,2.336.1,1.19,2.983,1.269,4.618a86.578,86.578,0,0,1-.008,10.955c-.29,3.663.868,5.051,4.69,4.892,2.164-.09,6.358-1.434,6.263,1.285C130.968,25.782,126.746,23.217,125.2,24.261Z"/>
  <path class="cls-2" d="M135.823,11.8c0-2.818-.01-5.636.012-8.454.008-.979-.066-2.225,1.243-2.324,1.727-.13,1.595,1.335,1.6,2.456.034,4.475.292,8.973-.062,13.42-.326,4.089,1.285,5.181,5.077,4.921,1.952-.133,5.716-.975,5.625,1-.129,2.788-3.707.992-5.735,1.458-.787.181-1.672-.091-2.476.049-4.595.805-5.856-1.361-5.34-5.57A58.461,58.461,0,0,0,135.823,11.8Z"/>
  <path class="cls-2" d="M279.015,13.721c-.832-1.415-2.021-2.391-1.065-4.362a5.321,5.321,0,0,0-1.718-7.1c-3.36-2.319-7.48-2.13-11.047-1.125-2.72.766-.96,4.068-1.28,6.211a33.975,33.975,0,0,0-.048,4.968c0,13.176.072,13.264,9.782,11.972.164-.022.33-.035.493-.064C279.46,23.247,281.774,18.413,279.015,13.721ZM270.093,3.313c2.681.295,5.575.346,5.559,4.04s-3.03,3.133-6.43,3.5c-1.826.323-2.676-1.017-2.654-3.749C266.588,4.533,267.1,2.983,270.093,3.313Zm1.076,18.47c-3.3.218-4.72-.649-4.733-4.342-.015-4.027,1.929-4.427,4.584-3.884,3.489-.276,6.326-.1,6.189,4.079C277.076,21.7,274.132,21.587,271.169,21.783Z"/>
  <path class="cls-2" d="M93.2,6.292C91.081,1.256,86.349.562,81.467.736,75.009.711,75.008.711,74.987,7.1q-.023,6.964-.04,13.928c-.006,1.54-.045,3.171,2.081,3.252,5.3.2,10.945.919,14.748-3.834C95.153,16.227,95.216,11.074,93.2,6.292ZM83.131,21.731c-4.041.422-6.017-.626-5.327-5a25.12,25.12,0,0,0,.025-3.987,10.957,10.957,0,0,1,.038-2.982c.626-2.185-1.947-5.63,2.313-6.408,5.717-1.045,9.5.884,10.847,5.38C93.143,15.777,89.813,21.034,83.131,21.731Z"/>
  <path class="cls-2" d="M68.341,19.947c-1.611-2.424-3.371-4.116.115-7.17C72.538,9.2,69.581,2.07,64.082,1.122,61.811.73,59.448.892,57.131.726c-2.375-.171-3.236.889-3.194,3.228.1,5.488-.021,10.979.064,16.467.02,1.32-.743,3.613,1.457,3.524,2.1-.085.991-2.373,1.341-3.684.45-1.685-1.3-4.218,1.828-4.888,2.727-.585,4.175.873,5.6,3.027,1.451,2.2,2.122,5.343,6.713,6.105C69.759,22.42,69.128,21.132,68.341,19.947Zm-7.857-7.175c-3.761.322-4.063-1.764-3.554-4.374-.5-3.209-.145-5.32,3.837-4.988,3.183.265,6.026.349,6.107,4.566C66.961,12.6,63.729,12.494,60.483,12.772Z"/>
  <path class="cls-2" d="M315.868,17.969c-.665-1.188-2.043-2.271-.031-3.729,3.763-2.727,3.693-6.51,1.945-10.267C316.5,1.224,309.389-.581,304.905.848c-4.208,1.341-1.281,5.128-2.04,7.7a12.759,12.759,0,0,0-.053,3.48h.016c0,3.329-.019,6.658.012,9.986.009,1.009.129,2.141,1.531,2.017,1.006-.089,1.2-1,1.231-1.87a20.813,20.813,0,0,1,.05-2.493c.234-1.491-.872-3.6,1.471-4.206a4.386,4.386,0,0,1,5.432,2.354,54.432,54.432,0,0,0,3.567,5.409,1.6,1.6,0,0,0,2.149.692c.936-.585.456-1.434,0-2.153C317.47,20.5,316.6,19.273,315.868,17.969Zm-6.317-5.2c-3.659.346-4.268-1.556-3.792-4.514-.478-3.034-.092-5.151,3.924-4.847,3.286.249,6.063.529,6.057,4.738C315.733,12.476,312.672,12.474,309.551,12.769Z"/>
  <path class="cls-1" d="M49.184,21.856C46.112,15.092,43.056,8.322,39.461.372c-3.588,7.9-6.622,14.536-9.59,21.2-.339.761-1.371,1.926.148,2.44,1.168.395,1.613-.771,2.085-1.675.653-1.25.816-3.291,2.789-2.989,4.171.639,9.628-2.673,12.031,3.746A1.505,1.505,0,0,0,48.973,24C49.924,23.535,49.544,22.646,49.184,21.856ZM34.975,16.35,39.339,6l4.577,10.2A28.24,28.24,0,0,1,34.975,16.35Z"/>
  <path class="cls-1" d="M226.388,21.868c-3.035-6.777-6.057-13.56-9.765-21.868-3.73,8.93-7.858,16-10.557,24.131,1.08-.128,1.856-.038,1.959-.259,1.555-3.355,3.886-4.866,7.784-4.385,3.321.41,7.133-.879,8.5,3.823.105.363,1.237.782,1.691.618C227,23.567,226.752,22.681,226.388,21.868Zm-9.214-4.711c-5.667-.034-5.676.115-3.4-5.124.766-1.76,1.585-3.5,2.474-5.451,2.06,2.05,2.4,4.6,3.564,6.71C221.536,16.419,220.384,17.176,217.174,17.157Z"/>
</svg>
