<svg id="Layer_1" data-name="Layer 1" xmlns="http://www.w3.org/2000/svg" viewBox="0 0 498.664 152.718">
  <defs>
    <style>
      .cls-1 {
        fill: #1f3f7f;
      }

      .cls-2 {
        fill: #c71a3f;
      }
    </style>
  </defs>
  <title>44e41dfe-d5bb-4c15-89c8-48dbc6796cef</title>
  <g>
    <path class="cls-1" d="M182.664,152.718c-.037-11.794.008-23.59-.17-35.382-.043-2.846.83-3.688,3.654-3.654,2.678.032,3.361.973,3.381,3.5.032,3.941-1.8,9.109.72,11.51,2.709,2.581,7.932.362,12,.885,4.158.534,5.742-.976,5.21-5.157-.291-2.289.1-4.657-.086-6.968-.215-2.674.493-3.81,3.486-3.789,2.856.019,3.228,1.237,3.206,3.595q-.146,15.7-.05,31.4a6.485,6.485,0,0,1-1.356,4.062h-5c-.085-1.661-.234-3.322-.244-4.984-.07-11.853-.073-11.54-11.9-11.993-5.213-.2-6.5,1.363-6.219,6.316.2,3.511,1.713,7.565-1.633,10.66Z" transform="translate(0)"/>
    <path class="cls-1" d="M364.664,152.718c-2.575-1.414-5.188-2.765-7.71-4.268-1.409-.839-3.121-1.822-1.133-3.75,1.365-1.324,2.043-4.054,4.98-1.668a14.481,14.481,0,0,0,11.655,3.339c2.4-.384,4.585-1.412,4.987-4.16.427-2.917-1.655-4.2-3.954-4.972-2.99-1-6.1-1.632-9.091-2.637-5.971-2.009-8.787-5.708-8.486-10.849.322-5.481,4.118-9.551,10.178-10.655a21.337,21.337,0,0,1,14.856,2.891c1.681.972,2.615,2.04,1,3.883-1.205,1.376-1.707,3.72-4.494,1.845-3.067-2.063-6.523-3.313-10.38-2.393-2.123.506-3.718,1.676-4.026,3.9-.323,2.335,1.157,3.748,3.16,4.507a59.078,59.078,0,0,0,6.178,1.915c8.366,2.158,11.725,5.055,12.161,10.6.442,5.615-2.407,9.212-9.881,12.475Z" transform="translate(0)"/>
    <path class="cls-1" d="M161.664,152.718a11.4,11.4,0,0,1-1.248-5.5q.079-65.993.047-131.986c0-.5-.014-1,.008-1.5.049-1.131-.21-2.718,1.358-2.746,1.972-.036,1.471,1.771,1.569,3,.053.662,0,1.332,0,2q0,65.243-.023,130.486a53.922,53.922,0,0,1-.711,6.241Z" transform="translate(0)"/>
    <path class="cls-1" d="M389.664,152.718c-.014-12.3.028-24.591-.084-36.886-.025-2.712.231-4.249,3.659-4.182,3.21.063,3.444,1.541,3.344,4-.129,3.149-.031,6.306-.031,9.4.423.2.86.514.958.431,4.08-3.466,8.624-4.353,13.388-1.846,4.663,2.454,5.02,7.013,4.94,11.657-.1,5.806-.119,11.614-.173,17.422h-7c.068-6.1.212-12.2.171-18.3a5.4,5.4,0,0,0-4.114-5.585,6.136,6.136,0,0,0-6.427,1.637c-1.589,1.69-1.658,3.835-1.794,6.038-.333,5.4.989,10.893-.837,16.214Z" transform="translate(0)"/>
    <path class="cls-1" d="M425.664,152.718c-.064-1.3-1.336-1.285-2.064-1.816a8.7,8.7,0,0,1-3.6-9.207,8.453,8.453,0,0,1,6.53-6.848,21.675,21.675,0,0,1,9.9-.347c.988.183,2.429,1.05,3.012-.521a3.207,3.207,0,0,0-1.042-3.192c-3.135-3.313-7.135-2.592-10.75-1.566-2.733.775-3.915.408-4.689-2.276-.856-2.967,1.485-2.805,3.042-3.374a22.373,22.373,0,0,1,11.358-.714c5.734.922,8.835,5.1,9.056,11.985.191,5.956.171,11.918.244,17.878Zm8.676-14.137c-3.582.118-7.276.123-7.613,4.6-.251,3.335,2.4,4.366,5.293,4.491,4.2.182,7.8-2.6,7.674-5.976C439.548,137.7,436.183,139.3,434.339,138.581Z" transform="translate(0)"/>
    <path class="cls-1" d="M322.664,152.718c-.081-12.479-.1-24.958-.295-37.435-.044-2.779,1.134-3.3,3.567-3.317,2.467-.021,3.192.949,3.1,3.259-.13,3.427-.034,6.862-.034,10.924,1.921-1.178,3.079-2.033,4.353-2.645,6.391-3.067,13.625.384,14.354,7.331.657,6.262.3,12.626.512,18.942.047,1.415-1.223,1.874-1.563,2.942h-5c-.086-5.955-.033-11.916-.31-17.862-.162-3.475-1.83-6.071-5.775-6.129-4.037-.059-6.075,2.311-6.468,6.075-.257,2.457.1,4.975-.129,7.438-.321,3.5,1.215,7.257-1.317,10.479Z" transform="translate(0)"/>
    <path class="cls-1" d="M258.664,152.718c-.325-1.34-1.642-1.5-2.547-2.16-3.2-2.333-3.994-5.6-3.315-9.278.64-3.466,3.047-5.468,6.262-6.411a20.959,20.959,0,0,1,9.375-.437c1.069.175,2.628,1,3.184-.213.65-1.422-.217-2.941-1.462-3.936-3.09-2.468-6.6-1.935-9.966-.955-2.245.653-3.672.8-4.472-1.921-.922-3.141,1.37-3.157,3.168-3.759a22.148,22.148,0,0,1,10.347-.7c3.807.559,7.3,2.356,8.253,6.268a52.027,52.027,0,0,1,.173,23.5Zm5.949-5.215c4.407-.141,7.965-3.042,7.474-6.185-.631-4.031-4.1-2.447-6.435-2.631-3.206-.252-6.3.577-6.308,4.57C259.339,146.72,262.167,147.308,264.613,147.5Z" transform="translate(0)"/>
    <path class="cls-1" d="M480.664,152.718c-6.629-3.539-10.848-8.491-10.153-16.581.609-7.088,5.227-12.584,11.7-13.592,7.519-1.17,12.369,1.723,15.521,9.214.161.382.612.642.929.959v7c-5.947.051-11.9.065-17.841.188-1.024.021-2.46-.714-3.022.776-.457,1.212.438,2.228,1.075,3.151,2.57,3.726,7.313,4.345,12.817,1.115,2.4-1.407,3.3.018,4.5,1.2,1.779,1.752-.089,2.691-1.139,3.446a58.12,58.12,0,0,1-5.391,3.119Zm3.745-17.335a7.735,7.735,0,0,0,1.981-.027c1.725-.473,4.615,1.349,5.028-1.289.393-2.508-1.646-4.524-4.144-5.588a6.177,6.177,0,0,0-5.286.039c-2.405,1.139-4.573,3.081-4.126,5.617.452,2.568,3.338.711,5.062,1.225A5.489,5.489,0,0,0,484.408,135.383Z" transform="translate(0)"/>
    <path class="cls-1" d="M230.664,152.718c-.587-1.9-2.591-1.885-3.884-2.824-5.436-3.949-7.561-11.586-4.957-18.376,2.386-6.22,8.186-9.621,15.113-8.865,6.1.667,10.633,5.625,11.581,12.537.427,3.113.067,5.058-3.941,4.765-4.633-.339-9.315.055-13.966-.117-3.49-.129-3.126,1.352-1.783,3.487a8.274,8.274,0,0,0,11.471,2.289c2.6-1.671,4.7-2.086,6,.7,1.314,2.809-2,3.137-3.4,4.453-.928.875-2.665.454-3.236,1.954Zm3.765-17.342a7,7,0,0,0,1.975-.03c1.692-.52,4.525,1.4,4.968-1.337.373-2.31-1.468-4.351-3.791-5.269a7.626,7.626,0,0,0-3.843-.537c-3.273.541-5.933,2.805-5.676,5.88.237,2.837,3.55.661,5.379,1.281A3.2,3.2,0,0,0,234.429,135.376Z" transform="translate(0)"/>
    <path class="cls-1" d="M306.664,152.718c-4.045-2.9-4.613-6.994-5.031-11.685-.384-4.3,3.409-9.887-2.975-12.969-.829-.4,3.838-12.819,4.883-12.825,2.423-.015,5.794-1.136,5.149,3.479-.422,3.018.384,4.779,3.926,4.271,2.071-.3,3.845-.211,3.918,2.895s-1.626,3.263-3.751,2.977c-3.337-.45-4.458.923-4.129,4.164a50.562,50.562,0,0,1,.029,6.978c-.148,3.935.167,7.321,5.618,5.9.843-.219,1.778-.18,1.9.916.157,1.448.489,2.945-.664,4.262-.794.907-2.413.23-2.869,1.632Z" transform="translate(0)"/>
    <path class="cls-1" d="M452.664,152.718c-1.128-9.085-.21-18.207-.5-27.306-.061-1.916.734-2.511,2.629-2.638,2.922-.2,4.912.352,4.3,4.39,2.1-1.553,3.5-2.927,5.176-3.735,1.595-.768,4.13-2.438,4.866.482.494,1.959,1.964,5.157-2.588,6.023-5.294,1.007-7.106,4.6-7.567,11.327-.262,3.825,1.428,7.915-1.319,11.457Z" transform="translate(0)"/>
    <path class="cls-1" d="M285.664,152.718c.075-11.992.171-23.985.209-35.977.008-2.564-.418-4.867,3.615-4.828,3.883.038,3.232,2.338,3.232,4.606,0,10.333-.012,20.666.013,31,0,1.824.1,3.632-1.07,5.2Z" transform="translate(0)"/>
    <path class="cls-1" d="M83.664,152.718c.011-3.489-.037-6.981.067-10.467.036-1.193-.717-2.874,1.069-3.405,1.65-.491,2.221,1.022,2.977,2.081s1.538,2.073,2.24,3.015c2.669-1.084,2.558-6.084,5.639-4.843,2.42.974.921,4.737.969,7.232.034,1.763,1.085,5.049-.969,5.069-2.453.024-.828-3.173-1.259-4.9a11.1,11.1,0,0,1-.024-2.294c-2.408.512-2.392,3.223-4.137,3.978-1.772-.52-1.6-3.332-4.036-3.329-1.342,2.448.529,5.59-1.535,7.869Z" transform="translate(0)"/>
    <path class="cls-1" d="M45.664,152.718q0-3.481.009-6.962c0-7.916,1.341-8.773,10.111-6.065-1.689,1.909-3.759.936-5.491,1.151-1.125.14-1.963.414-1.976,1.666-.014,1.355,1.03,1.357,2.034,1.572,1.417.3,3.984-1.08,3.97,1.331-.01,1.815-2.459.742-3.8,1.012-.953.191-2.1.005-2.186,1.4-.105,1.678,1.1,1.67,2.314,1.776,2.168.187,5.423-1.246,5.014,3.119Z" transform="translate(0)"/>
    <path class="cls-1" d="M98.664,152.718c.008-2.316.022-4.632.024-6.949,0-7.962,1.52-8.931,9.656-6.073-.5,1.511-1.809.972-2.821,1.186-1.439.3-3.848-1.046-4.063,1.415-.24,2.749,2.309,1.462,3.695,1.769.913.2,2.059-.148,2.347,1.322-1.076,1.836-2.93.789-4.422,1.065-.857.158-1.643.265-1.7,1.349-.07,1.242.582,1.781,1.774,1.779.993,0,1.989-.041,2.977.024.9.059,2.3-.319,2.254,1.091-.024.693-1.11,1.35-1.716,2.023Z" transform="translate(0)"/>
    <path class="cls-1" d="M9.664,152.718c-.395-1.3-1.809-1.306-2.635-2.067a6.7,6.7,0,0,1-1.6-8.566c1.659-3.318,4.676-3.983,8.057-3.306,1.043.209,2.635.438,2.228,1.981-.491,1.862-1.777.647-2.771.31a3.873,3.873,0,0,0-4.811,1.524,4.622,4.622,0,0,0-.171,5.172,3.94,3.94,0,0,0,4.25,1.928c1.057-.147,2.02-.535,2.163-1.664.278-2.194-2.89-.512-2.926-2.946,1.762-.557,4.062-1.811,5.093.571.908,2.1,1.019,5.07-2.445,5.943-.657.166-1.262.355-1.436,1.12Z" transform="translate(0)"/>
    <path class="cls-1" d="M23.664,152.718a26.7,26.7,0,0,1-4.1-3.333,6.4,6.4,0,0,1,1.1-9.446c2.967-2.275,7.69-1.691,9.75,1.207a6.964,6.964,0,0,1-1.894,9.975c-.919.645-2.413.192-2.858,1.6Zm1.435-2.957c2.7-.41,4.2-2.068,4.019-4.713-.182-2.6-1.778-4.4-4.57-4.166a4,4,0,0,0-3.813,4.4C20.786,147.954,22.327,149.516,25.1,149.761Z" transform="translate(0)"/>
    <path class="cls-1" d="M127.664,152.718c.021-2.148-.027-4.3.08-6.444.153-3.041.321-6.013-4.3-6.421a15.97,15.97,0,0,1,11.3-.086c-5.665.849-4.478,4.9-4.353,8.237a6.151,6.151,0,0,1-1.725,4.715Z" transform="translate(0)"/>
    <path class="cls-1" d="M83.933,91.221c1.984-.994,3.85-.375,5.629-.615,3.174-.427,4.682.578,5.279,4.066a110.345,110.345,0,0,0,5.411,19.838c1.731-6.757,3.784-13.454,5.066-20.3.727-3.88,2.951-3.517,5.687-3.664,3.037-.163,4.866.373,5.564,3.847a143.016,143.016,0,0,0,5.747,20.679q2.555-10.716,5.118-21.43c.291-1.209.031-2.937,1.965-2.944a47.467,47.467,0,0,1,7.9.39c.725.12.118,1.769-.127,2.694-3.147,11.893-6.465,23.743-9.37,35.695-1.07,4.4-4.149,2.731-6.663,3.086-2.686.379-4.181-.372-4.824-3.42-1.375-6.518-3.247-12.931-4.915-19.386l-1.337-.086c-1.436,5.961-3,11.895-4.255,17.894-.671,3.215-1.343,5.428-5.572,5.142-3.627-.246-5.887-.379-6.889-4.832C90.582,115.569,87.117,103.415,83.933,91.221Z" transform="translate(0)"/>
    <path class="cls-1" d="M37.869,116.637c0-8.3.281-15.286-.1-22.234-.246-4.47,2.42-3.719,5.043-3.809,2.809-.1,5.05-.357,4.921,3.9-.321,10.654-.013,21.326-.2,31.987-.036,2.026,1.674,5.5-1.433,5.934-3.283.456-7.188,1.8-10.16-1.83-5.7-6.955-11.637-13.716-17.476-20.558-.73-.856-1.463-1.71-3.164-3.7,0,7.978-.191,14.677.075,21.358.148,3.727-.614,5.291-4.833,5.158-3.774-.119-5.154-.84-5.029-4.942.32-10.488.026-20.993.19-31.487C5.729,94.529,4.154,91.243,7,90.9c3.317-.4,7.242-1.84,10.2,1.726,5.744,6.919,11.629,13.722,17.467,20.564C35.395,114.045,36.193,114.839,37.869,116.637Z" transform="translate(0)"/>
    <path class="cls-2" d="M96.808,43.619a61.184,61.184,0,0,1-2.3,19.612c-2.166,7.107-6.848,12.077-14.1,14.155-5.792,1.661-9.771-.922-10.964-6.86-1.292-6.428.237-12.587,2.3-18.58C75.519,40.952,82.789,32.4,91.267,24.722c2.6-2.356,3.462-1.375,3.95,1.54A95.1,95.1,0,0,1,96.808,43.619Z" transform="translate(0)"/>
    <path class="cls-2" d="M44.61,43.727a80.579,80.579,0,0,1,1.234-17.8c.466-2.656,1.505-3.489,3.893-1.475A80.158,80.158,0,0,1,68.432,47.9c.978,1.8.62,3.474.067,5.25C66.246,60.381,64.816,67.656,67.992,75c1.06,2.451-.846,2.5-2.2,2.67A14.99,14.99,0,0,1,53.485,73.4a27.436,27.436,0,0,1-8.863-20.214C44.545,50.035,44.61,46.881,44.61,43.727Z" transform="translate(0)"/>
    <path class="cls-1" d="M66.523,89.761A23.138,23.138,0,0,1,77.265,91.9c5.567,2.457,5.6,3.167,2.055,8.088-1.486,2.063-2.627,1.9-4.47.763a14.777,14.777,0,0,0-8.981-2.558c-2.006.159-4.124.62-4.573,3.1-.452,2.493,1.261,3.648,3.25,4.32,3.149,1.065,6.392,1.854,9.527,2.954,7.455,2.615,10.2,6.475,9.587,13.21-.565,6.2-4.77,10.4-11.9,11.513a26.31,26.31,0,0,1-19.017-4.371c-1.468-.966-3.729-2.1-1.275-4.041,1.82-1.442,2.071-6.231,6.248-3.345a17.2,17.2,0,0,0,11.735,3.4c2.339-.23,4.447-1,4.692-3.605.225-2.393-1.713-3.454-3.7-4.086-3.011-.959-6.09-1.707-9.092-2.692-7.453-2.445-10.488-6.8-9.646-13.661.751-6.116,5.916-10.587,12.876-11.119C65.42,89.706,66.257,89.761,66.523,89.761Z" transform="translate(0)"/>
    <path class="cls-2" d="M50.65,75.737c-8.369-.149-13.144-5.63-17.108-11.936-5.356-8.521-7.151-18.2-7.761-28.032-.421-6.782-.05-13.617.058-20.427.055-3.484,1.561-4.973,5.027-3.149,4.111,2.164,8.193,4.383,12.331,6.493,1.842.939,1.592,1.74,1.055,3.73-3.976,14.747-4.4,29.538.647,44.209,1.208,3.508,4.312,5.75,5.811,9.044Z" transform="translate(0)"/>
    <path class="cls-2" d="M89.763,75.415C97.881,68.59,98.944,59.1,99.53,49.659c.6-9.61.281-19.251-3.312-28.412-.736-1.877.82-2.014,1.6-2.45q6.314-3.52,12.787-6.75c2.029-1.012,3.95-1.21,4.219,1.939,1.3,15.285,1.312,30.456-4.762,44.929-2.831,6.745-6.946,12.527-13.908,15.675C94.223,75.465,92.265,76.443,89.763,75.415Z" transform="translate(0)"/>
    <path class="cls-2" d="M70.877,46.25C67.019,39.5,63.172,33.729,58.228,28.8c-1.526-1.521-.936-3.027-.364-4.573A148.126,148.126,0,0,1,68.255,2.2c1.865-3.266,3.01-2.636,4.645.156A162.1,162.1,0,0,1,83.447,24.8,4.134,4.134,0,0,1,82.4,29.7,72.5,72.5,0,0,0,70.877,46.25Z" transform="translate(0)"/>
    <path class="cls-2" d="M40.685,75.71c-13.927-.133-26.062-1.8-36.662-9.342-5.419-3.853-5.379-5.671.211-9.348a121.151,121.151,0,0,1,17.072-9.15c1.971-.885,3.1-.953,3.722,1.8C27.279,59.54,31.484,68.413,40.685,75.71Z" transform="translate(0)"/>
    <path class="cls-2" d="M100.317,75.693c9.085-6.943,13.112-15.725,15.529-25.38.655-2.615,1.362-3.623,4.246-2.3a150.324,150.324,0,0,1,18.285,10.072c3.544,2.262,3.365,4.835.152,7.062A51.537,51.537,0,0,1,114.42,74.56C110.131,75.016,105.889,76.049,100.317,75.693Z" transform="translate(0)"/>
    <path class="cls-2" d="M14.231,29.967c1.162,0,2.324.034,3.484-.006,3.493-.121,5.784.92,5.1,5.044a7.948,7.948,0,0,0,.11,1.985c.693,7.365.006,8.237-7.225,10.542-1.915.61-2.729-.186-3.664-1.487a36.4,36.4,0,0,1-5.172-9.609c-1.71-5.1-.611-6.537,4.874-6.6.83-.01,1.661,0,2.491,0Z" transform="translate(0)"/>
    <path class="cls-2" d="M127.054,29.848c8.612-.124,9.7,1.622,5.912,9.528-.5,1.042-1.019,2.08-1.6,3.076-3.451,5.872-7.725,6.471-12.917,1.908a2.74,2.74,0,0,1-.877-2.645c.118-1.153.2-2.31.327-3.462C118.789,29.967,118.791,29.967,127.054,29.848Z" transform="translate(0)"/>
    <path class="cls-2" d="M86.394,22.986a5.593,5.593,0,0,1-.976-1.06c-.374-.736-.615-1.538-.94-2.3C80.227,9.636,80.41,9.325,89.87,3.776c2.719-1.6,3.931-.819,4.646,1.839.645,2.395,1.112,4.843,1.866,7.2.74,2.315-.012,3.681-2.042,4.875C91.638,19.279,89.106,21.159,86.394,22.986Z" transform="translate(0)"/>
    <path class="cls-2" d="M44.55,13.921a8.629,8.629,0,0,1,.318-1.646c1.32-3.1.4-8.605,3.724-9.016,4.327-.534,7.295,4.37,10.862,6.906.958.681.445,1.74.147,2.712-3.281,10.7-4.519,11.1-13.32,4.526C44.958,16.414,44,15.493,44.55,13.921Z" transform="translate(0)"/>
    <path class="cls-2" d="M66.1,81.732c-8.173-1.038-15.632,1.009-23.164,2.676-4.753,1.052-9.587.422-14.371-.042a4.025,4.025,0,0,1-3.827-4.225c-.034-2.077,1.932-2.225,3.331-1.981,11.355,1.982,22.842.94,34.248,1.644C63.579,79.882,64.982,79.923,66.1,81.732Z" transform="translate(0)"/>
    <path class="cls-2" d="M81.32,80.62c1.613-1.483,3.013-1.169,4.259-1.15,8.477.131,16.942.261,25.359-1.126,1.709-.282,4.017-.619,4.522,1.731.479,2.227-1.534,3.11-3.28,3.73-5.678,2.02-11.577,1.291-17.218.363-2.846-.468-5.649-1.563-8.632-1.411C84.4,82.856,82.955,82.1,81.32,80.62Z" transform="translate(0)"/>
    <path class="cls-1" d="M72.659,142.99c0,3.149.007,4.889,0,6.629-.006,1.012-.006,2.053-1.408,2.149s-1.6-.827-1.615-1.911a3.118,3.118,0,0,1,0-.5c.537-3.486-1.835-8.806,1.078-10.107,3.787-1.692,4.293,4.9,8.435,6.649,0-1.979-.023-3.676.009-5.372.017-.878.292-1.722,1.357-1.67,1.126.055,1.11,1.032,1.117,1.838q.041,4.487.012,8.975c0,.8.09,1.769-.96,2.006-.907.2-1.545-.4-2.074-1.077C76.916,148.436,75.223,146.27,72.659,142.99Z" transform="translate(0)"/>
    <path class="cls-1" d="M68.426,151.344c-2.444.9-3.088-.4-3.889-1.449-1.923-2.51-3.819-4.8-4.565.681-.1.709-.462,1.2-1.3,1.091-.89-.114-.966-.809-.974-1.453-.036-3.162-.033-6.325-.037-9.488,0-1.117.356-2.025,1.655-1.97,2.759.116,5.788-.886,8.072,1.456a2.815,2.815,0,0,1,.307,4.061C65.4,146.849,66.113,149.132,68.426,151.344Zm-2.7-8.4c-.368-1.891-1.871-1.969-3.4-2.078-1.793-.127-2.309.81-2.246,2.42.062,1.558,1,1.991,2.31,1.888C63.868,145.054,65.479,145.039,65.729,142.94Z" transform="translate(0)"/>
    <path class="cls-1" d="M113.5,143.551c-1.359,3.216.7,7.706-1.766,7.661s-.707-4.409-1.151-6.826a12.2,12.2,0,0,1-.019-2.981c.062-.918-.351-2.11.923-2.527,1.138-.372,1.826.409,2.459,1.225,1.6,2.056,3.216,4.095,5.078,6.461,1.367-2.73-.22-5.567,1.878-8.716,1.707,4.783,1.067,8.851.793,12.719-.159,2.234-1.851,1.012-2.7-.022C117.236,148.409,115.571,146.2,113.5,143.551Z" transform="translate(0)"/>
    <path class="cls-1" d="M37.959,148.192c1.38-3.387,2.366-5.83,3.372-8.265.344-.834.931-1.448,1.89-1.085,1.152.436.689,1.445.325,2.042-2.15,3.523-2.032,10.387-5.805,10.28-3.455-.1-3.634-6.933-5.577-10.64-.32-.61-.521-1.333.255-1.649a1.5,1.5,0,0,1,2.066.8C35.569,142.223,36.585,144.8,37.959,148.192Z" transform="translate(0)"/>
    <path class="cls-2" d="M50.711,75.67l.354.057-.292.352-.124-.342Z" transform="translate(0)"/>
  </g>
</svg>
