<svg id="Layer_2" data-name="Layer 2" xmlns="http://www.w3.org/2000/svg" viewBox="0 0 530.118 323.213">
  <defs>
    <style>
      .cls-1 {
        fill: #272727;
      }

      .cls-2 {
        fill: #7caf32;
      }

      .cls-3 {
        fill: #0064af;
      }

      .cls-4 {
        fill: #fff;
      }

      .cls-5 {
        fill: #161615;
      }
    </style>
  </defs>
  <title>logo vector</title>
  <rect class="cls-1" y="173.882" width="530.118" height="93.176"/>
  <circle class="cls-2" cx="46.758" cy="13.118" r="13.118"/>
  <circle class="cls-3" cx="17.588" cy="42.059" r="13.118"/>
  <path class="cls-3" d="M30.765,72.412A13.118,13.118,0,1,1,17.647,59.294,13.064,13.064,0,0,1,30.765,72.412Z" transform="translate(-0.059 -0.706)"/>
  <path class="cls-3" d="M30.765,101.471A13.118,13.118,0,1,1,17.647,88.353,13.064,13.064,0,0,1,30.765,101.471Z" transform="translate(-0.059 -0.706)"/>
  <circle class="cls-2" cx="46.758" cy="41.824" r="13.118"/>
  <circle class="cls-2" cx="46.758" cy="100.882" r="13.118"/>
  <circle class="cls-2" cx="46.758" cy="129.588" r="13.118"/>
  <circle class="cls-2" cx="75.741" cy="71.471" r="13.118"/>
  <circle class="cls-3" cx="46.758" cy="71.471" r="13.118"/>
  <circle class="cls-3" cx="75.741" cy="41.294" r="13.118"/>
  <circle class="cls-3" cx="75.741" cy="129.176" r="13.118"/>
  <circle class="cls-3" cx="104.784" cy="100.765" r="13.118"/>
  <circle class="cls-3" cx="104.784" cy="129.176" r="13.118"/>
  <circle class="cls-3" cx="192.092" cy="129.176" r="13.118"/>
  <circle class="cls-3" cx="163.002" cy="100.588" r="13.118"/>
  <circle class="cls-3" cx="104.784" cy="158.471" r="13.118"/>
  <circle class="cls-2" cx="163.002" cy="71" r="13.118"/>
  <circle class="cls-2" cx="163.002" cy="129.118" r="13.118"/>
  <circle class="cls-2" cx="221.176" cy="129.118" r="13.118"/>
  <circle class="cls-2" cx="134.171" cy="100.412" r="13.118"/>
  <circle class="cls-2" cx="134.171" cy="158.294" r="13.118"/>
  <circle class="cls-2" cx="17.588" cy="158.471" r="13.118"/>
  <circle class="cls-2" cx="17.588" cy="129.588" r="13.118"/>
  <path class="cls-3" d="M8.088,81.382s5.765,4.853,0,11.088h9.088V81.206H8.206Z" transform="translate(-0.059 -0.706)"/>
  <path class="cls-3" d="M27.176,81.382s-5.765,4.853,0,11.088H12.088V81.206H27.059Z" transform="translate(-0.059 -0.706)"/>
  <g>
    <path class="cls-3" d="M50.707,58.851l5.631,5.631L68.317,52.5,62.784,46.97S62.171,57.054,50.707,58.851Z" transform="translate(-0.059 -0.706)"/>
    <path class="cls-3" d="M71.324,55.676s-9.778.752-11.575,12.217l-5.688-5.688L66.04,50.226l5.372,5.164Z" transform="translate(-0.059 -0.706)"/>
    <path class="cls-3" d="M62.676,42.412l.108,4.559.716,4.059,6.441,4.529,1.382.118,6.5-.735s-3.176-5.176-3.353-5.294S62.676,42.412,62.676,42.412Z" transform="translate(-0.059 -0.706)"/>
    <path class="cls-3" d="M50.707,58.851l-4.236.208-1.118.588,5.382,5.235,9.059,5.471-.045-2.46S57.941,61.059,57.794,61,50.707,58.851,50.707,58.851Z" transform="translate(-0.059 -0.706)"/>
  </g>
  <circle class="cls-3" cx="76.867" cy="100.432" r="13.118"/>
  <g>
    <path class="cls-3" d="M60.075,76.046l-5.631,5.631L66.423,93.656l5.533-5.533S61.872,87.51,60.075,76.046Z" transform="translate(-0.059 -0.706)"/>
    <path class="cls-3" d="M63.249,96.663S62.5,86.884,51.033,85.088L56.721,79.4,68.7,91.379l-5.164,5.372Z" transform="translate(-0.059 -0.706)"/>
    <path class="cls-3" d="M76.514,88.015l-4.559.108-4.059.716L63.367,95.28l-.118,1.382.735,6.5s5.176-3.176,5.294-3.353S76.514,88.015,76.514,88.015Z" transform="translate(-0.059 -0.706)"/>
    <path class="cls-3" d="M60.075,76.046l-.208-4.236-.588-1.118-5.235,5.382-5.471,9.059,2.46-.045s6.834-1.808,6.893-1.955S60.075,76.046,60.075,76.046Z" transform="translate(-0.059 -0.706)"/>
  </g>
  <circle class="cls-3" cx="105.799" cy="70.265" r="13.118"/>
  <g>
    <path class="cls-3" d="M101.968,84.3l-5.631-5.631L84.358,90.644l5.533,5.533S90.5,86.093,101.968,84.3Z" transform="translate(-0.059 -0.706)"/>
    <path class="cls-3" d="M81.351,87.471s9.778-.752,11.575-12.217l5.688,5.688L86.635,92.921l-5.372-5.164Z" transform="translate(-0.059 -0.706)"/>
    <path class="cls-3" d="M90,100.735l-.108-4.559-.716-4.059-6.441-4.529-1.382-.118-6.5.735S78.028,93.382,78.2,93.5,90,100.735,90,100.735Z" transform="translate(-0.059 -0.706)"/>
    <path class="cls-3" d="M101.968,84.3l4.236-.208,1.118-.588-5.382-5.235-9.059-5.471.045,2.46s1.808,6.834,1.955,6.893S101.968,84.3,101.968,84.3Z" transform="translate(-0.059 -0.706)"/>
  </g>
  <circle class="cls-3" cx="162.686" cy="100.475" r="13.118"/>
  <circle class="cls-3" cx="133.724" cy="130.584" r="13.118"/>
  <g>
    <path class="cls-3" d="M158.876,114.439l-5.631-5.631-11.979,11.979,5.533,5.533S147.411,116.236,158.876,114.439Z" transform="translate(-0.059 -0.706)"/>
    <path class="cls-3" d="M138.259,117.613s9.778-.752,11.575-12.217l5.688,5.688-11.979,11.979L138.17,117.9Z" transform="translate(-0.059 -0.706)"/>
    <path class="cls-3" d="M146.906,130.878l-.108-4.559-.716-4.059-6.441-4.529-1.382-.118-6.5.735s3.176,5.176,3.353,5.294S146.906,130.878,146.906,130.878Z" transform="translate(-0.059 -0.706)"/>
    <path class="cls-3" d="M158.876,114.439l4.236-.208,1.118-.588-5.382-5.235-9.059-5.471.045,2.46s1.808,6.834,1.955,6.893S158.876,114.439,158.876,114.439Z" transform="translate(-0.059 -0.706)"/>
  </g>
  <g>
    <path class="cls-3" d="M188.523,143.38l-5.631-5.631-11.979,11.979,5.533,5.533S177.058,145.177,188.523,143.38Z" transform="translate(-0.059 -0.706)"/>
    <path class="cls-3" d="M167.906,146.554s9.778-.752,11.575-12.217l5.688,5.688-11.979,11.979-5.372-5.164Z" transform="translate(-0.059 -0.706)"/>
    <path class="cls-3" d="M176.553,159.819l-.108-4.559-.716-4.059-6.441-4.529-1.382-.118-6.5.735s3.176,5.176,3.353,5.294S176.553,159.819,176.553,159.819Z" transform="translate(-0.059 -0.706)"/>
    <path class="cls-3" d="M188.523,143.38l4.236-.208,1.118-.588-5.382-5.235-9.059-5.471.045,2.46s1.808,6.834,1.955,6.893S188.523,143.38,188.523,143.38Z" transform="translate(-0.059 -0.706)"/>
  </g>
  <circle class="cls-3" cx="163.892" cy="159.516" r="13.118"/>
  <g>
    <path class="cls-3" d="M150.625,156.332l5.631-5.631-11.979-11.979-5.533,5.533S148.828,144.868,150.625,156.332Z" transform="translate(-0.059 -0.706)"/>
    <path class="cls-3" d="M147.451,135.715s.752,9.778,12.217,11.575l-5.688,5.688L142,141l5.164-5.372Z" transform="translate(-0.059 -0.706)"/>
    <path class="cls-3" d="M134.186,144.363l4.559-.108,4.059-.716,4.529-6.441.118-1.382-.735-6.5s-5.176,3.176-5.294,3.353S134.186,144.363,134.186,144.363Z" transform="translate(-0.059 -0.706)"/>
    <path class="cls-3" d="M150.625,156.332l.208,4.236.588,1.118,5.235-5.382,5.471-9.059-2.46.045s-6.834,1.808-6.893,1.955S150.625,156.332,150.625,156.332Z" transform="translate(-0.059 -0.706)"/>
  </g>
  <g>
    <path class="cls-3" d="M94.162,135.831v-7.964h-6.7v7.824S90.453,128.995,94.162,135.831Z" transform="translate(-0.059 -0.706)"/>
    <path class="cls-3" d="M87.508,123.5s2.945,6.383,6.654-.454v8.044h-6.7l-.058-7.451Z" transform="translate(-0.059 -0.706)"/>
    <path class="cls-3" d="M86.217,138.992l1.245-3.3.935-3.376-.535-7.757-.354-1.061-2.024-4.076s-.559,5.906-.543,6.114S86.217,138.992,86.217,138.992Z" transform="translate(-0.059 -0.706)"/>
    <path class="cls-3" d="M94.162,135.831l1.243,2.848.477.374-.041-7.508-1-10.274-.675,1.772s-1.406,6.111-1.381,6.256S94.162,135.831,94.162,135.831Z" transform="translate(-0.059 -0.706)"/>
  </g>
  <g>
    <path class="cls-3" d="M100.91,114.649l-5.631-5.631L83.3,121l5.533,5.533S89.445,116.446,100.91,114.649Z" transform="translate(-0.059 -0.706)"/>
    <path class="cls-3" d="M80.293,117.824s9.778-.752,11.575-12.217l5.688,5.688L85.576,123.274,80.2,118.11Z" transform="translate(-0.059 -0.706)"/>
    <path class="cls-3" d="M88.94,131.088l-.108-4.559-.716-4.059-6.441-4.529-1.382-.118-6.5.735s3.176,5.176,3.353,5.294S88.94,131.088,88.94,131.088Z" transform="translate(-0.059 -0.706)"/>
    <path class="cls-3" d="M100.91,114.649l4.236-.208,1.118-.588-5.382-5.235-9.059-5.471.045,2.46s1.808,6.834,1.955,6.893S100.91,114.649,100.91,114.649Z" transform="translate(-0.059 -0.706)"/>
  </g>
  <g>
    <path class="cls-3" d="M92.026,155.176l5.631-5.631L85.678,137.565,80.145,143.1S90.229,143.711,92.026,155.176Z" transform="translate(-0.059 -0.706)"/>
    <path class="cls-3" d="M88.851,134.559s.752,9.778,12.217,11.575l-5.688,5.688L83.4,139.842l5.164-5.372Z" transform="translate(-0.059 -0.706)"/>
    <path class="cls-3" d="M75.587,143.206l4.559-.108,4.059-.716,4.529-6.441.118-1.382-.735-6.5s-5.176,3.176-5.294,3.353S75.587,143.206,75.587,143.206Z" transform="translate(-0.059 -0.706)"/>
    <path class="cls-3" d="M92.026,155.176l.208,4.236.588,1.118,5.235-5.382,5.471-9.059-2.46.045s-6.834,1.808-6.893,1.955S92.026,155.176,92.026,155.176Z" transform="translate(-0.059 -0.706)"/>
  </g>
  <g>
    <g>
      <path class="cls-4" d="M59.66,181.425v9.2H53.506v-9.2Zm0,18.391V245.79H53.506V199.816Z" transform="translate(-0.059 -0.706)"/>
      <path class="cls-4" d="M59.66,247.79H53.506a2,2,0,0,1-2-2V199.816a2,2,0,0,1,2-2H59.66a2,2,0,0,1,2,2V245.79A2,2,0,0,1,59.66,247.79Zm-4.154-4H57.66V201.816H55.506Zm4.154-51.17H53.506a2,2,0,0,1-2-2v-9.2a2,2,0,0,1,2-2H59.66a2,2,0,0,1,2,2v9.2A2,2,0,0,1,59.66,192.621Zm-4.154-4H57.66v-5.2H55.506Z" transform="translate(-0.059 -0.706)"/>
    </g>
    <g>
      <path class="cls-4" d="M81.9,232q0,9.2,12.307,9.2h24.614v4.6H94.208q-18.461,0-18.461-13.793v-18.39q0-13.793,18.461-13.792h24.614v4.6H94.208q-12.308,0-12.307,9.2Z" transform="translate(-0.059 -0.706)"/>
      <path class="cls-4" d="M118.823,247.79H94.208C77.3,247.79,73.748,239.2,73.748,232v-18.39c0-7.2,3.55-15.792,20.461-15.792h24.614a2,2,0,0,1,2,2v4.6a2,2,0,0,1-2,2H94.208c-9.136,0-10.307,3.846-10.307,7.2V232c0,3.35,1.171,7.2,10.307,7.2h24.614a2,2,0,0,1,2,2v4.6A2,2,0,0,1,118.823,247.79ZM94.208,201.816c-14.754,0-16.461,6.729-16.461,11.792V232c0,5.063,1.707,11.793,16.461,11.793h22.614v-.6H94.208C82.383,243.193,79.9,237.1,79.9,232v-18.39c0-5.107,2.482-11.2,14.307-11.2h22.614v-.6Z" transform="translate(-0.059 -0.706)"/>
    </g>
    <g>
      <path class="cls-4" d="M141.064,225.1V232q0,9.2,12.307,9.2h27.691v4.6H153.371q-18.461,0-18.461-13.793v-18.39q0-13.793,18.461-13.792h12.307q18.461,0,18.46,13.792V225.1Zm0-4.6h36.921v-6.9q0-9.195-12.307-9.2H153.371q-12.308,0-12.307,9.2Z" transform="translate(-0.059 -0.706)"/>
      <path class="cls-4" d="M181.062,247.79H153.371c-16.911,0-20.461-8.588-20.461-15.793v-18.39c0-7.2,3.55-15.792,20.461-15.792h12.307c16.911,0,20.46,8.588,20.46,15.792V225.1a2,2,0,0,1-2,2H143.064V232c0,3.35,1.171,7.2,10.307,7.2h27.691a2,2,0,0,1,2,2v4.6A2,2,0,0,1,181.062,247.79Zm-27.691-45.975c-14.754,0-16.461,6.729-16.461,11.792V232c0,5.063,1.707,11.793,16.461,11.793h25.691v-.6H153.371c-11.825,0-14.307-6.088-14.307-11.2v-6.9a2,2,0,0,1,2-2h41.075v-9.494c0-5.062-1.707-11.792-16.46-11.792ZM177.985,222.5H141.064a2,2,0,0,1-2-2v-6.9c0-5.107,2.482-11.2,14.307-11.2h12.307c11.825,0,14.307,6.088,14.307,11.2v6.9A2,2,0,0,1,177.985,222.5Zm-34.921-4h32.921v-4.9c0-3.35-1.171-7.2-10.307-7.2H153.371c-9.136,0-10.307,3.846-10.307,7.2Z" transform="translate(-0.059 -0.706)"/>
    </g>
    <g>
      <path class="cls-4" d="M206.38,232q0,9.2,12.307,9.2H243.3v4.6H218.687q-18.461,0-18.461-13.793v-18.39q0-13.793,18.461-13.792H243.3v4.6H218.687q-12.308,0-12.307,9.2Z" transform="translate(-0.059 -0.706)"/>
      <path class="cls-4" d="M243.3,247.79H218.687c-16.911,0-20.461-8.588-20.461-15.793v-18.39c0-7.2,3.55-15.792,20.461-15.792H243.3a2,2,0,0,1,2,2v4.6a2,2,0,0,1-2,2H218.687c-9.136,0-10.307,3.846-10.307,7.2V232c0,3.35,1.171,7.2,10.307,7.2H243.3a2,2,0,0,1,2,2v4.6A2,2,0,0,1,243.3,247.79Zm-24.614-45.975c-14.754,0-16.461,6.729-16.461,11.792V232c0,5.063,1.707,11.793,16.461,11.793H241.3v-.6H218.687c-11.825,0-14.307-6.088-14.307-11.2v-18.39c0-5.107,2.482-11.2,14.307-11.2H241.3v-.6Z" transform="translate(-0.059 -0.706)"/>
    </g>
  </g>
  <g>
    <g>
      <path class="cls-4" d="M272.407,265.067v-4.715h18.927q18.929,0,18.93-14.142V241.5q-6.311,4.714-18.93,4.714h-6.309q-18.928,0-18.928-14.142V213.212q0-14.142,18.928-14.142h6.309q12.621,0,18.93,4.714l1.893-4.714h4.416v47.14q0,18.855-25.238,18.856Zm18.927-23.57q12.621,0,18.93-4.714V208.5q-6.311-4.714-18.93-4.714h-6.309q-12.62,0-12.619,9.428v18.856q0,9.428,12.619,9.428Z" transform="translate(-0.059 -0.706)"/>
      <path class="cls-4" d="M291.334,265.192H272.407a.125.125,0,0,1-.125-.125v-4.715a.125.125,0,0,1,.125-.125h18.927c6.253,0,11-1.181,14.122-3.511s4.683-5.855,4.683-10.506v-4.467c-4.211,3.047-10.535,4.592-18.8,4.592h-6.309c-12.643,0-19.053-4.8-19.053-14.267V213.212c0-9.467,6.411-14.267,19.053-14.267h6.309c8.314,0,14.663,1.562,18.874,4.643l1.832-4.564a.127.127,0,0,1,.116-.078h4.416a.125.125,0,0,1,.125.125v47.14C316.7,258.805,308.164,265.192,291.334,265.192Zm-18.8-.25h18.8c8.346,0,14.689-1.578,18.854-4.689s6.259-7.827,6.259-14.042V199.2h-4.206l-1.861,4.636a.125.125,0,0,1-.082.073.135.135,0,0,1-.109-.02c-4.165-3.112-10.509-4.689-18.854-4.689h-6.309c-6.252,0-11,1.181-14.121,3.511s-4.682,5.855-4.682,10.506v18.856c0,4.65,1.575,8.185,4.682,10.506s7.869,3.511,14.121,3.511h6.309c8.346,0,14.689-1.577,18.854-4.689a.126.126,0,0,1,.2.1v4.714c0,9.467-6.411,14.267-19.055,14.267h-18.8Zm18.8-23.32h-6.309c-8.456,0-12.744-3.214-12.744-9.553V213.212c0-6.339,4.288-9.553,12.744-9.553h6.309c8.4,0,14.795,1.595,19,4.738a.128.128,0,0,1,.05.1v28.284a.128.128,0,0,1-.05.1C306.129,240.027,299.735,241.621,291.334,241.621Zm-6.309-37.712c-8.29,0-12.494,3.13-12.494,9.3v18.856c0,6.173,4.2,9.3,12.494,9.3h6.309c8.313,0,14.639-1.565,18.8-4.651V208.561c-4.166-3.086-10.492-4.651-18.8-4.651Z" transform="translate(-0.059 -0.706)"/>
    </g>
    <g>
      <path class="cls-4" d="M325.961,246.21v-47.14h4.416l1.894,4.714q6.308-4.714,18.928-4.714v4.714q-12.62,0-18.928,4.714V246.21Z" transform="translate(-0.059 -0.706)"/>
      <path class="cls-4" d="M332.271,246.335h-6.31a.125.125,0,0,1-.125-.125v-47.14a.125.125,0,0,1,.125-.125h4.416a.127.127,0,0,1,.116.078l1.833,4.564c4.209-3.081,10.557-4.643,18.872-4.643a.125.125,0,0,1,.125.125v4.714a.125.125,0,0,1-.125.125c-8.312,0-14.639,1.565-18.8,4.651V246.21A.125.125,0,0,1,332.271,246.335Zm-6.185-.25h6.06V208.5a.128.128,0,0,1,.05-.1c4.188-3.128,10.537-4.723,18.878-4.738V199.2c-8.285.016-14.585,1.593-18.728,4.689a.131.131,0,0,1-.109.02.123.123,0,0,1-.082-.073l-1.862-4.636h-4.206Z" transform="translate(-0.059 -0.706)"/>
    </g>
    <g>
      <path class="cls-4" d="M407.908,232.069q0,14.142-18.929,14.142H376.361q-18.929,0-18.929-14.142V213.212q0-14.142,18.929-14.142h12.618q18.929,0,18.929,14.142Zm-44.166,0q0,9.428,12.619,9.428h12.618q12.618,0,12.619-9.428V213.212q0-9.428-12.619-9.428H376.361q-12.621,0-12.619,9.428Z" transform="translate(-0.059 -0.706)"/>
      <path class="cls-4" d="M388.979,246.335H376.361c-12.644,0-19.054-4.8-19.054-14.267V213.212c0-9.467,6.41-14.267,19.054-14.267h12.618c12.644,0,19.054,4.8,19.054,14.267v18.856C408.033,241.536,401.623,246.335,388.979,246.335ZM376.361,199.2c-6.253,0-11,1.181-14.122,3.511s-4.682,5.855-4.682,10.506v18.856c0,4.65,1.575,8.185,4.682,10.506s7.869,3.511,14.122,3.511h12.618c6.253,0,11-1.181,14.122-3.511s4.682-5.855,4.682-10.506V213.212c0-4.65-1.575-8.185-4.682-10.506s-7.869-3.511-14.122-3.511Zm12.618,42.426H376.361c-8.456,0-12.744-3.214-12.744-9.553V213.212c0-6.339,4.288-9.553,12.744-9.553h12.618c8.456,0,12.744,3.214,12.744,9.553v18.856C401.724,238.408,397.436,241.621,388.979,241.621ZM376.361,203.91c-8.29,0-12.494,3.13-12.494,9.3v18.856c0,6.173,4.2,9.3,12.494,9.3h12.618c8.29,0,12.494-3.13,12.494-9.3V213.212c0-6.173-4.2-9.3-12.494-9.3Z" transform="translate(-0.059 -0.706)"/>
    </g>
    <g>
      <path class="cls-4" d="M463.355,246.21l-1.893-4.714q-6.311,4.714-18.929,4.714h-6.309q-18.929,0-18.929-14.142v-33h6.31v33q0,9.428,12.619,9.428h6.309q12.62,0,18.929-4.714V199.071h6.31v47.14Z" transform="translate(-0.059 -0.706)"/>
      <path class="cls-4" d="M467.772,246.335h-4.417a.127.127,0,0,1-.116-.078l-1.832-4.564c-4.211,3.081-10.559,4.643-18.873,4.643h-6.309c-12.644,0-19.054-4.8-19.054-14.267v-33a.125.125,0,0,1,.125-.125h6.31a.125.125,0,0,1,.125.125v33c0,6.173,4.2,9.3,12.494,9.3h6.309c8.312,0,14.638-1.565,18.8-4.651V199.071a.125.125,0,0,1,.125-.125h6.31a.125.125,0,0,1,.125.125v47.14A.125.125,0,0,1,467.772,246.335Zm-4.332-.25h4.207V199.2h-6.06v37.587a.128.128,0,0,1-.05.1c-4.21,3.144-10.6,4.738-19,4.738h-6.309c-8.456,0-12.744-3.214-12.744-9.553V199.2h-6.06v32.873c0,4.65,1.575,8.185,4.682,10.506s7.869,3.511,14.122,3.511h6.309c8.346,0,14.688-1.577,18.854-4.689a.135.135,0,0,1,.109-.02.125.125,0,0,1,.082.073Z" transform="translate(-0.059 -0.706)"/>
    </g>
    <g>
      <path class="cls-4" d="M477.161,265.067v-66h4.416l1.894,4.714q6.308-4.714,18.928-4.714h6.31q18.929,0,18.929,14.142v18.856q0,14.142-18.929,14.142H502.4q-12.62,0-18.928-4.714v23.57ZM502.4,203.785q-12.62,0-18.928,4.714v28.284q6.308,4.714,18.928,4.714h6.31q12.618,0,12.619-9.428V213.212q0-9.428-12.619-9.428Z" transform="translate(-0.059 -0.706)"/>
      <path class="cls-4" d="M483.471,265.192h-6.31a.125.125,0,0,1-.125-.125v-66a.125.125,0,0,1,.125-.125h4.416a.127.127,0,0,1,.116.078l1.833,4.564c4.209-3.081,10.557-4.643,18.872-4.643h6.31c12.644,0,19.054,4.8,19.054,14.267v18.856c0,9.467-6.41,14.267-19.054,14.267H502.4c-8.27,0-14.594-1.545-18.8-4.592v23.323A.125.125,0,0,1,483.471,265.192Zm-6.185-.25h6.06V241.5a.126.126,0,0,1,.2-.1c4.163,3.112,10.506,4.689,18.853,4.689h6.31c6.253,0,11-1.181,14.122-3.511s4.682-5.855,4.682-10.506V213.212c0-4.65-1.575-8.185-4.682-10.506s-7.869-3.511-14.122-3.511H502.4c-8.347,0-14.689,1.577-18.853,4.689a.132.132,0,0,1-.109.02.123.123,0,0,1-.082-.073l-1.862-4.636h-4.206Zm31.422-23.32H502.4c-8.4,0-14.795-1.595-19-4.738a.128.128,0,0,1-.05-.1V208.5a.128.128,0,0,1,.05-.1c4.208-3.144,10.6-4.738,19-4.738h6.31c8.456,0,12.744,3.214,12.744,9.553v18.856C521.452,238.408,517.164,241.621,508.708,241.621Zm-25.112-4.9c4.164,3.086,10.49,4.651,18.8,4.651h6.31c8.29,0,12.494-3.13,12.494-9.3V213.212c0-6.173-4.2-9.3-12.494-9.3H502.4c-8.312,0-14.639,1.565-18.8,4.651Z" transform="translate(-0.059 -0.706)"/>
    </g>
  </g>
  <g>
    <path class="cls-5" d="M5.732,271.529a1.377,1.377,0,0,1,1,.4,1.308,1.308,0,0,1,.413.972,1.294,1.294,0,0,1-.413.96,1.374,1.374,0,0,1-1,.4,1.358,1.358,0,0,1-.985-.4,1.294,1.294,0,0,1-.413-.96,1.308,1.308,0,0,1,.413-.972A1.362,1.362,0,0,1,5.732,271.529Zm-.849,5.311H6.592v12.9H4.883Z" transform="translate(-0.059 -0.706)"/>
    <path class="cls-5" d="M10.145,276.839h1.709v2.312a7.08,7.08,0,0,1,2.271-1.985,5.713,5.713,0,0,1,2.71-.658,4.811,4.811,0,0,1,2.643.735,4.411,4.411,0,0,1,1.7,1.979,10.192,10.192,0,0,1,.549,3.876v6.639H20.02v-6.152a14.764,14.764,0,0,0-.19-2.976,3.25,3.25,0,0,0-1.14-1.926,3.512,3.512,0,0,0-2.2-.646,4.289,4.289,0,0,0-2.778,1A4.651,4.651,0,0,0,12.1,281.5a16.637,16.637,0,0,0-.244,3.509v4.729H10.145Z" transform="translate(-0.059 -0.706)"/>
    <path class="cls-5" d="M38.648,271.861v17.876H36.963V287.52a7.286,7.286,0,0,1-2.411,1.908,6.682,6.682,0,0,1-2.924.641,6.8,6.8,0,0,1-6.812-6.816,6.44,6.44,0,0,1,2.014-4.765,6.663,6.663,0,0,1,4.846-1.98,6.425,6.425,0,0,1,2.96.676,6.681,6.681,0,0,1,2.325,2.027v-7.35Zm-6.83,6.247a5.278,5.278,0,0,0-2.634.681,5.059,5.059,0,0,0-1.92,1.913,5.234,5.234,0,0,0,4.542,7.838,5.457,5.457,0,0,0,2.658-.687,4.881,4.881,0,0,0,1.933-1.859,5.183,5.183,0,0,0,.677-2.641,5.054,5.054,0,0,0-1.518-3.741A5.106,5.106,0,0,0,31.818,278.108Z" transform="translate(-0.059 -0.706)"/>
    <path class="cls-5" d="M42.3,276.839h1.709v6.022a12.478,12.478,0,0,0,.245,3.034,3.39,3.39,0,0,0,1.4,1.873,4.344,4.344,0,0,0,2.463.688,4.25,4.25,0,0,0,2.426-.67,3.437,3.437,0,0,0,1.375-1.76,12.077,12.077,0,0,0,.257-3.165v-6.022h1.746v6.33a9.75,9.75,0,0,1-.641,4.019A4.8,4.8,0,0,1,51.35,289.3a6.239,6.239,0,0,1-3.229.765,6.3,6.3,0,0,1-3.241-.765,4.762,4.762,0,0,1-1.941-2.134,10.152,10.152,0,0,1-.641-4.119Z" transform="translate(-0.059 -0.706)"/>
    <path class="cls-5" d="M64.393,278.25l-1.1,1.1a4,4,0,0,0-2.68-1.292,2.059,2.059,0,0,0-1.426.533,1.626,1.626,0,0,0-.594,1.244,1.814,1.814,0,0,0,.489,1.2,6.868,6.868,0,0,0,2.055,1.363,7.662,7.662,0,0,1,2.593,1.85,3.3,3.3,0,0,1,.673,2.027,3.587,3.587,0,0,1-1.149,2.69,3.984,3.984,0,0,1-2.873,1.1,5.142,5.142,0,0,1-2.195-.486,4.753,4.753,0,0,1-1.73-1.339l1.074-1.186a3.772,3.772,0,0,0,2.777,1.434,2.546,2.546,0,0,0,1.75-.64,1.955,1.955,0,0,0,.722-1.506,1.9,1.9,0,0,0-.477-1.268,7.674,7.674,0,0,0-2.153-1.376,6.862,6.862,0,0,1-2.447-1.777,3.285,3.285,0,0,1-.648-2,3.21,3.21,0,0,1,1.033-2.441,3.658,3.658,0,0,1,2.611-.973A5.476,5.476,0,0,1,64.393,278.25Z" transform="translate(-0.059 -0.706)"/>
    <path class="cls-5" d="M68.909,272.05h1.709v4.789h2.71v1.435h-2.71v11.463H68.909V278.274H66.578v-1.435h2.332Z" transform="translate(-0.059 -0.706)"/>
    <path class="cls-5" d="M75.245,276.839H76.99v1.885a6.029,6.029,0,0,1,1.648-1.665,3.32,3.32,0,0,1,1.807-.552,3.191,3.191,0,0,1,1.514.438l-.891,1.4a2.433,2.433,0,0,0-.9-.226,2.51,2.51,0,0,0-1.648.682,4.28,4.28,0,0,0-1.208,2.116,19.7,19.7,0,0,0-.317,4.457v4.362H75.245Z" transform="translate(-0.059 -0.706)"/>
    <path class="cls-5" d="M84,271.529a1.377,1.377,0,0,1,1,.4,1.308,1.308,0,0,1,.413.972,1.294,1.294,0,0,1-.413.96,1.374,1.374,0,0,1-1,.4,1.358,1.358,0,0,1-.985-.4,1.294,1.294,0,0,1-.413-.96,1.308,1.308,0,0,1,.413-.972A1.362,1.362,0,0,1,84,271.529Zm-.849,5.311h1.709v12.9H83.155Z" transform="translate(-0.059 -0.706)"/>
    <path class="cls-5" d="M101.648,276.839v12.9H99.964V287.52a7.286,7.286,0,0,1-2.411,1.908,6.682,6.682,0,0,1-2.924.641,6.8,6.8,0,0,1-6.812-6.816,6.44,6.44,0,0,1,2.014-4.765,6.663,6.663,0,0,1,4.846-1.98,6.425,6.425,0,0,1,2.96.676,6.681,6.681,0,0,1,2.325,2.027v-2.371Zm-6.83,1.269a5.278,5.278,0,0,0-2.634.681,5.059,5.059,0,0,0-1.92,1.913,5.234,5.234,0,0,0,4.542,7.838,5.457,5.457,0,0,0,2.658-.687,4.881,4.881,0,0,0,1.933-1.859,5.183,5.183,0,0,0,.677-2.641,5.054,5.054,0,0,0-1.518-3.741A5.106,5.106,0,0,0,94.819,278.108Z" transform="translate(-0.059 -0.706)"/>
    <path class="cls-5" d="M105.238,271.861h1.709v17.876h-1.709Z" transform="translate(-0.059 -0.706)"/>
    <path class="cls-5" d="M130.311,279.519l-1.355.817a5.738,5.738,0,0,0-4.792-2.264,5.632,5.632,0,0,0-4.029,1.516,4.876,4.876,0,0,0-1.6,3.682,5.224,5.224,0,0,0,2.762,4.583,6.023,6.023,0,0,0,2.883.687,5.9,5.9,0,0,0,4.78-2.264l1.355.865a6.351,6.351,0,0,1-2.557,2.16,8.376,8.376,0,0,1-3.656.768,7.343,7.343,0,0,1-5.225-1.944,6.236,6.236,0,0,1-2.075-4.729,6.609,6.609,0,0,1,.971-3.479,6.752,6.752,0,0,1,2.667-2.507,7.967,7.967,0,0,1,3.8-.9,8.33,8.33,0,0,1,2.545.392,7.156,7.156,0,0,1,2.081,1.02A5.6,5.6,0,0,1,130.311,279.519Z" transform="translate(-0.059 -0.706)"/>
    <path class="cls-5" d="M139.881,276.507a6.668,6.668,0,0,1,5.087,2.158,7.075,7.075,0,1,1-5.087-2.158Zm-.006,1.624a5.225,5.225,0,0,0-5.194,5.228,5.129,5.129,0,0,0,.7,2.608,4.874,4.874,0,0,0,1.887,1.867,5.508,5.508,0,0,0,5.218,0,4.878,4.878,0,0,0,1.887-1.867,5.129,5.129,0,0,0,.7-2.608,5.236,5.236,0,0,0-5.194-5.228Z" transform="translate(-0.059 -0.706)"/>
    <path class="cls-5" d="M149.952,276.839h1.709v2.229a6.539,6.539,0,0,1,1.833-1.8,5.314,5.314,0,0,1,2.726-.759,4.651,4.651,0,0,1,1.833.368,3.933,3.933,0,0,1,1.417.978,5.205,5.205,0,0,1,.954,1.749,6.186,6.186,0,0,1,2.131-2.306,5.154,5.154,0,0,1,2.752-.789,4.4,4.4,0,0,1,2.43.676,4.059,4.059,0,0,1,1.564,1.885,9.787,9.787,0,0,1,.512,3.628v7.041h-1.746V282.7a8.958,8.958,0,0,0-.3-2.852,2.583,2.583,0,0,0-1.04-1.25,3.174,3.174,0,0,0-1.758-.475,3.9,3.9,0,0,0-2.269.712,4.1,4.1,0,0,0-1.5,1.9,11.688,11.688,0,0,0-.475,3.959v5.05H159.01v-6.6a11.022,11.022,0,0,0-.3-3.171,2.668,2.668,0,0,0-1.044-1.34,3.083,3.083,0,0,0-1.77-.5,3.9,3.9,0,0,0-2.215.693,4.131,4.131,0,0,0-1.526,1.867,9.794,9.794,0,0,0-.495,3.592v5.465h-1.709Z" transform="translate(-0.059 -0.706)"/>
    <path class="cls-5" d="M173.4,276.839h1.709v2.229a6.539,6.539,0,0,1,1.833-1.8,5.314,5.314,0,0,1,2.726-.759,4.651,4.651,0,0,1,1.833.368,3.933,3.933,0,0,1,1.417.978,5.205,5.205,0,0,1,.954,1.749A6.186,6.186,0,0,1,186,277.3a5.154,5.154,0,0,1,2.752-.789,4.4,4.4,0,0,1,2.43.676,4.059,4.059,0,0,1,1.564,1.885,9.787,9.787,0,0,1,.512,3.628v7.041h-1.746V282.7a8.958,8.958,0,0,0-.3-2.852,2.583,2.583,0,0,0-1.04-1.25,3.174,3.174,0,0,0-1.758-.475,3.9,3.9,0,0,0-2.269.712,4.1,4.1,0,0,0-1.5,1.9,11.688,11.688,0,0,0-.475,3.959v5.05h-1.709v-6.6a11.022,11.022,0,0,0-.3-3.171,2.668,2.668,0,0,0-1.044-1.34,3.083,3.083,0,0,0-1.77-.5,3.9,3.9,0,0,0-2.215.693,4.131,4.131,0,0,0-1.526,1.867,9.794,9.794,0,0,0-.495,3.592v5.465H173.4Z" transform="translate(-0.059 -0.706)"/>
    <path class="cls-5" d="M208.045,285.457l1.44.735a7.638,7.638,0,0,1-1.637,2.181,6.52,6.52,0,0,1-2.089,1.263,7.491,7.491,0,0,1-2.627.433A6.437,6.437,0,0,1,198.05,288a6.864,6.864,0,0,1-1.833-4.677,6.768,6.768,0,0,1,1.552-4.374,6.415,6.415,0,0,1,5.266-2.442,6.625,6.625,0,0,1,5.424,2.5,6.846,6.846,0,0,1,1.466,4.409H197.975a5.169,5.169,0,0,0,1.479,3.685,4.785,4.785,0,0,0,3.532,1.437,5.826,5.826,0,0,0,1.974-.343,5.213,5.213,0,0,0,1.631-.909A7.765,7.765,0,0,0,208.045,285.457Zm0-3.474a5.428,5.428,0,0,0-1-2.121,4.707,4.707,0,0,0-1.729-1.28,5.427,5.427,0,0,0-2.261-.486,4.956,4.956,0,0,0-3.361,1.221,5.483,5.483,0,0,0-1.552,2.667Z" transform="translate(-0.059 -0.706)"/>
    <path class="cls-5" d="M212.464,276.839h1.746v1.885a6.029,6.029,0,0,1,1.648-1.665,3.32,3.32,0,0,1,1.807-.552,3.191,3.191,0,0,1,1.514.438l-.891,1.4a2.433,2.433,0,0,0-.9-.226,2.51,2.51,0,0,0-1.648.682,4.28,4.28,0,0,0-1.208,2.116,19.7,19.7,0,0,0-.317,4.457v4.362h-1.746Z" transform="translate(-0.059 -0.706)"/>
    <path class="cls-5" d="M233.521,279.519l-1.355.817a5.738,5.738,0,0,0-4.792-2.264,5.632,5.632,0,0,0-4.029,1.516,4.876,4.876,0,0,0-1.6,3.682,5.224,5.224,0,0,0,2.762,4.583,6.023,6.023,0,0,0,2.883.687,5.9,5.9,0,0,0,4.78-2.264l1.355.865a6.351,6.351,0,0,1-2.557,2.16,8.376,8.376,0,0,1-3.656.768,7.343,7.343,0,0,1-5.225-1.944,6.236,6.236,0,0,1-2.075-4.729,6.609,6.609,0,0,1,.971-3.479,6.752,6.752,0,0,1,2.667-2.507,7.967,7.967,0,0,1,3.8-.9,8.33,8.33,0,0,1,2.545.392,7.156,7.156,0,0,1,2.081,1.02A5.6,5.6,0,0,1,233.521,279.519Z" transform="translate(-0.059 -0.706)"/>
    <path class="cls-5" d="M237.4,271.529a1.377,1.377,0,0,1,1,.4,1.308,1.308,0,0,1,.413.972,1.294,1.294,0,0,1-.413.96,1.374,1.374,0,0,1-1,.4,1.358,1.358,0,0,1-.985-.4,1.294,1.294,0,0,1-.413-.96,1.308,1.308,0,0,1,.413-.972A1.362,1.362,0,0,1,237.4,271.529Zm-.849,5.311h1.709v12.9h-1.709Z" transform="translate(-0.059 -0.706)"/>
    <path class="cls-5" d="M255.042,276.839v12.9h-1.685V287.52a7.286,7.286,0,0,1-2.411,1.908,6.682,6.682,0,0,1-2.924.641,6.8,6.8,0,0,1-6.812-6.816,6.44,6.44,0,0,1,2.014-4.765,6.663,6.663,0,0,1,4.846-1.98,6.425,6.425,0,0,1,2.96.676,6.681,6.681,0,0,1,2.325,2.027v-2.371Zm-6.83,1.269a5.278,5.278,0,0,0-2.634.681,5.059,5.059,0,0,0-1.92,1.913,5.234,5.234,0,0,0,4.542,7.838,5.457,5.457,0,0,0,2.658-.687,4.881,4.881,0,0,0,1.933-1.859,5.183,5.183,0,0,0,.677-2.641,5.054,5.054,0,0,0-1.518-3.741A5.106,5.106,0,0,0,248.213,278.108Z" transform="translate(-0.059 -0.706)"/>
    <path class="cls-5" d="M258.631,271.861h1.709v17.876h-1.709Z" transform="translate(-0.059 -0.706)"/>
    <path class="cls-5" d="M16.321,314.59l1.44.735a7.638,7.638,0,0,1-1.637,2.181,6.52,6.52,0,0,1-2.089,1.263,7.491,7.491,0,0,1-2.627.433,6.437,6.437,0,0,1-5.083-2.068,6.864,6.864,0,0,1-1.833-4.677,6.768,6.768,0,0,1,1.552-4.374,6.415,6.415,0,0,1,5.266-2.442,6.625,6.625,0,0,1,5.424,2.5,6.846,6.846,0,0,1,1.466,4.409H6.25a5.169,5.169,0,0,0,1.479,3.685,4.785,4.785,0,0,0,3.532,1.437,5.826,5.826,0,0,0,1.974-.343,5.213,5.213,0,0,0,1.631-.909A7.765,7.765,0,0,0,16.321,314.59Zm0-3.474a5.428,5.428,0,0,0-1-2.121,4.707,4.707,0,0,0-1.729-1.28,5.427,5.427,0,0,0-2.261-.486,4.956,4.956,0,0,0-3.361,1.221,5.483,5.483,0,0,0-1.552,2.667Z" transform="translate(-0.059 -0.706)"/>
    <path class="cls-5" d="M21.131,300.994H22.84V318.87H21.131Z" transform="translate(-0.059 -0.706)"/>
    <path class="cls-5" d="M37.574,314.59l1.44.735a7.638,7.638,0,0,1-1.637,2.181,6.52,6.52,0,0,1-2.089,1.263,7.491,7.491,0,0,1-2.627.433,6.437,6.437,0,0,1-5.083-2.068,6.864,6.864,0,0,1-1.833-4.677,6.768,6.768,0,0,1,1.552-4.374,6.415,6.415,0,0,1,5.266-2.442,6.625,6.625,0,0,1,5.424,2.5,6.846,6.846,0,0,1,1.466,4.409H27.5a5.169,5.169,0,0,0,1.479,3.685,4.785,4.785,0,0,0,3.532,1.437,5.826,5.826,0,0,0,1.974-.343,5.213,5.213,0,0,0,1.631-.909A7.765,7.765,0,0,0,37.574,314.59Zm0-3.474a5.428,5.428,0,0,0-1-2.121,4.707,4.707,0,0,0-1.729-1.28,5.427,5.427,0,0,0-2.261-.486,4.956,4.956,0,0,0-3.361,1.221,5.483,5.483,0,0,0-1.552,2.667Z" transform="translate(-0.059 -0.706)"/>
    <path class="cls-5" d="M55.53,308.652l-1.355.817a5.738,5.738,0,0,0-4.792-2.264,5.632,5.632,0,0,0-4.029,1.516,4.876,4.876,0,0,0-1.6,3.682,5.224,5.224,0,0,0,2.762,4.583,6.023,6.023,0,0,0,2.883.687,5.9,5.9,0,0,0,4.78-2.264l1.355.865a6.351,6.351,0,0,1-2.557,2.16,8.376,8.376,0,0,1-3.656.768,7.343,7.343,0,0,1-5.225-1.944,6.236,6.236,0,0,1-2.075-4.729,6.609,6.609,0,0,1,.971-3.479,6.752,6.752,0,0,1,2.667-2.507,7.967,7.967,0,0,1,3.8-.9,8.33,8.33,0,0,1,2.545.392,7.156,7.156,0,0,1,2.081,1.02A5.6,5.6,0,0,1,55.53,308.652Z" transform="translate(-0.059 -0.706)"/>
    <path class="cls-5" d="M60.3,301.183h1.709v4.789h2.71v1.435h-2.71V318.87H60.3V307.407H57.972v-1.435H60.3Z" transform="translate(-0.059 -0.706)"/>
    <path class="cls-5" d="M66.639,305.972h1.746v1.885a6.029,6.029,0,0,1,1.648-1.665,3.32,3.32,0,0,1,1.807-.552,3.191,3.191,0,0,1,1.514.438l-.891,1.4a2.433,2.433,0,0,0-.9-.226,2.51,2.51,0,0,0-1.648.682A4.28,4.28,0,0,0,68.7,310.05a19.7,19.7,0,0,0-.317,4.457v4.362H66.639Z" transform="translate(-0.059 -0.706)"/>
    <path class="cls-5" d="M75.4,300.662a1.377,1.377,0,0,1,1,.4,1.308,1.308,0,0,1,.413.972,1.294,1.294,0,0,1-.413.96,1.374,1.374,0,0,1-1,.4,1.358,1.358,0,0,1-.985-.4,1.294,1.294,0,0,1-.413-.96,1.308,1.308,0,0,1,.413-.972A1.362,1.362,0,0,1,75.4,300.662Zm-.849,5.311h1.709v12.9H74.549Z" transform="translate(-0.059 -0.706)"/>
    <path class="cls-5" d="M92.7,308.652l-1.355.817a5.738,5.738,0,0,0-4.792-2.264,5.632,5.632,0,0,0-4.029,1.516,4.876,4.876,0,0,0-1.6,3.682,5.224,5.224,0,0,0,2.762,4.583,6.023,6.023,0,0,0,2.883.687,5.9,5.9,0,0,0,4.78-2.264l1.355.865a6.351,6.351,0,0,1-2.557,2.16,8.376,8.376,0,0,1-3.656.768,7.343,7.343,0,0,1-5.225-1.944,6.236,6.236,0,0,1-2.075-4.729,6.609,6.609,0,0,1,.971-3.479,6.752,6.752,0,0,1,2.667-2.507,7.967,7.967,0,0,1,3.8-.9,8.33,8.33,0,0,1,2.545.392,7.156,7.156,0,0,1,2.081,1.02A5.6,5.6,0,0,1,92.7,308.652Z" transform="translate(-0.059 -0.706)"/>
    <path class="cls-5" d="M109.217,305.972v12.9h-1.685v-2.217a7.286,7.286,0,0,1-2.411,1.908,6.682,6.682,0,0,1-2.924.641,6.8,6.8,0,0,1-6.812-6.816,6.44,6.44,0,0,1,2.014-4.765,6.663,6.663,0,0,1,4.846-1.98,6.425,6.425,0,0,1,2.96.676,6.681,6.681,0,0,1,2.325,2.027v-2.371Zm-6.83,1.269a5.278,5.278,0,0,0-2.634.681,5.059,5.059,0,0,0-1.92,1.913,5.234,5.234,0,0,0,4.542,7.838,5.457,5.457,0,0,0,2.658-.687,4.881,4.881,0,0,0,1.933-1.859,5.183,5.183,0,0,0,.677-2.641,5.054,5.054,0,0,0-1.518-3.741A5.106,5.106,0,0,0,102.387,307.241Z" transform="translate(-0.059 -0.706)"/>
    <path class="cls-5" d="M112.806,300.994h1.709V318.87h-1.709Z" transform="translate(-0.059 -0.706)"/>
    <path class="cls-5" d="M137.879,308.652l-1.355.817a5.738,5.738,0,0,0-4.792-2.264,5.632,5.632,0,0,0-4.029,1.516,4.876,4.876,0,0,0-1.6,3.682,5.224,5.224,0,0,0,2.762,4.583,6.023,6.023,0,0,0,2.883.687,5.9,5.9,0,0,0,4.78-2.264l1.355.865a6.351,6.351,0,0,1-2.557,2.16,8.376,8.376,0,0,1-3.656.768,7.343,7.343,0,0,1-5.225-1.944,6.236,6.236,0,0,1-2.075-4.729,6.609,6.609,0,0,1,.971-3.479A6.752,6.752,0,0,1,128,306.541a7.967,7.967,0,0,1,3.8-.9,8.33,8.33,0,0,1,2.545.392,7.156,7.156,0,0,1,2.081,1.02A5.6,5.6,0,0,1,137.879,308.652Z" transform="translate(-0.059 -0.706)"/>
    <path class="cls-5" d="M147.45,305.64a6.668,6.668,0,0,1,5.087,2.158,7.075,7.075,0,1,1-5.087-2.158Zm-.006,1.624a5.225,5.225,0,0,0-5.194,5.228,5.129,5.129,0,0,0,.7,2.608,4.874,4.874,0,0,0,1.887,1.867,5.508,5.508,0,0,0,5.218,0,4.878,4.878,0,0,0,1.887-1.867,5.129,5.129,0,0,0,.7-2.608,5.236,5.236,0,0,0-5.194-5.228Z" transform="translate(-0.059 -0.706)"/>
    <path class="cls-5" d="M157.521,305.972h1.709V308.2a6.539,6.539,0,0,1,1.833-1.8,5.314,5.314,0,0,1,2.726-.759,4.651,4.651,0,0,1,1.833.368,3.933,3.933,0,0,1,1.417.978,5.205,5.205,0,0,1,.954,1.749,6.186,6.186,0,0,1,2.131-2.306,5.154,5.154,0,0,1,2.752-.789,4.4,4.4,0,0,1,2.43.676,4.059,4.059,0,0,1,1.564,1.885,9.787,9.787,0,0,1,.512,3.628v7.041h-1.746v-7.041a8.958,8.958,0,0,0-.3-2.852,2.583,2.583,0,0,0-1.04-1.25,3.174,3.174,0,0,0-1.758-.475,3.9,3.9,0,0,0-2.269.712,4.1,4.1,0,0,0-1.5,1.9,11.688,11.688,0,0,0-.475,3.959v5.05h-1.709v-6.6a11.022,11.022,0,0,0-.3-3.171,2.668,2.668,0,0,0-1.044-1.34,3.083,3.083,0,0,0-1.77-.5,3.9,3.9,0,0,0-2.215.693,4.131,4.131,0,0,0-1.526,1.867,9.794,9.794,0,0,0-.495,3.592v5.465h-1.709Z" transform="translate(-0.059 -0.706)"/>
    <path class="cls-5" d="M180.97,305.972h1.709V308.2a6.539,6.539,0,0,1,1.833-1.8,5.314,5.314,0,0,1,2.726-.759,4.651,4.651,0,0,1,1.833.368,3.933,3.933,0,0,1,1.417.978,5.205,5.205,0,0,1,.954,1.749,6.186,6.186,0,0,1,2.131-2.306,5.154,5.154,0,0,1,2.752-.789,4.4,4.4,0,0,1,2.43.676,4.059,4.059,0,0,1,1.564,1.885,9.787,9.787,0,0,1,.512,3.628v7.041h-1.746v-7.041a8.958,8.958,0,0,0-.3-2.852,2.583,2.583,0,0,0-1.04-1.25,3.174,3.174,0,0,0-1.758-.475,3.9,3.9,0,0,0-2.269.712,4.1,4.1,0,0,0-1.5,1.9,11.688,11.688,0,0,0-.475,3.959v5.05h-1.709v-6.6a11.022,11.022,0,0,0-.3-3.171,2.668,2.668,0,0,0-1.044-1.34,3.083,3.083,0,0,0-1.77-.5,3.9,3.9,0,0,0-2.215.693,4.131,4.131,0,0,0-1.526,1.867,9.794,9.794,0,0,0-.495,3.592v5.465H180.97Z" transform="translate(-0.059 -0.706)"/>
    <path class="cls-5" d="M204.212,305.972h1.709v6.022a12.478,12.478,0,0,0,.245,3.034,3.39,3.39,0,0,0,1.4,1.873,4.344,4.344,0,0,0,2.463.688,4.25,4.25,0,0,0,2.426-.67,3.437,3.437,0,0,0,1.375-1.76,12.077,12.077,0,0,0,.257-3.165v-6.022h1.746v6.33a9.75,9.75,0,0,1-.641,4.019,4.8,4.8,0,0,1-1.929,2.116,6.239,6.239,0,0,1-3.229.765,6.3,6.3,0,0,1-3.241-.765,4.762,4.762,0,0,1-1.941-2.134,10.152,10.152,0,0,1-.641-4.119Z" transform="translate(-0.059 -0.706)"/>
    <path class="cls-5" d="M219.63,305.972h1.709v2.312a7.08,7.08,0,0,1,2.271-1.985,5.713,5.713,0,0,1,2.71-.658,4.811,4.811,0,0,1,2.643.735,4.411,4.411,0,0,1,1.7,1.979,10.192,10.192,0,0,1,.549,3.876v6.639h-1.709v-6.152a14.764,14.764,0,0,0-.19-2.976,3.25,3.25,0,0,0-1.14-1.926,3.512,3.512,0,0,0-2.2-.646,4.289,4.289,0,0,0-2.778,1,4.651,4.651,0,0,0-1.618,2.466,16.637,16.637,0,0,0-.244,3.509v4.729H219.63Z" transform="translate(-0.059 -0.706)"/>
    <path class="cls-5" d="M235.469,300.662a1.377,1.377,0,0,1,1,.4,1.308,1.308,0,0,1,.413.972,1.294,1.294,0,0,1-.413.96,1.374,1.374,0,0,1-1,.4,1.358,1.358,0,0,1-.985-.4,1.294,1.294,0,0,1-.413-.96,1.308,1.308,0,0,1,.413-.972A1.362,1.362,0,0,1,235.469,300.662Zm-.849,5.311h1.709v12.9H234.62Z" transform="translate(-0.059 -0.706)"/>
    <path class="cls-5" d="M252.772,308.652l-1.355.817a5.738,5.738,0,0,0-4.792-2.264,5.632,5.632,0,0,0-4.029,1.516,4.876,4.876,0,0,0-1.6,3.682,5.224,5.224,0,0,0,2.762,4.583,6.023,6.023,0,0,0,2.883.687,5.9,5.9,0,0,0,4.78-2.264l1.355.865a6.351,6.351,0,0,1-2.557,2.16,8.376,8.376,0,0,1-3.656.768,7.343,7.343,0,0,1-5.225-1.944,6.236,6.236,0,0,1-2.075-4.729,6.609,6.609,0,0,1,.971-3.479,6.752,6.752,0,0,1,2.667-2.507,7.967,7.967,0,0,1,3.8-.9,8.33,8.33,0,0,1,2.545.392,7.156,7.156,0,0,1,2.081,1.02A5.6,5.6,0,0,1,252.772,308.652Z" transform="translate(-0.059 -0.706)"/>
    <path class="cls-5" d="M269.288,305.972v12.9H267.6v-2.217a7.286,7.286,0,0,1-2.411,1.908,6.682,6.682,0,0,1-2.924.641,6.8,6.8,0,0,1-6.812-6.816,6.44,6.44,0,0,1,2.014-4.765,6.663,6.663,0,0,1,4.846-1.98,6.425,6.425,0,0,1,2.96.676,6.681,6.681,0,0,1,2.325,2.027v-2.371Zm-6.83,1.269a5.278,5.278,0,0,0-2.634.681,5.059,5.059,0,0,0-1.92,1.913,5.234,5.234,0,0,0,4.542,7.838,5.457,5.457,0,0,0,2.658-.687,4.881,4.881,0,0,0,1.933-1.859,5.183,5.183,0,0,0,.677-2.641,5.054,5.054,0,0,0-1.518-3.741A5.106,5.106,0,0,0,262.458,307.241Z" transform="translate(-0.059 -0.706)"/>
    <path class="cls-5" d="M274.623,301.183h1.709v4.789h2.71v1.435h-2.71V318.87h-1.709V307.407h-2.331v-1.435h2.331Z" transform="translate(-0.059 -0.706)"/>
    <path class="cls-5" d="M282.2,300.662a1.376,1.376,0,0,1,1,.4,1.308,1.308,0,0,1,.413.972,1.294,1.294,0,0,1-.413.96,1.372,1.372,0,0,1-1,.4,1.358,1.358,0,0,1-.984-.4,1.294,1.294,0,0,1-.413-.96,1.308,1.308,0,0,1,.413-.972A1.362,1.362,0,0,1,282.2,300.662Zm-.848,5.311h1.709v12.9H281.35Z" transform="translate(-0.059 -0.706)"/>
    <path class="cls-5" d="M292.9,305.64a6.669,6.669,0,0,1,5.087,2.158,7.076,7.076,0,1,1-5.087-2.158Zm-.007,1.624a5.223,5.223,0,0,0-5.193,5.228,5.124,5.124,0,0,0,.7,2.608,4.872,4.872,0,0,0,1.886,1.867,5.509,5.509,0,0,0,5.219,0,4.881,4.881,0,0,0,1.887-1.867,5.124,5.124,0,0,0,.7-2.608,5.235,5.235,0,0,0-5.194-5.228Z" transform="translate(-0.059 -0.706)"/>
    <path class="cls-5" d="M302.979,305.972h1.709v2.312a7.08,7.08,0,0,1,2.271-1.985,5.713,5.713,0,0,1,2.71-.658,4.807,4.807,0,0,1,2.643.735,4.409,4.409,0,0,1,1.7,1.979,10.19,10.19,0,0,1,.55,3.876v6.639h-1.709v-6.152a14.714,14.714,0,0,0-.19-2.976,3.25,3.25,0,0,0-1.14-1.926,3.512,3.512,0,0,0-2.2-.646,4.291,4.291,0,0,0-2.778,1,4.655,4.655,0,0,0-1.617,2.466,16.637,16.637,0,0,0-.244,3.509v4.729h-1.709Z" transform="translate(-0.059 -0.706)"/>
    <path class="cls-5" d="M324.9,307.383l-1.1,1.1a4,4,0,0,0-2.681-1.292,2.06,2.06,0,0,0-1.426.533,1.628,1.628,0,0,0-.594,1.244,1.814,1.814,0,0,0,.489,1.2,6.877,6.877,0,0,0,2.055,1.363,7.665,7.665,0,0,1,2.594,1.85,3.306,3.306,0,0,1,.673,2.027,3.585,3.585,0,0,1-1.149,2.69,3.985,3.985,0,0,1-2.873,1.1,5.138,5.138,0,0,1-2.194-.486,4.743,4.743,0,0,1-1.729-1.339l1.074-1.186a3.769,3.769,0,0,0,2.777,1.434,2.544,2.544,0,0,0,1.749-.64,1.955,1.955,0,0,0,.723-1.506,1.893,1.893,0,0,0-.478-1.268,7.687,7.687,0,0,0-2.153-1.376,6.864,6.864,0,0,1-2.446-1.777,3.282,3.282,0,0,1-.648-2,3.211,3.211,0,0,1,1.033-2.441,3.656,3.656,0,0,1,2.61-.973A5.478,5.478,0,0,1,324.9,307.383Z" transform="translate(-0.059 -0.706)"/>
    <path class="cls-5" d="M346.3,305.972h1.709v10.277a11.815,11.815,0,0,1-.488,3.972,5.2,5.2,0,0,1-2.331,2.738,7.851,7.851,0,0,1-3.992.96,9.368,9.368,0,0,1-3.07-.47,6.179,6.179,0,0,1-2.215-1.26,7.486,7.486,0,0,1-1.575-2.312H336.2a4.836,4.836,0,0,0,1.955,1.9,6.446,6.446,0,0,0,2.971.616,6.294,6.294,0,0,0,2.951-.632,3.943,3.943,0,0,0,1.717-1.589,6.9,6.9,0,0,0,.514-3.09v-.664a6.44,6.44,0,0,1-2.358,1.82,7.19,7.19,0,0,1-6.4-.249,6.331,6.331,0,0,1-3.372-5.66,6.439,6.439,0,0,1,.916-3.337,6.637,6.637,0,0,1,2.536-2.448,6.921,6.921,0,0,1,3.415-.9,6.529,6.529,0,0,1,2.78.6,7.647,7.647,0,0,1,2.486,1.974Zm-5.041,1.269a5.533,5.533,0,0,0-2.7.682,5.094,5.094,0,0,0-2.661,4.486,4.627,4.627,0,0,0,1.465,3.51,5.9,5.9,0,0,0,7.587.012,4.781,4.781,0,0,0,1.435-3.616,5.116,5.116,0,0,0-.659-2.6,4.736,4.736,0,0,0-1.868-1.808A5.316,5.316,0,0,0,341.262,307.241Z" transform="translate(-0.059 -0.706)"/>
    <path class="cls-5" d="M351.027,305.972h1.745v1.885a6.03,6.03,0,0,1,1.648-1.665,3.319,3.319,0,0,1,1.807-.552,3.191,3.191,0,0,1,1.514.438l-.892,1.4a2.433,2.433,0,0,0-.9-.226,2.508,2.508,0,0,0-1.647.682,4.281,4.281,0,0,0-1.209,2.116,19.7,19.7,0,0,0-.317,4.457v4.362h-1.745Z" transform="translate(-0.059 -0.706)"/>
    <path class="cls-5" d="M365.48,305.64a6.669,6.669,0,0,1,5.087,2.158,7.076,7.076,0,1,1-5.087-2.158Zm-.007,1.624a5.223,5.223,0,0,0-5.193,5.228,5.124,5.124,0,0,0,.7,2.608,4.872,4.872,0,0,0,1.886,1.867,5.509,5.509,0,0,0,5.219,0,4.881,4.881,0,0,0,1.887-1.867,5.124,5.124,0,0,0,.7-2.608,5.235,5.235,0,0,0-5.194-5.228Z" transform="translate(-0.059 -0.706)"/>
    <path class="cls-5" d="M375.343,305.972h1.709v6.022a12.486,12.486,0,0,0,.244,3.034,3.4,3.4,0,0,0,1.4,1.873,4.344,4.344,0,0,0,2.463.688,4.25,4.25,0,0,0,2.427-.67,3.443,3.443,0,0,0,1.376-1.76,12.1,12.1,0,0,0,.257-3.165v-6.022h1.745v6.33a9.758,9.758,0,0,1-.641,4.019,4.8,4.8,0,0,1-1.929,2.116,6.238,6.238,0,0,1-3.229.765,6.3,6.3,0,0,1-3.241-.765,4.763,4.763,0,0,1-1.941-2.134,10.161,10.161,0,0,1-.641-4.119Z" transform="translate(-0.059 -0.706)"/>
    <path class="cls-5" d="M390.785,305.972h1.709v2.371a6.8,6.8,0,0,1,2.329-2.027,6.346,6.346,0,0,1,2.939-.676,6.653,6.653,0,0,1,4.841,1.98,6.442,6.442,0,0,1,2.013,4.765,6.831,6.831,0,0,1-9.72,6.176,7.3,7.3,0,0,1-2.4-1.908v6.935h-1.709Zm6.836,1.269a5.159,5.159,0,0,0-5.249,5.245,5.192,5.192,0,0,0,.676,2.641,4.869,4.869,0,0,0,1.937,1.859,5.482,5.482,0,0,0,2.661.687,5.208,5.208,0,0,0,4.524-7.838,5.06,5.06,0,0,0-1.918-1.913A5.267,5.267,0,0,0,397.621,307.241Z" transform="translate(-0.059 -0.706)"/>
  </g>
</svg>
